<?xml version="1.0" encoding="UTF-8"?>
<svg version="1.1" xmlns="http://www.w3.org/2000/svg" width="512" height="512">
<path d="M0 0 C1.16781006 0.00523682 2.33562012 0.01047363 3.53881836 0.01586914 C4.79887695 0.0190918 6.05893555 0.02231445 7.35717773 0.02563477 C8.6976732 0.03399136 10.03816799 0.04245632 11.37866211 0.05102539 C12.72306153 0.05603879 14.06746271 0.06060197 15.41186523 0.06469727 C18.71334151 0.07653051 22.01473014 0.09301568 25.31616211 0.11352539 C26.73532688 4.61918649 25.37277532 8.10251845 24.06616211 12.48852539 C11.36048388 58.45435469 18.43889321 108.40241901 41.48339844 149.93823242 C46.19152872 158.12205853 51.34234513 165.79306832 57.31616211 173.11352539 C57.73865234 173.6360791 58.16114258 174.15863281 58.59643555 174.69702148 C89.69959384 213.01365879 134.03348703 237.1545497 183.21850586 242.73852539 C232.89523719 247.08195454 281.61756575 233.44169729 320.35571289 201.77172852 C324.09292309 198.61069095 327.69371803 195.30145573 331.20825195 191.89501953 C335.20312128 188.04400793 338.07171765 185.83711214 343.69116211 185.73852539 C349.1740144 185.86477528 352.18445102 188.12882886 356.12866211 191.80102539 C357.96593106 195.37886493 358.61465278 199.10336812 358.31616211 203.11352539 C351.30702295 220.70646468 327.86873 233.66248879 312.31616211 243.11352539 C310.76348633 244.09192383 310.76348633 244.09192383 309.17944336 245.09008789 C262.62969366 273.27823547 203.87062405 279.64911287 151.43530273 267.29125977 C116.2366874 258.42131095 84.49152132 241.48936489 58.03491211 216.64477539 C55.73703248 214.50537022 53.39957404 212.45333549 51.00366211 210.42602539 C47.03361221 206.9593356 43.6648912 203.17707935 40.31616211 199.11352539 C39.67420898 198.34806396 39.67420898 198.34806396 39.01928711 197.56713867 C7.25121519 159.59163786 -11.62384348 111.88976731 -11.20532227 62.1340332 C-11.18383672 59.11336085 -11.20530504 56.09506537 -11.23071289 53.07446289 C-11.25640403 35.43606957 -9.05620692 17.97435017 -3.68383789 1.11352539 C-2.68383789 0.11352539 -2.68383789 0.11352539 0 0 Z " fill="#FFFFFF" transform="translate(82.683837890625,196.886474609375)"/>
<path d="M0 0 C1.20970459 0.00523682 2.41940918 0.01047363 3.66577148 0.01586914 C4.97094727 0.0190918 6.27612305 0.02231445 7.62084961 0.02563477 C9.00952213 0.03399138 10.39819401 0.04245634 11.78686523 0.05102539 C13.17944179 0.05603873 14.57202005 0.06060193 15.96459961 0.06469727 C19.38456394 0.07653105 22.80444367 0.09301659 26.22436523 0.11352539 C27.59063116 4.21232318 26.32944522 5.6931471 24.59936523 9.61352539 C22.03310936 15.67058305 20.06559985 21.74745593 18.41186523 28.11352539 C18.2054541 28.90178711 17.99904297 29.69004883 17.78637695 30.50219727 C12.67742695 50.69777796 13.46212226 74.12891873 19.22436523 94.11352539 C19.43335449 94.8428125 19.64234375 95.57209961 19.85766602 96.32348633 C29.34895806 128.1886331 51.36177172 154.79820701 80.22436523 171.11352539 C108.72776184 186.42370527 144.34232424 191.78098092 175.82788086 182.84985352 C198.28586089 175.94956136 216.87571734 165.32633573 233.94702148 149.08227539 C237.68722247 145.84889409 241.20022759 145.77442952 245.93920898 145.82836914 C250.30351689 146.37297508 252.93251774 148.91077082 256.03686523 151.80102539 C257.87413419 155.37886493 258.52285591 159.10336812 258.22436523 163.11352539 C250.10059354 182.92005446 222.21114028 196.62222885 203.60205078 204.44970703 C194.64120526 208.07856376 185.6912247 211.089104 176.22436523 213.11352539 C175.56307617 213.26160645 174.90178711 213.4096875 174.22045898 213.56225586 C133.66049496 222.36604244 90.93168182 213.31377654 56.22436523 191.11352539 C20.33459713 166.8446401 -3.85664575 130.8448389 -12.81469727 88.41430664 C-17.89183678 61.38204502 -17.46956661 25.95279621 -3.77563477 1.11352539 C-2.77563477 0.11352539 -2.77563477 0.11352539 0 0 Z " fill="#FFFFFF" transform="translate(142.775634765625,196.886474609375)"/>
<path d="M0 0 C0.64746388 -0.0055344 1.29492776 -0.01106879 1.96201175 -0.0167709 C4.13057815 -0.0303779 6.29799351 -0.01540847 8.46653748 -0.00050354 C10.02249134 -0.00428729 11.57844184 -0.0097878 13.13438416 -0.01687622 C17.36476965 -0.03085828 21.59474952 -0.01963415 25.82511258 -0.00316501 C30.26719038 0.01070391 34.70924502 0.00422191 39.15133667 0.0007019 C46.62740073 -0.00200299 54.10330455 0.01148484 61.57933044 0.03465271 C70.17806471 0.06111837 78.7765286 0.06305727 87.3752895 0.05126435 C95.67903961 0.04040555 103.98269352 0.04674598 112.28643608 0.06081963 C115.80148069 0.06652449 119.31645361 0.06654031 122.8314991 0.06175423 C158.07959584 0.02599637 158.07959584 0.02599637 173.53465271 3.50120544 C174.60057648 3.73807068 175.66650024 3.97493591 176.76472473 4.21897888 C179.23887958 4.7991203 181.66226158 5.46240292 184.09715271 6.18870544 C185.39701111 6.57107361 185.39701111 6.57107361 186.72312927 6.96116638 C210.67151108 14.27945611 237.86896923 28.32168096 253.53465271 48.50120544 C255.93327309 53.38439025 255.96240528 57.30272174 254.53465271 62.50120544 C252.37234448 66.30944979 249.5877267 68.83936991 245.53465271 70.50120544 C241.16828596 71.18394643 237.58322037 71.0143343 233.59715271 69.06370544 C231.85687966 67.6075586 230.1338291 66.12846985 228.47215271 64.58323669 C214.61477756 51.70590617 198.41183715 42.32290039 180.53465271 36.18870544 C179.87231628 35.95828552 179.20997986 35.7278656 178.52757263 35.49046326 C165.09742449 31.1450869 151.63722242 30.00170071 137.64012146 29.81761169 C135.81477268 29.78437342 133.98943009 29.75079405 132.16409302 29.71691895 C103.51285908 29.23744495 74.8474386 29.38894243 46.19323242 29.42917597 C37.91920911 29.44060062 29.64518468 29.44591368 21.37115538 29.45088184 C4.42564525 29.46118522 -12.51984894 29.47863913 -29.46534729 29.50120544 C-28.71090971 24.61789009 -26.72598746 22.14524031 -23.34034729 18.68870544 C-22.33570504 17.63081016 -21.33179915 16.5722151 -20.32862854 15.51292419 C-19.83830139 15.00036072 -19.34797424 14.48779724 -18.8427887 13.95970154 C-16.47638955 11.4540531 -14.24335341 8.83565759 -12.00050354 6.21995544 C-11.49390198 5.65276794 -10.98730042 5.08558044 -10.46534729 4.50120544 C-9.90703248 3.81609359 -9.34871767 3.13098173 -8.77348423 2.42510891 C-5.71658378 -0.12291208 -3.94979017 0.00071328 0 0 Z " fill="#FFFFFF" transform="translate(145.46534729003906,98.49879455566406)"/>
<path d="M0 0 C25.65275495 -0.07024262 51.30549537 -0.1230627 76.95832729 -0.15543652 C88.87076988 -0.17087124 100.78315253 -0.19189554 112.69555664 -0.22631836 C123.08468403 -0.25632498 133.47376799 -0.27559964 143.86293751 -0.28226548 C149.35821321 -0.28615873 154.8533647 -0.29523689 160.34860039 -0.31719017 C165.53354002 -0.33773367 170.71830569 -0.34379813 175.90328217 -0.33932304 C177.79413108 -0.34014033 179.68498654 -0.34599856 181.57579994 -0.35761642 C210.80740588 -0.52823486 236.28176092 6.83466253 258.1328125 26.96484375 C262.0532341 30.97256218 264.00765082 34.21600626 264.203125 39.89453125 C263.75119575 44.57895173 261.85657786 47.22699071 258.4375 50.3125 C253.95500537 53.41576551 250.36985081 53.63120904 245 53 C241.92282718 51.42867771 239.56830906 49.49494353 236.97265625 47.234375 C231.99857235 43.02999127 226.96469578 39.65165757 221.1875 36.6875 C220.57277832 36.36233398 219.95805664 36.03716797 219.32470703 35.70214844 C206.49227422 29.37301512 193.10416924 29.55532356 179.1550293 29.56762695 C177.07431461 29.55859596 174.99360522 29.54826549 172.91290283 29.53674316 C167.300201 29.50930417 161.68760048 29.49990651 156.07484031 29.49388909 C150.195834 29.48447118 144.31690236 29.45826512 138.4379425 29.43388367 C127.32131821 29.39030875 116.20470847 29.36170651 105.08802491 29.33856028 C92.42528511 29.31146023 79.76262075 29.26755174 67.09993494 29.22227156 C41.06666427 29.12955433 15.03336994 29.05781454 -11 29 C-12 27 -12 27 -11.44262695 25.0480957 C-11.12769287 24.26523193 -10.81275879 23.48236816 -10.48828125 22.67578125 C-10.14216797 21.81146484 -9.79605469 20.94714844 -9.43945312 20.05664062 C-9.06755859 19.15107422 -8.69566406 18.24550781 -8.3125 17.3125 C-7.95994141 16.42626953 -7.60738281 15.54003906 -7.24414062 14.62695312 C-5.16119571 9.4824219 -2.77021021 4.80367571 0 0 Z " fill="#FFFFFF" transform="translate(95,158)"/>
<path d="M0 0 C0.85857101 0.00848969 1.71714203 0.01697937 2.60173035 0.02572632 C5.33344106 0.05920953 8.06215655 0.1344738 10.79296875 0.2109375 C12.64904579 0.24104392 14.50516928 0.26841855 16.36132812 0.29296875 C20.90218882 0.35898355 25.44082171 0.46246569 29.98046875 0.5859375 C28.28927628 4.24041907 26.39086008 6.16893162 23.29296875 8.7734375 C11.11501692 19.55162475 1.94789199 34.61473361 0.8046875 51.12451172 C-0.1815849 71.55796237 3.2717306 89.22388865 16.859375 105.27734375 C29.35071907 118.87289503 45.17158049 126.8515643 63.54296875 128.5234375 C85.45783643 129.28389032 103.33323053 121.48719916 119.80078125 107.40625 C123.44462606 104.36318247 126.03414897 104.24872007 130.66015625 104.30078125 C135.04494487 104.83965258 137.67401074 107.36958005 140.79296875 110.2734375 C143.19487641 114.95083663 143.57588395 119.72526501 141.98046875 124.7109375 C129.34746731 142.87087706 105.87550795 152.33300853 84.98046875 156.5859375 C61.0227167 160.70572619 34.94105124 155.15381608 14.84765625 141.44921875 C11.83482186 139.22546003 8.89781869 136.93313489 5.98046875 134.5859375 C5.27277344 134.04453125 4.56507813 133.503125 3.8359375 132.9453125 C-15.08603034 117.68441787 -26.15507371 92.97220108 -28.73828125 69.2265625 C-30.47669011 46.72382556 -25.76290256 19.59679076 -10.62478638 1.85064697 C-7.47494798 -0.6309713 -3.84174067 -0.1438101 0 0 Z " fill="#FFFFFF" transform="translate(216.01953125,196.4140625)"/>
<path d="M0 0 C1.91008292 1.03177044 3.83453312 2.03237938 5.76123047 3.03271484 C22.09619015 11.68648714 36.80749409 22.99684516 49.89013672 36.02099609 C50.57978516 36.67583984 51.26943359 37.33068359 51.97998047 38.00537109 C55.52617262 41.64334704 56.82367322 44.77495772 57.05810547 49.88037109 C56.68882146 54.58659527 54.74851696 57.24636027 51.32763672 60.33349609 C48.1892245 62.50624301 46.41363906 63.21156319 42.64013672 63.33349609 C41.51865234 63.38957031 41.51865234 63.38957031 40.37451172 63.44677734 C34.61742536 62.46010688 30.51168469 57.86784868 26.45263672 53.95849609 C2.64132498 31.64411084 -27.76178253 16.93714578 -59.42236328 9.70849609 C-60.06568604 9.56114014 -60.70900879 9.41378418 -61.37182617 9.26196289 C-78.07193923 5.74039489 -94.70957182 5.68349285 -111.70361328 5.60693359 C-114.34876472 5.58819135 -116.99390044 5.56870778 -119.63903809 5.54824829 C-125.84689113 5.50183332 -132.05476118 5.46491141 -138.26269674 5.43157542 C-145.34158463 5.39308712 -152.42038465 5.34374893 -159.49919796 5.29359126 C-174.03601849 5.19082742 -188.57290201 5.1013901 -203.10986328 5.02099609 C-202.10986328 2.02099609 -202.10986328 2.02099609 -200.38598633 0.87353516 C-199.63873291 0.51485352 -198.89147949 0.15617187 -198.12158203 -0.21337891 C-197.28030762 -0.61919189 -196.4390332 -1.02500488 -195.57226562 -1.44311523 C-194.65654785 -1.8674585 -193.74083008 -2.29180176 -192.79736328 -2.72900391 C-191.38124756 -3.39162231 -191.38124756 -3.39162231 -189.93652344 -4.06762695 C-130.16344126 -31.48560445 -58.33388802 -31.58934738 0 0 Z " fill="#FEFEFE" transform="translate(384.10986328125,65.97900390625)"/>
<path d="" fill="#FFFFFF" transform="translate(0,0)"/>
<path d="" fill="#FFFFFF" transform="translate(0,0)"/>
<path d="" fill="#FDFDFD" transform="translate(0,0)"/>
<path d="" fill="#FDFDFD" transform="translate(0,0)"/>
</svg>
