<?xml version="1.0" encoding="UTF-8"?><svg viewBox="0 0 512 512" xmlns="http://www.w3.org/2000/svg"><path d="m88 0c-13.3 0-24 10.7-24 24 0 38.9 23.4 59.4 39.1 73.1l1.1 1c16.3 14.2 23.8 21.8 23.8 37.9 0 13.3 10.7 24 24 24s24-10.7 24-24c0-38.9-23.4-59.4-39.1-73.1l-1.1-1c-16.3-14.2-23.8-21.8-23.8-37.9 0-13.3-10.7-24-24-24zm-56 192c-17.7 0-32 14.3-32 32v192c0 53 43 96 96 96h192c53 0 96-43 96-96h16c61.9 0 112-50.1 112-112s-50.1-112-112-112h-48-320zm352 64h16c26.5 0 48 21.5 48 48s-21.5 48-48 48h-16v-96zm-160-232c0-13.3-10.7-24-24-24s-24 10.7-24 24c0 38.9 23.4 59.4 39.1 73.1l1.1 1c16.3 14.2 23.8 21.8 23.8 37.9 0 13.3 10.7 24 24 24s24-10.7 24-24c0-38.9-23.4-59.4-39.1-73.1l-1.1-1c-16.3-14.2-23.8-21.8-23.8-37.9z" fill="#fff"/></svg>
