<?xml version="1.0" encoding="UTF-8"?><svg viewBox="0 0 448 512" xmlns="http://www.w3.org/2000/svg"><path d="m384 336h-192c-8.8 0-16-7.2-16-16v-256c0-8.8 7.2-16 16-16h140.1l67.9 67.9v204.1c0 8.8-7.2 16-16 16zm-192 48h192c35.3 0 64-28.7 64-64v-204.1c0-12.7-5.1-24.9-14.1-33.9l-67.8-67.9c-9-9-21.2-14.1-33.9-14.1h-140.2c-35.3 0-64 28.7-64 64v256c0 35.3 28.7 64 64 64zm-128-256c-35.3 0-64 28.7-64 64v256c0 35.3 28.7 64 64 64h192c35.3 0 64-28.7 64-64v-32h-48v32c0 8.8-7.2 16-16 16h-192c-8.8 0-16-7.2-16-16v-256c0-8.8 7.2-16 16-16h32v-48h-32z"/></svg>