<?xml version="1.0" encoding="UTF-8"?>
<svg version="1.1" xmlns="http://www.w3.org/2000/svg" width="233" height="240">
<path d="M0 0 C2.1409227 1.16105307 3.89648869 1.72913267 6.26171875 2.2265625 C7.25171875 2.5565625 8.24171875 2.8865625 9.26171875 3.2265625 C10.44921875 5.7890625 10.44921875 5.7890625 11.26171875 8.2265625 C25.05753851 8.28296492 38.85272943 8.29288533 52.64861202 8.24990845 C59.05512827 8.23129586 65.46094377 8.22737016 71.86743164 8.25732422 C78.05348028 8.28570202 84.23835997 8.27508845 90.42434883 8.23776245 C92.78095828 8.23033218 95.13765505 8.23680695 97.49418449 8.25759888 C100.80333579 8.28438944 104.10872222 8.26114821 107.41772461 8.2265625 C108.38589615 8.24597397 109.35406769 8.26538544 110.35157776 8.28538513 C117.23507573 8.13898348 120.51670617 6.03953718 125.30188847 1.13671875 C129.87087648 -3.31646328 135.01352319 -3.95254769 141.19921875 -4.2109375 C149.85318193 -3.94968578 156.18688148 -0.68840524 162.46875 5.1796875 C167.68460182 11.13416757 170.4988014 18.30521283 170.26171875 26.2265625 C169.59407088 33.06702488 167.07211713 39.98452207 161.7045145 44.5514946 C159.83187323 46.72560779 159.87830635 47.90999289 159.86058044 50.75421143 C159.84778549 51.6821904 159.83499054 52.61016937 159.82180786 53.56626892 C159.8238472 55.09049217 159.8238472 55.09049217 159.82592773 56.64550781 C159.81081398 58.25326836 159.81081398 58.25326836 159.7953949 59.89350891 C159.76683005 63.4473404 159.7610335 67.00074826 159.7578125 70.5546875 C159.74817569 73.02227963 159.73808354 75.48987002 159.72755432 77.9574585 C159.70957041 83.13590467 159.70403547 88.31420057 159.70581055 93.49267578 C159.70611513 100.12527219 159.66519416 106.75690307 159.61349392 113.38927078 C159.5801158 118.48857029 159.57405349 123.58763704 159.57563972 128.68703461 C159.57210071 131.13185701 159.55883721 133.57668551 159.53564262 136.02140045 C159.50620847 139.44496395 159.51488648 142.86644112 159.53295898 146.29003906 C159.51610046 147.29809097 159.49924194 148.30614288 159.48187256 149.34474182 C159.56208039 155.3316351 160.45690459 158.55327597 164.79173374 162.7868309 C169.38088548 167.2815344 169.52823939 172.42558968 169.76171875 178.5390625 C169.58520692 187.03684616 167.2876767 192.54634337 161.94921875 199.0390625 C157.2921481 202.8297014 152.43208214 206.7750725 146.26171875 207.2265625 C145.6171875 207.27683594 144.97265625 207.32710937 144.30859375 207.37890625 C136.96673712 207.69979159 129.98104748 206.54187444 124.29011536 201.69645691 C119.53672615 198.28176676 114.93678624 198.51587488 109.25268555 198.5637207 C107.62201645 198.54816887 107.62201645 198.54816887 105.95840454 198.53230286 C102.37552806 198.50526693 98.79387886 198.51488993 95.2109375 198.52734375 C92.71140706 198.52143268 90.21187946 198.51418506 87.71235657 198.50566101 C82.47616934 198.49378554 77.24029884 198.50005225 72.00415039 198.51977539 C66.63925395 198.53964164 61.27522884 198.53265506 55.91040039 198.49926758 C49.41823874 198.45931457 42.92675532 198.4489298 36.4344883 198.46260643 C33.96704773 198.46408901 31.49958356 198.45645096 29.03220177 198.43935585 C25.57367429 198.41928711 22.1173627 198.43786304 18.65893555 198.46606445 C17.14441048 198.44548981 17.14441048 198.44548981 15.59928894 198.42449951 C8.99337082 198.53159858 4.86042628 200.08422665 -0.60356426 203.80652142 C-6.08221626 207.4509909 -12.35750788 207.9021738 -18.73828125 207.2265625 C-26.88674384 205.57465952 -33.54256345 201.3869263 -38.61328125 194.7890625 C-43.12453209 187.83231879 -43.8540623 179.88985453 -42.2734375 171.8671875 C-40.50473973 165.79710047 -37.21079805 160.6990793 -32.73828125 156.2265625 C-32.62769941 154.83057254 -32.58538238 153.42909686 -32.57092285 152.02880859 C-32.55943207 151.12329758 -32.54794128 150.21778656 -32.53610229 149.28483582 C-32.52870026 148.28334 -32.52129822 147.28184418 -32.51367188 146.25 C-32.5022818 145.20117142 -32.49089172 144.15234283 -32.47915649 143.07173157 C-32.36832538 132.07342332 -32.3210352 121.07443295 -32.27832031 110.07568359 C-32.25606409 104.85692371 -32.21432793 99.63888104 -32.15527344 94.42041016 C-32.08414519 88.12329511 -32.04748076 81.82685406 -32.03520203 75.52935791 C-32.02480528 73.13079642 -32.00239054 70.73225512 -31.96760559 68.33392334 C-31.92132334 64.96791496 -31.91940944 61.60453813 -31.92773438 58.23828125 C-31.90413849 57.25297928 -31.8805426 56.26767731 -31.85623169 55.2525177 C-31.93536742 48.61674518 -33.61556419 45.12552758 -38.04631805 40.18659973 C-42.63006296 34.87660794 -43.25091727 28.77500172 -43.015625 21.9609375 C-42.1759193 13.68214888 -38.99603311 7.73962988 -32.73828125 2.2265625 C-22.32914012 -4.84744066 -11.18786377 -6.44968636 0 0 Z " fill="#000000" transform="translate(56.73828125,17.7734375)"/>
<path d="M0 0 C1.36125 0.8353125 1.36125 0.8353125 2.75 1.6875 C9.16252099 8.27814657 11.55297843 13.99416101 11.625 23.125 C11.63571533 23.87668457 11.64643066 24.62836914 11.6574707 25.40283203 C11.51853058 30.94466215 10.18415445 35.4271972 7 40 C6.16133392 40.64770355 5.32266785 41.2954071 4.45858765 41.96273804 C0.89958833 46.35941402 1.28273343 50.01751777 1.32128906 55.52246094 C1.30931488 56.5816272 1.2973407 57.64079346 1.28500366 58.73205566 C1.25280552 62.23320003 1.2576392 65.73310739 1.265625 69.234375 C1.25717605 71.6718997 1.24753581 74.10942053 1.23675537 76.54693604 C1.2203541 81.65806263 1.22308288 86.76875622 1.23828125 91.87988281 C1.25554099 98.41827708 1.21847493 104.95506165 1.16601944 111.49322128 C1.13287432 116.5291727 1.13234868 121.56473965 1.14116669 126.60077667 C1.14080746 129.010446 1.12955611 131.42013991 1.10706329 133.82970428 C1.07972531 137.20748445 1.09729406 140.58225271 1.12597656 143.95996094 C1.100009 145.44251373 1.100009 145.44251373 1.07351685 146.95501709 C1.19339972 153.57731007 2.85863939 157.0662013 7.3102684 161.97381973 C11.21724728 166.65873153 12.55314053 172.87265692 12.2890625 178.8984375 C11.70975791 183.11013844 10.48871727 187.02792031 9 191 C8.75636719 191.65355469 8.51273438 192.30710938 8.26171875 192.98046875 C5.08504867 199.80052348 -1.85168163 202.78485958 -8.5625 205.375 C-17.11441686 206.92989398 -24.59490772 206.21383865 -32.16796875 201.7109375 C-39.03811035 196.89023776 -43.43783378 191.37889156 -45 183 C-45.94203894 172.88990347 -43.61002913 165.43645443 -37.3046875 157.53125 C-36 156 -36 156 -35 155 C-34.88941816 153.60401004 -34.84710113 152.20253436 -34.8326416 150.80224609 C-34.82115082 149.89673508 -34.80966003 148.99122406 -34.79782104 148.05827332 C-34.79041901 147.0567775 -34.78301697 146.05528168 -34.77539062 145.0234375 C-34.76400055 143.97460892 -34.75261047 142.92578033 -34.74087524 141.84516907 C-34.63004413 130.84686082 -34.58275395 119.84787045 -34.54003906 108.84912109 C-34.51778284 103.63036121 -34.47604668 98.41231854 -34.41699219 93.19384766 C-34.34586394 86.89673261 -34.30919951 80.60029156 -34.29692078 74.30279541 C-34.28652403 71.90423392 -34.26410929 69.50569262 -34.22932434 67.10736084 C-34.18304209 63.74135246 -34.18112819 60.37797563 -34.18945312 57.01171875 C-34.16585724 56.02641678 -34.14226135 55.04111481 -34.11795044 54.0259552 C-34.19708617 47.39018268 -35.87728294 43.89896508 -40.3080368 38.96003723 C-44.89178171 33.65004544 -45.51263602 27.54843922 -45.27734375 20.734375 C-44.43763805 12.45558638 -41.25775186 6.51306738 -35 1 C-23.62640942 -6.72943846 -11.77837432 -7.46761995 0 0 Z " fill="#FAFAFA" transform="translate(59,19)"/>
<path d="M0 0 C6.51527374 5.37751588 9.87646265 10.39463416 10.83984375 18.82421875 C11.23999795 28.76805058 9.41875652 35.42271167 3.12109375 43.08203125 C-1.5359769 46.87267015 -6.39604286 50.81804125 -12.56640625 51.26953125 C-13.2109375 51.31980469 -13.85546875 51.37007812 -14.51953125 51.421875 C-23.00405574 51.79270212 -31.11155105 49.71449306 -37.73828125 44.24609375 C-43.21867488 38.3207109 -45.91442421 31.5486198 -46.12890625 23.51953125 C-45.64742673 14.54261313 -42.78433214 7.82431994 -36.56640625 1.26953125 C-25.58861234 -7.7081677 -11.69161788 -7.88338923 0 0 Z " fill="#F9F9F9" transform="translate(215.56640625,173.73046875)"/>
<path d="M0 0 C8.52265809 4.43116462 14.01190183 10.35128487 17.25 19.4375 C19.24117121 27.23188729 18.05645724 34.63869424 14.125 41.625 C10.04295414 47.66979948 3.90139062 51.64536015 -2.75 54.4375 C-5.4808727 54.74871855 -7.90577989 54.91520612 -10.625 54.875 C-11.33317871 54.86815186 -12.04135742 54.86130371 -12.77099609 54.85424805 C-18.35599066 54.68249113 -22.28810547 53.75392039 -26.75 50.4375 C-27.801875 49.715625 -28.85375 48.99375 -29.9375 48.25 C-33.47923521 44.70826479 -35.55016562 40.89851872 -37.75 36.4375 C-38.08 35.7775 -38.41 35.1175 -38.75 34.4375 C-39.64600426 23.37698835 -38.44521914 15.78665773 -31.5 7.125 C-23.58722008 -1.43580931 -10.9176839 -4.45076312 0 0 Z " fill="#FAFAFA" transform="translate(208.75,15.5625)"/>
<path d="M0 0 C2.97 0.495 2.97 0.495 6 1 C6.33 2.65 6.66 4.3 7 6 C3.31197956 4.77065985 2.27643027 3.06140622 0 0 Z " fill="#121212" transform="translate(60,20)"/>
<path d="" fill="#010101" transform="translate(0,0)"/>
<path d="" fill="#010101" transform="translate(0,0)"/>
<path d="" fill="#010101" transform="translate(0,0)"/>
<path d="" fill="#010101" transform="translate(0,0)"/>
</svg>
