<?xml version="1.0" encoding="UTF-8"?>
<svg version="1.1" xmlns="http://www.w3.org/2000/svg" width="512" height="512">
<path d="M0 0 C1.36211326 1.23874511 2.74468284 2.45488879 4.12841797 3.66943359 C13.21655186 11.68003523 21.73151971 20.09375881 29.27294922 29.58740234 C30.69061479 31.36713358 32.13767418 33.12395131 33.61669922 34.85302734 C60.56496465 66.4837928 76.70801109 107.48868608 84.02734375 148.02001953 C84.69110484 151.66721207 85.41043551 155.30291608 86.13232422 158.93896484 C86.36306641 160.12748047 86.59380859 161.31599609 86.83154297 162.54052734 C87.31357601 165.25442549 87.31357601 165.25442549 88.44482422 167.31396484 C88.5498043 168.84402329 88.59351927 170.37850416 88.60595703 171.91210938 C88.61556458 172.86715363 88.62517212 173.82219788 88.6350708 174.80618286 C88.63932068 175.84257904 88.64357056 176.87897522 88.64794922 177.94677734 C88.65364929 179.01258026 88.65934937 180.07838318 88.66522217 181.17648315 C88.67468346 183.43779505 88.68121062 185.6991208 88.68505859 187.96044922 C88.69472622 191.40405778 88.72572371 194.84705993 88.75732422 198.29052734 C88.76385805 200.48844047 88.76910703 202.68635786 88.77294922 204.88427734 C88.78529602 205.90852814 88.79764282 206.93277893 88.81036377 207.98806763 C88.79122344 214.19974663 87.88290208 218.60988496 85.44482422 224.31396484 C84.82398365 226.88853633 84.82398365 226.88853633 84.52294922 229.28271484 C84.32161377 230.61471924 84.32161377 230.61471924 84.11621094 231.97363281 C83.97715332 232.91094238 83.8380957 233.84825195 83.69482422 234.81396484 C77.82814894 270.70183364 62.95456744 304.43788817 42.44482422 334.31396484 C41.76935547 335.30525391 41.09388672 336.29654297 40.39794922 337.31787109 C34.93007953 345.07908282 28.73839052 352.21925674 22.44482422 359.31396484 C21.68564697 360.17006348 21.68564697 360.17006348 20.91113281 361.04345703 C-22.7871085 410.01586652 -87.24475332 439.57286899 -152.55517578 443.31396484 C-222.51014793 445.89859434 -288.37158173 423.79054604 -340.22705078 376.41943359 C-342.27947561 374.56329772 -344.37363287 372.78025493 -346.49267578 371.00146484 C-356.42911527 362.30209212 -364.62321846 351.81283233 -372.55517578 341.31396484 C-372.9712207 340.77078613 -373.38726562 340.22760742 -373.81591797 339.66796875 C-400.17780564 305.07975055 -414.37598555 263.56563562 -420.99560547 220.98706055 C-421.18670898 219.75818115 -421.3778125 218.52930176 -421.57470703 217.26318359 C-421.74075439 216.16321045 -421.90680176 215.0632373 -422.07788086 213.92993164 C-422.42386673 211.34374238 -422.42386673 211.34374238 -423.55517578 209.31396484 C-423.66647057 206.5282282 -423.71929366 203.76827394 -423.72314453 200.98193359 C-423.72647293 200.15317215 -423.72980133 199.32441071 -423.73323059 198.47053528 C-423.73829849 196.71449336 -423.74063896 194.9584418 -423.74047852 193.20239258 C-423.74265857 190.52262341 -423.76079771 187.84327016 -423.77978516 185.16357422 C-423.78272044 183.45719542 -423.78470433 181.75081466 -423.78564453 180.04443359 C-423.79283005 179.24531052 -423.80001556 178.44618744 -423.80741882 177.62284851 C-423.7898779 173.32428948 -423.34721772 170.28278089 -421.55517578 166.31396484 C-421.22181864 164.49692417 -420.95070219 162.66774686 -420.73095703 160.83349609 C-420.59343018 159.76526611 -420.45590332 158.69703613 -420.31420898 157.59643555 C-420.16685303 156.45134521 -420.01949707 155.30625488 -419.86767578 154.12646484 C-415.9180074 125.89688993 -407.17659503 98.38871097 -393.55517578 73.31396484 C-393.2208252 72.68151855 -392.88647461 72.04907227 -392.54199219 71.39746094 C-383.83088089 54.92937145 -373.38614449 39.64103309 -360.90136719 25.80712891 C-359.65255721 24.42197805 -358.42143393 23.02093695 -357.19189453 21.61865234 C-348.38584137 11.63950151 -339.07713684 2.47385301 -328.55517578 -5.68603516 C-327.96607422 -6.14623047 -327.37697266 -6.60642578 -326.77001953 -7.08056641 C-248.27079728 -68.17133691 -140.22094454 -79.80325724 0 0 Z " fill="#F7F7F7" transform="translate(423.55517578125,65.68603515625)"/>
<path d="M0 0 C1.36211326 1.23874511 2.74468284 2.45488879 4.12841797 3.66943359 C13.21655186 11.68003523 21.73151971 20.09375881 29.27294922 29.58740234 C30.69061479 31.36713358 32.13767418 33.12395131 33.61669922 34.85302734 C60.56496465 66.4837928 76.70801109 107.48868608 84.02734375 148.02001953 C84.69110484 151.66721207 85.41043551 155.30291608 86.13232422 158.93896484 C86.36306641 160.12748047 86.59380859 161.31599609 86.83154297 162.54052734 C87.31357601 165.25442549 87.31357601 165.25442549 88.44482422 167.31396484 C88.5498043 168.84402329 88.59351927 170.37850416 88.60595703 171.91210938 C88.61556458 172.86715363 88.62517212 173.82219788 88.6350708 174.80618286 C88.63932068 175.84257904 88.64357056 176.87897522 88.64794922 177.94677734 C88.65364929 179.01258026 88.65934937 180.07838318 88.66522217 181.17648315 C88.67468346 183.43779505 88.68121062 185.6991208 88.68505859 187.96044922 C88.69472622 191.40405778 88.72572371 194.84705993 88.75732422 198.29052734 C88.76385805 200.48844047 88.76910703 202.68635786 88.77294922 204.88427734 C88.78529602 205.90852814 88.79764282 206.93277893 88.81036377 207.98806763 C88.79122344 214.19974663 87.88290208 218.60988496 85.44482422 224.31396484 C84.82398365 226.88853633 84.82398365 226.88853633 84.52294922 229.28271484 C84.32161377 230.61471924 84.32161377 230.61471924 84.11621094 231.97363281 C83.97715332 232.91094238 83.8380957 233.84825195 83.69482422 234.81396484 C77.82814894 270.70183364 62.95456744 304.43788817 42.44482422 334.31396484 C41.76935547 335.30525391 41.09388672 336.29654297 40.39794922 337.31787109 C34.93007953 345.07908282 28.73839052 352.21925674 22.44482422 359.31396484 C21.68564697 360.17006348 21.68564697 360.17006348 20.91113281 361.04345703 C-22.7871085 410.01586652 -87.24475332 439.57286899 -152.55517578 443.31396484 C-222.51014793 445.89859434 -288.37158173 423.79054604 -340.22705078 376.41943359 C-342.27947561 374.56329772 -344.37363287 372.78025493 -346.49267578 371.00146484 C-356.42911527 362.30209212 -364.62321846 351.81283233 -372.55517578 341.31396484 C-372.9712207 340.77078613 -373.38726562 340.22760742 -373.81591797 339.66796875 C-400.17780564 305.07975055 -414.37598555 263.56563562 -420.99560547 220.98706055 C-421.18670898 219.75818115 -421.3778125 218.52930176 -421.57470703 217.26318359 C-421.74075439 216.16321045 -421.90680176 215.0632373 -422.07788086 213.92993164 C-422.42386673 211.34374238 -422.42386673 211.34374238 -423.55517578 209.31396484 C-423.66647057 206.5282282 -423.71929366 203.76827394 -423.72314453 200.98193359 C-423.72647293 200.15317215 -423.72980133 199.32441071 -423.73323059 198.47053528 C-423.73829849 196.71449336 -423.74063896 194.9584418 -423.74047852 193.20239258 C-423.74265857 190.52262341 -423.76079771 187.84327016 -423.77978516 185.16357422 C-423.78272044 183.45719542 -423.78470433 181.75081466 -423.78564453 180.04443359 C-423.79283005 179.24531052 -423.80001556 178.44618744 -423.80741882 177.62284851 C-423.7898779 173.32428948 -423.34721772 170.28278089 -421.55517578 166.31396484 C-421.22181864 164.49692417 -420.95070219 162.66774686 -420.73095703 160.83349609 C-420.59343018 159.76526611 -420.45590332 158.69703613 -420.31420898 157.59643555 C-420.16685303 156.45134521 -420.01949707 155.30625488 -419.86767578 154.12646484 C-415.9180074 125.89688993 -407.17659503 98.38871097 -393.55517578 73.31396484 C-393.2208252 72.68151855 -392.88647461 72.04907227 -392.54199219 71.39746094 C-383.83088089 54.92937145 -373.38614449 39.64103309 -360.90136719 25.80712891 C-359.65255721 24.42197805 -358.42143393 23.02093695 -357.19189453 21.61865234 C-348.38584137 11.63950151 -339.07713684 2.47385301 -328.55517578 -5.68603516 C-327.96607422 -6.14623047 -327.37697266 -6.60642578 -326.77001953 -7.08056641 C-248.27079728 -68.17133691 -140.22094454 -79.80325724 0 0 Z M-208.55517578 -24.68603516 C-209.42722656 -24.50379395 -210.29927734 -24.32155273 -211.19775391 -24.13378906 C-227.41055574 -20.6855439 -242.74956913 -15.96382379 -257.63720703 -8.62744141 C-259.58184616 -7.6729444 -261.53621643 -6.74102865 -263.49267578 -5.81103516 C-282.51967697 3.3345014 -298.8982058 15.20975222 -314.55517578 29.31396484 C-315.36470703 30.02037109 -316.17423828 30.72677734 -317.00830078 31.45458984 C-321.64005436 35.5316424 -325.95879705 39.65907209 -329.93017578 44.38427734 C-330.96409211 45.61205299 -332.02442099 46.81840344 -333.11767578 47.99365234 C-354.16546201 70.76169034 -369.73294502 101.45660591 -377.55517578 131.31396484 C-377.87760254 132.53962158 -377.87760254 132.53962158 -378.20654297 133.79003906 C-378.90310059 136.48137475 -379.57792937 139.17710309 -380.24267578 141.87646484 C-380.54685425 143.097771 -380.54685425 143.097771 -380.85717773 144.34375 C-384.10264962 158.07636465 -384.93058631 171.58663678 -384.86767578 185.62646484 C-384.8661853 186.45179718 -384.86469482 187.27712952 -384.86315918 188.12747192 C-384.79919461 207.93333808 -383.46356612 227.29969047 -377.55517578 246.31396484 C-377.06984375 248.19535156 -377.06984375 248.19535156 -376.57470703 250.11474609 C-367.5526937 284.72646995 -347.07364646 318.25717702 -321.55517578 343.31396484 C-320.66830078 344.24208984 -319.78142578 345.17021484 -318.86767578 346.12646484 C-316.84355429 348.54303146 -316.84355429 348.54303146 -314.55517578 348.31396484 C-314.55517578 348.97396484 -314.55517578 349.63396484 -314.55517578 350.31396484 C-311.58441281 353.07635767 -308.35957487 355.53108818 -305.17138672 358.03759766 C-303.62438379 359.25930934 -302.09326386 360.50105259 -300.56298828 361.74365234 C-256.04116218 397.2025113 -198.47515268 412.61836814 -142.13525391 406.90673828 C-127.40158121 405.1978281 -112.92137641 401.89693091 -98.8894043 397.10424805 C-97.18814495 396.52826473 -95.47908468 395.97517275 -93.76586914 395.43579102 C-86.34752424 393.07033811 -79.37319899 390.14221073 -72.36767578 386.75146484 C-70.73584351 385.96255859 -70.73584351 385.96255859 -69.07104492 385.15771484 C-59.72484771 380.55124164 -51.03055123 375.36180461 -42.55517578 369.31396484 C-41.87132812 368.82927734 -41.18748047 368.34458984 -40.48291016 367.84521484 C-31.25061183 361.24948915 -22.71377929 354.19909561 -14.55517578 346.31396484 C-13.63220703 345.44255859 -12.70923828 344.57115234 -11.75830078 343.67333984 C6.41949541 326.11174013 20.34825174 304.23193055 31.25732422 281.56396484 C31.71349121 280.6179541 32.1696582 279.67194336 32.63964844 278.69726562 C56.18575033 228.8364638 57.5945113 169.28646256 39.63232422 117.50146484 C28.67691952 87.55378798 12.44632043 60.7143896 -9.94726562 37.95263672 C-11.44434572 36.42691525 -12.91830839 34.88238088 -14.38720703 33.32958984 C-29.32974778 17.84010397 -48.02800025 4.303935 -67.55517578 -4.68603516 C-69.74304483 -5.83116366 -71.93052112 -6.97704279 -74.11767578 -8.12353516 C-103.2289046 -22.59926145 -135.19276889 -27.91351394 -167.43017578 -27.93603516 C-168.29922546 -27.9367099 -169.16827515 -27.93738464 -170.06365967 -27.93807983 C-183.11949129 -27.92198752 -195.75108089 -27.44754694 -208.55517578 -24.68603516 Z " fill="#F8F8F8" transform="translate(423.55517578125,65.68603515625)"/>
<path d="M0 0 C0.81496445 -0.0033284 1.62992889 -0.0066568 2.46958923 -0.01008606 C4.18471723 -0.01511378 5.89985487 -0.01749568 7.61499023 -0.01733398 C10.18425452 -0.0195054 12.75307783 -0.03766437 15.32226562 -0.05664062 C49.97260408 -0.17789124 88.22612793 7.61908486 117.71875 26.6484375 C119.91751477 28.02134199 122.14081424 29.25971484 124.41796875 30.49609375 C148.20229463 43.63524225 169.87241012 63.66772707 185.90966797 85.48535156 C187.12706422 87.13373957 188.37295652 88.75674941 189.625 90.37890625 C204.76383764 110.3512643 215.57948147 134.04189128 222.15234375 158.16796875 C222.36487793 158.9377002 222.57741211 159.70743164 222.79638672 160.50048828 C237.94256141 216.40000002 229.58646652 274.52287576 202.15234375 325.16796875 C192.76061127 341.3648218 181.56064293 356.13558434 168.61523438 369.63769531 C167.24525284 371.07078014 165.89340541 372.521139 164.54296875 373.97265625 C143.63568941 395.83026647 114.03689471 414.35920498 85.15234375 423.16796875 C83.88329755 423.58476007 82.61510175 424.00414735 81.34765625 424.42578125 C72.4611525 427.34574164 63.4938475 429.80962285 54.33447266 431.71386719 C52.92034251 432.00814802 51.50832576 432.31285365 50.09912109 432.62988281 C16.36148385 440.03473043 -22.50357641 436.42944311 -54.84765625 425.16796875 C-55.65138672 424.89581543 -56.45511719 424.62366211 -57.28320312 424.34326172 C-67.98955859 420.69994943 -78.14257282 416.38892871 -88.12841797 411.08056641 C-89.66382394 410.26554972 -91.21014759 409.47117788 -92.7578125 408.6796875 C-103.67744366 402.97060199 -113.99361455 395.96891583 -123.484375 388.12109375 C-126.92810376 385.27503692 -130.47604767 382.56265722 -134.01171875 379.83203125 C-134.61757812 379.28289062 -135.2234375 378.73375 -135.84765625 378.16796875 C-135.84765625 377.50796875 -135.84765625 376.84796875 -135.84765625 376.16796875 C-136.44707031 375.90628906 -137.04648438 375.64460938 -137.6640625 375.375 C-139.97827389 374.09576687 -141.1442507 372.90546433 -142.78515625 370.85546875 C-144.52137447 368.74782077 -146.22493092 366.79069408 -148.16015625 364.85546875 C-176.30333885 336.71228615 -193.65537431 299.75977453 -201.84765625 261.16796875 C-202.01571777 260.43852051 -202.1837793 259.70907227 -202.35693359 258.95751953 C-205.56177636 244.37844373 -206.2619271 229.48551482 -206.22265625 214.60546875 C-206.22178009 213.78302673 -206.22090393 212.96058472 -206.22000122 212.11322021 C-206.04673799 162.45442004 -186.79572293 109.54856007 -152.05078125 73.29296875 C-150.89194574 72.14438842 -149.725472 71.0034533 -148.55078125 69.87109375 C-146.76874077 68.08905327 -145.15865886 66.21992979 -143.53515625 64.29296875 C-124.32342735 42.14197312 -95.92608038 25.43173566 -68.85107422 14.98120117 C-66.71010386 14.11213314 -64.63202644 13.14271478 -62.5390625 12.1640625 C-57.45237722 9.88373048 -52.24282316 8.46541504 -46.84765625 7.10546875 C-45.84524902 6.84870361 -44.8428418 6.59193848 -43.81005859 6.32739258 C-29.42077323 2.71688584 -14.87069646 0.02187697 0 0 Z M-78.84765625 48.16796875 C-79.85699219 48.709375 -80.86632812 49.25078125 -81.90625 49.80859375 C-94.75482914 56.99124586 -106.71739047 65.6029136 -117.33203125 75.79296875 C-119.84765625 78.16796875 -119.84765625 78.16796875 -122.36328125 80.16796875 C-157.03485521 108.07967609 -175.40063663 156.94964579 -180.52685547 199.82177734 C-181.43213236 209.26449046 -181.29336913 218.70312462 -180.84765625 228.16796875 C-180.80898437 228.998125 -180.7703125 229.82828125 -180.73046875 230.68359375 C-178.11915764 277.07276751 -157.23953222 321.15782558 -123.84765625 353.16796875 C-118.84765625 358.16796875 -118.84765625 358.16796875 -117.3815918 359.7109375 C-113.01219618 364.23899651 -108.35400811 367.97730697 -103.22265625 371.60546875 C-102.42561279 372.17185059 -101.62856934 372.73823242 -100.80737305 373.32177734 C-74.90546539 391.58430453 -47.79192114 402.00586281 -16.84765625 408.16796875 C-15.46549927 408.44737305 -15.46549927 408.44737305 -14.05541992 408.73242188 C-9.86630931 409.30121503 -5.74663678 409.34997838 -1.5234375 409.37109375 C-0.62255905 409.37679382 0.2783194 409.3824939 1.20649719 409.3883667 C3.11527342 409.39779189 5.02406574 409.4043408 6.93286133 409.40820312 C9.78562984 409.41778663 12.63763843 409.44878149 15.49023438 409.48046875 C32.10274993 409.57829135 47.80206622 407.57587206 63.77734375 402.91796875 C64.83727539 402.6127832 65.89720703 402.30759766 66.98925781 401.99316406 C76.01416133 399.32814703 84.65604431 396.2116519 93.15234375 392.16796875 C93.96622559 391.78157227 94.78010742 391.39517578 95.61865234 390.99707031 C112.89554915 382.65783796 128.20287515 372.33813743 142.15234375 359.16796875 C143.54395506 357.97552383 144.93963587 356.78780747 146.33984375 355.60546875 C150.34919997 352.09030753 153.76147914 348.27613164 157.15234375 344.16796875 C157.79429687 343.4104834 157.79429687 343.4104834 158.44921875 342.63769531 C191.87096904 303.13300284 207.39556733 252.60480791 203.95019531 201.14892578 C199.76763172 155.55898264 178.80260236 113.00197089 146.15234375 81.16796875 C145.5903125 80.56082031 145.02828125 79.95367187 144.44921875 79.328125 C113.4495188 46.6127928 65.55278622 27.33426461 20.93882751 25.89611816 C17.42645283 25.81577113 13.91555381 25.7923459 10.40234375 25.79296875 C8.46016968 25.79055176 8.46016968 25.79055176 6.47875977 25.78808594 C-23.26994514 26.13114231 -52.77923602 33.93155647 -78.84765625 48.16796875 Z " fill="#0C0C0C" transform="translate(244.84765625,37.83203125)"/>
<path d="M0 0 C0.66322266 0.32613281 1.32644531 0.65226562 2.00976562 0.98828125 C18.25757083 9.05593527 32.38088776 19.7509949 45.75390625 31.9765625 C47.52725596 33.57411928 49.31683982 35.08383492 51.1875 36.5625 C67.40234157 50.61536269 80.13408156 70.99516495 89.16992188 90.24267578 C89.87882176 91.74345854 90.6162423 93.2307138 91.359375 94.71484375 C112.89852723 138.98199751 112.23035941 189.84397589 97.625 235.9375 C88.87816448 260.57257472 75.49496325 283.40835495 57.4453125 302.37890625 C54.98980089 304.94096455 54.98980089 304.94096455 52.9140625 307.62890625 C51.14780733 309.81689989 49.38955361 311.56256822 47.25 313.375 C46.63640625 313.89835937 46.0228125 314.42171875 45.390625 314.9609375 C44.60171875 315.63382812 43.8128125 316.30671875 43 317 C42.4232251 317.51763916 41.8464502 318.03527832 41.25219727 318.56860352 C7.5917352 348.63961106 -37.54921814 364.37844234 -82.32910156 364.37060547 C-85.10024358 364.37496109 -87.86976456 364.41136278 -90.640625 364.44921875 C-103.20136238 364.52796771 -114.80595546 362.95080245 -127 360 C-127.854729 359.79634323 -128.70945801 359.59268646 -129.59008789 359.38285828 C-154.17019857 353.4938253 -176.69423538 343.08057319 -197 328 C-197.60489258 327.55591797 -198.20978516 327.11183594 -198.83300781 326.65429688 C-205.34361005 321.85701102 -211.45859671 316.91544802 -217 311 C-219.41369876 308.56267612 -221.84299911 306.14987648 -224.32421875 303.78125 C-230.95556866 297.38007918 -236.67031579 290.49738432 -242 283 C-242.43957031 282.38302246 -242.87914062 281.76604492 -243.33203125 281.13037109 C-271.60519404 240.84926201 -282.75275633 189.79606976 -274.77050781 141.33447266 C-272.09504391 126.24897232 -268.22069588 112.02268041 -262 98 C-261.56131592 96.99138916 -261.56131592 96.99138916 -261.11376953 95.96240234 C-254.06782732 79.86751582 -244.96949031 65.68044455 -234 52 C-233.26394531 51.05898437 -232.52789062 50.11796875 -231.76953125 49.1484375 C-204.58065158 14.5629583 -163.53760496 -7.09407553 -121.125 -16.25 C-120.37702148 -16.41322754 -119.62904297 -16.57645508 -118.85839844 -16.74462891 C-79.56144541 -24.84024955 -35.60065144 -17.71482944 0 0 Z M-122 10 C-123.19520264 10.29801514 -123.19520264 10.29801514 -124.41455078 10.60205078 C-166.22537126 21.38803056 -203.65493245 47.94767638 -226.2578125 84.98828125 C-239.09128373 107.17349721 -250.13053308 132.51683049 -250.16796875 158.58984375 C-250.17129715 159.41142471 -250.17462555 160.23300568 -250.17805481 161.07948303 C-250.18310213 162.81673629 -250.18546382 164.55399918 -250.18530273 166.29125977 C-250.1874673 168.8981209 -250.20558535 171.50454294 -250.22460938 174.11132812 C-250.27071201 187.42999033 -249.3724437 200.34060516 -245.8125 213.25 C-245.59891846 214.03665039 -245.38533691 214.82330078 -245.1652832 215.63378906 C-237.1934434 244.1074714 -223.12439489 267.33565141 -203 289 C-202.37222656 289.70511719 -201.74445313 290.41023438 -201.09765625 291.13671875 C-189.99565844 303.03014611 -175.43280263 312.63364749 -161 320 C-159.9495752 320.54648193 -159.9495752 320.54648193 -158.87792969 321.10400391 C-150.14017922 325.60875776 -141.34644752 329.49403023 -131.9375 332.375 C-130.84381104 332.7145874 -130.84381104 332.7145874 -129.72802734 333.06103516 C-114.8356306 337.33757886 -99.80171059 338.58752455 -84.375 338.5 C-83.50326141 338.49757294 -82.63152283 338.49514587 -81.73336792 338.49264526 C-67.33538125 338.41522348 -53.82456826 337.30102998 -40 333 C-38.96359375 332.67821777 -37.9271875 332.35643555 -36.859375 332.02490234 C-14.72423485 324.94549672 4.78145929 314.98285045 22.625 299.98046875 C25 298 25 298 27.3125 296.36328125 C27.869375 295.91339844 28.42625 295.46351563 29 295 C29 294.34 29 293.68 29 293 C29.59554688 292.72800781 30.19109375 292.45601563 30.8046875 292.17578125 C52.38181832 280.61934641 67.88410314 244.02392177 75 222 C88.01714119 177.4167124 82.90895684 131.26055005 61.19360352 90.36694336 C57.36356304 83.37936224 53.08930268 77.14574637 48 71 C47.30648438 70.10667969 46.61296875 69.21335938 45.8984375 68.29296875 C23.53034049 39.86515091 -7.88290321 20.56824556 -42.6875 11.1875 C-43.397854 10.992771 -44.10820801 10.79804199 -44.84008789 10.59741211 C-58.00994468 7.23498999 -71.2411292 6.62100114 -84.75 6.6875 C-85.54092041 6.68965515 -86.33184082 6.6918103 -87.14672852 6.69403076 C-98.97673434 6.7456967 -110.4736754 7.09031543 -122 10 Z " fill="#F7F7F7" transform="translate(341,83)"/>
<path d="M0 0 C2.3098371 0.01073435 4.61889691 0.00002285 6.92871094 -0.01269531 C19.61307673 -0.02560454 32.07371084 1.01386897 44.37402344 4.32324219 C45.14931396 4.52949219 45.92460449 4.73574219 46.72338867 4.94824219 C75.25652748 12.95754431 99.96375083 27.91649735 121.31152344 48.26074219 C122.03082031 48.9271875 122.75011719 49.59363281 123.49121094 50.28027344 C152.37563712 77.83067994 168.26869321 119.7080717 169.53417969 159.11621094 C170.4560276 204.89417804 155.0091441 246.00901298 124.37402344 280.01074219 C123.91318359 280.52491699 123.45234375 281.0390918 122.97753906 281.56884766 C120.76490016 283.96259515 119.46076929 285.21099357 116.31152344 286.26074219 C115.98152344 287.25074219 115.65152344 288.24074219 115.31152344 289.26074219 C113.34970069 291.0311676 111.40101741 292.65372261 109.31152344 294.26074219 C108.3791687 294.98161011 108.3791687 294.98161011 107.42797852 295.71704102 C89.04571286 309.70686236 69.4367155 319.62359225 47.31152344 326.26074219 C46.45896973 326.52048828 45.60641602 326.78023438 44.72802734 327.04785156 C20.16063176 334.18372379 -10.84407212 334.60723548 -35.58544922 327.83300781 C-37.63499358 327.27529572 -39.6898801 326.80138379 -41.76269531 326.33886719 C-51.19830554 324.07068071 -59.81723564 320.0975252 -68.56347656 315.94824219 C-69.69285645 315.41529541 -70.82223633 314.88234863 -71.98583984 314.33325195 C-79.49534558 310.6613367 -86.06500286 306.34118465 -92.68847656 301.26074219 C-93.72101563 300.52984375 -94.75355469 299.79894531 -95.81738281 299.04589844 C-102.19707037 294.52993983 -108.00812252 289.62500451 -113.68847656 284.26074219 C-114.40390625 283.60976563 -115.11933594 282.95878906 -115.85644531 282.28808594 C-144.11809291 255.57079066 -161.80577109 214.65344418 -162.90817261 175.92578125 C-163.3412234 156.87449724 -163.43343338 138.6247675 -157.68847656 120.26074219 C-157.46385742 119.50825195 -157.23923828 118.75576172 -157.0078125 117.98046875 C-150.41426847 96.24192837 -139.58145541 76.38507327 -124.68847656 59.26074219 C-123.96917969 58.43058594 -123.24988281 57.60042969 -122.50878906 56.74511719 C-120.2720863 54.21390196 -117.99116541 51.73201391 -115.68847656 49.26074219 C-114.9034375 48.39835937 -114.11839844 47.53597656 -113.30957031 46.64746094 C-84.42156486 16.17171778 -41.49759526 -0.22849163 0 0 Z M-33.68847656 30.26074219 C-34.45111816 30.47504883 -35.21375977 30.68935547 -35.99951172 30.91015625 C-71.21944602 41.03616373 -101.91504479 65.07162444 -119.75927734 97.18798828 C-138.02417151 131.01217855 -142.92165999 168.75718829 -132.38818359 206.02050781 C-123.62267806 234.08480607 -106.14056944 259.53371904 -82.68847656 277.26074219 C-81.93566406 277.84082031 -81.18285156 278.42089844 -80.40722656 279.01855469 C-48.93502524 302.19157964 -11.87037936 309.62559905 26.47851562 304.70605469 C54.22974443 300.34391738 82.90425882 285.55206876 102.31152344 265.26074219 C102.31152344 264.60074219 102.31152344 263.94074219 102.31152344 263.26074219 C103.14296875 262.95523438 103.14296875 262.95523438 103.99121094 262.64355469 C107.20035262 260.73103591 109.19546858 258.0567394 111.43652344 255.13574219 C112.15449097 254.2052002 112.15449097 254.2052002 112.88696289 253.25585938 C136.44226565 222.19000164 147.41374557 184.83612406 142.62402344 145.88574219 C137.3863405 115.30800167 122.63852084 88.41952577 101.31152344 66.26074219 C100.74304688 65.62910156 100.17457031 64.99746094 99.58886719 64.34667969 C79.484631 42.6485015 45.07923504 27.5614169 15.80493164 26.08374023 C-9.19717466 25.66678246 -9.19717466 25.66678246 -33.68847656 30.26074219 Z " fill="#0B0B0B" transform="translate(253.6884765625,89.7392578125)"/>
<path d="M0 0 C2.08407681 0.01614236 4.16622359 -0.0000019 6.25024414 -0.01904297 C28.49515648 -0.05546051 50.1707657 6.67863622 69.51782227 17.39111328 C70.56196289 17.94541016 71.60610352 18.49970703 72.68188477 19.07080078 C104.4464198 36.58739134 126.57164533 67.52547907 137.45532227 101.68017578 C147.87881099 138.08574302 142.41308819 175.88478443 124.61230469 209.03417969 C120.30740103 216.72468247 115.06743736 223.57937836 109.51782227 230.39111328 C108.89133789 231.17228516 108.26485352 231.95345703 107.61938477 232.75830078 C106.30845227 234.35060416 104.92261034 235.8809661 103.51782227 237.39111328 C102.85782227 237.39111328 102.19782227 237.39111328 101.51782227 237.39111328 C101.27418945 237.96603516 101.03055664 238.54095703 100.77954102 239.13330078 C90.92956895 256.75956659 61.79065512 268.36447761 43.51782227 274.39111328 C42.33961914 274.78298828 41.16141602 275.17486328 39.94750977 275.57861328 C28.99253835 278.85306628 17.89081861 279.74178996 6.51782227 280.39111328 C5.81625 280.43252441 5.11467773 280.47393555 4.3918457 280.51660156 C-18.79568405 281.69432449 -42.40702945 275.56648655 -62.63256836 264.40576172 C-64.43811046 263.41528746 -66.26098355 262.46715799 -68.09155273 261.52392578 C-76.72728788 256.89900985 -83.76477393 251.27626263 -90.99438477 244.72314453 C-92.88107386 243.03397884 -94.84030433 241.43855256 -96.79467773 239.82861328 C-119.3107751 219.94737837 -133.33338444 188.66499874 -137.48217773 159.39111328 C-137.6774707 158.14974609 -137.6774707 158.14974609 -137.87670898 156.88330078 C-141.79283168 126.91190841 -134.9612535 97.61960299 -120.48217773 71.39111328 C-119.69327148 69.96025391 -119.69327148 69.96025391 -118.88842773 68.50048828 C-115.56046836 62.72966512 -111.69404028 57.54171442 -107.48217773 52.39111328 C-106.69456055 51.40626953 -105.90694336 50.42142578 -105.09545898 49.40673828 C-100.32241089 43.49487708 -95.42449206 38.15865145 -89.48217773 33.39111328 C-88.75901367 32.76978516 -88.03584961 32.14845703 -87.29077148 31.50830078 C-80.20775312 25.55716509 -72.52274976 20.90782084 -64.48217773 16.39111328 C-63.3697168 15.75947266 -62.25725586 15.12783203 -61.11108398 14.47705078 C-54.45596507 10.9182475 -47.81205431 8.33821802 -40.60717773 6.14111328 C-39.84187744 5.90690674 -39.07657715 5.6727002 -38.28808594 5.43139648 C-25.59387166 1.76978064 -13.18907327 -0.12087272 0 0 Z M-32.48217773 30.39111328 C-33.44776611 30.72852539 -33.44776611 30.72852539 -34.43286133 31.07275391 C-63.92047651 41.53354483 -87.5064987 62.47047098 -101.48217773 90.39111328 C-113.21992309 115.36446014 -116.47105846 146.95670746 -107.48217773 173.39111328 C-107.13155273 174.56416016 -106.78092773 175.73720703 -106.41967773 176.94580078 C-102.08022518 190.47645493 -94.86937054 202.7583122 -85.48217773 213.39111328 C-84.74999023 214.24318359 -84.01780273 215.09525391 -83.26342773 215.97314453 C-63.12218848 238.97692293 -35.75349405 252.13638689 -5.42504883 254.55517578 C25.03117321 256.37391012 54.72500433 246.01027911 77.64282227 226.07861328 C100.97251632 204.22356764 115.38200073 176.53966706 116.80688477 144.16845703 C117.58847452 112.93349669 106.68018409 85.94664634 87.01782227 62.01611328 C86.19282227 61.14986328 85.36782227 60.28361328 84.51782227 59.39111328 C83.85782227 59.39111328 83.19782227 59.39111328 82.51782227 59.39111328 C82.51782227 58.73111328 82.51782227 58.07111328 82.51782227 57.39111328 C80.49473125 55.58944002 78.47120589 53.91827445 76.33032227 52.26611328 C75.69465332 51.77401367 75.05898438 51.28191406 74.40405273 50.77490234 C44.92946936 28.29788193 3.49258868 17.54014931 -32.48217773 30.39111328 Z " fill="#F7F7F7" transform="translate(254.482177734375,115.60888671875)"/>
<path d="M0 0 C4.46008421 2.99629694 8.66269028 6.28804801 12.80859375 9.703125 C14.97405947 11.52340496 14.97405947 11.52340496 17.28515625 13.109375 C17.85105469 13.56828125 18.41695312 14.0271875 19 14.5 C19 15.16 19 15.82 19 16.5 C19.66 16.5 20.32 16.5 21 16.5 C40.72429949 34.58516103 51.91431687 64.2998959 53.3203125 90.47265625 C54.24763791 118.92945067 46.07533743 147.92713262 27 169.5 C26.28972656 170.33015625 25.57945312 171.1603125 24.84765625 172.015625 C3.74963657 196.1912117 -23.26252961 208.7095733 -55 211.5 C-87.47369861 213.27750771 -116.46739821 201.66601553 -140.5234375 180.25390625 C-159.09220854 162.49955499 -173.82990143 136.14019687 -175.17700195 110.07519531 C-175.78415577 72.94931192 -168.54738782 42.95719737 -142.125 15.25 C-125.28288171 -0.83284246 -105.56431966 -10.57398655 -83 -15.5 C-82.12637817 -15.76151855 -82.12637817 -15.76151855 -81.23510742 -16.02832031 C-53.93814464 -21.78885904 -23.32428441 -14.30817447 0 0 Z M-122 32.5 C-122.70253906 33.12261719 -123.40507812 33.74523437 -124.12890625 34.38671875 C-136.12900688 45.58837825 -144.04045881 60.68805736 -148 76.5 C-148.20496094 77.20511719 -148.40992188 77.91023438 -148.62109375 78.63671875 C-154.13977012 100.44500539 -148.28292572 123.58831691 -137.6875 142.8125 C-134.10481622 148.6915736 -129.78220879 153.57566263 -125 158.5 C-124.38640625 159.18707031 -123.7728125 159.87414062 -123.140625 160.58203125 C-114.75553198 169.66588202 -103.4123024 175.99561231 -92 180.5 C-91.26652344 180.79519531 -90.53304687 181.09039062 -89.77734375 181.39453125 C-69.33323938 188.9265697 -45.21261513 186.73789686 -25.46484375 178.16015625 C-15.67241397 173.46818031 -7.78238393 168.07169333 0 160.5 C0.71027344 159.85160156 1.42054688 159.20320312 2.15234375 158.53515625 C17.42507329 144.20048303 26.43073353 122.05282176 27.203125 101.30859375 C27.65641317 76.21809551 19.65834831 54.44944589 2.55517578 35.94165039 C-13.49045816 19.42057013 -34.96184455 9.60166193 -57.97558594 9.15600586 C-83.03760973 8.95348123 -103.26081285 15.1950934 -122 32.5 Z " fill="#0C0C0C" transform="translate(318,158.5)"/>
<path d="M0 0 C1.46179688 0.47566406 1.46179688 0.47566406 2.953125 0.9609375 C19.03086735 6.89539214 30.57657375 18.90918335 38.12207031 34.04248047 C44.64072112 48.57711401 44.70910483 64.93421621 40 80 C32.9910966 97.53175565 21.1764107 110.21619956 4 118 C-11.56284378 123.39036503 -29.17982479 124.45546548 -44.3515625 117.453125 C-61.14648326 108.72748801 -73.02680789 96.70451615 -79.2734375 78.5078125 C-83.69215816 63.25609926 -82.48038853 44.47640469 -75.3125 30.375 C-65.82159276 14.16816823 -51.86694229 2.87472439 -33.5625 -1.9375 C-22.1075036 -4.18111852 -11.06413517 -3.67807737 0 0 Z " fill="#0C0C0C" transform="translate(276,196)"/>
<path d="M0 0 C8.54231368 5.44455157 13.45484534 12.61082812 16.3984375 22.2265625 C18.41383315 32.37959343 16.53433081 42.27432197 11.125 51 C5.34564905 59.05692768 -1.91551974 64.57001272 -11.6328125 66.8984375 C-22.83805054 68.714577 -32.85623214 66.67206452 -42.0859375 60.03515625 C-49.81790159 53.69724516 -54.18150384 46.11538692 -56.1875 36.3125 C-57.14701626 24.76140039 -54.53623475 15.32225013 -47.1875 6.3125 C-34.56607539 -8.00907085 -15.92453313 -8.82825326 0 0 Z " fill="#F5F5F5" transform="translate(276.1875,224.6875)"/>
<path d="M0 0 C3.36996335 2.49084248 4.81810427 3.88588865 5.5 8.0625 C4.92701746 11.42877241 4.6192182 12.79003464 2 15 C-2.15377819 16.39358359 -5.02721875 16.46612435 -9 14.5625 C-11.39831235 11.48966231 -11.74120633 9.73018309 -11.484375 5.90625 C-11 4 -11 4 -8.875 1.5 C-5.46714413 -0.27801176 -3.78454468 -0.70960213 0 0 Z " fill="#CFCFCF" transform="translate(259,249)"/>
<path d="M0 0 C3.0464292 0.53312511 4.29607443 1.27030652 6.5 3.4375 C7.03125 6.21484375 7.03125 6.21484375 7 9.375 C7.0103125 10.41527344 7.020625 11.45554687 7.03125 12.52734375 C6.3823743 16.08184669 5.34563444 17.27111284 2.5 19.4375 C-1.60777749 19.94049316 -3.00875983 19.76499345 -6.5 17.4375 C-6.5 16.4475 -6.5 15.4575 -6.5 14.4375 C-3.86 14.7675 -1.22 15.0975 1.5 15.4375 C1.83 14.4475 2.16 13.4575 2.5 12.4375 C1.571875 12.499375 0.64375 12.56125 -0.3125 12.625 C-3.5 12.4375 -3.5 12.4375 -5.375 11.25 C-6.93323149 8.73951593 -6.99631357 7.34447947 -6.5 4.4375 C-4.50108769 1.69824979 -3.36650098 0.58913767 0 0 Z " fill="#1B1B1B" transform="translate(256.5,270.5625)"/>
<path d="M0 0 C0.66 1.32 1.32 2.64 2 4 C-0.31 3.67 -2.62 3.34 -5 3 C-5.66 4.32 -6.32 5.64 -7 7 C-5.906875 6.938125 -4.81375 6.87625 -3.6875 6.8125 C0 7 0 7 1.9375 8.1875 C3.38718434 10.66049093 3.42317323 12.17884512 3 15 C2 16.8125 2 16.8125 0 18 C-3.53150663 18.5370833 -6.68931591 18.90053805 -9.72265625 16.81640625 C-12.33084389 13.10751556 -11.56871306 8.31704915 -11 4 C-8.25863143 -0.71515394 -5.14350695 -0.39565438 0 0 Z " fill="#F0F0F0" transform="translate(261,348)"/>
<path d="M0 0 C0.99 0.66 1.98 1.32 3 2 C2.814375 3.134375 2.62875 4.26875 2.4375 5.4375 C2.2209375 7.2009375 2.2209375 7.2009375 2 9 C2.33 9.33 2.66 9.66 3 10 C3.1875 12.4375 3.1875 12.4375 3 15 C1 17 1 17 -2.9375 17.3125 C-5.59276857 17.24008358 -6.75841787 17.14641341 -9.0625 15.75 C-10 14 -10 14 -9.8125 12 C-9 10 -9 10 -7 7 C-7.66 7 -8.32 7 -9 7 C-9.1875 4.625 -9.1875 4.625 -9 2 C-5.53001271 -0.31332486 -4.07490752 -0.33957563 0 0 Z " fill="#EDEDED" transform="translate(260,297)"/>
<path d="M0 0 C0.66 1.32 1.32 2.64 2 4 C-0.31 3.67 -2.62 3.34 -5 3 C-5.66 4.32 -6.32 5.64 -7 7 C-6.0925 6.773125 -5.185 6.54625 -4.25 6.3125 C-1 6 -1 6 1.375 7.4375 C1.91125 7.953125 2.4475 8.46875 3 9 C2.6875 12.375 2.6875 12.375 2 16 C-1.46998729 18.31332486 -2.92509248 18.33957563 -7 18 C-10 16 -10 16 -11 13 C-11.41191067 4.34987593 -11.41191067 4.34987593 -9 1 C-6.04335481 -0.4783226 -3.25770263 -0.06032783 0 0 Z " fill="#EBEBEB" transform="translate(261,146)"/>
<path d="M0 0 C0.66 0.66 1.32 1.32 2 2 C1.625 3.9375 1.625 3.9375 1 6 C1 8.83967231 1.40267181 11.23735711 2 14 C-1.68717438 16.45811625 -3.64345704 16.31118164 -8 16 C-8.99 15.34 -9.98 14.68 -11 14 C-10.835 13.236875 -10.67 12.47375 -10.5 11.6875 C-9.83802725 8.12939648 -10.04890038 5.44773611 -11 2 C-7.3851134 -1.6148866 -4.80208868 -1.15605838 0 0 Z " fill="#E7E7E7" transform="translate(261,198)"/>
<path d="M0 0 C1.6953125 1.18359375 1.6953125 1.18359375 3 3 C3.3984375 5.55859375 3.3984375 5.55859375 3.375 8.4375 C3.38273437 9.38496094 3.39046875 10.33242187 3.3984375 11.30859375 C2.93497014 14.43927036 2.3236383 15.85076281 0 18 C-2.26171875 18.171875 -2.26171875 18.171875 -4.6875 17.75 C-5.49574219 17.62109375 -6.30398437 17.4921875 -7.13671875 17.359375 C-7.75160156 17.24078125 -8.36648437 17.1221875 -9 17 C-9.33 15.68 -9.66 14.36 -10 13 C-7.36 13.33 -4.72 13.66 -2 14 C-1.67 13.01 -1.34 12.02 -1 11 C-2.11375 11.061875 -3.2275 11.12375 -4.375 11.1875 C-5.57125 11.125625 -6.7675 11.06375 -8 11 C-10.15502531 7.76746204 -10.46856135 6.74849077 -10 3 C-7.66004009 -0.99169632 -4.2277022 -0.45296809 0 0 Z " fill="#101010" transform="translate(260,223)"/>
<path d="M0 0 C1.51400391 0.01740234 1.51400391 0.01740234 3.05859375 0.03515625 C4.07050781 0.04417969 5.08242188 0.05320312 6.125 0.0625 C7.29869141 0.07990234 7.29869141 0.07990234 8.49609375 0.09765625 C8.82609375 1.08765625 9.15609375 2.07765625 9.49609375 3.09765625 C6.52609375 3.09765625 3.55609375 3.09765625 0.49609375 3.09765625 C0.49609375 4.41765625 0.49609375 5.73765625 0.49609375 7.09765625 C1.88828125 6.75734375 1.88828125 6.75734375 3.30859375 6.41015625 C6.49609375 6.09765625 6.49609375 6.09765625 8.37109375 7.09765625 C10.12670534 10.21874352 9.93365161 12.59719339 9.49609375 16.09765625 C7.26288773 18.76032496 5.87608205 19.05112707 2.43359375 19.47265625 C-0.50390625 19.09765625 -0.50390625 19.09765625 -2.37890625 17.72265625 C-3.50390625 16.09765625 -3.50390625 16.09765625 -3.50390625 14.09765625 C-0.86390625 14.42765625 1.77609375 14.75765625 4.49609375 15.09765625 C4.49609375 13.44765625 4.49609375 11.79765625 4.49609375 10.09765625 C3.50609375 9.76765625 2.51609375 9.43765625 1.49609375 9.09765625 C1.49609375 9.75765625 1.49609375 10.41765625 1.49609375 11.09765625 C-0.15390625 11.09765625 -1.80390625 11.09765625 -3.50390625 11.09765625 C-3.53078776 9.45191059 -3.55024748 7.80604212 -3.56640625 6.16015625 C-3.57800781 5.24363281 -3.58960938 4.32710938 -3.6015625 3.3828125 C-3.46380636 0.15931892 -3.23579438 0.12620103 0 0 Z " fill="#1A1A1A" transform="translate(253.50390625,118.90234375)"/>
<path d="M0 0 C2.0078125 0.23046875 2.0078125 0.23046875 5.0078125 2.23046875 C4.9370925 5.76646873 4.81618235 8.33465505 2.3828125 11.03125 C0.63560334 12.50721903 -1.13003583 13.90313871 -2.9921875 15.23046875 C-0.3521875 15.56046875 2.2878125 15.89046875 5.0078125 16.23046875 C5.0078125 17.22046875 5.0078125 18.21046875 5.0078125 19.23046875 C0.7178125 19.23046875 -3.5721875 19.23046875 -7.9921875 19.23046875 C-8.3221875 17.58046875 -8.6521875 15.93046875 -8.9921875 14.23046875 C-7.8784375 13.52921875 -6.7646875 12.82796875 -5.6171875 12.10546875 C-2.09047447 9.61895795 -0.89232921 7.53114583 0.0078125 3.23046875 C-1.3121875 3.23046875 -2.6321875 3.23046875 -3.9921875 3.23046875 C-3.9921875 3.89046875 -3.9921875 4.55046875 -3.9921875 5.23046875 C-5.3121875 5.23046875 -6.6321875 5.23046875 -7.9921875 5.23046875 C-6.75881087 -0.23162775 -5.64975044 0.11466283 0 0 Z " fill="#E2E2E2" transform="translate(258.9921875,450.76953125)"/>
<path d="M0 0 C3.625 0.25 3.625 0.25 5.625 1.3125 C7.1934117 4.35129768 6.19312022 6.95490272 5.625 10.25 C5.83125 11.1575 6.0375 12.065 6.25 13 C6.625 15.25 6.625 15.25 5.6875 17.0625 C2.30912725 19.00762371 -0.51494651 18.55635345 -4.375 18.25 C-5.035 17.59 -5.695 16.93 -6.375 16.25 C-6.375 15.26 -6.375 14.27 -6.375 13.25 C-5.611875 13.415 -4.84875 13.58 -4.0625 13.75 C-1.33903764 14.34145396 -1.33903764 14.34145396 1.625 14.25 C1.295 13.26 0.965 12.27 0.625 11.25 C-0.365 10.92 -1.355 10.59 -2.375 10.25 C-2.045 9.26 -1.715 8.27 -1.375 7.25 C-0.385 6.92 0.605 6.59 1.625 6.25 C1.625 5.59 1.625 4.93 1.625 4.25 C-1.015 4.58 -3.655 4.91 -6.375 5.25 C-3.97723048 0.29460967 -3.97723048 0.29460967 0 0 Z " fill="#1F1F1F" transform="translate(256.375,67.75)"/>
<path d="M0 0 C3.63 0 7.26 0 11 0 C11 0.66 11 1.32 11 2 C8.69 2.33 6.38 2.66 4 3 C3.67 4.32 3.34 5.64 3 7 C4.36125 6.62875 4.36125 6.62875 5.75 6.25 C9 6 9 6 11.4375 7.5625 C13 10 13 10 12.9375 13.125 C12 16 12 16 9 18 C6.95703125 18.1953125 6.95703125 18.1953125 4.8125 18.125 C3.554375 18.08375 2.29625 18.0425 1 18 C0.34 16.68 -0.32 15.36 -1 14 C1.60582371 13.06934867 2.64198224 12.85082593 5.25 13.9375 C5.8275 14.288125 6.405 14.63875 7 15 C7.5534764 12.92446352 8 11.15634036 8 9 C6.8553125 9.495 6.8553125 9.495 5.6875 10 C3 11 3 11 0 11 C0 7.37 0 3.74 0 0 Z " fill="#1C1C1C" transform="translate(251,374)"/>
<path d="M0 0 C0.04898437 0.71027344 0.09796875 1.42054688 0.1484375 2.15234375 C0.22320312 3.07144531 0.29796875 3.99054688 0.375 4.9375 C0.44460938 5.85402344 0.51421875 6.77054687 0.5859375 7.71484375 C0.72257812 8.46894531 0.85921875 9.22304688 1 10 C1.66 10.33 2.32 10.66 3 11 C3 11.66 3 12.32 3 13 C2.01 13.495 2.01 13.495 1 14 C0.67 14.99 0.34 15.98 0 17 C-1.32 17 -2.64 17 -4 17 C-4 15.68 -4 14.36 -4 13 C-6.31 13 -8.62 13 -11 13 C-10.5972243 6.55558879 -6.58389599 0 0 0 Z " fill="#D4D4D4" transform="translate(261,401)"/>
<path d="M0 0 C0.70125 0.07863281 1.4025 0.15726563 2.125 0.23828125 C4 0.6875 4 0.6875 6 2.6875 C6.08647997 5.71429893 5.33724887 7.29861494 3.3671875 9.5703125 C1.61541429 11.32208571 -0.1642143 13.02426857 -2 14.6875 C0.64 15.0175 3.28 15.3475 6 15.6875 C6 16.3475 6 17.0075 6 17.6875 C1.38 17.6875 -3.24 17.6875 -8 17.6875 C-6.88799622 12.1274811 -6.88799622 12.1274811 -3.4375 9.625 C-1.48763374 8.29112167 -1.48763374 8.29112167 0 6.6875 C0 5.3675 0 4.0475 0 2.6875 C-0.598125 3.0175 -1.19625 3.3475 -1.8125 3.6875 C-4 4.6875 -4 4.6875 -7 4.6875 C-6.625 2.75 -6.625 2.75 -6 0.6875 C-3.63106495 -0.49696753 -2.5933174 -0.31939755 0 0 Z " fill="#E4E4E4" transform="translate(258,42.3125)"/>
<path d="M0 0 C0.99 0.66 1.98 1.32 3 2 C3.1875 4.4375 3.1875 4.4375 3 7 C3 9.0217996 3.0639477 11.04447908 3.1875 13.0625 C3.125625 14.031875 3.06375 15.00125 3 16 C-0.67346771 18.44897847 -2.66356399 18.31537716 -7 18 C-7.66 17.34 -8.32 16.68 -9 16 C-9 15.01 -9 14.02 -9 13 C-7.68 13 -6.36 13 -5 13 C-5 13.66 -5 14.32 -5 15 C-3.68 15 -2.36 15 -1 15 C-1.26676204 13.01508358 -1.26676204 13.01508358 -2 11 C-2.99 10.67 -3.98 10.34 -5 10 C-4.67 9.01 -4.34 8.02 -4 7 C-3.01 7 -2.02 7 -1 7 C-1.33 5.68 -1.66 4.36 -2 3 C-2.598125 3.33 -3.19625 3.66 -3.8125 4 C-6 5 -6 5 -9 5 C-8.625 3.0625 -8.625 3.0625 -8 1 C-5.22899606 -0.38550197 -3.0665294 -0.1877467 0 0 Z " fill="#242424" transform="translate(260,426)"/>
<path d="M0 0 C0 3.63 0 7.26 0 11 C0.99 11 1.98 11 3 11 C3 11.66 3 12.32 3 13 C2.01 13 1.02 13 0 13 C0 14.32 0 15.64 0 17 C-0.99 17 -1.98 17 -3 17 C-3.33 16.01 -3.66 15.02 -4 14 C-6.31 13.67 -8.62 13.34 -11 13 C-10.5972243 6.55558879 -6.58389599 0 0 0 Z " fill="#E8E8E8" transform="translate(261,95)"/>
<path d="M0 0 C0 5.94 0 11.88 0 18 C-1.65 18 -3.3 18 -5 18 C-5 13.71 -5 9.42 -5 5 C-6.32 5.33 -7.64 5.66 -9 6 C-8.6875 4.125 -8.6875 4.125 -8 2 C-5 0 -5 0 0 0 Z " fill="#242424" transform="translate(261,17)"/>
<path d="M0 0 C3.96 0 7.92 0 12 0 C11.55397709 6.69034366 8.92654458 12.02812122 6 18 C4.68 18 3.36 18 2 18 C3.63958758 12.76727367 5.38952035 7.84803364 8 3 C5.36 3 2.72 3 0 3 C0 2.01 0 1.02 0 0 Z " fill="#1B1B1B" transform="translate(251,322)"/>
<path d="M0 0 C3.63 0 7.26 0 11 0 C11.28773432 4.79077635 10.44169975 8.00617556 8.5 12.375 C8.0359375 13.43460938 7.571875 14.49421875 7.09375 15.5859375 C6.7328125 16.38257813 6.371875 17.17921875 6 18 C4.68 18 3.36 18 2 18 C2.62678171 14.33827525 3.64451846 11.1181005 5.0625 7.6875 C5.42472656 6.80449219 5.78695313 5.92148438 6.16015625 5.01171875 C6.43730469 4.34785156 6.71445312 3.68398437 7 3 C4.36 3 1.72 3 -1 3 C-0.67 2.01 -0.34 1.02 0 0 Z " fill="#191919" transform="translate(251,171)"/>
<path d="M0 0 C6.40818182 -0.36272727 6.40818182 -0.36272727 8.9375 1.1875 C10.38718434 3.66049093 10.42317323 5.17884512 10 8 C9 9.8125 9 9.8125 7 11 C4.28125957 11.24667073 1.74116148 11.13481122 -1 11 C-0.34 10.34 0.32 9.68 1 9 C0.835 8.195625 0.67 7.39125 0.5 6.5625 C0 4 0 4 2 1 C1.34 0.67 0.68 0.34 0 0 Z " fill="#E4E4E4" transform="translate(254,355)"/>
<path d="M0 0 C3.4375 0.75 3.4375 0.75 5.4375 2.75 C5.25 4.8125 5.25 4.8125 4.4375 6.75 C3.4475 7.08 2.4575 7.41 1.4375 7.75 C1.4375 9.73 1.4375 11.71 1.4375 13.75 C0.1175 14.08 -1.2025 14.41 -2.5625 14.75 C-3.1875 12.9375 -3.1875 12.9375 -3.5625 10.75 C-2.9025 9.76 -2.2425 8.77 -1.5625 7.75 C-2.5525 6.1 -3.5425 4.45 -4.5625 2.75 C-5.5525 3.74 -6.5425 4.73 -7.5625 5.75 C-7.25 3.875 -7.25 3.875 -6.5625 1.75 C-3.5625 -0.25 -3.5625 -0.25 0 0 Z " fill="#E0E0E0" transform="translate(257.5625,197.25)"/>
<path d="M0 0 C5.75 0.75 5.75 0.75 8 3 C7.8125 6.5 7.8125 6.5 7 10 C3.5647952 12.29013653 2.014669 12.17842973 -2 12 C-1.34 11.34 -0.68 10.68 0 10 C-0.66 9.34 -1.32 8.68 -2 8 C-1.63723355 5.17042171 -0.90305236 2.70915709 0 0 Z " fill="#D6D6D6" transform="translate(256,152)"/>
<path d="M0 0 C-0.66 0.66 -1.32 1.32 -2 2 C-1.67 2.33 -1.34 2.66 -1 3 C-0.95615553 4.66608987 -0.9603287 6.33380554 -1 8 C-1 8.99 -1 9.98 -1 11 C-4.375 11.1875 -4.375 11.1875 -8 11 C-10.15502531 7.76746204 -10.46856135 6.74849077 -10 3 C-7.65127184 -1.00665392 -4.23309225 -0.239609 0 0 Z " fill="#242424" transform="translate(260,223)"/>
<path d="M0 0 C0 5.61 0 11.22 0 17 C-0.99 17 -1.98 17 -3 17 C-3 12.71 -3 8.42 -3 4 C-4.65 4.33 -6.3 4.66 -8 5 C-6.44843568 0.34530705 -4.78780941 0 0 0 Z " fill="#161616" transform="translate(262,479)"/>
<path d="M0 0 C3.63 0 7.26 0 11 0 C11 0.66 11 1.32 11 2 C8.69 2.33 6.38 2.66 4 3 C3.67 4.32 3.34 5.64 3 7 C4.32 7.33 5.64 7.66 7 8 C3.375 11 3.375 11 0 11 C0 7.37 0 3.74 0 0 Z " fill="#111111" transform="translate(251,374)"/>
<path d="M0 0 C-0.04125 0.78375 -0.0825 1.5675 -0.125 2.375 C-0.28728734 5.16116119 -0.28728734 5.16116119 2 7 C-5.50769231 7.36923077 -5.50769231 7.36923077 -8 5.5 C-8.33 5.005 -8.66 4.51 -9 4 C-8.67 3.01 -8.34 2.02 -8 1 C-5.29120665 -0.35439668 -2.99066732 -0.06501451 0 0 Z " fill="#E6E6E6" transform="translate(259,307)"/>
<path d="M0 0 C5.625 -0.25 5.625 -0.25 9 2 C8.67 3.65 8.34 5.3 8 7 C5.69 7 3.38 7 1 7 C1 3 1 3 2 2 C1.34 1.34 0.68 0.68 0 0 Z " fill="#D6D6D6" transform="translate(254,297)"/>
<path d="M0 0 C9.57 0 19.14 0 29 0 C29 0.33 29 0.66 29 1 C26.36 1 23.72 1 21 1 C21 1.66 21 2.32 21 3 C17.7 3 14.4 3 11 3 C11 2.67 11 2.34 11 2 C7.37 1.67 3.74 1.34 0 1 C0 0.67 0 0.34 0 0 Z " fill="#E4E4E4" transform="translate(241,168)"/>
<path d="M0 0 C0.66 0.33 1.32 0.66 2 1 C-4.27 7.27 -10.54 13.54 -17 20 C-17 15.07226315 -13.31928376 12.4002419 -10 9 C-7.93809524 7.09727281 -5.84231852 5.25578971 -3.69921875 3.4453125 C-1.90381734 1.95747294 -1.90381734 1.95747294 0 0 Z " fill="#E6E6E6" transform="translate(167,147)"/>
<path d="M0 0 C0.33 1.65 0.66 3.3 1 5 C-0.6875 6.1875 -0.6875 6.1875 -3 7 C-5.75 5.75 -5.75 5.75 -8 4 C-8 3.34 -8 2.68 -8 2 C-4.91190305 0.23537317 -3.76687864 0 0 0 Z " fill="#E7E7E7" transform="translate(259,383)"/>
<path d="M0 0 C1.32 0.33 2.64 0.66 4 1 C4 2.65 4 4.3 4 6 C2.25 6.6875 2.25 6.6875 0 7 C-2.43334567 5.5399926 -3.72617782 4.54764436 -5 2 C-3.35 2 -1.7 2 0 2 C0 1.34 0 0.68 0 0 Z " fill="#E3E3E3" transform="translate(255,128)"/>
<path d="M0 0 C1.65 0.33 3.3 0.66 5 1 C4.67 2.65 4.34 4.3 4 6 C2.68 6 1.36 6 0 6 C-1.125 2.25 -1.125 2.25 0 0 Z " fill="#252525" transform="translate(255,155)"/>
<path d="M0 0 C0 5.61 0 11.22 0 17 C-0.66 17.33 -1.32 17.66 -2 18 C-1.96519531 17.19175781 -1.93039062 16.38351562 -1.89453125 15.55078125 C-1.86746094 14.48214844 -1.84039062 13.41351563 -1.8125 12.3125 C-1.77769531 11.25675781 -1.74289062 10.20101563 -1.70703125 9.11328125 C-2.03333385 5.64577232 -3.00969875 3.81567552 -5 1 C-1.125 0 -1.125 0 0 0 Z " fill="#E5E5E5" transform="translate(511,266)"/>
<path d="M0 0 C1.9451 2.91765 2.45276317 4.62537285 3 8 C0.13275314 7.42655063 -0.8614515 7.1385485 -3 5 C-2.75 2.9375 -2.75 2.9375 -2 1 C-1.34 0.67 -0.68 0.34 0 0 Z " fill="#131313" transform="translate(253,275)"/>
<path d="M0 0 C0.66 0.33 1.32 0.66 2 1 C1.67 5.95 1.34 10.9 1 16 C0.67 16 0.34 16 0 16 C-1.92814961 9.61300442 -2.23596568 6.28865348 0 0 Z " fill="#D2D2D2" transform="translate(510,233)"/>
<path d="M0 0 C0.99 0.33 1.98 0.66 3 1 C3 2.65 3 4.3 3 6 C1.68 6.33 0.36 6.66 -1 7 C-1.625 4.625 -1.625 4.625 -2 2 C-1.34 1.34 -0.68 0.68 0 0 Z " fill="#202020" transform="translate(256,357)"/>
<path d="M0 0 C3.94859783 0.5640854 6.70879046 1.7431706 10 4 C10 4.33 10 4.66 10 5 C7.03 4.67 4.06 4.34 1 4 C0.67 2.68 0.34 1.36 0 0 Z " fill="#2C2C2C" transform="translate(250,236)"/>
<path d="M0 0 C0.33 0.66 0.66 1.32 1 2 C1.66 2 2.32 2 3 2 C3 3.65 3 5.3 3 7 C2.21625 6.814375 1.4325 6.62875 0.625 6.4375 C-1.97089775 5.74037734 -1.97089775 5.74037734 -4 7 C-2.79618552 4.50638429 -1.54571278 2.31856917 0 0 Z " fill="#888888" transform="translate(254,99)"/>
<path d="M0 0 C0 3 0 3 -1 5 C0.32 5 1.64 5 3 5 C3 5.66 3 6.32 3 7 C0.69 7 -1.62 7 -4 7 C-3.6875 4.625 -3.6875 4.625 -3 2 C-2.01 1.34 -1.02 0.68 0 0 Z " fill="#F3F3F3" transform="translate(254,407)"/>
<path d="M0 0 C3.86463725 0.41406828 6.12722 2.52621722 9 5 C6.36 5 3.72 5 1 5 C0.34 3.68 -0.32 2.36 -1 1 C-0.67 0.67 -0.34 0.34 0 0 Z " fill="#242424" transform="translate(251,387)"/>
<path d="M0 0 C2.31 0.66 4.62 1.32 7 2 C6.01 3.485 6.01 3.485 5 5 C1.375 5.1875 1.375 5.1875 -2 5 C-1.34 3.35 -0.68 1.7 0 0 Z " fill="#3A3A3A" transform="translate(256,350)"/>
<path d="M0 0 C4.31392226 0.4793247 6.16569547 1.7457985 9 5 C3.375 5.25 3.375 5.25 0 3 C0 2.01 0 1.02 0 0 Z " fill="#2D2D2D" transform="translate(250,285)"/>
<path d="M0 0 C2.31 0 4.62 0 7 0 C7.66 1.32 8.32 2.64 9 4 C6.36 3.67 3.72 3.34 1 3 C0.67 2.01 0.34 1.02 0 0 Z " fill="#E9E9E9" transform="translate(254,348)"/>
<path d="M0 0 C0.97582031 0.19464844 1.95164062 0.38929688 2.95703125 0.58984375 C4.06111328 0.82380859 4.06111328 0.82380859 5.1875 1.0625 C5.1875 1.3925 5.1875 1.7225 5.1875 2.0625 C3.4584226 2.08975341 1.72921824 2.10900987 0 2.125 C-1.44439453 2.14240234 -1.44439453 2.14240234 -2.91796875 2.16015625 C-5.66826513 2.06736622 -8.13729591 1.68361685 -10.8125 1.0625 C-10.8125 0.7325 -10.8125 0.4025 -10.8125 0.0625 C-6.8710998 -0.96788433 -3.97634848 -0.81443282 0 0 Z " fill="#D0D0D0" transform="translate(256.8125,289.9375)"/>
<path d="M0 0 C1.32 0 2.64 0 4 0 C4 1.65 4 3.3 4 5 C2.35 4.67 0.7 4.34 -1 4 C-0.67 2.68 -0.34 1.36 0 0 Z " fill="#242424" transform="translate(255,307)"/>
<path d="M0 0 C1.32 0 2.64 0 4 0 C4 1.65 4 3.3 4 5 C2.35 4.67 0.7 4.34 -1 4 C-0.67 2.68 -0.34 1.36 0 0 Z " fill="#E8E8E8" transform="translate(255,226)"/>
<path d="M0 0 C-0.33 1.32 -0.66 2.64 -1 4 C-3.96175123 3.38722388 -5.38058783 2.74627478 -8 1 C-5.29120665 -0.35439668 -2.99066732 -0.06501451 0 0 Z " fill="#E6E6E6" transform="translate(259,234)"/>
<path d="M0 0 C3.37462715 0.54723683 5.08235 1.0549 8 3 C7 4 7 4 3.9375 4.0625 C2.968125 4.041875 1.99875 4.02125 1 4 C0.67 2.68 0.34 1.36 0 0 Z " fill="#121212" transform="translate(250,133)"/>
<path d="M0 0 C-0.33 1.32 -0.66 2.64 -1 4 C-3.96175123 3.38722388 -5.38058783 2.74627478 -8 1 C-5.07175348 0.02391783 -3.04386724 -0.08226668 0 0 Z " fill="#E9E9E9" transform="translate(259,283)"/>
<path d="M0 0 C1.98 0.495 1.98 0.495 4 1 C3.67 2.32 3.34 3.64 3 5 C1.68 4.67 0.36 4.34 -1 4 C-0.67 2.68 -0.34 1.36 0 0 Z " fill="#111111" transform="translate(255,207)"/>
<path d="M0 0 C1.98 0.495 1.98 0.495 4 1 C3.67 2.32 3.34 3.64 3 5 C1.68 4.67 0.36 4.34 -1 4 C-0.67 2.68 -0.34 1.36 0 0 Z " fill="#1C1C1C" transform="translate(255,199)"/>
<path d="M0 0 C2.31 0 4.62 0 7 0 C5.25 2 5.25 2 3 4 C1.68 4 0.36 4 -1 4 C-0.67 2.68 -0.34 1.36 0 0 Z " fill="#F6F6F6" transform="translate(252,452)"/>
<path d="M0 0 C2.0625 0.4375 2.0625 0.4375 4 1 C3.67 2.32 3.34 3.64 3 5 C2.01 5 1.02 5 0 5 C-0.5625 3.0625 -0.5625 3.0625 -1 1 C-0.67 0.67 -0.34 0.34 0 0 Z " fill="#DFDFDF" transform="translate(255,275)"/>
<path d="M0 0 C-0.33 0.99 -0.66 1.98 -1 3 C-1.763125 2.938125 -2.52625 2.87625 -3.3125 2.8125 C-6.04525312 2.74101915 -6.04525312 2.74101915 -7.8125 4.5 C-8.204375 4.995 -8.59625 5.49 -9 6 C-8.6875 4.125 -8.6875 4.125 -8 2 C-4.77208445 -0.1519437 -3.71599191 -0.20086443 0 0 Z " fill="#D5D5D5" transform="translate(259,197)"/>
<path d="M0 0 C1.32 0 2.64 0 4 0 C5.75 2 5.75 2 7 4 C5.02 4 3.04 4 1 4 C0.67 2.68 0.34 1.36 0 0 Z " fill="#181818" transform="translate(251,439)"/>
<path d="M0 0 C0.99 0.33 1.98 0.66 3 1 C2.67 2.32 2.34 3.64 2 5 C0.68 4.67 -0.64 4.34 -2 4 C-1.34 2.68 -0.68 1.36 0 0 Z " fill="#242424" transform="translate(256,299)"/>
<path d="M0 0 C1.98 0 3.96 0 6 0 C4.1875 2 4.1875 2 2 4 C1.01 4 0.02 4 -1 4 C-0.67 2.68 -0.34 1.36 0 0 Z " fill="#1B1B1B" transform="translate(252,427)"/>
<path d="M0 0 C1.65 0 3.3 0 5 0 C3.6875 2 3.6875 2 2 4 C1.01 4 0.02 4 -1 4 C-0.67 2.68 -0.34 1.36 0 0 Z " fill="#ECECEC" transform="translate(252,43)"/>
</svg>
