<?xml version="1.0" encoding="UTF-8"?>
<svg version="1.1" xmlns="http://www.w3.org/2000/svg" width="706" height="706">
<path d="M0 0 C6.39116211 6.74622668 5.3381751 15.02399693 5.10644531 23.80419922 C4.33769572 39.66230428 4.33769572 39.66230428 2 42 C-0.10024939 53.6721652 -0.32281616 65.30326062 -0.25 77.125 C-0.2478952 77.97363617 -0.24579041 78.82227234 -0.24362183 79.69662476 C-1.3739666 100.92804552 -1.3739666 100.92804552 3 121 C3.28132172 123.23602901 3.51228147 125.47847748 3.71875 127.72265625 C3.78155151 128.38333603 3.84435303 129.04401581 3.90905762 129.72471619 C4.17808246 132.55493193 4.4379049 135.38597009 4.69775391 138.21704102 C4.88862134 140.28177201 5.08475092 142.34595486 5.28125 144.41015625 C5.45237305 146.26846069 5.45237305 146.26846069 5.62695312 148.16430664 C5.69367362 150.89661969 5.69367362 150.89661969 7 152 C7.21425831 153.47302586 7.37045055 154.95462147 7.5 156.4375 C7.5825 157.33210937 7.665 158.22671875 7.75 159.1484375 C7.91666667 161.04947917 8.08333333 162.95052083 8.25 164.8515625 C8.3325 165.74617187 8.415 166.64078125 8.5 167.5625 C8.5721875 168.38878906 8.644375 169.21507812 8.71875 170.06640625 C8.80365276 172.00297358 8.80365276 172.00297358 10 173 C10.28784474 175.12944827 10.51594207 177.26702737 10.71875 179.40625 C10.91017578 181.35724609 10.91017578 181.35724609 11.10546875 183.34765625 C11.30391368 185.42812733 11.50082724 187.5087402 11.69775391 189.58935547 C11.88869553 191.59116279 12.08489021 193.59246689 12.28125 195.59375 C12.39533203 196.79708984 12.50941406 198.00042969 12.62695312 199.24023438 C12.7033741 201.90537854 12.7033741 201.90537854 14 203 C14.28752967 205.05636405 14.51577716 207.12107593 14.71875 209.1875 C14.91017578 211.07082031 14.91017578 211.07082031 15.10546875 212.9921875 C15.30390916 215.00022719 15.50082502 217.00841314 15.69775391 219.01660156 C15.88871141 220.94892094 16.08489877 222.88072125 16.28125 224.8125 C16.39533203 225.97394531 16.50941406 227.13539063 16.62695312 228.33203125 C16.71515751 230.91594954 16.71515751 230.91594954 18 232 C18.48072772 235.63550336 18.87290691 239.27077151 19.25 242.91796875 C19.32750837 246.77842521 19.32750837 246.77842521 21 250 C21.28643064 251.83705518 21.51519727 253.68317519 21.71875 255.53125 C21.84636719 256.65144531 21.97398437 257.77164062 22.10546875 258.92578125 C22.36848958 261.30859375 22.63151042 263.69140625 22.89453125 266.07421875 C23.02214844 267.19441406 23.14976562 268.31460937 23.28125 269.46875 C23.39533203 270.50451172 23.50941406 271.54027344 23.62695312 272.60742188 C23.75093673 274.94751359 23.75093673 274.94751359 25 276 C25.27333489 277.54734079 25.49093314 279.10462113 25.68359375 280.6640625 C25.86825195 282.10072266 25.86825195 282.10072266 26.05664062 283.56640625 C26.30761336 285.58191036 26.55763643 287.59753299 26.80664062 289.61328125 C27.49041971 294.92054066 28.39328928 299.87742817 30 305 C31.86131551 312.39872916 33.38346552 319.79202761 34.47265625 327.34375 C34.91054516 329.98473842 34.91054516 329.98473842 35.92578125 332.28515625 C37.42699448 336.07913152 38.24823494 339.95958446 39.125 343.9375 C39.30675781 344.72318359 39.48851562 345.50886719 39.67578125 346.31835938 C40.63518366 350.62845667 41.21411465 354.55355254 41 359 C41.66 359 42.32 359 43 359 C43.29003906 360.62808594 43.29003906 360.62808594 43.5859375 362.2890625 C43.84872917 363.73441668 44.11176286 365.17972688 44.375 366.625 C44.50132812 367.33785156 44.62765625 368.05070312 44.7578125 368.78515625 C45.53245114 373.00693682 46.57516211 376.9400372 48 381 C50.80830637 390.71257051 53.0848193 400.53681846 55.24926758 410.41015625 C56.27694193 415.04906246 57.45039684 419.50203684 59 424 C59.33926947 426.33247761 59.67240066 428.66585471 60 431 C60.66084583 433.33498858 61.32811503 435.66816393 62 438 C62.52732856 440.53035953 63.01287537 443.06709276 63.5 445.60546875 C64.00005018 448.17421782 64.00005018 448.17421782 65 451.3125 C66.25303297 455.93305909 66.88214158 460.56628353 67.53515625 465.3046875 C67.71772372 467.90993824 67.71772372 467.90993824 69 469 C69.37548773 471.81322448 69.70657723 474.6155982 70 477.4375 C70.36887187 482.88368589 70.36887187 482.88368589 72 488 C72.12353595 490.73894182 72.18843403 493.45138282 72.203125 496.19140625 C72.20882507 497.010681 72.21452515 497.82995575 72.22039795 498.67405701 C72.22985662 500.41330675 72.23638537 502.15257449 72.24023438 503.8918457 C72.24987325 506.52783569 72.28085947 509.16302346 72.3125 511.79882812 C72.319037 513.49218289 72.32428473 515.18554322 72.328125 516.87890625 C72.3404718 517.65738419 72.3528186 518.43586212 72.36553955 519.2379303 C72.34277884 524.9537328 71.07759309 529.68903833 69 535 C68.34 535 67.68 535 67 535 C66.773125 535.763125 66.54625 536.52625 66.3125 537.3125 C64.62176495 540.77448129 63.58975819 541.57905405 60 543 C54.84552051 543.53466238 50.56654087 543.64711722 46 541 C46 540.34 46 539.68 46 539 C45.01 538.67 44.02 538.34 43 538 C43 537.34 43 536.68 43 536 C42.34 536 41.68 536 41 536 C40.79503906 535.28972656 40.59007812 534.57945312 40.37890625 533.84765625 C40.10949219 532.92855469 39.84007812 532.00945313 39.5625 531.0625 C39.16224609 529.68771484 39.16224609 529.68771484 38.75390625 528.28515625 C38.20973949 526.0597507 38.20973949 526.0597507 37 525 C36.88776751 523.47870387 36.84325614 521.95233945 36.82641602 520.42700195 C36.81292618 519.45120682 36.79943634 518.47541168 36.78553772 517.470047 C36.76988014 515.87032295 36.76988014 515.87032295 36.75390625 514.23828125 C36.72091873 511.98111663 36.68770805 509.72395526 36.65429688 507.46679688 C36.60723191 503.90814895 36.56291307 500.34950918 36.52319336 496.79077148 C36.37309459 474.62943095 36.37309459 474.62943095 32 453 C31.835 451.824375 31.67 450.64875 31.5 449.4375 C31.1224053 446.07719316 31.1224053 446.07719316 30.0625 443.3125 C29.05543543 440.17282811 28.50916672 437.2514505 28 434 C27.3392026 429.79257904 26.37276215 426.03248883 25 422 C24.47233375 419.26685374 24.00474083 416.52946089 23.5625 413.78125 C22.94751717 410.74050158 21.99724679 407.93714656 21 405 C20.2634861 402.35768919 19.55363361 399.71922491 18.875 397.0625 C18.69324219 396.38509766 18.51148438 395.70769531 18.32421875 395.00976562 C17.18596366 390.54660749 16.81987627 386.60516341 17 382 C16.34 382 15.68 382 15 382 C14.87882812 381.27554687 14.75765625 380.55109375 14.6328125 379.8046875 C13.6139624 373.83023967 13.6139624 373.83023967 12 368 C10.74921574 364.24764722 10.1676152 360.48325451 9.50390625 356.58984375 C9.05013639 353.90247505 9.05013639 353.90247505 7.9375 351.0625 C6.43594606 346.1574238 6.3136792 341.1014143 6 336 C5.34 336 4.68 336 4 336 C3.89042969 335.21496094 3.78085937 334.42992187 3.66796875 333.62109375 C2.76972902 327.66934268 1.941714 322.2950852 -1 317 C-1.99 316.67 -2.98 316.34 -4 316 C-4 315.34 -4 314.68 -4 314 C-7.64616671 314.13816959 -11.29183074 314.28681534 -14.9375 314.4375 C-15.97841797 314.47681641 -17.01933594 314.51613281 -18.09179688 314.55664062 C-19.08115234 314.59853516 -20.07050781 314.64042969 -21.08984375 314.68359375 C-22.00628662 314.72025146 -22.92272949 314.75690918 -23.86694336 314.79467773 C-25.9820728 314.77003864 -25.9820728 314.77003864 -27 316 C-29.26521297 316.21762366 -31.53655702 316.37194157 -33.80859375 316.5 C-34.49051285 316.54060547 -35.17243195 316.58121094 -35.87501526 316.62304688 C-38.06227824 316.75312291 -40.24981589 316.87722303 -42.4375 317 C-45.31151525 317.16168507 -48.18511139 317.3291357 -51.05859375 317.5 C-52.34048584 317.5721875 -53.62237793 317.644375 -54.94311523 317.71875 C-57.91349245 317.80533512 -57.91349245 317.80533512 -60 319 C-62.13054529 319.26963562 -64.26756211 319.48880998 -66.40625 319.68359375 C-67.70820313 319.80669922 -69.01015625 319.92980469 -70.3515625 320.05664062 C-72.41359311 320.24682082 -74.47576562 320.43530242 -76.53808594 320.62231445 C-83.71466 321.2782846 -90.73105994 322.03462171 -97.77441406 323.56958008 C-101.37225221 324.2653884 -104.97022956 324.45855884 -108.625 324.625 C-109.34300781 324.66367187 -110.06101563 324.70234375 -110.80078125 324.7421875 C-112.53352095 324.83460028 -114.26672299 324.91828223 -116 325 C-116 325.66 -116 326.32 -116 327 C-120.62 327.33 -125.24 327.66 -130 328 C-130 328.66 -130 329.32 -130 330 C-131.08539063 330.19335938 -132.17078125 330.38671875 -133.2890625 330.5859375 C-134.73441668 330.84872917 -136.17972688 331.11176286 -137.625 331.375 C-138.33785156 331.50132812 -139.05070312 331.62765625 -139.78515625 331.7578125 C-144.01033724 332.53307507 -147.93115441 333.59478013 -152 335 C-153.41123002 335.39312593 -154.82560389 335.77506231 -156.2421875 336.1484375 C-156.99886719 336.34953125 -157.75554687 336.550625 -158.53515625 336.7578125 C-160.08583044 337.16683841 -161.63791593 337.57055349 -163.19140625 337.96875 C-169.35197787 339.62133118 -178.60545366 342.11092646 -182.1328125 347.83984375 C-182.46023437 348.53207031 -182.78765625 349.22429687 -183.125 349.9375 C-183.45757812 350.62714844 -183.79015625 351.31679688 -184.1328125 352.02734375 C-185.09853112 354.14177179 -185.09853112 354.14177179 -186 357 C-186.66 357 -187.32 357 -188 357 C-188.103125 358.134375 -188.20625 359.26875 -188.3125 360.4375 C-188.80771222 364.47814459 -189.90655734 368.10022941 -191.28125 371.921875 C-191.97619242 373.93116503 -192.5153817 375.93105266 -193 378 C-193.66 378 -194.32 378 -195 378 C-195.03738281 378.58265625 -195.07476562 379.1653125 -195.11328125 379.765625 C-195.58709295 385.67433566 -196.72687896 391.12869819 -198.2421875 396.8515625 C-199.28551158 401.1861976 -199.89969185 405.5505564 -200.53125 409.9609375 C-201.05090856 413.33005716 -201.77815333 416.61069103 -202.5625 419.92578125 C-203.02395378 422.1135666 -203.31090387 424.27887791 -203.5625 426.5 C-204 430 -204 430 -205 431 C-205.27527178 432.80460123 -205.49194958 434.618206 -205.68359375 436.43359375 C-205.80669922 437.55830078 -205.92980469 438.68300781 -206.05664062 439.84179688 C-206.30682108 442.20375694 -206.55682653 444.56573554 -206.80664062 446.92773438 C-207.46582602 452.9492051 -208.27565686 458.84394758 -209.53833008 464.76879883 C-210.21501523 468.0391455 -210.67087129 471.31634795 -211.125 474.625 C-211.29257813 475.83414062 -211.46015625 477.04328125 -211.6328125 478.2890625 C-211.75398438 479.18367188 -211.87515625 480.07828125 -212 481 C-212.66 481 -213.32 481 -214 481 C-213.979375 482.0725 -213.95875 483.145 -213.9375 484.25 C-213.9857984 487.14790424 -214.13155885 489.28612141 -215 492 C-215.66 492 -216.32 492 -217 492 C-217.144375 493.27875 -217.28875 494.5575 -217.4375 495.875 C-217.70642746 498.25692894 -217.92226346 499.84452691 -219 502 C-219.66 502 -220.32 502 -221 502 C-221.0928125 502.8353125 -221.0928125 502.8353125 -221.1875 503.6875 C-222.63363489 507.80342237 -225.93313755 510.14058302 -229.25 512.8125 C-233.23083182 514.53149556 -236.73625194 514.79430105 -241 514 C-243.79332206 512.64108656 -244.8774739 511.44090502 -247 509 C-247.875 505.6875 -247.875 505.6875 -248 503 C-248.66 503 -249.32 503 -250 503 C-250 497.39 -250 491.78 -250 486 C-249.34 486 -248.68 486 -248 486 C-248.061875 485.0925 -248.12375 484.185 -248.1875 483.25 C-248.17063454 478.9577415 -247.10226618 475.14773008 -246 471.01953125 C-244.5704348 465.47549872 -243.46846571 459.85596213 -242.3125 454.25 C-241.97279175 452.60463257 -241.97279175 452.60463257 -241.6262207 450.92602539 C-241.08224081 448.28440239 -240.5400873 445.64242117 -240 443 C-239.34 443 -238.68 443 -238 443 C-238.04125 442.05125 -238.0825 441.1025 -238.125 440.125 C-238.125 433.13205373 -236.19277899 426.57833697 -234 420 C-233.64984951 418.33678518 -233.31802943 416.66965451 -233 415 C-232.26916929 411.19288188 -231.29625085 407.6600024 -230 404 C-228.23249813 398.44908873 -226.67227413 392.91687281 -225.52734375 387.203125 C-224.85725773 384.40365451 -223.91720376 381.72892425 -223 379 C-222.10244085 376.04824406 -221.23846471 373.08688476 -220.375 370.125 C-220.14554688 369.34125 -219.91609375 368.5575 -219.6796875 367.75 C-219.11879701 365.83362417 -218.55925982 363.91685235 -218 362 C-217.34 362 -216.68 362 -216 362 C-215.61640111 355.73455149 -216.28914124 351.64762241 -219 346 C-219 345.01 -219 344.02 -219 343 C-219.99 342.67 -220.98 342.34 -222 342 C-223.90013142 336.97743041 -223.87725554 330.66216658 -222.2109375 325.60546875 C-221.25302795 323.57630921 -220.38129628 321.76935276 -219 320 C-218.01 319.67 -217.02 319.34 -216 319 C-214.79117904 316.99983534 -214.79117904 316.99983534 -214 315 C-213.34 315 -212.68 315 -212 315 C-211.67 314.01 -211.34 313.02 -211 312 C-210.01 312 -209.02 312 -208 312 C-208 311.34 -208 310.68 -208 310 C-205.8828125 308.59765625 -205.8828125 308.59765625 -203.125 307.0625 C-199.73864557 305.17636812 -198.1852746 304.2779119 -196 301 C-195.34 301 -194.68 301 -194 301 C-193.731875 300.13375 -193.46375 299.2675 -193.1875 298.375 C-192.02888013 295.08208036 -190.61790161 292.08872125 -189 289 C-188.34 289 -187.68 289 -187 289 C-186.90525391 287.80890625 -186.90525391 287.80890625 -186.80859375 286.59375 C-185.71505259 281.73356707 -183.4652967 277.83379602 -181.0625 273.5 C-176.93221966 266.01571705 -176.93221966 266.01571705 -174 258 C-173.34 258 -172.68 258 -172 258 C-171.92136719 257.17628906 -171.84273438 256.35257812 -171.76171875 255.50390625 C-170.81379816 251.14347155 -168.9781433 247.80506553 -166.8125 243.9375 C-162.88812012 236.74738291 -159.3223002 229.49146122 -156 222 C-155.34 222 -154.68 222 -154 222 C-153.81775879 220.89422607 -153.81775879 220.89422607 -153.63183594 219.76611328 C-153.01859061 217.08138778 -152.20291752 215.1469497 -150.890625 212.7421875 C-150.46765137 211.95626221 -150.04467773 211.17033691 -149.60888672 210.3605957 C-149.1604541 209.54034912 -148.71202148 208.72010254 -148.25 207.875 C-144.56283803 201.01493467 -141.05991148 194.16663478 -138 187 C-137.34 187 -136.68 187 -136 187 C-135.7834375 185.576875 -135.7834375 185.576875 -135.5625 184.125 C-135 181 -135 181 -134 179 C-133.34 179 -132.68 179 -132 179 C-131.731875 177.96875 -131.46375 176.9375 -131.1875 175.875 C-130.19001103 172.3514958 -128.7338102 169.23119173 -127 166 C-126.34 166 -125.68 166 -125 166 C-124.88785156 165.28457031 -124.77570313 164.56914062 -124.66015625 163.83203125 C-123.95543995 160.80884002 -122.86712202 158.43677312 -121.4375 155.6875 C-120.98246094 154.80449219 -120.52742187 153.92148438 -120.05859375 153.01171875 C-119.70925781 152.34785156 -119.35992187 151.68398437 -119 151 C-118.34 151 -117.68 151 -117 151 C-116.9175 150.34 -116.835 149.68 -116.75 149 C-115.75240209 145.00960837 -113.92833317 141.61450357 -112 138 C-111.34 138 -110.68 138 -110 138 C-109.67 136.35 -109.34 134.7 -109 133 C-108.34 133 -107.68 133 -107 133 C-106.8453125 131.63875 -106.8453125 131.63875 -106.6875 130.25 C-105.96374695 126.82862196 -105.07711611 125.70226756 -103 123 C-102.15136161 121.43573865 -101.33997065 119.85082481 -100.5625 118.25 C-100.13710937 117.38117188 -99.71171875 116.51234375 -99.2734375 115.6171875 C-98.85320312 114.75351563 -98.43296875 113.88984375 -98 113 C-97.23115143 111.45734255 -96.46052553 109.91556862 -95.6875 108.375 C-95.130625 107.26125 -94.57375 106.1475 -94 105 C-93.34 105 -92.68 105 -92 105 C-91.9175 104.319375 -91.835 103.63875 -91.75 102.9375 C-90.77667472 99.1253093 -89.04192545 96.35929671 -87 93 C-86.34 93 -85.68 93 -85 93 C-84.855625 92.21625 -84.71125 91.4325 -84.5625 90.625 C-84 88 -84 88 -83 86 C-82.34 86 -81.68 86 -81 86 C-80.83757812 84.90751953 -80.83757812 84.90751953 -80.671875 83.79296875 C-79.95380387 80.80796376 -78.90126874 78.88728759 -77.25 76.3125 C-74.16402465 71.35555893 -71.52891979 66.25925796 -69 61 C-68.34 61 -67.68 61 -67 61 C-66.7834375 59.824375 -66.7834375 59.824375 -66.5625 58.625 C-66 56 -66 56 -65 54 C-64.34 54 -63.68 54 -63 54 C-62.9175 53.319375 -62.835 52.63875 -62.75 51.9375 C-61.77667472 48.1253093 -60.04192545 45.35929671 -58 42 C-57.34 42 -56.68 42 -56 42 C-55.7834375 40.824375 -55.7834375 40.824375 -55.5625 39.625 C-55 37 -55 37 -54 35 C-53.34 35 -52.68 35 -52 35 C-51.5978125 33.9171875 -51.5978125 33.9171875 -51.1875 32.8125 C-48.12676056 25.56338028 -48.12676056 25.56338028 -45 24 C-43.86649466 21.98330173 -43.86649466 21.98330173 -43 20 C-42.34 20 -41.68 20 -41 20 C-40.72414062 19.40832031 -40.44828125 18.81664063 -40.1640625 18.20703125 C-36.76428828 11.7611506 -30.79975737 6.29756796 -25 2 C-24.34 2 -23.68 2 -23 2 C-23 1.34 -23 0.68 -23 0 C-15.90310528 -5.06921051 -7.0292643 -5.46720556 0 0 Z M-43 87 C-43.33 87.99 -43.66 88.98 -44 90 C-44.60585937 90.28746094 -45.21171875 90.57492188 -45.8359375 90.87109375 C-48.74244155 92.38730254 -49.84387147 94.33588253 -51.625 97.0625 C-54.80555556 101.90277778 -54.80555556 101.90277778 -57 103 C-57.73075648 105.3140622 -58.40138258 107.64828869 -59 110 C-59.66 110 -60.32 110 -61 110 C-61.33773437 110.63808594 -61.67546875 111.27617187 -62.0234375 111.93359375 C-62.46945313 112.75988281 -62.91546875 113.58617187 -63.375 114.4375 C-64.03628906 115.67306641 -64.03628906 115.67306641 -64.7109375 116.93359375 C-66 119 -66 119 -68 120 C-69.57548683 122.62581138 -70 123.87099787 -70 127 C-70.66 127 -71.32 127 -72 127 C-72.83848804 128.45537568 -73.67063934 129.91440373 -74.5 131.375 C-74.9640625 132.18710938 -75.428125 132.99921875 -75.90625 133.8359375 C-77.15035859 135.89336874 -77.15035859 135.89336874 -77 138 C-77.66 138 -78.32 138 -79 138 C-79.83819158 139.62249941 -80.6704116 141.24808497 -81.5 142.875 C-81.9640625 143.77992188 -82.428125 144.68484375 -82.90625 145.6171875 C-84.13905589 147.86596859 -84.13905589 147.86596859 -84 150 C-84.66 150 -85.32 150 -86 150 C-86.57041016 151.42119141 -86.57041016 151.42119141 -87.15234375 152.87109375 C-89.65823925 158.72014519 -92.92654329 164.17664676 -96.06054688 169.70507812 C-98.49672154 174.05986396 -100.65636099 178.15812924 -102 183 C-102.66 183 -103.32 183 -104 183 C-104.66 185.31 -105.32 187.62 -106 190 C-106.66 190 -107.32 190 -108 190 C-108.23074219 190.54527344 -108.46148437 191.09054687 -108.69921875 191.65234375 C-110.86198322 196.6532023 -113.2604174 201.37142442 -116.046875 206.0546875 C-117.21999308 208.08795873 -117.21999308 208.08795873 -117 211 C-117.66 211 -118.32 211 -119 211 C-119.43082886 211.91495239 -119.43082886 211.91495239 -119.87036133 212.84838867 C-121.1817165 215.62937058 -122.49706809 218.40844426 -123.8125 221.1875 C-124.26431641 222.14720703 -124.71613281 223.10691406 -125.18164062 224.09570312 C-125.62314453 225.02705078 -126.06464844 225.95839844 -126.51953125 226.91796875 C-127.12438354 228.19837036 -127.12438354 228.19837036 -127.74145508 229.50463867 C-129 232 -129 232 -130.6550293 234.63012695 C-132.24678994 236.98069521 -132.24678994 236.98069521 -132 240 C-132.66 240 -133.32 240 -134 240 C-135.33957921 242.78871177 -136.67058435 245.58143062 -138 248.375 C-138.57234375 249.56609375 -138.57234375 249.56609375 -139.15625 250.78125 C-139.5171875 251.54179687 -139.878125 252.30234375 -140.25 253.0859375 C-140.58515625 253.7876709 -140.9203125 254.4894043 -141.265625 255.21240234 C-142.12666664 256.98623448 -142.12666664 256.98623448 -142 259 C-142.66 259 -143.32 259 -144 259 C-148.99388833 269.53013834 -148.99388833 269.53013834 -150 281 C-148.1730847 283.25312838 -148.1730847 283.25312838 -145.49609375 283.23046875 C-135.14449685 283.85341483 -135.14449685 283.85341483 -126 281 C-124.40423529 280.78479034 -122.80033869 280.62911685 -121.1953125 280.5 C-120.21949219 280.4175 -119.24367187 280.335 -118.23828125 280.25 C-117.21089844 280.1675 -116.18351562 280.085 -115.125 280 C-113.10649706 279.83668244 -111.08825052 279.67015551 -109.0703125 279.5 C-108.17070801 279.4278125 -107.27110352 279.355625 -106.34423828 279.28125 C-103.85002111 279.06165608 -103.85002111 279.06165608 -101 278 C-98.44425257 277.76395992 -95.909798 277.57632391 -93.34863281 277.43701172 C-92.59287586 277.39461805 -91.83711891 277.35222439 -91.05846024 277.30854607 C-83.89364995 276.9394366 -76.74896474 276.90995084 -69.57689667 276.98596573 C-67.34783186 277.00856312 -65.11885841 277.02225735 -62.88970947 277.03366089 C-56.5674627 277.06676239 -50.24537309 277.10938877 -43.92333984 277.17138672 C-40.01989374 277.20904891 -36.11659042 277.23204765 -32.21298981 277.24569321 C-30.73780509 277.25371532 -29.26263917 277.26727845 -27.78755951 277.28662491 C-25.73546941 277.31314246 -23.68407624 277.32099821 -21.63183594 277.32470703 C-20.46843689 277.33438507 -19.30503784 277.34406311 -18.10638428 277.35403442 C-14.63559269 276.95846852 -12.74960676 276.13025074 -10 274 C-7.95668277 264.45499365 -10.33212753 251.78888032 -13.00390625 242.515625 C-14.03459931 238.87788478 -14.58700753 235.37299948 -15.0625 231.625 C-15.25082566 227.48836389 -15.25082566 227.48836389 -17 224 C-17.47930671 220.79463638 -17.87206832 217.58941822 -18.25 214.37109375 C-18.40362705 210.88890725 -18.40362705 210.88890725 -20 208 C-20.28553667 206.30920433 -20.51472007 204.60880484 -20.71875 202.90625 C-20.91017578 201.36130859 -20.91017578 201.36130859 -21.10546875 199.78515625 C-21.36848958 197.59505208 -21.63151042 195.40494792 -21.89453125 193.21484375 C-22.02214844 192.18488281 -22.14976562 191.15492188 -22.28125 190.09375 C-22.39533203 189.14177734 -22.50941406 188.18980469 -22.62695312 187.20898438 C-22.7752315 185.03160603 -22.7752315 185.03160603 -24 184 C-24.35506541 181.35341999 -24.66200218 178.71752622 -24.9375 176.0625 C-25.69870886 169.08257866 -25.69870886 169.08257866 -27 162.1875 C-28.34183096 156.1334123 -28.75847445 149.94469604 -29.30273438 143.77807617 C-29.37943359 142.93349854 -29.45613281 142.0889209 -29.53515625 141.21875 C-29.63389038 140.0730957 -29.63389038 140.0730957 -29.73461914 138.90429688 C-29.90812937 136.91750813 -29.90812937 136.91750813 -31 135 C-31.29765307 132.01599524 -31.54479502 129.0451505 -31.75390625 126.0546875 C-31.81907944 125.1696756 -31.88425262 124.2846637 -31.95140076 123.37283325 C-32.15906061 120.54049468 -32.36084425 117.70777177 -32.5625 114.875 C-32.70208773 112.9570031 -32.84205683 111.03903392 -32.98242188 109.12109375 C-33.32604392 104.41437291 -33.66439578 99.70729906 -34 95 C-34.66 95 -35.32 95 -36 95 C-36.495 91.535 -36.495 91.535 -37 88 C-38.98 87.67 -40.96 87.34 -43 87 Z " fill="#FEFEFE" transform="translate(282,75)"/>
<path d="M0 0 C4.73929681 2.37334521 8.69356807 3.58136096 13.9375 2.25 C15.53444467 1.30597989 17.09580822 0.30022796 18.625 -0.75 C24.78048142 -4.81512231 30.77451847 -4.78090057 37.9375 -3.75 C42.93245394 -1.51088272 45.36627297 1.46219795 47.9375 6.25 C50.52402982 13.18533697 51.5335256 19.96390461 52.0625 27.3125 C52.20712614 29.17868471 52.35535801 31.04459475 52.5078125 32.91015625 C52.56727051 33.72105713 52.62672852 34.53195801 52.68798828 35.36743164 C52.74466569 37.25985595 52.74466569 37.25985595 53.9375 38.25 C54.03702293 40.39200324 54.06549679 42.53732705 54.06689453 44.68164062 C54.06952301 45.68894478 54.06952301 45.68894478 54.07220459 46.71659851 C54.0766223 48.94650828 54.07368542 51.17633936 54.0703125 53.40625 C54.07098556 54.94942236 54.07195561 56.49259461 54.07321167 58.0357666 C54.07468853 61.2740174 54.07253447 64.51224067 54.06787109 67.75048828 C54.0621738 71.91042523 54.06545287 76.07029766 54.07144356 80.23023224 C54.07504949 83.41799408 54.07391044 86.60574051 54.07131577 89.79350281 C54.07064658 91.32777412 54.07147461 92.86204682 54.07379532 94.39631653 C54.07632238 96.53703541 54.07248054 98.67764842 54.06689453 100.81835938 C54.06609894 102.03890015 54.06530334 103.25944092 54.06448364 104.51696777 C53.9375 107.25 53.9375 107.25 52.9375 108.25 C52.71791077 111.2647771 52.55795652 114.26203476 52.4375 117.28125 C52.39689453 118.18750122 52.35628906 119.09375244 52.31445312 120.02746582 C52.18429826 122.93480001 52.06019005 125.84234177 51.9375 128.75 C51.77617928 132.57317495 51.6087816 136.39600983 51.4375 140.21875 C51.40205078 141.10727661 51.36660156 141.99580322 51.33007812 142.91125488 C51.05030181 149.13719819 51.05030181 149.13719819 49.9375 150.25 C49.83317447 152.06853585 49.79895444 153.89113301 49.79223633 155.71264648 C49.78585648 156.88153915 49.77947662 158.05043182 49.77290344 159.25474548 C49.77179062 160.53064041 49.7706778 161.80653534 49.76953125 163.12109375 C49.76620285 164.42772476 49.76287445 165.73435577 49.75944519 167.08058167 C49.75344231 169.85735904 49.7516061 172.63410526 49.75219727 175.41088867 C49.75229811 178.94448086 49.73873226 182.47786857 49.72142506 186.01141262 C49.70751515 189.40214204 49.70821257 192.79283625 49.70703125 196.18359375 C49.69625298 198.07010902 49.69625298 198.07010902 49.68525696 199.99473572 C49.70770333 208.72968123 50.52435074 216.86796279 53.5 225.125 C54.45822801 227.81598228 55.28261302 230.46828961 55.9375 233.25 C56.5975 233.25 57.2575 233.25 57.9375 233.25 C58.329375 233.683125 58.72125 234.11625 59.125 234.5625 C63.92109136 239.02782644 69.70950133 239.60572428 75.9375 240.25 C76.2675 240.58 76.5975 240.91 76.9375 241.25 C78.78349688 241.64454223 80.63975822 241.99176866 82.5 242.3125 C83.51191406 242.48910156 84.52382813 242.66570312 85.56640625 242.84765625 C86.34886719 242.98042969 87.13132812 243.11320312 87.9375 243.25 C88.2675 244.24 88.5975 245.23 88.9375 246.25 C89.9275 246.25 90.9175 246.25 91.9375 246.25 C95.31309454 251.65095126 98.66680244 257.04088308 97.52734375 263.6171875 C96.2026428 268.03285733 94.74587398 271.42443221 90.9375 274.25 C90.2775 274.25 89.6175 274.25 88.9375 274.25 C88.9375 274.91 88.9375 275.57 88.9375 276.25 C81.01254359 280.92369224 72.80176676 280.74499559 63.9375 279.25 C60.5625 278.25 60.5625 278.25 57.9375 277.25 C56.60838318 276.90023242 55.27667261 276.55903983 53.9375 276.25 C53.9375 275.59 53.9375 274.93 53.9375 274.25 C53.009375 274.20875 52.08125 274.1675 51.125 274.125 C42.61302154 272.89913698 34.96953947 267.10173395 28.9375 261.25 C28.44121094 260.81042969 27.94492187 260.37085938 27.43359375 259.91796875 C24.79790796 256.97948877 23.30149171 253.34815956 21.53515625 249.84375 C19.8885985 247.17060979 18.65669343 245.78965847 15.9375 244.25 C12.31100049 244.16083846 12.31100049 244.16083846 8.9375 245.25 C7.64584575 246.99839144 7.64584575 246.99839144 6.9375 249.25 C2.82046028 255.10886422 -2.99686897 261.26279127 -10.0625 263.25 C-10.0625 263.91 -10.0625 264.57 -10.0625 265.25 C-21.04766652 270.84204654 -29.56224926 274.50000501 -42.0625 274.25 C-42.0625 274.91 -42.0625 275.57 -42.0625 276.25 C-50.3125 276.25 -58.5625 276.25 -67.0625 276.25 C-67.0625 275.59 -67.0625 274.93 -67.0625 274.25 C-67.65675781 274.27320313 -68.25101563 274.29640625 -68.86328125 274.3203125 C-75.4850223 274.46448727 -81.59332341 273.62746726 -88.0625 272.25 C-88.0625 271.59 -88.0625 270.93 -88.0625 270.25 C-89.155625 270.105625 -90.24875 269.96125 -91.375 269.8125 C-95.0625 269.25 -95.0625 269.25 -98.0625 268.25 C-98.0625 267.59 -98.0625 266.93 -98.0625 266.25 C-99.7125 265.92 -101.3625 265.59 -103.0625 265.25 C-103.0625 264.59 -103.0625 263.93 -103.0625 263.25 C-104.3928125 262.9096875 -104.3928125 262.9096875 -105.75 262.5625 C-109.5266227 261.06610233 -111.32903769 259.20509439 -114.0625 256.25 C-115.0525 255.59 -116.0425 254.93 -117.0625 254.25 C-117.0625 253.59 -117.0625 252.93 -117.0625 252.25 C-118.3825 251.59 -119.7025 250.93 -121.0625 250.25 C-121.0625 249.59 -121.0625 248.93 -121.0625 248.25 C-122.0525 247.92 -123.0425 247.59 -124.0625 247.25 C-124.0625 246.59 -124.0625 245.93 -124.0625 245.25 C-125.0525 244.92 -126.0425 244.59 -127.0625 244.25 C-127.39583333 242.91666667 -127.72916667 241.58333333 -128.0625 240.25 C-129.0525 239.92 -130.0425 239.59 -131.0625 239.25 C-133.10546875 236.8515625 -133.10546875 236.8515625 -135.25 233.875 C-136.32314453 232.40933594 -136.32314453 232.40933594 -137.41796875 230.9140625 C-139.0625 228.25 -139.0625 228.25 -139.0625 225.25 C-139.7225 225.25 -140.3825 225.25 -141.0625 225.25 C-145.57244132 215.53443493 -149.20106832 206.25181166 -150.66796875 195.5859375 C-150.82256155 193.29678106 -150.82256155 193.29678106 -152.0625 192.25 C-156.21016373 163.15500803 -156.52274513 129.25811277 -152.0625 100.25 C-151.5675 99.755 -151.5675 99.755 -151.0625 99.25 C-150.75908575 97.1711618 -150.4958675 95.086427 -150.25 93 C-148.68205266 81.6439108 -145.09547543 71.50450613 -140.0625 61.25 C-139.56363281 60.22519531 -139.06476563 59.20039063 -138.55078125 58.14453125 C-135.88603113 52.74119663 -133.12748067 47.43689036 -130.0625 42.25 C-129.4025 42.25 -128.7425 42.25 -128.0625 42.25 C-127.93875 41.1671875 -127.93875 41.1671875 -127.8125 40.0625 C-126.90536169 36.66073132 -125.46239121 34.79533916 -123.0625 32.25 C-122.4025 32.25 -121.7425 32.25 -121.0625 32.25 C-121.000625 31.71375 -120.93875 31.1775 -120.875 30.625 C-119.66214736 27.07973843 -117.61639074 24.9907608 -115.0625 22.25 C-114.4025 22.25 -113.7425 22.25 -113.0625 22.25 C-113.0625 21.59 -113.0625 20.93 -113.0625 20.25 C-111.3828125 18.5234375 -111.3828125 18.5234375 -109.1875 16.625 C-108.46820313 15.99335938 -107.74890625 15.36171875 -107.0078125 14.7109375 C-105.0625 13.25 -105.0625 13.25 -103.0625 13.25 C-102.794375 12.651875 -102.52625 12.05375 -102.25 11.4375 C-101.05262525 9.23180967 -100.01771016 7.81416813 -98.0625 6.25 C-97.0725 6.25 -96.0825 6.25 -95.0625 6.25 C-94.5675 4.765 -94.5675 4.765 -94.0625 3.25 C-91.41015625 1.20703125 -91.41015625 1.20703125 -88.125 -0.9375 C-87.04347656 -1.65292969 -85.96195312 -2.36835938 -84.84765625 -3.10546875 C-82.0625 -4.75 -82.0625 -4.75 -80.0625 -4.75 C-80.0625 -5.41 -80.0625 -6.07 -80.0625 -6.75 C-78.17158264 -7.59442881 -76.27452485 -8.42511587 -74.375 -9.25 C-72.79138672 -9.94609375 -72.79138672 -9.94609375 -71.17578125 -10.65625 C-68.20622184 -11.69950801 -66.17054937 -11.98065301 -63.0625 -11.75 C-63.0625 -12.41 -63.0625 -13.07 -63.0625 -13.75 C-42.03284171 -17.48860592 -18.47909404 -10.07436061 0 0 Z M-68.0625 30.25 C-68.0625 30.91 -68.0625 31.57 -68.0625 32.25 C-70.3725 32.58 -72.6825 32.91 -75.0625 33.25 C-75.3925 34.24 -75.7225 35.23 -76.0625 36.25 C-77.39176262 36.59921306 -78.72581817 36.93035869 -80.0625 37.25 C-84.21765036 40.63972793 -87.95348437 44.89737812 -91.0625 49.25 C-91.0625 49.91 -91.0625 50.57 -91.0625 51.25 C-92.0525 51.58 -93.0425 51.91 -94.0625 52.25 C-97.27169944 56.31250804 -97.27169944 56.31250804 -98.0625 61.25 C-98.7225 61.25 -99.3825 61.25 -100.0625 61.25 C-109.74202399 77.32566931 -109.74202399 77.32566931 -113.0625 95.25 C-113.7225 95.25 -114.3825 95.25 -115.0625 95.25 C-115.14814209 95.96655762 -115.23378418 96.68311523 -115.32202148 97.42138672 C-115.7108426 100.65639937 -116.10534855 103.89069367 -116.5 107.125 C-116.63470703 108.25292969 -116.76941406 109.38085938 -116.90820312 110.54296875 C-117.10639648 112.15751953 -117.10639648 112.15751953 -117.30859375 113.8046875 C-117.42904053 114.79968262 -117.5494873 115.79467773 -117.67358398 116.81982422 C-118.0625 119.25 -118.0625 119.25 -119.0625 121.25 C-119.15741569 122.78681984 -119.19044525 124.32768422 -119.19189453 125.86743164 C-119.19504669 126.82504898 -119.19819885 127.78266632 -119.20144653 128.76930237 C-119.1994223 129.80578415 -119.19739807 130.84226593 -119.1953125 131.91015625 C-119.19626923 132.97036484 -119.19722595 134.03057343 -119.19821167 135.12290955 C-119.19889295 137.36652689 -119.19704227 139.6101462 -119.19287109 141.85375977 C-119.18751686 145.30163972 -119.19282058 148.74938971 -119.19921875 152.19726562 C-119.19855806 154.37239612 -119.1972771 156.54752654 -119.1953125 158.72265625 C-119.19733673 159.76116226 -119.19936096 160.79966827 -119.20144653 161.86964417 C-119.19829437 162.82410934 -119.19514221 163.77857452 -119.19189453 164.76196289 C-119.19109894 165.60642471 -119.19030334 166.45088654 -119.18948364 167.32093811 C-119.27485217 169.2573591 -119.27485217 169.2573591 -118.0625 170.25 C-117.86699347 172.15831376 -117.67719605 174.06739458 -117.51708984 175.97900391 C-116.68609777 185.7109326 -114.58332991 194.13884475 -111.0625 203.25 C-110.4025 203.25 -109.7425 203.25 -109.0625 203.25 C-108.98 203.95125 -108.8975 204.6525 -108.8125 205.375 C-107.14162211 211.78003191 -103.02447767 215.19940598 -98.0625 219.25 C-97.299375 220.24 -96.53625 221.23 -95.75 222.25 C-92.69174061 226.10780433 -88.51011143 228.27522557 -84.0625 230.25 C-83.4025 230.25 -82.7425 230.25 -82.0625 230.25 C-82.0625 230.91 -82.0625 231.57 -82.0625 232.25 C-75.79526563 234.72694005 -69.85486168 236.98706987 -63.0625 237.25 C-61.83015625 237.3015625 -60.5978125 237.353125 -59.328125 237.40625 C-51.76774655 237.61823988 -45.06451738 237.41170388 -38.0625 234.25 C-37.051875 233.858125 -36.04125 233.46625 -35 233.0625 C-34.0409375 232.6603125 -34.0409375 232.6603125 -33.0625 232.25 C-33.0625 231.59 -33.0625 230.93 -33.0625 230.25 C-32.36125 230.0025 -31.66 229.755 -30.9375 229.5 C-24.81311934 226.8372258 -21.14198137 223.34935171 -17.0625 218.25 C-16.4025 217.92 -15.7425 217.59 -15.0625 217.25 C-14.7325 216.26 -14.4025 215.27 -14.0625 214.25 C-13.4025 213.92 -12.7425 213.59 -12.0625 213.25 C-11.1457743 211.27551388 -10.2439917 209.29340738 -9.39453125 207.2890625 C-8.373948 204.96057638 -7.31400396 202.68143746 -6.19921875 200.3984375 C-1.70771241 191.17406134 1.95242596 182.07112146 4.9375 172.25 C5.23398437 171.32445312 5.53046875 170.39890625 5.8359375 169.4453125 C9.20491137 159.65516643 9.20491137 159.65516643 9.4602356 149.54756165 C8.89773501 145.99915137 8.81040111 142.65942838 8.80810547 139.06713867 C8.80547699 138.02947861 8.80547699 138.02947861 8.80279541 136.97085571 C8.79842313 134.7032006 8.80129686 132.43562453 8.8046875 130.16796875 C8.80401352 128.5871021 8.8030427 127.00623556 8.80178833 125.42536926 C8.80031796 122.12284349 8.80244608 118.82034487 8.80712891 115.51782227 C8.81284924 111.27619636 8.80952853 107.0346334 8.80355644 102.79300976 C8.79995289 99.53405782 8.80108805 96.27512097 8.80368423 93.01616859 C8.80435287 91.45119532 8.80352729 89.8862207 8.80120468 88.32124901 C8.79867901 86.14275825 8.8025164 83.96437162 8.80810547 81.78588867 C8.80890106 80.54489914 8.80969666 79.30390961 8.81051636 78.02531433 C8.9375 75.25 8.9375 75.25 9.9375 74.25 C10.02525605 72.10441173 10.04445219 69.95595579 10.03515625 67.80859375 C10.03193359 66.50341797 10.02871094 65.19824219 10.02539062 63.85351562 C10.01703401 62.4648431 10.00856905 61.07617123 10 59.6875 C9.99498666 58.29492344 9.99042347 56.90234519 9.98632812 55.50976562 C9.97449434 52.0898013 9.9580088 48.66992156 9.9375 45.25 C9.2775 45.25 8.6175 45.25 7.9375 45.25 C7.4425 42.775 7.4425 42.775 6.9375 40.25 C5.6175 39.92 4.2975 39.59 2.9375 39.25 C2.9375 38.59 2.9375 37.93 2.9375 37.25 C0.2975 36.92 -2.3425 36.59 -5.0625 36.25 C-5.0625 35.59 -5.0625 34.93 -5.0625 34.25 C-5.66312256 34.16435791 -6.26374512 34.07871582 -6.88256836 33.99047852 C-9.58901658 33.60211985 -12.29449836 33.20739671 -15 32.8125 C-15.94552734 32.67779297 -16.89105469 32.54308594 -17.86523438 32.40429688 C-19.21391602 32.20610352 -19.21391602 32.20610352 -20.58984375 32.00390625 C-21.42249756 31.88345947 -22.25515137 31.7630127 -23.11303711 31.63891602 C-25.0625 31.25 -25.0625 31.25 -26.0625 30.25 C-33.58298582 28.92340498 -41.13476805 29.10223399 -48.75 29.125 C-50.70776367 29.11919922 -50.70776367 29.11919922 -52.70507812 29.11328125 C-53.96126953 29.11457031 -55.21746094 29.11585938 -56.51171875 29.1171875 C-57.64955811 29.11831543 -58.78739746 29.11944336 -59.9597168 29.12060547 C-62.78044061 29.23823735 -65.32008689 29.60499007 -68.0625 30.25 Z " fill="#FEFEFE" transform="translate(591.0625,325.75)"/>
<path d="M0 0 C0.66 0 1.32 0 2 0 C2 2.31 2 4.62 2 7 C0.35 6.67 -1.3 6.34 -3 6 C-2 4 -1 2 0 0 Z " fill="#131313" transform="translate(244,154)"/>
</svg>
