<?xml version="1.0" encoding="UTF-8"?>
<svg version="1.1" xmlns="http://www.w3.org/2000/svg" width="512" height="512">
<path d="M0 0 C5.29953637 3.10525413 10.61878687 6.17612025 15.93994141 9.24414062 C17.01284424 9.86297119 18.08574707 10.48180176 19.19116211 11.11938477 C27.80927232 16.08470125 36.44703008 21.01519612 45.08706665 25.94219971 C54.29369326 31.19399359 63.46082457 36.51066995 72.60888672 41.86376953 C79.75037406 46.03936075 86.92137364 50.16017691 94.10864258 54.25634766 C103.44201019 59.5773793 112.7532779 64.93628906 122.04931641 70.32226562 C125.77621535 72.48115403 129.51248484 74.61996019 133.26806641 76.72851562 C145.00329586 83.36611729 156.89272325 91.0469277 162.50244141 103.86914062 C164.20551776 111.30074654 164.34961309 118.61191304 164.35791016 126.20117188 C164.36123856 127.27356613 164.36456696 128.34596039 164.36799622 129.45085144 C164.3730388 131.71080092 164.37540537 133.97075779 164.37524414 136.23071289 C164.37742791 139.66044577 164.39560501 143.08985525 164.41455078 146.51953125 C164.41748593 148.72591037 164.41946991 150.932291 164.42041016 153.13867188 C164.42759567 154.15049026 164.43478119 155.16230865 164.44218445 156.20478821 C164.41425064 165.05157469 163.88001969 173.99618512 159.25244141 181.74414062 C158.74841797 182.6078125 158.24439453 183.47148437 157.72509766 184.36132812 C156.69633477 186.0419026 155.6194633 187.69389651 154.49853516 189.31445312 C152.85010177 192.53258876 152.69715928 194.28527062 153.18994141 197.86914062 C154.39949046 200.34449682 155.60570198 202.55657434 157.06494141 204.86914062 C163.78399664 215.74308867 165.47227702 226.42006382 162.96728516 238.99414062 C160.39895606 248.49308645 154.97328801 254.94193839 148.18994141 261.86914062 C147.43068359 262.65546875 146.67142578 263.44179688 145.88916016 264.25195312 C141.19034624 269.04003639 136.31835418 273.54744447 131.18994141 277.86914062 C130.41908203 278.55234375 129.64822266 279.23554688 128.85400391 279.93945312 C119.56663825 287.87912534 111.06426855 290.37883079 99.02758789 290.36694336 C95.80750042 290.41786706 93.57769643 290.6314023 90.80712891 292.33007812 C88.45481705 296.02332137 87.96277986 299.71888663 87.25244141 303.99414062 C84.12759889 320.25187036 75.73386408 331.83696053 63.01806641 342.33007812 C61.12944642 343.92007016 59.41564511 345.60456972 57.68994141 347.36914062 C55.36357255 349.74059686 52.97256826 351.971111 50.45556641 354.13867188 C46.36827538 357.69345049 42.38768851 361.34803213 38.43994141 365.05664062 C37.74964844 365.70375 37.05935547 366.35085938 36.34814453 367.01757812 C31.12909355 371.9324661 26.04336303 376.96034438 21.03369141 382.08789062 C18.21020013 384.84932715 15.28431612 387.4286073 12.30029297 390.01269531 C8.71819208 393.16381692 5.27373355 396.4590001 1.81494141 399.74414062 C-3.59698837 404.86564268 -9.05262329 409.91236534 -14.62255859 414.86132812 C-16.93191878 416.98099086 -19.12046263 419.18882531 -21.31005859 421.43164062 C-30.78108957 430.98604335 -41.00367278 439.86272938 -54.93505859 440.18164062 C-71.49942447 439.97805624 -81.83184916 428.01420594 -93.1796875 417.38623047 C-94.73704501 415.93708109 -96.30684819 414.503418 -97.88427734 413.07617188 C-104.05620624 407.48932177 -110.00458081 401.74366876 -115.82568359 395.79101562 C-118.67911009 392.93367026 -121.70978603 390.30559968 -124.76171875 387.66357422 C-128.04058366 384.79114787 -131.20390935 381.79949851 -134.37255859 378.80664062 C-135.77079129 377.49001684 -137.16923399 376.17361605 -138.56787109 374.85742188 C-139.27073242 374.19564941 -139.97359375 373.53387695 -140.69775391 372.85205078 C-142.74738676 370.92797334 -144.80426166 369.01205608 -146.86474609 367.09960938 C-152.95949085 361.44161169 -158.97882022 355.75006105 -164.82177734 349.83007812 C-168.77503984 345.9311827 -172.94381786 342.28020069 -177.37255859 338.93164062 C-188.82981856 329.23703604 -195.29774601 317.1260534 -197.87255859 302.55664062 C-198.18962041 300.76759705 -198.51351428 298.97974675 -198.84521484 297.19335938 C-198.9832251 296.41049561 -199.12123535 295.62763184 -199.26342773 294.82104492 C-199.69829998 292.65408537 -199.69829998 292.65408537 -201.81005859 290.86914062 C-204.8052651 290.66257466 -207.74953635 290.55066399 -210.74755859 290.49414062 C-223.13112187 290.02399599 -231.43847092 287.11679891 -240.81005859 278.86914062 C-241.53064453 278.25683594 -242.25123047 277.64453125 -242.99365234 277.01367188 C-245.65714993 274.69153317 -248.23956273 272.29277321 -250.81005859 269.86914062 C-251.47199219 269.25184082 -252.13392578 268.63454102 -252.81591797 267.99853516 C-274.09640454 248.01852276 -274.09640454 248.01852276 -275.04833984 233.14648438 C-275.37485532 220.40502691 -272.80679963 211.96780721 -266.09130859 201.07226562 C-264.37867696 198.12737465 -263.59067743 196.30611213 -263.81005859 192.86914062 C-265.54156935 188.90708107 -267.89134009 185.32920035 -270.18896484 181.67773438 C-275.6669167 172.53691322 -276.11872789 162.88637438 -276.07568359 152.42773438 C-276.07759705 151.37940933 -276.0795105 150.33108429 -276.08148193 149.25099182 C-276.08283306 147.0518469 -276.07921231 144.8526937 -276.07080078 142.65356445 C-276.06007524 139.31182757 -276.07073863 135.97062684 -276.08349609 132.62890625 C-276.08217452 130.47851445 -276.07961217 128.32812299 -276.07568359 126.17773438 C-276.08175629 124.69919228 -276.08175629 124.69919228 -276.08795166 123.19078064 C-276.00523227 110.79456609 -273.67150299 100.17018026 -265.04833984 90.90429688 C-253.99382765 80.85298649 -239.25049314 74.32998298 -226.30891418 66.99360657 C-220.08319187 63.46204393 -213.88217459 59.88813978 -207.68505859 56.30664062 C-206.62125977 55.69224121 -205.55746094 55.0778418 -204.46142578 54.44482422 C-202.31678512 53.20608133 -200.17225353 51.96714959 -198.02783203 50.72802734 C-192.62335214 47.60589457 -187.21658447 44.48772858 -181.81005859 41.36914062 C-179.64338109 40.11915941 -177.47671442 38.86915941 -175.31005859 37.61914062 C-162.31005859 30.11914062 -149.31005859 22.61914062 -136.31005859 15.11914062 C-135.23675293 14.49990723 -134.16344727 13.88067383 -133.05761719 13.24267578 C-130.89915362 11.99744578 -128.74062536 10.7523279 -126.58203125 9.50732422 C-121.03931118 6.31027726 -115.49785851 3.11106468 -109.95849609 -0.09179688 C-104.52806107 -3.23116993 -99.09400911 -6.36418104 -93.65673828 -9.49169922 C-91.86447313 -10.52371193 -90.07329804 -11.5576223 -88.28369141 -12.59423828 C-52.78754753 -33.14898206 -32.69424957 -19.21711546 0 0 Z " fill="#030303" transform="translate(311.81005859375,57.130859375)"/>
<path d="M0 0 C0 0.66 0 1.32 0 2 C0.680625 2.2475 1.36125 2.495 2.0625 2.75 C5.56865083 4.24197908 8.71620368 6.06835511 12 8 C12 8.66 12 9.32 12 10 C12.72316406 10.268125 13.44632813 10.53625 14.19140625 10.8125 C16.98187033 11.99233461 19.37945523 13.38354201 21.9375 15 C25.54535309 17.21109083 28.87563796 18.91464157 33 20 C33 20.66 33 21.32 33 22 C33.639375 22.226875 34.27875 22.45375 34.9375 22.6875 C39.13687557 24.48723239 43.03336485 26.74112715 47 29 C47.65871094 29.36609375 48.31742187 29.7321875 48.99609375 30.109375 C51.47273629 31.49416438 53.83072172 32.86662924 56.0625 34.625 C58.54962231 36.39005454 61.09179247 37.14075687 64 38 C64 38.66 64 39.32 64 40 C65.65 40.33 67.3 40.66 69 41 C69 41.66 69 42.32 69 43 C69.71542969 43.268125 70.43085938 43.53625 71.16796875 43.8125 C74.04128939 45.01731307 76.63337626 46.41237112 79.3125 48 C80.19550781 48.515625 81.07851563 49.03125 81.98828125 49.5625 C82.65214844 50.036875 83.31601562 50.51125 84 51 C84 51.66 84 52.32 84 53 C84.8765625 53.09539062 85.753125 53.19078125 86.65625 53.2890625 C90.30609151 54.0650802 92.43196909 55.28556515 95.5 57.375 C99.25858015 59.86556454 102.92967027 62.04963367 107 64 C117.04950029 69.22633745 117.04950029 69.22633745 120.6875 72.1875 C123.35920273 74.28153727 125.85939382 75.1245701 129.03515625 76.23046875 C131.99675414 77.39037886 134.39986916 79.17990841 137 81 C138.67907825 82.05518811 140.36732257 83.09587456 142.0625 84.125 C142.87847656 84.62257813 143.69445312 85.12015625 144.53515625 85.6328125 C146.96912446 87.06025877 146.96912446 87.06025877 149.62109375 87.9921875 C152.10497727 89.04447313 153.15633078 90.08876175 155 92 C156.59540843 92.96725111 158.2252684 93.87862842 159.875 94.75 C160.84179688 95.26691406 161.80859375 95.78382813 162.8046875 96.31640625 C165.03790821 97.49307877 167.27238688 98.6673655 169.5078125 99.83984375 C170.66023438 100.44957031 171.81265625 101.05929688 173 101.6875 C174.60875 102.52861328 174.60875 102.52861328 176.25 103.38671875 C178.6080761 104.77007873 180.31116873 105.87136892 182 108 C182 108.66 182 109.32 182 110 C183.32 110.33 184.64 110.66 186 111 C186.02316561 118.38005791 186.04093664 125.76010799 186.05181217 133.14019489 C186.05703175 136.56702775 186.06411265 139.99383575 186.07543945 143.4206543 C186.08837846 147.35986026 186.09323586 151.29905613 186.09765625 155.23828125 C186.10281754 156.46960281 186.10797882 157.70092438 186.11329651 158.96955872 C186.11340981 160.68099312 186.11340981 160.68099312 186.11352539 162.42700195 C186.115746 163.432939 186.11796661 164.43887604 186.12025452 165.47529602 C186 168 186 168 185 171 C178.73791611 171.42454806 176.91048858 171.10196402 172 167 C170.12940275 166.01310781 168.23152838 165.07655587 166.3125 164.1875 C150.87157867 156.65766799 150.87157867 156.65766799 147 150 C146.59375 147.1953125 146.59375 147.1953125 146.5 144.125 C146.07732509 137.63162231 146.07732509 137.63162231 143 132 C137.76721566 127.73708518 131.70522197 124.6769987 125.7734375 121.51171875 C123.02941885 120.01603534 120.35747266 118.43613203 117.6875 116.8125 C114.19229539 114.68861969 110.6952628 112.75038764 107 111 C107 110.34 107 109.68 107 109 C106.13375 108.731875 105.2675 108.46375 104.375 108.1875 C98.68282882 106.18469903 93.99832115 103.3322141 89 100 C85.00459214 97.67474461 80.9634851 95.47229662 76.8125 93.4375 C73.70183919 91.8476067 70.9042363 89.93615753 68 88 C67.01 87.67 66.02 87.34 65 87 C65 86.34 65 85.68 65 85 C64.34644531 84.76152344 63.69289063 84.52304688 63.01953125 84.27734375 C58.34343081 82.29922623 53.95182496 79.80292109 49.50195312 77.36523438 C45.92732436 75.43846138 42.42729851 73.72133093 38.6015625 72.34765625 C34.99525157 70.9982232 33.5187563 69.79861811 31 67 C30.01 66.67 29.02 66.34 28 66 C27.67 65.34 27.34 64.68 27 64 C26.34 63.855625 25.68 63.71125 25 63.5625 C24.01 63.2840625 24.01 63.2840625 23 63 C22.67 62.01 22.34 61.02 22 60 C19.67108904 58.97299556 19.67108904 58.97299556 16.9375 58.3125 C15.55884766 57.93544922 15.55884766 57.93544922 14.15234375 57.55078125 C13.44207031 57.36902344 12.73179687 57.18726563 12 57 C12 56.34 12 55.68 12 55 C11.01 55 10.02 55 9 55 C9 151.36 9 247.72 9 347 C10.32 346.67 11.64 346.34 13 346 C13.309375 345.38125 13.61875 344.7625 13.9375 344.125 C15.3545022 341.29099559 17.31630503 340.5826919 20 339 C20.33 338.01 20.66 337.02 21 336 C22.6396721 334.63360658 24.31110128 333.3050581 26 332 C28.21077675 329.8418608 30.39024637 327.68928671 32.4375 325.375 C34 324 34 324 37 322.625 C40.44657531 320.75810504 41.15318371 319.37244714 43 316 C47.20225089 311.58688347 51.74580825 307.53663212 56.27148438 303.4609375 C59.51685478 300.50024871 62.27464783 297.46076466 65 294 C65.66 293.67 66.32 293.34 67 293 C68.12368786 289.85929564 68.13618576 286.81893933 68.15821838 283.50775146 C68.1680072 282.39158447 68.17779602 281.27541748 68.18788147 280.12542725 C68.19363693 278.90551086 68.1993924 277.68559448 68.20532227 276.42871094 C68.21522186 275.14065552 68.22512146 273.8526001 68.23532104 272.5255127 C68.26233071 268.99695624 68.28336155 265.46838647 68.30332303 261.93978405 C68.32520691 258.25086738 68.35258384 254.56199159 68.37937927 250.87310791 C68.42927369 243.88923475 68.47422457 236.90533886 68.51740164 229.92142129 C68.56680181 221.96982046 68.62170962 214.01826065 68.67708123 206.0666995 C68.79085137 189.71117083 68.89770121 173.35560453 69 157 C71.64 157 74.28 157 77 157 C77 157.66 77 158.32 77 159 C77.81210937 159.22171875 78.62421875 159.4434375 79.4609375 159.671875 C83.90836652 161.3408881 87.63012734 163.70819298 91.625 166.25 C97.8594134 170.14738301 104.06691517 173.727919 110.71484375 176.87890625 C113 178 113 178 116 180 C116 180.66 116 181.32 116 182 C118.97 182.66 121.94 183.32 125 184 C125 184.66 125 185.32 125 186 C125.63421875 186.21914062 126.2684375 186.43828125 126.921875 186.6640625 C132.10414754 188.9132214 136.85329467 191.9453863 141.69921875 194.8359375 C146.38607281 197.59555717 151.05921939 200.03217091 156.08105469 202.12744141 C158 203 158 203 161 205 C161 205.66 161 206.32 161 207 C161.9075 207.268125 162.815 207.53625 163.75 207.8125 C166.783557 208.92091506 168.46521559 210.09891169 171 212 C172.98014432 212.72351427 174.97821315 213.40265389 177 214 C177 214.66 177 215.32 177 216 C177.763125 216.268125 178.52625 216.53625 179.3125 216.8125 C182.09045604 218.03996895 183.25284903 218.5589805 185 221 C185.3827962 223.69441045 185.57045641 226.0546133 185.5625 228.75 C185.5632251 229.82991211 185.5632251 229.82991211 185.56396484 230.93164062 C185.39419926 236.30063001 184.37942156 239.36537862 180.5078125 243.03125 C179 244 179 244 177 244 C176.67 244.99 176.34 245.98 176 247 C175.34 247 174.68 247 174 247 C174 247.66 174 248.32 174 249 C172.35546875 250.62109375 172.35546875 250.62109375 170.1875 252.4375 C167.17536735 254.97339332 167.17536735 254.97339332 164.36328125 257.72265625 C163 259 163 259 161 259 C161 259.66 161 260.32 161 261 C159.3603279 262.36639342 157.68889872 263.6949419 156 265 C155.34 265.7425 154.68 266.485 154 267.25 C152 269 152 269 149.25 269.25 C148.5075 269.1675 147.765 269.085 147 269 C145.80393208 266.60786415 145.874895 265.09028067 145.859375 262.421875 C145.83037109 261.05095703 145.83037109 261.05095703 145.80078125 259.65234375 C145.76720409 257.73328007 145.74871941 255.81388686 145.74609375 253.89453125 C145.62554857 249.3709149 145.52831997 246.01580955 142.61328125 242.40625 C140.03319094 240.03056147 138.30878045 239.01808629 135 238 C133.65949948 237.34786461 132.32338632 236.68620031 131 236 C131 235.34 131 234.68 131 234 C129.35 233.67 127.7 233.34 126 233 C126 232.34 126 231.68 126 231 C125.34 231 124.68 231 124 231 C123.67 230.34 123.34 229.68 123 229 C120.84211688 228.05431417 118.64787878 227.19047955 116.4375 226.375 C115.23996094 225.92898438 114.04242188 225.48296875 112.80859375 225.0234375 C111.88175781 224.68570313 110.95492188 224.34796875 110 224 C110 225.65 110 227.3 110 229 C109.34 229 108.68 229 108 229 C108.00444122 229.97861496 108.00888245 230.95722992 108.01345825 231.96549988 C108.0540131 241.1909503 108.08398863 250.41638261 108.10362434 259.64190197 C108.11405863 264.38475957 108.12821141 269.12754517 108.15087891 273.87036133 C108.17261986 278.44799316 108.1845713 283.02555576 108.18975449 287.60323524 C108.19344798 289.34912519 108.20066045 291.09501137 108.21146011 292.84087181 C108.22599166 295.28747096 108.22797725 297.73378452 108.22705078 300.18041992 C108.23424133 300.90115189 108.24143188 301.62188385 108.24884033 302.36445618 C108.22474251 308.25094543 106.95898366 312.60112926 103 317 C101.33333333 318 99.66666667 319 98 320 C94.28041963 323.0254599 90.76462078 326.23537922 87.375 329.625 C84.72411634 332.27588366 81.87910698 334.60074418 79 337 C76.53862249 339.3948538 74.14619302 341.84896784 71.7578125 344.31640625 C70.95085937 345.14011719 70.14390625 345.96382813 69.3125 346.8125 C68.54550781 347.60269531 67.77851563 348.39289063 66.98828125 349.20703125 C65 351 65 351 63 351 C62.67 351.99 62.34 352.98 62 354 C60.46875 355.54296875 60.46875 355.54296875 58.5 357.1875 C57.78457031 357.79722656 57.06914062 358.40695312 56.33203125 359.03515625 C55.56246094 359.68355469 54.79289062 360.33195312 54 361 C52.38907769 362.367079 50.78481903 363.74205112 49.1875 365.125 C48.45917969 365.74632812 47.73085938 366.36765625 46.98046875 367.0078125 C44.84330267 369.15762453 43.53189881 371.39882709 42 374 C40.68252676 374.69748583 39.35085807 375.36959957 38 376 C37.67 376.99 37.34 377.98 37 379 C35.34548874 380.01998543 33.67601464 381.01574764 32 382 C29.910515 383.80184161 27.88252477 385.61262634 25.875 387.5 C25.35035156 387.98597656 24.82570313 388.47195313 24.28515625 388.97265625 C22.22551987 390.88629309 20.18916995 392.7998022 18.2578125 394.84375 C17 396 17 396 15 396 C14.67 396.99 14.34 397.98 14 399 C13.34 399 12.68 399 12 399 C11.95875 399.5775 11.9175 400.155 11.875 400.75 C10.57166187 404.1014409 7.97122902 405.03793398 5 407 C3.07347852 408.67364924 1.17709818 410.38262792 -0.6875 412.125 C-8.06231454 419 -8.06231454 419 -12.1875 419 C-19.85839647 416.98796158 -24.46089115 411.67709741 -29.40625 405.75390625 C-31.35422664 403.61017706 -33.46392128 402.37085336 -36 401 C-38.3125 399 -38.3125 399 -40 397 C-40 396.01 -40 395.02 -40 394 C-41.11375 393.6596875 -41.11375 393.6596875 -42.25 393.3125 C-45.54315164 391.74076853 -46.77478157 389.85106111 -49 387 C-49.77214844 386.54367187 -50.54429687 386.08734375 -51.33984375 385.6171875 C-54.19966189 383.87861964 -56.23667791 381.96113043 -58.5625 379.5625 C-59.30628906 378.80066406 -60.05007812 378.03882813 -60.81640625 377.25390625 C-61.89728516 376.13822266 -61.89728516 376.13822266 -63 375 C-63.73089844 374.30777344 -64.46179688 373.61554688 -65.21484375 372.90234375 C-67 371 -67 371 -68 368 C-69.40002051 367.03107698 -70.80664172 366.0699858 -72.24853516 365.16455078 C-75.45167738 363.03477821 -78.28933752 360.45831368 -81.1875 357.9375 C-82.11079102 357.14375977 -82.11079102 357.14375977 -83.05273438 356.33398438 C-87.69590769 352.32465704 -87.69590769 352.32465704 -89.5090332 350.38891602 C-91.06345929 348.74814786 -91.06345929 348.74814786 -94 348 C-95.36363208 346.02053408 -96.69418644 344.0180755 -98 342 C-100.45518776 339.23791377 -102.59895581 337.45759037 -106 336 C-106 335.34 -106 334.68 -106 334 C-106.66 334 -107.32 334 -108 334 C-111.06234986 331.20013727 -113.70315431 328.17018994 -116.375 325 C-118.67355472 322.3191911 -120.8655527 320.25466693 -123.8125 318.3125 C-127.05139576 315.96271288 -128.02278079 314.80029695 -129 311 C-129.66 311 -130.32 311 -131 311 C-131.33 282.29 -131.66 253.58 -132 224 C-135.465 224.99 -135.465 224.99 -139 226 C-140.32 226 -141.64 226 -143 226 C-143 226.66 -143 227.32 -143 228 C-144.6396875 228.804375 -144.6396875 228.804375 -146.3125 229.625 C-150.84995453 231.88155163 -155.26387236 234.34346021 -159.6796875 236.828125 C-162 238 -162 238 -164 238 C-164.0825 238.598125 -164.165 239.19625 -164.25 239.8125 C-165 242 -165 242 -167.01098633 243.32202148 C-169.20793164 244.83373691 -169.20793164 244.83373691 -169.5300293 247.32836914 C-169.54461182 248.22160889 -169.55919434 249.11484863 -169.57421875 250.03515625 C-169.60193359 251.00904297 -169.62964844 251.98292969 -169.65820312 252.98632812 C-169.67270508 254.5090332 -169.67270508 254.5090332 -169.6875 256.0625 C-169.72949196 258.07429668 -169.77489448 260.08602598 -169.82421875 262.09765625 C-169.83541748 262.98976807 -169.84661621 263.88187988 -169.8581543 264.80102539 C-170 267 -170 267 -171 269 C-173.6875 269.3125 -173.6875 269.3125 -177 269 C-178.77470682 267.38325138 -180.37410882 265.75752255 -182 264 C-184.48783151 261.42556788 -186.99468596 258.86990473 -189.5 256.3125 C-190.15097656 255.63638672 -190.80195313 254.96027344 -191.47265625 254.26367188 C-194.82682707 250.85868028 -197.3694106 248.49039624 -202 247 C-205.32481193 244.83919379 -207.28477477 242.58506231 -209 239 C-209.90604326 233.14535761 -210.67173061 224.34346122 -208 219 C-207.34 219 -206.68 219 -206 219 C-206 218.34 -206 217.68 -206 217 C-205.39671875 216.74605469 -204.7934375 216.49210938 -204.171875 216.23046875 C-200.08170164 214.46905538 -196.49730392 212.79784313 -193 210 C-192.34 210 -191.68 210 -191 210 C-191 209.34 -191 208.68 -191 208 C-190.15695313 207.82984375 -189.31390625 207.6596875 -188.4453125 207.484375 C-187.34960938 207.24203125 -186.25390625 206.9996875 -185.125 206.75 C-184.03445312 206.51796875 -182.94390625 206.2859375 -181.8203125 206.046875 C-178.43660287 204.79087198 -178.45333078 204.10834828 -177 201 C-174.50390625 199.65625 -174.50390625 199.65625 -171.5625 198.5 C-167.38017299 196.85157284 -165.61771985 195.57847874 -163 192 C-160.58984375 190.5859375 -160.58984375 190.5859375 -157.9375 189.375 C-154.16038831 187.64053072 -154.16038831 187.64053072 -151 185 C-147.875 184.875 -147.875 184.875 -145 185 C-144.67 184.01 -144.34 183.02 -144 182 C-142.36328125 180.97265625 -142.36328125 180.97265625 -140.3125 180.0625 C-137.58175636 178.79272872 -135.0941657 177.47536764 -132.625 175.75 C-130 174 -130 174 -128 174 C-128 173.34 -128 172.68 -128 172 C-127.34 171.773125 -126.68 171.54625 -126 171.3125 C-123.60258549 170.26363115 -121.77590471 169.24017474 -119.625 167.8125 C-115.00007528 164.81832909 -110.04684893 162.62665317 -105.01611328 160.41137695 C-101.34531643 158.96720457 -101.34531643 158.96720457 -99 156 C-97.02 156 -95.04 156 -93 156 C-91.98116439 159.05650683 -91.87046406 161.13161475 -91.86196899 164.33161926 C-91.85651566 165.43774063 -91.85106232 166.543862 -91.84544373 167.6835022 C-91.8444014 168.89758759 -91.84335907 170.11167297 -91.84228516 171.36254883 C-91.83448607 173.32474074 -91.82668293 175.28693265 -91.81872725 177.24912393 C-91.81101291 179.35930141 -91.80563061 181.46947455 -91.80076981 183.57966042 C-91.79008408 187.97963571 -91.76983744 192.37953426 -91.74765015 196.77946472 C-91.68574601 209.29149864 -91.63172704 221.80352809 -91.59863281 234.31567383 C-91.58027617 241.22556688 -91.55132744 248.1353314 -91.5106281 255.04512995 C-91.48957594 258.70060386 -91.47410339 262.35591591 -91.47182083 266.01145363 C-91.46927056 270.09090499 -91.44379023 274.16990664 -91.41650391 278.24926758 C-91.41951004 279.45728027 -91.42251617 280.66529297 -91.4256134 281.90991211 C-91.368184 287.68019865 -91.312062 292.04821604 -88 297 C-87.01 298.485 -87.01 298.485 -86 300 C-85.2575 300.28875 -84.515 300.5775 -83.75 300.875 C-80.13150524 302.35529331 -77.79135973 304.27067048 -75 307 C-73.625 310.3125 -73.625 310.3125 -73 313 C-72.34 313 -71.68 313 -71 313 C-71 313.66 -71 314.32 -71 315 C-70.34 315 -69.68 315 -69 315 C-69 315.66 -69 316.32 -69 317 C-68.12843262 317.14272339 -68.12843262 317.14272339 -67.23925781 317.28833008 C-64.50009033 318.15887884 -63.22047462 319.38116343 -61.171875 321.38671875 C-60.45386719 322.07830078 -59.73585937 322.76988281 -58.99609375 323.48242188 C-57.88427734 324.57393555 -57.88427734 324.57393555 -56.75 325.6875 C-51.89552057 330.42557539 -47.09677711 334.87506771 -41.54003906 338.78442383 C-40 340 -40 340 -39 342 C-37.35857037 343.0409066 -35.69287785 344.04504326 -34 345 C-32.41979843 341.49595043 -31.75053132 338.77062296 -31.75390434 334.93381023 C-31.74992225 333.93108725 -31.74594015 332.92836427 -31.74183738 331.89525574 C-31.74766307 330.80089969 -31.75348875 329.70654363 -31.75949097 328.57902527 C-31.75778212 327.41094072 -31.75607327 326.24285617 -31.75431263 325.03937513 C-31.75158848 321.80116364 -31.75783704 318.56311236 -31.76786876 315.32491982 C-31.77650691 311.83145094 -31.77358284 308.3379895 -31.77206421 304.84451294 C-31.77101559 298.7931612 -31.77728979 292.74185259 -31.78853989 286.6905117 C-31.80479503 277.94129862 -31.81000291 269.19210638 -31.81251587 260.44287983 C-31.81689295 246.24779674 -31.83020241 232.05273663 -31.84912109 217.85766602 C-31.86747955 204.06860469 -31.88163623 190.2795496 -31.89013672 176.49047852 C-31.89092489 175.21550833 -31.89092489 175.21550833 -31.89172898 173.91478118 C-31.89433906 169.65067408 -31.89686648 165.38656694 -31.89935279 161.12245977 C-31.92008569 125.74829013 -31.95531158 90.37414718 -32 55 C-32.54269531 55.2165625 -33.08539063 55.433125 -33.64453125 55.65625 C-34.35996094 55.9346875 -35.07539063 56.213125 -35.8125 56.5 C-36.52019531 56.7784375 -37.22789062 57.056875 -37.95703125 57.34375 C-40 58 -40 58 -43 58 C-43 58.66 -43 59.32 -43 60 C-47.48492577 63.5696348 -51.69348914 65.89742023 -57 68 C-58.11375 68.5878125 -58.11375 68.5878125 -59.25 69.1875 C-61 70 -61 70 -64 70 C-64 70.66 -64 71.32 -64 72 C-68.09236325 75.31557208 -72.71441048 77.94478567 -77.4375 80.25 C-80.955346 81.74007891 -80.955346 81.74007891 -83 84 C-83.680625 84.268125 -84.36125 84.53625 -85.0625 84.8125 C-90.21374505 86.89491821 -95.03562525 89.72087226 -99.6875 92.75 C-102.4416406 94.23872465 -104.90829951 94.64049994 -108 95 C-108 95.66 -108 96.32 -108 97 C-108.66 97 -109.32 97 -110 97 C-110 97.66 -110 98.32 -110 99 C-117.35767635 102.76099585 -117.35767635 102.76099585 -120.6875 104 C-123.19027626 104.95920944 -123.19027626 104.95920944 -125.625 107.125 C-128 109 -128 109 -131 109 C-131 109.66 -131 110.32 -131 111 C-131.68964844 111.36351562 -132.37929687 111.72703125 -133.08984375 112.1015625 C-138.67182247 115.08780626 -143.97798642 118.20848291 -149.125 121.8984375 C-151 123 -151 123 -154 123 C-154 123.66 -154 124.32 -154 125 C-155.19625 125.556875 -156.3925 126.11375 -157.625 126.6875 C-162.47412675 129.11636988 -167.21155533 131.63466599 -169 137 C-169.36219556 140.15217724 -169.71501032 143.30158088 -169.98632812 146.46289062 C-170.36187968 149.81626691 -170.79010345 151.74578266 -172.9609375 154.375 C-173.97027344 155.179375 -173.97027344 155.179375 -175 156 C-175.598125 156.515625 -176.19625 157.03125 -176.8125 157.5625 C-179.13343904 159.08768851 -181.51864628 160.13653781 -184.08203125 161.19140625 C-189.03888841 163.28116069 -193.62260509 165.71578611 -198.0625 168.75 C-201.92084098 171.24837129 -204.47067719 171.47180446 -209 171 C-210.00682738 167.97951787 -210.13242199 165.94031693 -210.14526367 162.78173828 C-210.15164352 161.71698273 -210.15802338 160.65222717 -210.16459656 159.5552063 C-210.16570938 158.40519135 -210.1668222 157.25517639 -210.16796875 156.0703125 C-210.17296135 154.29658768 -210.17296135 154.29658768 -210.17805481 152.48703003 C-210.18312118 149.98370757 -210.18546322 147.48037836 -210.18530273 144.97705078 C-210.18748725 141.14734761 -210.20564095 137.31793335 -210.22460938 133.48828125 C-210.22754373 131.05729265 -210.22952824 128.62630269 -210.23046875 126.1953125 C-210.23765427 125.04934601 -210.24483978 123.90337952 -210.25224304 122.72268677 C-210.24916641 121.65162689 -210.24608978 120.58056702 -210.24291992 119.47705078 C-210.24434494 118.53789825 -210.24576996 117.59874573 -210.24723816 116.63113403 C-209.91115545 113.05450714 -208.92872838 110.1762039 -206.6953125 107.34765625 C-204.55232669 105.64413067 -202.3574085 104.59572681 -199.875 103.4375 C-194.62503254 100.88860276 -189.62862833 98.06366138 -184.625 95.0625 C-164.41105724 83 -164.41105724 83 -159 83 C-159 82.34 -159 81.68 -159 81 C-156.98828125 79.59765625 -156.98828125 79.59765625 -154.3125 78.0625 C-153.44238281 77.55847656 -152.57226562 77.05445313 -151.67578125 76.53515625 C-150.79277344 76.02855469 -149.90976563 75.52195312 -149 75 C-147.69095703 74.16275391 -147.69095703 74.16275391 -146.35546875 73.30859375 C-144 72 -144 72 -141 72 C-141 71.34 -141 70.68 -141 70 C-139.68 69.67 -138.36 69.34 -137 69 C-137 68.34 -137 67.68 -137 67 C-130.50012674 63.34146398 -123.98461712 59.99629623 -117.1171875 57.078125 C-114.84498925 56.18506317 -114.84498925 56.18506317 -114 54 C-112.68 54 -111.36 54 -110 54 C-110 53.34 -110 52.68 -110 52 C-107.515625 50.34375 -107.515625 50.34375 -104.25 48.5 C-103.18265625 47.8915625 -102.1153125 47.283125 -101.015625 46.65625 C-99.26672149 45.69571232 -97.50409036 44.75796902 -95.7109375 43.8828125 C-93.88651874 43.0512672 -93.88651874 43.0512672 -92.375 41.375 C-91.92125 40.92125 -91.4675 40.4675 -91 40 C-90.34 40 -89.68 40 -89 40 C-89 39.34 -89 38.68 -89 38 C-88.3709375 37.84144531 -87.741875 37.68289062 -87.09375 37.51953125 C-81.65517408 36.03702787 -77.30023778 34.2500639 -72.69140625 30.98828125 C-71 30 -71 30 -68 30 C-68 29.34 -68 28.68 -68 28 C-65.69140625 26.44921875 -65.69140625 26.44921875 -62.5625 24.6875 C-61.46679688 24.06617187 -60.37109375 23.44484375 -59.2421875 22.8046875 C-57.63730469 21.91136719 -57.63730469 21.91136719 -56 21 C-55.15695313 20.52820313 -54.31390625 20.05640625 -53.4453125 19.5703125 C-51.97799705 18.75288071 -50.5080721 17.94010939 -49.03515625 17.1328125 C-47.04035296 16.02246134 -45.0850323 14.85779069 -43.125 13.6875 C-40 12 -40 12 -37 12 C-37 11.34 -37 10.68 -37 10 C-26.43087985 1.13902048 -13.51567304 -5.6908097 0 0 Z " fill="#EBEBEB" transform="translate(268,56)"/>
<path d="M0 0 C0.99 0 1.98 0 3 0 C3 0.66 3 1.32 3 2 C4.258125 2.103125 5.51625 2.20625 6.8125 2.3125 C9.60499657 2.64858808 10.74433121 2.80025876 13 4.5625 C13.33 5.036875 13.66 5.51125 14 6 C13.319375 5.835 12.63875 5.67 11.9375 5.5 C8.5835178 4.92910941 5.39610195 4.93340977 2 5 C1.13087132 8.00290312 0.87476564 10.67242251 0.87415886 13.79420567 C0.87155111 14.76173694 0.86894336 15.72926822 0.86625659 16.72611862 C0.86848732 17.78632263 0.87071804 18.84652663 0.87301636 19.93885803 C0.87145637 21.06721949 0.86989638 22.19558094 0.86828911 23.35813516 C0.86428881 27.1529138 0.86746504 30.94765268 0.87060547 34.74243164 C0.86980129 37.45733219 0.86750711 40.17223102 0.86529541 42.88713074 C0.86084491 49.50370963 0.86181095 56.12027719 0.86470805 62.73685653 C0.86696471 68.11288106 0.86727346 73.48890242 0.86618423 78.86492729 C0.866031 79.62951887 0.86587777 80.39411044 0.86571989 81.18187146 C0.86540017 82.73502013 0.86507596 84.2881688 0.8647473 85.84131747 C0.86189467 100.41050975 0.86517624 114.97969575 0.87054767 129.54888701 C0.8750164 142.05708993 0.87423878 154.56528357 0.86962891 167.07348633 C0.86428087 181.59143252 0.8621684 196.10937319 0.86524117 210.62732023 C0.86555973 212.17450964 0.8658741 213.72169906 0.86618423 215.26888847 C0.86633851 216.03018082 0.86649279 216.79147317 0.86665174 217.57583498 C0.86751613 222.94755672 0.86605569 228.31927497 0.86370468 233.69099617 C0.86090399 240.23413892 0.8616507 246.77726967 0.86698543 253.32041103 C0.86961864 256.66048638 0.87009812 260.00052506 0.86733627 263.34060287 C0.86462116 266.95646404 0.86801041 270.57226812 0.87301636 274.18812561 C0.87078564 275.25056034 0.86855491 276.31299506 0.86625659 277.40762478 C0.87016822 278.85501007 0.87016822 278.85501007 0.87415886 280.33163548 C0.87432121 281.16675051 0.87448356 282.00186555 0.87465084 282.8622871 C0.91799055 285.18755987 0.91799055 285.18755987 2 288 C3.32 287.67 4.64 287.34 6 287 C5.25 288.9375 5.25 288.9375 4 291 C1.875 291.75 1.875 291.75 0 292 C-1.23329242 286.24574524 -1.13926364 280.58718839 -1.12698364 274.73365784 C-1.12854363 273.59415914 -1.13010362 272.45466044 -1.13171089 271.28063148 C-1.13570152 267.45994236 -1.13253869 263.63929294 -1.12939453 259.81860352 C-1.1301993 257.08034177 -1.13249369 254.34208172 -1.13470459 251.6038208 C-1.13915026 244.93670999 -1.13819111 238.26961044 -1.13529195 231.60249919 C-1.13303301 226.18317395 -1.13272753 220.76385187 -1.13381577 215.34452629 C-1.133969 214.5730345 -1.13412223 213.80154272 -1.13428011 213.00667239 C-1.13459984 211.43935872 -1.13492405 209.87204504 -1.1352527 208.30473136 C-1.13810402 193.60903241 -1.13482602 178.91333969 -1.12945233 164.21764176 C-1.1249855 151.61180688 -1.12575991 139.0059812 -1.13037109 126.40014648 C-1.13572452 111.7583601 -1.13782842 97.11657918 -1.13475883 82.47479194 C-1.13444028 80.91295779 -1.13412591 79.35112363 -1.13381577 77.78928947 C-1.13366149 77.02085762 -1.13350721 76.25242577 -1.13334826 75.4607081 C-1.13248535 70.0492645 -1.13394115 64.63782437 -1.13629532 59.2263813 C-1.13910208 52.62960268 -1.13833657 46.03283596 -1.13301457 39.43605871 C-1.13038927 36.07117078 -1.12989238 32.70631907 -1.13266373 29.34142876 C-1.13539244 25.69204127 -1.13197287 22.04270972 -1.12698364 18.39332581 C-1.12921436 17.33223384 -1.13144509 16.27114187 -1.13374341 15.17789561 C-1.12001806 10.00879056 -0.89896184 5.09330812 0 0 Z " fill="#2A2A2A" transform="translate(277,111)"/>
<path d="M0 0 C2.31 0.66 4.62 1.32 7 2 C3.25 3.125 3.25 3.125 1 2 C1.00435059 2.94262695 1.00870117 3.88525391 1.01318359 4.85644531 C1.05349423 18.1172115 0.90777598 31.37566155 0.71246719 44.63484955 C0.66210293 48.05698076 0.6156211 51.47906859 0.578125 54.90136719 C0.53414905 58.90839749 0.47465722 62.91506113 0.4140625 66.921875 C0.40251129 68.14686707 0.39096008 69.37185913 0.37905884 70.63397217 C0.35918915 71.77666565 0.33931946 72.91935913 0.31884766 74.09667969 C0.30552399 75.09495789 0.29220032 76.09323608 0.2784729 77.12176514 C-0.03026298 80.31279151 -0.88388764 83.00375181 -2 86 C-3.51659403 82.96681195 -3.08052366 79.84323036 -3.02172852 76.52099609 C-3.01212097 75.75017197 -3.00251343 74.97934784 -2.99261475 74.18516541 C-2.95956993 71.63116477 -2.91925858 69.07733228 -2.87890625 66.5234375 C-2.85461048 64.75510251 -2.83076666 62.98676126 -2.80735779 61.21841431 C-2.74446275 56.55929441 -2.67541148 51.9002851 -2.60510254 47.24127197 C-2.53446799 42.4890243 -2.46962185 37.7366981 -2.40429688 32.984375 C-2.27521469 23.65616369 -2.13963247 14.32805893 -2 5 C-1.34 5 -0.68 5 0 5 C0 3.35 0 1.7 0 0 Z " fill="#484848" transform="translate(378,280)"/>
<path d="M0 0 C0.91161357 4.64202445 1.13747042 9.12735812 1.11352539 13.84130859 C1.11367142 14.60296326 1.11381744 15.36461792 1.1139679 16.14935303 C1.11327518 18.64907754 1.10551299 21.14872612 1.09765625 23.6484375 C1.09578979 25.38864094 1.09436696 27.12884491 1.09336853 28.86904907 C1.08956131 33.43598903 1.07974642 38.00289689 1.06866455 42.56982422 C1.05841177 47.23534715 1.05386264 51.90087529 1.04882812 56.56640625 C1.03812247 65.71095156 1.0210677 74.8554731 1 84 C0.34 84 -0.32 84 -1 84 C-1.33 57.6 -1.66 31.2 -2 4 C-4.97 4 -7.94 4 -11 4 C-11 3.34 -11 2.68 -11 2 C-9.5422647 1.664061 -8.08378894 1.33133376 -6.625 1 C-5.40683594 0.7215625 -5.40683594 0.7215625 -4.1640625 0.4375 C-2 0 -2 0 0 0 Z " fill="#313131" transform="translate(136,280)"/>
<path d="M0 0 C0.66 0 1.32 0 2 0 C2.00808685 0.90265091 2.01617371 1.80530182 2.02450562 2.73530579 C2.10275829 11.28207672 2.19013914 19.82869666 2.28752708 28.3752718 C2.33726826 32.76813471 2.38359844 37.16097612 2.421875 41.55395508 C2.45901026 45.80104896 2.50544283 50.04795258 2.55806351 54.29488182 C2.57645865 55.90737729 2.59162019 57.51991331 2.60334396 59.13247108 C2.66948377 67.92293579 2.97704143 76.3934126 5 85 C5.66 85 6.32 85 7 85 C7 85.99 7 86.98 7 88 C6.34 88 5.68 88 5 88 C4.34 86.35 3.68 84.7 3 83 C2.34 83 1.68 83 1 83 C0.67 55.61 0.34 28.22 0 0 Z " fill="#A7A7A7" transform="translate(136,284)"/>
<path d="M0 0 C0.99 0 1.98 0 3 0 C3 0.66 3 1.32 3 2 C4.258125 2.103125 5.51625 2.20625 6.8125 2.3125 C9.60499657 2.64858808 10.74433121 2.80025876 13 4.5625 C13.33 5.036875 13.66 5.51125 14 6 C13.319375 5.835 12.63875 5.67 11.9375 5.5 C8.5835178 4.92910941 5.39610195 4.93340977 2 5 C1.17084348 7.91626662 0.85421477 10.55707755 0.79467773 13.58496094 C0.77473251 14.48559265 0.75478729 15.38622437 0.73423767 16.31414795 C0.70916893 17.75966034 0.70916893 17.75966034 0.68359375 19.234375 C0.66281265 20.22753723 0.64203156 21.22069946 0.62062073 22.24395752 C0.55530251 25.41256882 0.49632261 28.58126211 0.4375 31.75 C0.39429793 33.89974802 0.35068309 36.04948778 0.30664062 38.19921875 C0.19963929 43.46605949 0.09784009 48.73298155 0 54 C-0.33 54 -0.66 54 -1 54 C-1.02543118 47.43466014 -1.04290097 40.86933307 -1.05493164 34.30395508 C-1.05994905 32.07217942 -1.06676446 29.84040702 -1.07543945 27.60864258 C-1.08761871 24.39403474 -1.09325435 21.17947051 -1.09765625 17.96484375 C-1.10539818 16.47693581 -1.10539818 16.47693581 -1.11329651 14.95896912 C-1.11370605 9.85976487 -0.88172257 5.02490337 0 0 Z " fill="#2B2B2B" transform="translate(277,111)"/>
<path d="M0 0 C0.33 0.66 0.66 1.32 1 2 C-1.91299442 5.72215954 -3.79369809 7.89684904 -8 10 C-9.02611949 11.65071396 -10.02308143 13.31970006 -11 15 C-14.37098516 18.9176314 -16.98332923 20.71666562 -22 22 C-20.86349426 18.59048278 -19.74186875 17.62363724 -17.0625 15.3125 C-15.99708984 14.37857422 -15.99708984 14.37857422 -14.91015625 13.42578125 C-13 12 -13 12 -11 12 C-10.76539063 11.42765625 -10.53078125 10.8553125 -10.2890625 10.265625 C-8.70593415 7.48315699 -6.8008475 5.82929786 -4.375 3.75 C-3.55773437 3.04359375 -2.74046875 2.3371875 -1.8984375 1.609375 C-1.27195312 1.07828125 -0.64546875 0.5471875 0 0 Z " fill="#454545" transform="translate(368,373)"/>
<path d="M0 0 C0.33 0 0.66 0 1 0 C1.02505615 1.28688721 1.0501123 2.57377441 1.07592773 3.8996582 C1.17001572 8.66880454 1.27023313 13.43780571 1.37231445 18.20678711 C1.41565803 20.27185676 1.45733352 22.33696212 1.49731445 24.40209961 C1.55503083 27.36843635 1.61872151 30.33459345 1.68359375 33.30078125 C1.70030624 34.2258699 1.71701874 35.15095856 1.73423767 36.1040802 C1.75418289 36.96474594 1.77412811 37.82541168 1.79467773 38.7121582 C1.81022202 39.46938675 1.8257663 40.2266153 1.84178162 41.00679016 C1.93632323 43.20924815 1.93632323 43.20924815 3 46 C4.98 45.505 4.98 45.505 7 45 C6.25 46.9375 6.25 46.9375 5 49 C2.875 49.75 2.875 49.75 1 50 C-0.13606798 44.56731506 -0.12824385 39.30933397 -0.09765625 33.7890625 C-0.0962413 32.82092621 -0.09482635 31.85278992 -0.09336853 30.85531616 C-0.08779365 27.77851201 -0.07524577 24.70178197 -0.0625 21.625 C-0.05748175 19.53255314 -0.05291941 17.44010513 -0.04882812 15.34765625 C-0.03783245 10.2317425 -0.02058515 5.11588379 0 0 Z " fill="#2C2C2C" transform="translate(276,353)"/>
<path d="M0 0 C0.33 0.66 0.66 1.32 1 2 C-0.25 4.5625 -0.25 4.5625 -2 7 C-2.99 7.33 -3.98 7.66 -5 8 C-5.433125 8.928125 -5.433125 8.928125 -5.875 9.875 C-7.38066201 12.71902824 -9.13246422 13.6379205 -12 15 C-12.66 14.67 -13.32 14.34 -14 14 C-9.33333333 9.33333333 -4.66666667 4.66666667 0 0 Z " fill="#AAAAAA" transform="translate(335,349)"/>
<path d="M0 0 C0.33 0.99 0.66 1.98 1 3 C-0.99810622 5.14611409 -2.72016168 6.84873604 -5.3125 8.25 C-8.66656344 10.43404131 -10.7805896 13.13903446 -13.25390625 16.2578125 C-15.17752465 18.1771275 -16.34832057 18.61704411 -19 19 C-19 18.34 -19 17.68 -19 17 C-17.42578125 15.44921875 -17.42578125 15.44921875 -15.3125 13.6875 C-12.80197706 11.56355316 -10.39176579 9.44498656 -8.125 7.0625 C-6 5 -6 5 -4 5 C-3.67 4.01 -3.34 3.02 -3 2 C-2.01 1.34 -1.02 0.68 0 0 Z " fill="#666666" transform="translate(299,438)"/>
<path d="M0 0 C0.66 0.33 1.32 0.66 2 1 C1.67 1.99 1.34 2.98 1 4 C0.85445167 6.1216468 0.77919588 8.24856706 0.75 10.375 C0.72421875 11.49648438 0.6984375 12.61796875 0.671875 13.7734375 C1.28606569 19.81297931 4.80183601 22.91231401 9 27 C9.33 27.66 9.66 28.32 10 29 C5.57600557 28.20720454 3.31208617 26.29933112 0.421875 22.93359375 C-2.65822722 16.57876748 -1.61358465 8.87493712 -1 2 C-0.67 1.34 -0.34 0.68 0 0 Z " fill="#7C7C7C" transform="translate(60,275)"/>
<path d="M0 0 C0.66 0.33 1.32 0.66 2 1 C0.66035678 3.54532213 -0.42770871 5.57078153 -2.75 7.3125 C-5.96602597 8.2951746 -8.66100717 8.3035448 -12 8 C-13.9375 6.5 -13.9375 6.5 -15 5 C-13 4 -13 4 -9.75 4.75 C-5.75552719 5.01629819 -5.39611453 4.96535127 -2.5625 2.5625 C-1.716875 1.716875 -0.87125 0.87125 0 0 Z " fill="#515151" transform="translate(265,469)"/>
<path d="M0 0 C2.66854617 4.00281925 2.375285 7.27346541 2.55859375 11.9921875 C3.04551875 15.31017202 4.10719061 17.26425949 6 20 C4.125 19.8125 4.125 19.8125 2 19 C-0.20605132 14.89429339 -0.2109301 11.28476042 -0.125 6.6875 C-0.10695313 5.43324219 -0.08890625 4.17898437 -0.0703125 2.88671875 C-0.03550781 1.45779297 -0.03550781 1.45779297 0 0 Z " fill="#363636" transform="translate(413,191)"/>
<path d="M0 0 C0.58652344 0.20109375 1.17304687 0.4021875 1.77734375 0.609375 C0.15484434 1.44756658 -1.47074122 2.2797866 -3.09765625 3.109375 C-4.00257812 3.5734375 -4.9075 4.0375 -5.83984375 4.515625 C-8.22265625 5.609375 -8.22265625 5.609375 -10.22265625 5.609375 C-10.88265625 7.259375 -11.54265625 8.909375 -12.22265625 10.609375 C-14.20265625 10.609375 -16.18265625 10.609375 -18.22265625 10.609375 C-17.22265625 8.609375 -17.22265625 8.609375 -14.84765625 7.671875 C-12.25598148 6.82151854 -12.25598148 6.82151854 -10.84765625 5.234375 C-8.00268213 2.38940088 -4.14421707 -0.7283334 0 0 Z " fill="#717171" transform="translate(101.22265625,251.390625)"/>
<path d="M0 0 C0.66 0.33 1.32 0.66 2 1 C1.3503125 1.5878125 1.3503125 1.5878125 0.6875 2.1875 C-1.26372658 4.28326189 -2.54845476 6.53868415 -4 9 C-4.66 9.66 -5.32 10.32 -6 11 C-8.125 10.625 -8.125 10.625 -10 10 C-6.92118304 6.12948725 -3.99926986 2.97088618 0 0 Z " fill="#979797" transform="translate(319,364)"/>
<path d="M0 0 C0.99 0 1.98 0 3 0 C3 0.66 3 1.32 3 2 C4.258125 2.103125 5.51625 2.20625 6.8125 2.3125 C9.60499657 2.64858808 10.74433121 2.80025876 13 4.5625 C13.33 5.036875 13.66 5.51125 14 6 C13.0409375 5.7525 13.0409375 5.7525 12.0625 5.5 C8.02413348 4.84067485 4.08192742 4.91996221 0 5 C0 3.35 0 1.7 0 0 Z " fill="#6A6A6A" transform="translate(277,111)"/>
<path d="M0 0 C0.33 0.66 0.66 1.32 1 2 C-2.60962026 6.64094034 -5.70568832 9.35284416 -11 12 C-9.49650623 8.33213607 -7.36271208 6.31089607 -4.375 3.75 C-3.14910156 2.69039063 -3.14910156 2.69039063 -1.8984375 1.609375 C-1.27195312 1.07828125 -0.64546875 0.5471875 0 0 Z " fill="#626262" transform="translate(368,373)"/>
<path d="M0 0 C5.73842251 -0.20413361 10.60539047 -0.27141454 16 2 C16 2.66 16 3.32 16 4 C16.99 4.33 17.98 4.66 19 5 C17 6 17 6 13.875 5.0625 C12.92625 4.711875 11.9775 4.36125 11 4 C11 3.34 11 2.68 11 2 C7.37 1.67 3.74 1.34 0 1 C0 0.67 0 0.34 0 0 Z " fill="#888989" transform="translate(252,54)"/>
<path d="M0 0 C1.32 0 2.64 0 4 0 C4 0.66 4 1.32 4 2 C4.7425 2.0825 5.485 2.165 6.25 2.25 C9.51221354 3.1396946 10.80954878 4.48503749 13 7 C9.34899606 7 7.89878202 5.9552415 4.8125 4.0625 C3.46091797 3.24458984 3.46091797 3.24458984 2.08203125 2.41015625 C1.39496094 1.94480469 0.70789063 1.47945312 0 1 C0 0.67 0 0.34 0 0 Z " fill="#4C4C4C" transform="translate(353,218)"/>
<path d="M0 0 C0 0.66 0 1.32 0 2 C-0.99 2.33 -1.98 2.66 -3 3 C-4.66589237 4.85811713 -4.66589237 4.85811713 -6.1875 7.0625 C-6.71730469 7.79597656 -7.24710938 8.52945313 -7.79296875 9.28515625 C-8.19128906 9.85105469 -8.58960938 10.41695312 -9 11 C-9.33 9.68 -9.66 8.36 -10 7 C-8.71372289 5.82739389 -7.42080217 4.6620717 -6.125 3.5 C-5.04605469 2.52546875 -5.04605469 2.52546875 -3.9453125 1.53125 C-2 0 -2 0 0 0 Z " fill="#CFCFD0" transform="translate(70,160)"/>
<path d="M0 0 C1.485 0.99 1.485 0.99 3 2 C3 2.66 3 3.32 3 4 C4.32 3.67 5.64 3.34 7 3 C6.25 4.9375 6.25 4.9375 5 7 C2.875 7.75 2.875 7.75 1 8 C0.67 5.36 0.34 2.72 0 0 Z " fill="#747474" transform="translate(276,395)"/>
<path d="M0 0 C0 1.32 0 2.64 0 4 C-3.63 4 -7.26 4 -11 4 C-11 3.34 -11 2.68 -11 2 C-9.5422647 1.664061 -8.08378894 1.33133376 -6.625 1 C-5.40683594 0.7215625 -5.40683594 0.7215625 -4.1640625 0.4375 C-2 0 -2 0 0 0 Z " fill="#646364" transform="translate(136,280)"/>
<path d="M0 0 C0 0.99 0 1.98 0 3 C-3 5.1875 -3 5.1875 -6 7 C-6.66 6.67 -7.32 6.34 -8 6 C-3.375 1.125 -3.375 1.125 0 0 Z " fill="#B5B5B5" transform="translate(329,357)"/>
<path d="M0 0 C2.4375 0.8125 2.4375 0.8125 5 2 C5.33 2.99 5.66 3.98 6 5 C7.49985609 6.66710346 7.49985609 6.66710346 9 8 C7.68 8 6.36 8 5 8 C4.67 6.68 4.34 5.36 4 4 C3.34 4 2.68 4 2 4 C1.34 2.68 0.68 1.36 0 0 Z " fill="#6F6F6F" transform="translate(196,422)"/>
<path d="M0 0 C2.475 0.99 2.475 0.99 5 2 C5 2.66 5 3.32 5 4 C5.99 4.33 6.98 4.66 8 5 C8 5.99 8 6.98 8 8 C7.01 7.67 6.02 7.34 5 7 C5 6.34 5 5.68 5 5 C4.34 5 3.68 5 3 5 C1.375 2.5 1.375 2.5 0 0 Z " fill="#8C8C8C" transform="translate(157,385)"/>
<path d="M0 0 C0 0.66 0 1.32 0 2 C-0.66 2 -1.32 2 -2 2 C-2 2.66 -2 3.32 -2 4 C-4.64 4.66 -7.28 5.32 -10 6 C-10 5.34 -10 4.68 -10 4 C-9.236875 3.71125 -8.47375 3.4225 -7.6875 3.125 C-0.22222222 0 -0.22222222 0 0 0 Z " fill="#A3A2A2" transform="translate(150,224)"/>
<path d="M0 0 C-0.33 1.32 -0.66 2.64 -1 4 C-3.31 4.33 -5.62 4.66 -8 5 C-3.16129032 0 -3.16129032 0 0 0 Z " fill="#616161" transform="translate(124,284)"/>
<path d="M0 0 C2.475 0.495 2.475 0.495 5 1 C5 1.66 5 2.32 5 3 C5.639375 3.12375 6.27875 3.2475 6.9375 3.375 C7.618125 3.58125 8.29875 3.7875 9 4 C9.33 4.66 9.66 5.32 10 6 C5.56909529 4.79157144 3.01887244 3.48331435 0 0 Z " fill="#979797" transform="translate(359,156)"/>
<path d="M0 0 C2.475 0.495 2.475 0.495 5 1 C5 1.66 5 2.32 5 3 C5.639375 3.12375 6.27875 3.2475 6.9375 3.375 C7.618125 3.58125 8.29875 3.7875 9 4 C9.33 4.66 9.66 5.32 10 6 C5.56909529 4.79157144 3.01887244 3.48331435 0 0 Z " fill="#565656" transform="translate(386,126)"/>
<path d="M0 0 C0 1.98 0 3.96 0 6 C-2.5 4.625 -2.5 4.625 -5 3 C-5 2.34 -5 1.68 -5 1 C-3 0 -3 0 0 0 Z " fill="#4A4A4A" transform="translate(113,344)"/>
<path d="M0 0 C0.33 0.99 0.66 1.98 1 3 C-0.32 4.32 -1.64 5.64 -3 7 C-3.66 6.67 -4.32 6.34 -5 6 C-3.63016497 2.83884224 -3.0109362 2.0072908 0 0 Z " fill="#424242" transform="translate(299,438)"/>
<path d="M0 0 C3.77545388 1.09068668 6.47043472 1.9083091 9 5 C6.03 4.505 6.03 4.505 3 4 C3 3.34 3 2.68 3 2 C2.01 1.67 1.02 1.34 0 1 C0 0.67 0 0.34 0 0 Z " fill="#818181" transform="translate(420,257)"/>
<path d="M0 0 C2.475 0.495 2.475 0.495 5 1 C5 1.66 5 2.32 5 3 C6.32 3.33 7.64 3.66 9 4 C7.3125 4.8125 7.3125 4.8125 5 5 C2.25 2.5625 2.25 2.5625 0 0 Z " fill="#969696" transform="translate(338,144)"/>
<path d="M0 0 C1.32 0 2.64 0 4 0 C4 0.66 4 1.32 4 2 C6.475 2.99 6.475 2.99 9 4 C7 5 7 5 3.9375 4.25 C2.968125 3.8375 1.99875 3.425 1 3 C0.67 2.01 0.34 1.02 0 0 Z " fill="#666666" transform="translate(351,106)"/>
</svg>
