<?xml version="1.0" encoding="UTF-8"?>
<svg version="1.1" xmlns="http://www.w3.org/2000/svg" width="627" height="627">
<path d="M0 0 C1.64464989 -0.01024956 1.64464989 -0.01024956 3.32252502 -0.02070618 C6.86739158 -0.03778259 10.41212594 -0.0440352 13.95703125 -0.046875 C15.15372437 -0.04887909 16.35041748 -0.05088318 17.58337402 -0.052948 C54.04236617 -0.06798124 54.04236617 -0.06798124 68.76953125 3.203125 C69.26453125 3.698125 69.26453125 3.698125 69.76953125 4.203125 C71.21899514 4.53380259 72.68014972 4.81364153 74.14453125 5.0703125 C75.04816406 5.23402344 75.95179688 5.39773437 76.8828125 5.56640625 C78.77565231 5.90194348 80.66887094 6.23535222 82.5625 6.56640625 C88.51716657 7.64983642 94.07255274 9.17746986 99.76953125 11.203125 C101.6204888 11.77609657 103.47398872 12.34106313 105.33203125 12.890625 C106.17894531 13.14199219 107.02585938 13.39335937 107.8984375 13.65234375 C108.51589844 13.83410156 109.13335937 14.01585937 109.76953125 14.203125 C109.76953125 14.863125 109.76953125 15.523125 109.76953125 16.203125 C110.63578125 16.326875 111.50203125 16.450625 112.39453125 16.578125 C115.66466978 17.18370621 118.64210024 18.08618535 121.76953125 19.203125 C121.76953125 19.863125 121.76953125 20.523125 121.76953125 21.203125 C122.60871094 21.29078125 123.44789063 21.3784375 124.3125 21.46875 C128.32457676 22.32103297 131.54361357 23.9666449 135.08203125 25.953125 C135.73631104 26.31148437 136.39059082 26.66984375 137.06469727 27.0390625 C138.97101464 28.08550205 140.87074493 29.14309795 142.76953125 30.203125 C143.75179687 30.74453125 144.7340625 31.2859375 145.74609375 31.84375 C147.75862632 32.95543466 149.76666998 34.07414087 151.76953125 35.203125 C151.76953125 35.863125 151.76953125 36.523125 151.76953125 37.203125 C152.64222656 37.46222656 153.51492187 37.72132813 154.4140625 37.98828125 C157.78836188 39.20994261 160.4525586 40.69211763 163.45703125 42.640625 C164.38902344 43.23746094 165.32101563 43.83429688 166.28125 44.44921875 C168.37157338 45.9226178 170.02105118 47.36041546 171.76953125 49.203125 C172.49140625 49.71875 173.21328125 50.234375 173.95703125 50.765625 C174.55515625 51.24 175.15328125 51.714375 175.76953125 52.203125 C175.76953125 52.863125 175.76953125 53.523125 175.76953125 54.203125 C176.38828125 54.285625 177.00703125 54.368125 177.64453125 54.453125 C179.76953125 55.203125 179.76953125 55.203125 180.70703125 57.140625 C181.56873775 59.40926769 181.56873775 59.40926769 183.85546875 59.875 C188.22523647 61.86658314 191.11968543 65.1200132 194.45703125 68.515625 C195.13314453 69.18013672 195.80925781 69.84464844 196.50585938 70.52929688 C199.87786532 73.9214342 202.2763293 76.56725382 203.76953125 81.203125 C205.09473628 81.88580638 206.42765307 82.5538291 207.76953125 83.203125 C208.10286458 84.53645833 208.43619792 85.86979167 208.76953125 87.203125 C210.09420871 87.8868295 211.42816758 88.55276686 212.76953125 89.203125 C213.83203125 91.140625 213.83203125 91.140625 214.76953125 93.203125 C215.42888672 93.85861328 215.42888672 93.85861328 216.1015625 94.52734375 C218.1246057 96.55986256 219.72792144 98.74487126 221.39453125 101.078125 C222.31105469 102.34269531 222.31105469 102.34269531 223.24609375 103.6328125 C224.78644072 106.23165432 225.37523225 108.22989742 225.76953125 111.203125 C226.42953125 111.203125 227.08953125 111.203125 227.76953125 111.203125 C232.47465391 119.34660652 236.64221445 127.75690238 240.76953125 136.203125 C241.08164551 136.83992187 241.39375977 137.47671875 241.71533203 138.1328125 C242.5767701 139.9013957 243.42352359 141.67710892 244.26953125 143.453125 C244.75421875 144.46890625 245.23890625 145.4846875 245.73828125 146.53125 C246.76953125 149.203125 246.76953125 149.203125 246.76953125 153.203125 C247.42953125 153.203125 248.08953125 153.203125 248.76953125 153.203125 C249.10726563 154.44449219 249.445 155.68585938 249.79296875 156.96484375 C250.24333735 158.6068126 250.69386664 160.24873737 251.14453125 161.890625 C251.36625 162.70724609 251.58796875 163.52386719 251.81640625 164.36523438 C253.12242919 169.12058727 253.12242919 169.12058727 254.8359375 173.73828125 C256.2152124 177.37979784 256.7209047 181.11822504 257.33203125 184.953125 C257.72706245 189.98250951 257.72706245 189.98250951 259.76953125 194.203125 C260.1571783 196.72585929 260.48317135 199.23089242 260.76953125 201.765625 C260.85203125 202.43787109 260.93453125 203.11011719 261.01953125 203.80273438 C262.74631738 218.68277425 262.91911586 233.54757239 262.91479492 248.50537109 C262.91779389 250.59985412 262.9211981 252.69433659 262.92497253 254.78881836 C262.93373523 260.4288613 262.93614718 266.06888903 262.93678832 271.70893812 C262.93750249 275.2388687 262.93964357 278.76879549 262.94228554 282.29872513 C262.95150875 294.62965386 262.95562366 306.96057184 262.95483398 319.29150391 C262.95423191 330.76373828 262.96481693 342.23592584 262.98057765 353.70814836 C262.99366114 363.58540548 262.99901764 373.46264729 262.99837857 383.33991301 C262.99812411 389.22760588 263.00094783 395.11525694 263.01155663 401.00294113 C263.02125286 406.53359814 263.02130632 412.06417344 263.01403999 417.59483337 C263.01299652 419.61924484 263.01534293 421.64366145 263.02140045 423.66806412 C263.02915598 426.44013069 263.02445238 429.21191742 263.01676941 431.98397827 C263.02448475 433.17290918 263.02448475 433.17290918 263.03235596 434.38585889 C262.99087731 441.19996947 261.92656677 447.73201845 259.76953125 454.203125 C259.10953125 454.203125 258.44953125 454.203125 257.76953125 454.203125 C257.50140625 455.1725 257.23328125 456.141875 256.95703125 457.140625 C256.56515625 458.15125 256.17328125 459.161875 255.76953125 460.203125 C254.77953125 460.533125 253.78953125 460.863125 252.76953125 461.203125 C252.43953125 462.193125 252.10953125 463.183125 251.76953125 464.203125 C249.22265625 465.7734375 249.22265625 465.7734375 246.01953125 467.328125 C244.44945312 468.10542969 244.44945312 468.10542969 242.84765625 468.8984375 C234.01289398 472.643121 224.83092058 471.65451535 215.76953125 469.203125 C215.76953125 468.543125 215.76953125 467.883125 215.76953125 467.203125 C215.04765625 467.14125 214.32578125 467.079375 213.58203125 467.015625 C209.86954995 465.9431304 208.34338029 464.04095856 205.76953125 461.203125 C205.08890625 460.605 204.40828125 460.006875 203.70703125 459.390625 C197.94222 452.88196714 196.65343732 445.7025691 196.61804199 437.21960449 C196.61169338 436.18330753 196.61169338 436.18330753 196.6052165 435.12607527 C196.59223028 432.81777187 196.58617502 430.50950297 196.58007812 428.20117188 C196.57213258 426.54354137 196.56374437 424.88591294 196.5549469 423.22828674 C196.53690962 419.66192732 196.521887 416.09557239 196.50917053 412.52919006 C196.48892868 406.89015782 196.46127941 401.25117683 196.43249512 395.61218262 C196.36733132 382.62442999 196.31188747 369.63663923 196.25650787 356.64884186 C196.20564951 344.74480148 196.15274639 332.84077969 196.09198236 320.93678522 C196.06364758 315.33086528 196.04004655 309.72495131 196.02005768 304.11899567 C196.00666345 300.63232653 195.98925157 297.14568585 195.97074699 293.65904045 C195.96299666 292.04213621 195.95692458 290.42522292 195.95265388 288.80830574 C195.9465963 286.60103731 195.93454258 284.393879 195.92102051 282.18664551 C195.91586678 280.95148445 195.91071304 279.71632339 195.90540314 278.44373322 C195.78495832 275.57106775 195.43291563 272.9937967 194.76953125 270.203125 C191.2245047 269.42648034 187.78321312 268.98706931 184.1640625 268.73828125 C182.56401367 268.62129883 182.56401367 268.62129883 180.93164062 268.50195312 C178.71827502 268.34579147 176.50473358 268.19210023 174.29101562 268.04101562 C167.63424048 267.54925386 161.28444263 266.62815351 154.76953125 265.203125 C153.34893548 264.93581801 151.92708313 264.67508029 150.50390625 264.421875 C149.51003906 264.24205078 149.51003906 264.24205078 148.49609375 264.05859375 C147.16324717 263.81889209 145.82989752 263.58197313 144.49609375 263.34765625 C140.43647414 262.60737267 136.6645539 261.54867828 132.76953125 260.203125 C130.15451012 259.45656103 127.52540785 258.76643574 124.89453125 258.078125 C124.20617187 257.89636719 123.5178125 257.71460938 122.80859375 257.52734375 C121.12936045 257.08421274 119.44950919 256.64342456 117.76953125 256.203125 C117.76953125 255.543125 117.76953125 254.883125 117.76953125 254.203125 C116.91230469 254.08710938 116.05507812 253.97109375 115.171875 253.8515625 C111.66771881 253.18372102 108.64526012 252.14068866 105.33203125 250.828125 C104.20539063 250.38339844 103.07875 249.93867188 101.91796875 249.48046875 C98.51329686 248.09916886 95.13018027 246.68806294 91.76953125 245.203125 C91.76953125 244.543125 91.76953125 243.883125 91.76953125 243.203125 C91.0321875 243.08324219 90.29484375 242.96335937 89.53515625 242.83984375 C82.63263245 241.25070338 76.56671625 236.5075569 70.8125 232.53515625 C68.85320939 231.25768379 66.88107416 230.20432849 64.76953125 229.203125 C64.76953125 228.543125 64.76953125 227.883125 64.76953125 227.203125 C63.91617188 226.97496094 63.0628125 226.74679687 62.18359375 226.51171875 C58.20122846 224.98529727 55.4295673 222.92512264 52.14453125 220.265625 C51.02739777 219.38144216 49.91021154 218.49732596 48.79296875 217.61328125 C47.79523438 216.81792969 46.7975 216.02257812 45.76953125 215.203125 C44.58230469 214.36587891 44.58230469 214.36587891 43.37109375 213.51171875 C42.84257812 213.07988281 42.3140625 212.64804687 41.76953125 212.203125 C41.76953125 211.543125 41.76953125 210.883125 41.76953125 210.203125 C40.91681641 209.84154297 40.91681641 209.84154297 40.046875 209.47265625 C37.32164217 207.95344412 35.50262786 206.12893519 33.33203125 203.890625 C32.15253906 202.68212891 32.15253906 202.68212891 30.94921875 201.44921875 C29.87027344 200.33740234 29.87027344 200.33740234 28.76953125 199.203125 C27.84140625 198.295625 26.91328125 197.388125 25.95703125 196.453125 C23.71742316 194.14952811 21.77548267 191.71056427 19.76953125 189.203125 C18.96515625 188.39875 18.16078125 187.594375 17.33203125 186.765625 C11.95097731 181.38457106 5.20579928 174.5119291 2.76953125 167.203125 C2.15078125 166.605 1.53203125 166.006875 0.89453125 165.390625 C-1.57513178 162.84832482 -2.67150378 160.38553768 -4.23046875 157.203125 C-5.4885061 154.98747713 -6.76010388 152.77949076 -8.04296875 150.578125 C-18.23046875 132.89912 -18.23046875 132.89912 -18.23046875 128.203125 C-18.89046875 128.203125 -19.55046875 128.203125 -20.23046875 128.203125 C-20.71966797 126.70072266 -20.71966797 126.70072266 -21.21875 125.16796875 C-21.6599919 123.8254668 -22.10140746 122.48302193 -22.54296875 121.140625 C-22.75630859 120.48384766 -22.96964844 119.82707031 -23.18945312 119.15039062 C-24.65036115 114.72405736 -26.37302667 110.48223215 -28.23046875 106.203125 C-31.72166413 96.96406802 -33.36009164 87.52820669 -34.92358398 77.81054688 C-35.08028564 76.84181641 -35.2369873 75.87308594 -35.3984375 74.875 C-35.53531982 73.9994043 -35.67220215 73.12380859 -35.81323242 72.22167969 C-36.03526224 70.21521985 -36.03526224 70.21521985 -37.23046875 69.203125 C-38.87840023 58.70207255 -39.45026455 48.13558818 -39.54296875 37.515625 C-39.56045166 36.51329834 -39.57793457 35.51097168 -39.59594727 34.47827148 C-39.59129834 28.31741408 -38.75230458 23.83020645 -36.23046875 18.203125 C-35.51890625 16.5325 -35.51890625 16.5325 -34.79296875 14.828125 C-33.08440954 11.95774552 -32.16340537 11.52767702 -29.23046875 10.203125 C-28.92109375 9.5225 -28.61171875 8.841875 -28.29296875 8.140625 C-27.94234375 7.50125 -27.59171875 6.861875 -27.23046875 6.203125 C-24.60546875 5.453125 -24.60546875 5.453125 -22.23046875 5.203125 C-22.23046875 4.543125 -22.23046875 3.883125 -22.23046875 3.203125 C-14.94907965 -0.00925255 -7.8248111 0.0328337 0 0 Z " fill="#FEFEFE" transform="translate(90.23046875,115.796875)"/>
<path d="M0 0 C1.60791161 -0.01441132 1.60791161 -0.01441132 3.24830627 -0.02911377 C4.41280807 -0.03336365 5.57730988 -0.03761353 6.77709961 -0.04199219 C7.97370712 -0.04769226 9.17031464 -0.05339233 10.40318298 -0.05926514 C12.94277052 -0.06872853 15.4823704 -0.07525441 18.02197266 -0.07910156 C21.88913813 -0.08876646 25.75576302 -0.11976122 29.62280273 -0.15136719 C32.09089854 -0.15790123 34.55899815 -0.16315013 37.02709961 -0.16699219 C38.75259789 -0.18551239 38.75259789 -0.18551239 40.51295471 -0.20440674 C47.21076508 -0.18603318 52.68131907 0.57071655 58.86694336 3.16113281 C59.87756836 3.55300781 60.88819336 3.94488281 61.92944336 4.34863281 C62.88850586 4.75082031 62.88850586 4.75082031 63.86694336 5.16113281 C63.86694336 5.82113281 63.86694336 6.48113281 63.86694336 7.16113281 C64.63006836 7.40863281 65.39319336 7.65613281 66.17944336 7.91113281 C69.12775281 9.28243953 70.22528868 10.39624071 71.86694336 13.16113281 C71.86694336 13.82113281 71.86694336 14.48113281 71.86694336 15.16113281 C72.52694336 15.16113281 73.18694336 15.16113281 73.86694336 15.16113281 C74.86694336 18.16113281 75.86694336 21.16113281 76.86694336 24.16113281 C77.2265918 25.09183594 77.58624023 26.02253906 77.95678711 26.98144531 C79.0335602 30.74321912 79.09691768 34.00349514 79.05444336 37.91113281 C79.04799805 39.22597656 79.04155273 40.54082031 79.03491211 41.89550781 C78.86694336 45.16113281 78.86694336 45.16113281 77.86694336 47.16113281 C77.58707297 49.10758739 77.35550101 51.0610872 77.14819336 53.01660156 C77.02057617 54.19673828 76.89295898 55.376875 76.76147461 56.59277344 C76.56618164 58.45192383 76.56618164 58.45192383 76.36694336 60.34863281 C74.77489419 75.26818273 74.77489419 75.26818273 73.86694336 81.16113281 C73.20694336 81.16113281 72.54694336 81.16113281 71.86694336 81.16113281 C71.82956055 81.81597656 71.79217773 82.47082031 71.75366211 83.14550781 C71.00019685 93.6053785 68.32847537 103.30160064 64.86694336 113.16113281 C64.47506836 114.33675781 64.08319336 115.51238281 63.67944336 116.72363281 C63.27725586 117.93019531 63.27725586 117.93019531 62.86694336 119.16113281 C62.20694336 119.16113281 61.54694336 119.16113281 60.86694336 119.16113281 C60.78444336 119.94488281 60.70194336 120.72863281 60.61694336 121.53613281 C57.95767894 134.38924417 50.38693223 145.95532031 43.86694336 157.16113281 C43.33198242 158.12664062 42.79702148 159.09214844 42.24584961 160.08691406 C41.79081055 160.77140625 41.33577148 161.45589844 40.86694336 162.16113281 C40.20694336 162.16113281 39.54694336 162.16113281 38.86694336 162.16113281 C38.55756836 162.94488281 38.24819336 163.72863281 37.92944336 164.53613281 C36.86694336 167.16113281 36.86694336 167.16113281 35.86694336 169.16113281 C35.20694336 169.16113281 34.54694336 169.16113281 33.86694336 169.16113281 C33.66069336 169.82113281 33.45444336 170.48113281 33.24194336 171.16113281 C30.03459953 178.15897388 24.37678357 184.82170003 18.86694336 190.16113281 C18.20694336 190.16113281 17.54694336 190.16113281 16.86694336 190.16113281 C16.61783203 190.73549072 16.3687207 191.30984863 16.11206055 191.90161133 C14.68527831 194.49080145 13.040807 196.22994471 10.94506836 198.31347656 C10.16647461 199.09013672 9.38788086 199.86679688 8.58569336 200.66699219 C7.77100586 201.46943359 6.95631836 202.271875 6.11694336 203.09863281 C5.31772461 203.89720703 4.51850586 204.69578125 3.69506836 205.51855469 C-1.83263217 211.00534296 -7.52748229 215.96792611 -13.69555664 220.72363281 C-16.11706542 222.5935081 -18.51487737 224.47353159 -20.88305664 226.41113281 C-23.20902963 228.22022291 -25.59765914 229.66158355 -28.13305664 231.16113281 C-28.88844727 231.62132812 -29.64383789 232.08152344 -30.42211914 232.55566406 C-36.56077261 236.28197043 -42.79861141 239.77943686 -49.13305664 243.16113281 C-50.26743164 243.77988281 -51.40180664 244.39863281 -52.57055664 245.03613281 C-55.13305664 246.16113281 -55.13305664 246.16113281 -59.13305664 246.16113281 C-59.13305664 246.82113281 -59.13305664 247.48113281 -59.13305664 248.16113281 C-60.4014519 248.66728579 -61.67288766 249.1658238 -62.94555664 249.66113281 C-64.00709961 250.07878906 -64.00709961 250.07878906 -65.09008789 250.50488281 C-67.13305664 251.16113281 -67.13305664 251.16113281 -70.13305664 251.16113281 C-70.13305664 251.82113281 -70.13305664 252.48113281 -70.13305664 253.16113281 C-72.21414349 253.83477942 -74.29802374 254.49980079 -76.38305664 255.16113281 C-77.54321289 255.53238281 -78.70336914 255.90363281 -79.89868164 256.28613281 C-83.13305664 257.16113281 -83.13305664 257.16113281 -87.13305664 257.16113281 C-87.13305664 257.82113281 -87.13305664 258.48113281 -87.13305664 259.16113281 C-88.36282227 259.42667969 -89.59258789 259.69222656 -90.85961914 259.96582031 C-92.49246909 260.32241973 -94.12527951 260.67920014 -95.75805664 261.03613281 C-96.56629883 261.21015625 -97.37454102 261.38417969 -98.20727539 261.56347656 C-101.66616033 262.32274399 -104.9818306 263.10869301 -108.33227539 264.27050781 C-111.4361426 265.25751161 -114.06884566 265.49491975 -117.32055664 265.53613281 C-118.34536133 265.56449219 -119.37016602 265.59285156 -120.42602539 265.62207031 C-123.13305664 265.16113281 -123.13305664 265.16113281 -124.89086914 263.59863281 C-126.5294122 260.3833785 -127.15204203 257.33032139 -127.82055664 253.78613281 C-128.07192383 252.49964844 -128.32329102 251.21316406 -128.58227539 249.88769531 C-129.07268856 246.5695807 -129.24180293 243.50637587 -129.13305664 240.16113281 C-129.79305664 240.16113281 -130.45305664 240.16113281 -131.13305664 240.16113281 C-131.64050087 238.26727844 -132.13870238 236.37094615 -132.63305664 234.47363281 C-132.91149414 233.41789063 -133.18993164 232.36214844 -133.47680664 231.27441406 C-134.07222815 228.44970609 -134.26092156 226.03276573 -134.13305664 223.16113281 C-134.79305664 223.16113281 -135.45305664 223.16113281 -136.13305664 223.16113281 C-136.80670325 221.08004596 -137.47172462 218.99616571 -138.13305664 216.91113281 C-138.50430664 215.75097656 -138.87555664 214.59082031 -139.25805664 213.39550781 C-140.13305664 210.16113281 -140.13305664 210.16113281 -140.13305664 206.16113281 C-140.79305664 206.16113281 -141.45305664 206.16113281 -142.13305664 206.16113281 C-142.32899414 205.46890625 -142.52493164 204.77667969 -142.72680664 204.06347656 C-145.27908486 195.71356636 -148.98536368 188.47033477 -153.19750977 180.8828125 C-154.48503509 178.51338959 -155.65332439 176.09163541 -156.82055664 173.66113281 C-158.57344827 170.10240988 -160.56631343 166.97693784 -162.94555664 163.80957031 C-164.15879025 162.1254105 -165.18322061 160.40976524 -166.19555664 158.59863281 C-167.52889562 156.23303139 -168.84856874 154.06691005 -170.38305664 151.84863281 C-172.13305664 149.16113281 -172.13305664 149.16113281 -172.13305664 147.16113281 C-173.12305664 146.83113281 -174.11305664 146.50113281 -175.13305664 146.16113281 C-176.51747664 144.19614959 -177.84509498 142.19064816 -179.13305664 140.16113281 C-179.87555664 139.25363281 -180.61805664 138.34613281 -181.38305664 137.41113281 C-183.13305664 135.16113281 -183.13305664 135.16113281 -183.13305664 133.16113281 C-183.79305664 133.16113281 -184.45305664 133.16113281 -185.13305664 133.16113281 C-189.13305664 128.80819164 -189.13305664 128.80819164 -189.13305664 125.16113281 C-189.79305664 125.16113281 -190.45305664 125.16113281 -191.13305664 125.16113281 C-192.68386916 122.05950778 -192.87134725 119.48930001 -192.13305664 116.16113281 C-190.12927207 112.25847386 -187.87405881 108.5904862 -185.13305664 105.16113281 C-184.47305664 105.16113281 -183.81305664 105.16113281 -183.13305664 105.16113281 C-183.00930664 104.58363281 -182.88555664 104.00613281 -182.75805664 103.41113281 C-181.65590838 99.44339907 -180.07956914 96.98978481 -177.13305664 94.16113281 C-176.35961914 93.07832031 -176.35961914 93.07832031 -175.57055664 91.97363281 C-175.09618164 91.37550781 -174.62180664 90.77738281 -174.13305664 90.16113281 C-173.47305664 90.16113281 -172.81305664 90.16113281 -172.13305664 90.16113281 C-171.86493164 89.35675781 -171.59680664 88.55238281 -171.32055664 87.72363281 C-170.92868164 86.87800781 -170.53680664 86.03238281 -170.13305664 85.16113281 C-168.64805664 84.66613281 -168.64805664 84.66613281 -167.13305664 84.16113281 C-166.83705566 83.41887451 -166.54105469 82.67661621 -166.23608398 81.91186523 C-164.87946855 78.52873418 -163.06199255 76.71768276 -160.48461914 74.14941406 C-159.56165039 73.22708984 -158.63868164 72.30476563 -157.68774414 71.35449219 C-157.20660156 70.88164795 -156.72545898 70.40880371 -156.22973633 69.92163086 C-154.76078658 68.47631882 -153.30565811 67.0180994 -151.85180664 65.55761719 C-144.30276659 58.06640405 -144.30276659 58.06640405 -140.13305664 56.16113281 C-138.77804745 54.84983359 -137.44634321 53.51421594 -136.13305664 52.16113281 C-132.91343601 49.4149858 -129.50381094 46.94396263 -126.07055664 44.47363281 C-125.23395508 43.87164062 -124.39735352 43.26964844 -123.53540039 42.64941406 C-121.13305664 41.16113281 -121.13305664 41.16113281 -118.88696289 40.64160156 C-118.30817383 40.48304687 -117.72938477 40.32449219 -117.13305664 40.16113281 C-116.80305664 39.17113281 -116.47305664 38.18113281 -116.13305664 37.16113281 C-112.92021327 35.27533344 -110.88672081 34.16113281 -107.13305664 34.16113281 C-106.80305664 33.17113281 -106.47305664 32.18113281 -106.13305664 31.16113281 C-102.57055664 29.97363281 -102.57055664 29.97363281 -99.13305664 29.16113281 C-99.13305664 28.50113281 -99.13305664 27.84113281 -99.13305664 27.16113281 C-80.78825922 18.36603844 -62.35909358 10.7587847 -42.31665039 6.83691406 C-39.11954626 6.21260776 -39.11954626 6.21260776 -36.03149414 5.17675781 C-30.60133713 3.5802721 -24.92785121 3.20595584 -19.32055664 2.59863281 C-17.06367424 2.35069362 -14.80714009 2.09955679 -12.55102539 1.84472656 C-11.55868896 1.73700928 -10.56635254 1.62929199 -9.54394531 1.51831055 C-6.08351869 1.00564177 -3.63119955 0.02622349 0 0 Z " fill="#FEFEFE" transform="translate(511.133056640625,47.8388671875)"/>
<path d="M0 0 C2.475 0.495 2.475 0.495 5 1 C5 57.76 5 114.52 5 173 C4.67 173 4.34 173 4 173 C3.99365209 171.71590351 3.99365209 171.71590351 3.98717594 170.40586567 C3.88390342 149.5828035 3.77527071 128.75977532 3.66066074 107.93677235 C3.60536588 97.8669583 3.55189 87.79714072 3.50268555 77.72729492 C3.45979795 68.9511568 3.4135084 60.17504437 3.36312145 51.39894599 C3.3365574 46.75142872 3.31170524 42.10391643 3.29092598 37.4563694 C3.2713162 33.08240862 3.24715947 28.70849658 3.21950912 24.33457947 C3.21016167 22.72896906 3.20247815 21.12334797 3.19658089 19.51772118 C3.18828043 17.32550695 3.17399293 15.13340976 3.15821838 12.9412384 C3.15176583 11.71433194 3.14531328 10.48742548 3.1386652 9.22334003 C3.01446247 6.33618714 2.8018773 3.77500038 2 1 C1.34 0.67 0.68 0.34 0 0 Z " fill="#E6FCFA" transform="translate(283,385)"/>
<path d="M0 0 C0.33 0 0.66 0 1 0 C1.02689216 1.47906892 1.04634621 2.95827483 1.0625 4.4375 C1.07410156 5.26121094 1.08570313 6.08492187 1.09765625 6.93359375 C1 9 1 9 0 10 C-0.15655027 11.48638992 -0.25066943 12.97949127 -0.31640625 14.47265625 C-0.35830078 15.37177734 -0.40019531 16.27089844 -0.44335938 17.19726562 C-0.48267578 18.14279297 -0.52199219 19.08832031 -0.5625 20.0625 C-0.60568359 21.01189453 -0.64886719 21.96128906 -0.69335938 22.93945312 C-0.79979276 25.29281353 -0.90181008 27.64628354 -1 30 C-1.33 30 -1.66 30 -2 30 C-2.05850924 26.31256766 -2.09376673 22.6252563 -2.125 18.9375 C-2.14175781 17.89916016 -2.15851562 16.86082031 -2.17578125 15.79101562 C-2.21183286 10.11288716 -1.92971166 5.35608946 0 0 Z " fill="#E1FFF4" transform="translate(53,135)"/>
<path d="M0 0 C4.62 0 9.24 0 14 0 C14 0.66 14 1.32 14 2 C15.98 2 17.96 2 20 2 C20 2.33 20 2.66 20 3 C12.96517526 3.23668569 6.8165735 2.7879537 0 1 C0 0.67 0 0.34 0 0 Z " fill="#EEFFFC" transform="translate(246,380)"/>
<path d="M0 0 C0.33 0.66 0.66 1.32 1 2 C-0.12029017 3.48273699 -1.24638618 4.96108886 -2.375 6.4375 C-3.31472656 7.67306641 -3.31472656 7.67306641 -4.2734375 8.93359375 C-6 11 -6 11 -8 12 C-6.80100302 8.9168649 -5.52299523 5.93720508 -4 3 C-3.34 3 -2.68 3 -2 3 C-2 2.34 -2 1.68 -2 1 C-1.34 0.67 -0.68 0.34 0 0 Z " fill="#EDFEFB" transform="translate(544,217)"/>
<path d="M0 0 C2.64 0 5.28 0 8 0 C7.67 0.66 7.34 1.32 7 2 C4.93359375 2.4140625 4.93359375 2.4140625 2.4375 2.625 C1.61121094 2.69976562 0.78492188 2.77453125 -0.06640625 2.8515625 C-1.02353516 2.92503906 -1.02353516 2.92503906 -2 3 C-1.34 2.67 -0.68 2.34 0 2 C0 1.34 0 0.68 0 0 Z " fill="#E0FFFB" transform="translate(398,310)"/>
<path d="M0 0 C5.57142857 5.14285714 5.57142857 5.14285714 6 9 C5.34 9 4.68 9 4 9 C4 8.34 4 7.68 4 7 C3.34 7 2.68 7 2 7 C2 5.68 2 4.36 2 3 C1.34 3 0.68 3 0 3 C0 2.01 0 1.02 0 0 Z " fill="#E8FEF8" transform="translate(310,217)"/>
<path d="M0 0 C0.309375 0.639375 0.61875 1.27875 0.9375 1.9375 C1.8345163 3.93610821 1.8345163 3.93610821 3 5 C3.14115161 7.67058851 3.04247107 10.32432238 3 13 C2.67 13 2.34 13 2 13 C0.54815522 8.46298506 -0.23509196 4.81938524 0 0 Z " fill="#EBFEFC" transform="translate(53,179)"/>
<path d="M0 0 C0.33 0 0.66 0 1 0 C1 2.97 1 5.94 1 9 C0.01 9.495 0.01 9.495 -1 10 C-2.31223496 6.06329512 -1.24296256 3.87511856 0 0 Z " fill="#EEFFFA" transform="translate(53,135)"/>
<path d="M0 0 C0.33 0.66 0.66 1.32 1 2 C0.34 2 -0.32 2 -1 2 C-1 2.66 -1 3.32 -1 4 C-3.31 4 -5.62 4 -8 4 C-5.53721199 1.53721199 -3.29323018 1.00228745 0 0 Z " fill="#E4FFF7" transform="translate(433,66)"/>
</svg>
