<?xml version="1.0" encoding="UTF-8"?>
<svg version="1.1" xmlns="http://www.w3.org/2000/svg" width="1024" height="1024">
<path d="M0 0 C1.18441681 0.00068733 1.18441681 0.00068733 2.39276123 0.00138855 C4.05352287 0.00439874 5.714282 0.01224795 7.375 0.0246582 C9.92718397 0.04300692 12.4790067 0.04516709 15.03125 0.04492188 C16.64583649 0.04983402 18.26042052 0.05566102 19.875 0.0625 C21.02491425 0.06416924 21.02491425 0.06416924 22.19805908 0.06587219 C27.55579506 0.11438881 27.55579506 0.11438881 28.671875 1.23046875 C31.02896859 1.3942822 33.37435287 1.51051902 35.734375 1.60546875 C43.57890295 2.0089721 51.05373605 3.25509497 58.73339844 4.84521484 C60.54186875 5.20463124 62.36071667 5.51068858 64.1796875 5.8125 C119.26598963 15.03320932 176.34090974 38.82519407 219.671875 74.23046875 C232.49694275 84.4844823 245.10296797 94.26642203 259.78515625 101.734375 C262.671875 103.23046875 262.671875 103.23046875 263.671875 104.23046875 C263.76975409 106.9868539 263.80180732 109.71817714 263.79212952 112.47499084 C263.79341115 113.78709279 263.79341115 113.78709279 263.79471868 115.12570184 C263.79637617 118.07999668 263.79084773 121.03423572 263.78540039 123.98852539 C263.78511855 126.09702045 263.78527619 128.20551561 263.7858429 130.31401062 C263.786131 136.05757841 263.78023226 141.80112551 263.77326894 147.54468846 C263.76703746 153.53983663 263.76643177 159.53498521 263.76524353 165.53013611 C263.7621296 176.89154971 263.75391539 188.25295375 263.74389404 199.61436313 C263.7327348 212.54521521 263.72722293 225.47606773 263.72219861 238.40692341 C263.71173283 265.01477717 263.6941322 291.62262243 263.671875 318.23046875 C262.351875 318.23046875 261.031875 318.23046875 259.671875 318.23046875 C259.671875 317.57046875 259.671875 316.91046875 259.671875 316.23046875 C258.4034375 316.32328125 258.4034375 316.32328125 257.109375 316.41796875 C253.11289249 316.1999788 250.22616538 314.89477933 246.671875 313.23046875 C240.61959893 310.61887017 234.61057217 308.54742373 228.21484375 306.94140625 C225.60802951 306.21261947 223.16569142 305.27814028 220.671875 304.23046875 C220.671875 303.57046875 220.671875 302.91046875 220.671875 302.23046875 C219.6509375 302.32328125 219.6509375 302.32328125 218.609375 302.41796875 C215.56611593 302.22371817 213.46172019 301.37204506 210.71875 300.09765625 C206.82755968 298.44909852 202.73242605 297.38245607 198.671875 296.23046875 C198.671875 295.57046875 198.671875 294.91046875 198.671875 294.23046875 C197.6509375 294.32328125 197.6509375 294.32328125 196.609375 294.41796875 C192.84231118 294.17751787 190.09102585 292.78462823 186.671875 291.23046875 C185.34911444 290.85738244 184.01955423 290.5000046 182.671875 290.23046875 C182.671875 289.57046875 182.671875 288.91046875 182.671875 288.23046875 C181.95 288.27171875 181.228125 288.31296875 180.484375 288.35546875 C177.46458131 288.2212557 175.40251771 287.47876256 172.671875 286.23046875 C172.671875 285.57046875 172.671875 284.91046875 172.671875 284.23046875 C171.95 284.29234375 171.228125 284.35421875 170.484375 284.41796875 C167.1097034 284.19299064 165.48879048 283.0361838 162.671875 281.23046875 C160.48056966 280.53467421 160.48056966 280.53467421 158.671875 280.23046875 C158.671875 279.57046875 158.671875 278.91046875 158.671875 278.23046875 C157.96675781 278.11832031 157.26164063 278.00617188 156.53515625 277.890625 C153.39797988 277.16731967 150.77059594 276.03589184 147.859375 274.66796875 C146.88355469 274.21292969 145.90773438 273.75789063 144.90234375 273.2890625 C144.16628906 272.93972656 143.43023437 272.59039063 142.671875 272.23046875 C142.671875 271.57046875 142.671875 270.91046875 142.671875 270.23046875 C141.351875 270.23046875 140.031875 270.23046875 138.671875 270.23046875 C138.671875 269.57046875 138.671875 268.91046875 138.671875 268.23046875 C138.12015625 268.11832031 137.5684375 268.00617188 137 267.890625 C134.27122289 267.11686102 131.94414557 265.96229181 129.421875 264.66796875 C128.52984375 264.21292969 127.6378125 263.75789063 126.71875 263.2890625 C126.04328125 262.93972656 125.3678125 262.59039063 124.671875 262.23046875 C124.671875 261.57046875 124.671875 260.91046875 124.671875 260.23046875 C124.053125 260.08609375 123.434375 259.94171875 122.796875 259.79296875 C120.671875 259.23046875 120.671875 259.23046875 118.671875 258.23046875 C118.671875 257.57046875 118.671875 256.91046875 118.671875 256.23046875 C118.053125 256.08609375 117.434375 255.94171875 116.796875 255.79296875 C114.671875 255.23046875 114.671875 255.23046875 112.671875 254.23046875 C112.671875 253.57046875 112.671875 252.91046875 112.671875 252.23046875 C112.053125 252.08609375 111.434375 251.94171875 110.796875 251.79296875 C108.671875 251.23046875 108.671875 251.23046875 106.671875 250.23046875 C106.671875 249.57046875 106.671875 248.91046875 106.671875 248.23046875 C105.90875 247.94171875 105.145625 247.65296875 104.359375 247.35546875 C101.671875 246.23046875 101.671875 246.23046875 98.671875 244.23046875 C98.671875 243.57046875 98.671875 242.91046875 98.671875 242.23046875 C97.90875 241.94171875 97.145625 241.65296875 96.359375 241.35546875 C93.671875 240.23046875 93.671875 240.23046875 90.671875 238.23046875 C90.671875 237.57046875 90.671875 236.91046875 90.671875 236.23046875 C90.011875 236.23046875 89.351875 236.23046875 88.671875 236.23046875 C88.671875 235.57046875 88.671875 234.91046875 88.671875 234.23046875 C87.99125 234.02421875 87.310625 233.81796875 86.609375 233.60546875 C82.75548125 231.80151848 79.59399736 229.32943425 76.671875 226.23046875 C76.671875 225.57046875 76.671875 224.91046875 76.671875 224.23046875 C76.011875 224.23046875 75.351875 224.23046875 74.671875 224.23046875 C74.671875 223.57046875 74.671875 222.91046875 74.671875 222.23046875 C74.011875 222.23046875 73.351875 222.23046875 72.671875 222.23046875 C72.671875 221.57046875 72.671875 220.91046875 72.671875 220.23046875 C72.053125 219.98296875 71.434375 219.73546875 70.796875 219.48046875 C68.32118813 218.02418236 67.72062498 216.85234369 66.671875 214.23046875 C66.011875 214.23046875 65.351875 214.23046875 64.671875 214.23046875 C64.671875 213.57046875 64.671875 212.91046875 64.671875 212.23046875 C64.011875 212.23046875 63.351875 212.23046875 62.671875 212.23046875 C62.671875 211.57046875 62.671875 210.91046875 62.671875 210.23046875 C62.011875 210.23046875 61.351875 210.23046875 60.671875 210.23046875 C60.671875 209.57046875 60.671875 208.91046875 60.671875 208.23046875 C60.011875 208.23046875 59.351875 208.23046875 58.671875 208.23046875 C58.671875 207.57046875 58.671875 206.91046875 58.671875 206.23046875 C58.011875 206.23046875 57.351875 206.23046875 56.671875 206.23046875 C52.671875 200.81870404 52.671875 200.81870404 52.671875 198.23046875 C52.011875 198.23046875 51.351875 198.23046875 50.671875 198.23046875 C50.671875 197.57046875 50.671875 196.91046875 50.671875 196.23046875 C50.011875 196.23046875 49.351875 196.23046875 48.671875 196.23046875 C44.671875 191.87752757 44.671875 191.87752757 44.671875 188.23046875 C44.011875 188.23046875 43.351875 188.23046875 42.671875 188.23046875 C42.671875 187.57046875 42.671875 186.91046875 42.671875 186.23046875 C42.011875 186.23046875 41.351875 186.23046875 40.671875 186.23046875 C38.671875 183.23046875 38.671875 183.23046875 38.671875 180.23046875 C38.011875 180.23046875 37.351875 180.23046875 36.671875 180.23046875 C34.671875 177.23046875 34.671875 177.23046875 34.671875 174.23046875 C34.011875 174.23046875 33.351875 174.23046875 32.671875 174.23046875 C30.671875 171.23046875 30.671875 171.23046875 30.671875 168.23046875 C30.011875 168.23046875 29.351875 168.23046875 28.671875 168.23046875 C26.671875 165.23046875 26.671875 165.23046875 26.671875 162.23046875 C26.011875 162.23046875 25.351875 162.23046875 24.671875 162.23046875 C20.671875 155.60546875 20.671875 155.60546875 20.671875 152.23046875 C20.011875 152.23046875 19.351875 152.23046875 18.671875 152.23046875 C18.20136719 151.27785156 17.73085937 150.32523438 17.24609375 149.34375 C16.61729584 148.07676914 15.98838352 146.80984506 15.359375 145.54296875 C15.05064453 144.91712891 14.74191406 144.29128906 14.42382812 143.64648438 C13.047311 140.87896048 11.63702927 138.17255966 10.04296875 135.5234375 C7.23510622 130.8276674 5.51571878 125.63106894 4.671875 120.23046875 C4.011875 120.23046875 3.351875 120.23046875 2.671875 120.23046875 C2.49011719 119.57820312 2.30835938 118.9259375 2.12109375 118.25390625 C0.51760641 112.66185809 0.51760641 112.66185809 -1.828125 107.35546875 C-3.72618996 103.40116674 -4.57856832 99.4186842 -5.578125 95.16015625 C-6.18354904 92.79521858 -6.87510557 90.71410803 -7.828125 88.48046875 C-9.75944116 83.71316728 -10.46737923 78.64767885 -11.32617188 73.60058594 C-11.66494576 70.12088404 -11.66494576 70.12088404 -13.328125 67.23046875 C-13.64910251 64.91229786 -13.84033456 62.59267518 -14.046875 60.26171875 C-14.11878337 58.23866282 -14.11878337 58.23866282 -15.328125 57.23046875 C-15.65258837 54.13004102 -15.84146941 51.02839625 -16.046875 47.91796875 C-16.03420299 45.31450123 -16.03420299 45.31450123 -17.328125 44.23046875 C-17.47236988 42.84025298 -17.55499689 41.44349574 -17.609375 40.046875 C-17.64675781 39.20189453 -17.68414062 38.35691406 -17.72265625 37.48632812 C-17.75746094 36.59751953 -17.79226562 35.70871094 -17.828125 34.79296875 C-17.89690776 33.04410335 -17.96963683 31.29538737 -18.046875 29.546875 C-18.07716797 28.76771729 -18.10746094 27.98855957 -18.13867188 27.18579102 C-18.21764222 25.15237509 -18.21764222 25.15237509 -19.328125 23.23046875 C-19.4510027 21.29585934 -19.50367388 19.35643971 -19.515625 17.41796875 C-19.52980469 16.38027344 -19.54398438 15.34257813 -19.55859375 14.2734375 C-19.32526927 11.19276342 -18.62931386 9.01285283 -17.328125 6.23046875 C-16.668125 6.23046875 -16.008125 6.23046875 -15.328125 6.23046875 C-15.328125 5.57046875 -15.328125 4.91046875 -15.328125 4.23046875 C-14.668125 4.23046875 -14.008125 4.23046875 -13.328125 4.23046875 C-13.328125 3.57046875 -13.328125 2.91046875 -13.328125 2.23046875 C-8.91891753 0.03510978 -4.82179045 -0.04567763 0 0 Z " fill="#FCFCFC" transform="translate(232.328125,548.76953125)"/>
<path d="M0 0 C0 0.99 0 1.98 0 3 C0.66 3 1.32 3 2 3 C3.70880433 7.45423531 4.2470859 11.13388137 4.23046875 15.89453125 C4.22853516 17.17908203 4.22660156 18.46363281 4.22460938 19.78710938 C4.21840576 20.44735107 4.21220215 21.10759277 4.20581055 21.7878418 C4.18739436 23.82418147 4.18530226 25.86006956 4.18554688 27.89648438 C4.14032817 37.85967183 4.14032817 37.85967183 3 39 C2.79016721 41.14204311 2.63176615 43.28924113 2.5 45.4375 C2.11013767 51.77972466 2.11013767 51.77972466 1 54 C0.68954474 56.59143905 0.49026088 59.18371732 0.28125 61.78515625 C0 64 0 64 -1 65 C-1.20604085 66.32781878 -1.3662959 67.66295895 -1.5 69 C-1.88888889 72.88888889 -1.88888889 72.88888889 -3 74 C-3.20604085 75.32781878 -3.3662959 76.66295895 -3.5 78 C-3.88888889 81.88888889 -3.88888889 81.88888889 -5 83 C-5.12375 84.03125 -5.2475 85.0625 -5.375 86.125 C-5.91433793 89.46889517 -6.75547904 91.85690325 -8.16796875 94.890625 C-9.9569988 99.42619414 -10.90224768 104.25864422 -12 109 C-12.66 109 -13.32 109 -14 109 C-13.94972656 109.71027344 -13.89945313 110.42054688 -13.84765625 111.15234375 C-14.02615027 114.48880884 -14.96993597 116.57332568 -16.4375 119.5625 C-17.96538487 122.70097576 -19.29828898 125.57210133 -20 129 C-20.66 129 -21.32 129 -22 129 C-22.09152344 129.66386719 -22.18304687 130.32773437 -22.27734375 131.01171875 C-23.21363279 134.88340045 -24.83481743 138.23739449 -26.5625 141.8125 C-26.89185547 142.50537109 -27.22121094 143.19824219 -27.56054688 143.91210938 C-28.36872251 145.61044948 -29.18368377 147.30555769 -30 149 C-30.66 149 -31.32 149 -32 149 C-32 150.32 -32 151.64 -32 153 C-32.66 153 -33.32 153 -34 153 C-34.1546875 153.804375 -34.1546875 153.804375 -34.3125 154.625 C-35.18092697 157.62502044 -36.55620296 160.2379535 -38 163 C-38.66 163 -39.32 163 -40 163 C-40.11472656 163.57234375 -40.22945312 164.1446875 -40.34765625 164.734375 C-41.06182356 167.21471656 -42.07307872 169.06368697 -43.4375 171.25 C-43.86933594 171.95640625 -44.30117188 172.6628125 -44.74609375 173.390625 C-45.36677734 174.18726563 -45.36677734 174.18726563 -46 175 C-46.66 175 -47.32 175 -48 175 C-48.144375 175.61875 -48.28875 176.2375 -48.4375 176.875 C-49 179 -49 179 -50 181 C-50.66 181 -51.32 181 -52 181 C-52.144375 181.61875 -52.28875 182.2375 -52.4375 182.875 C-53 185 -53 185 -54 187 C-54.66 187 -55.32 187 -56 187 C-56.28875 187.763125 -56.5775 188.52625 -56.875 189.3125 C-58 192 -58 192 -60 195 C-60.66 195 -61.32 195 -62 195 C-62 195.66 -62 196.32 -62 197 C-62.66 197 -63.32 197 -64 197 C-64 197.66 -64 198.32 -64 199 C-64.66 199 -65.32 199 -66 199 C-66.268125 199.57234375 -66.53625 200.1446875 -66.8125 200.734375 C-68.04132636 203.07884634 -69.42522176 205.12404938 -71 207.25 C-71.515625 207.95640625 -72.03125 208.6628125 -72.5625 209.390625 C-73.036875 209.92171875 -73.51125 210.4528125 -74 211 C-74.66 211 -75.32 211 -76 211 C-76 211.66 -76 212.32 -76 213 C-76.66 213 -77.32 213 -78 213 C-78 213.66 -78 214.32 -78 215 C-78.66 215 -79.32 215 -80 215 C-80 215.66 -80 216.32 -80 217 C-80.66 217 -81.32 217 -82 217 C-82 217.66 -82 218.32 -82 219 C-82.66 219 -83.32 219 -84 219 C-84 219.66 -84 220.32 -84 221 C-84.66 221 -85.32 221 -86 221 C-86 221.66 -86 222.32 -86 223 C-86.66 223 -87.32 223 -88 223 C-88 223.66 -88 224.32 -88 225 C-88.66 225 -89.32 225 -90 225 C-90 225.66 -90 226.32 -90 227 C-91.6796875 228.5078125 -91.6796875 228.5078125 -93.875 230.125 C-94.59429688 230.66382813 -95.31359375 231.20265625 -96.0546875 231.7578125 C-98 233 -98 233 -100 233 C-100 233.66 -100 234.32 -100 235 C-100.66 235 -101.32 235 -102 235 C-102 235.66 -102 236.32 -102 237 C-106.35294118 241 -106.35294118 241 -110 241 C-110 241.66 -110 242.32 -110 243 C-110.66 243 -111.32 243 -112 243 C-112 243.66 -112 244.32 -112 245 C-115 247 -115 247 -118 247 C-118 247.66 -118 248.32 -118 249 C-118.66 249 -119.32 249 -120 249 C-120 249.66 -120 250.32 -120 251 C-122.97 251.99 -122.97 251.99 -126 253 C-126 253.66 -126 254.32 -126 255 C-129 257 -129 257 -132 257 C-132 257.66 -132 258.32 -132 259 C-138.625 263 -138.625 263 -142 263 C-142 263.66 -142 264.32 -142 265 C-143.7664657 266.0076952 -145.53833823 267.00591714 -147.3125 268 C-148.79169922 268.8353125 -148.79169922 268.8353125 -150.30078125 269.6875 C-153 271 -153 271 -156 271 C-156 271.66 -156 272.32 -156 273 C-157.32 273 -158.64 273 -160 273 C-160 273.66 -160 274.32 -160 275 C-161.32 275 -162.64 275 -164 275 C-164 275.66 -164 276.32 -164 277 C-165.32 277 -166.64 277 -168 277 C-168 277.66 -168 278.32 -168 279 C-168.56589844 279.20496094 -169.13179687 279.40992188 -169.71484375 279.62109375 C-170.44832031 279.89050781 -171.18179688 280.15992188 -171.9375 280.4375 C-173.03384766 280.83775391 -173.03384766 280.83775391 -174.15234375 281.24609375 C-175.98305678 281.85386948 -175.98305678 281.85386948 -177 283 C-178.66617115 283.04063832 -180.33388095 283.042721 -182 283 C-182 283.66 -182 284.32 -182 285 C-185.50776784 286.60355101 -188.14354879 287.22036864 -192 287 C-192 287.66 -192 288.32 -192 289 C-192.59425781 289.15855469 -193.18851563 289.31710937 -193.80078125 289.48046875 C-199.65311006 291.12785835 -205.02021174 293.28603563 -210.5234375 295.859375 C-215.1141617 297.97371485 -218.92084807 299.29877364 -224 299 C-224 299.66 -224 300.32 -224 301 C-224.96099609 301.27263672 -224.96099609 301.27263672 -225.94140625 301.55078125 C-231.14252794 303.06228457 -236.04613509 304.78845316 -241 307 C-242.70306163 307.74139591 -244.41178785 308.46987131 -246.125 309.1875 C-246.93195312 309.53167969 -247.73890625 309.87585938 -248.5703125 310.23046875 C-251.17779409 311.05631099 -253.28204641 311.14025027 -256 311 C-256 311.66 -256 312.32 -256 313 C-256.92619141 313.27263672 -256.92619141 313.27263672 -257.87109375 313.55078125 C-263.04534912 315.08651914 -268.17918438 316.69936899 -273.28515625 318.44921875 C-275 319 -275 319 -276 319 C-276.30369011 291.23638975 -276.53292969 263.4730284 -276.67355824 235.70809174 C-276.74059079 222.81622292 -276.83197527 209.92538609 -276.98071289 197.03417969 C-277.11029277 185.79803296 -277.19415737 174.56263351 -277.22315043 163.32576036 C-277.24009931 157.37548851 -277.27991779 151.42735442 -277.37449074 145.47776794 C-277.4628129 139.87597378 -277.48993823 134.27719467 -277.47039986 128.67477036 C-277.47397317 126.62034073 -277.49979639 124.56580921 -277.54967117 122.51198196 C-277.89949651 107.36169658 -277.89949651 107.36169658 -274.71222854 103.3988781 C-271.20841166 100.3883432 -267.27477502 98.71275668 -263 97 C-260.98276921 95.81071894 -260.98276921 95.81071894 -259.34375 94.6015625 C-257.93609375 93.62316406 -257.93609375 93.62316406 -256.5 92.625 C-249.28496762 87.56927419 -242.32733622 82.19556308 -235.40722656 76.74560547 C-221.24059608 65.59101858 -206.3617313 56.1821279 -190.59179688 47.4375 C-188.9493077 46.52651882 -187.30961459 45.61046264 -185.67382812 44.6875 C-129.54266331 13.09212139 -63.96125132 -0.87168075 0 0 Z " fill="#FCFCFC" transform="translate(805,548)"/>
<path d="M0 0 C1.24765137 -0.03673828 2.49530273 -0.07347656 3.78076172 -0.11132812 C5.46987671 -0.17078613 5.46987671 -0.17078613 7.19311523 -0.23144531 C10.15185547 0.18554688 10.15185547 0.18554688 12.42504883 1.82910156 C17.32172662 8.5112356 16.48468071 16.21652849 16.46435547 24.12304688 C16.48046875 25.37279297 16.49658203 26.62253906 16.51318359 27.91015625 C16.51744258 35.92982574 15.89323467 40.79505675 11.65185547 47.58789062 C7.47593015 50.2565679 3.00004299 49.73466744 -1.84814453 49.74804688 C-59.1761926 51.03453422 -115.73474549 65.65843935 -167.84814453 89.18554688 C-169.36885922 89.85508724 -170.88968286 90.52438025 -172.41064453 91.19335938 C-198.05324187 102.67030914 -222.16442858 118.1671832 -244.03564453 135.74414062 C-258.62518982 147.37783153 -272.1384165 153.08730636 -290.84814453 151.18554688 C-299.59920907 149.17916156 -306.19543939 145.05232512 -312.84814453 139.18554688 C-369.85797129 89.52434094 -446.57769081 61.85337644 -520.84814453 52.18554688 C-521.55696777 52.08935059 -522.26579102 51.9931543 -522.99609375 51.89404297 C-534.99239839 50.30397809 -546.96727887 49.83779163 -559.0625 49.61474609 C-560.25762207 49.58654785 -561.45274414 49.55834961 -562.68408203 49.52929688 C-564.28582275 49.50125977 -564.28582275 49.50125977 -565.91992188 49.47265625 C-568.9106002 49.17942316 -571.13341677 48.44168043 -573.84814453 47.18554688 C-573.84814453 46.52554688 -573.84814453 45.86554687 -573.84814453 45.18554688 C-574.50814453 45.18554688 -575.16814453 45.18554688 -575.84814453 45.18554688 C-575.84814453 44.52554688 -575.84814453 43.86554687 -575.84814453 43.18554688 C-576.50814453 43.18554688 -577.16814453 43.18554688 -577.84814453 43.18554688 C-579.61132915 39.37552728 -580.10461307 36.37135766 -580.11376953 32.18554688 C-580.11634766 31.05117188 -580.11892578 29.91679687 -580.12158203 28.74804688 C-580.11384766 27.57242187 -580.10611328 26.39679688 -580.09814453 25.18554688 C-580.10587891 24.00992187 -580.11361328 22.83429688 -580.12158203 21.62304688 C-580.11900391 20.48867188 -580.11642578 19.35429687 -580.11376953 18.18554688 C-580.11151367 17.15429688 -580.10925781 16.12304688 -580.10693359 15.06054688 C-579.83882194 12.08197821 -579.09826485 9.88689923 -577.84814453 7.18554688 C-577.18814453 7.18554688 -576.52814453 7.18554688 -575.84814453 7.18554688 C-575.84814453 6.52554687 -575.84814453 5.86554688 -575.84814453 5.18554688 C-575.18814453 5.18554688 -574.52814453 5.18554688 -573.84814453 5.18554688 C-573.84814453 4.52554687 -573.84814453 3.86554688 -573.84814453 3.18554688 C-569.86125198 1.30637755 -566.69517285 0.93917347 -562.30517578 0.95507812 C-560.44795898 0.95797852 -560.44795898 0.95797852 -558.55322266 0.9609375 C-557.26867187 0.97318359 -555.98412109 0.98542969 -554.66064453 0.99804688 C-553.36449219 0.99869141 -552.06833984 0.99933594 -550.73291016 1 C-541.12896622 1.04513603 -541.12896622 1.04513603 -538.84814453 2.18554688 C-537.2056412 2.32604319 -535.55820962 2.41124769 -533.91064453 2.46679688 C-532.44498047 2.52287109 -532.44498047 2.52287109 -530.94970703 2.58007812 C-529.92619141 2.61488281 -528.90267578 2.6496875 -527.84814453 2.68554688 C-525.82716425 2.75427039 -523.80631464 2.82698892 -521.78564453 2.90429688 C-520.88716797 2.93458984 -519.98869141 2.96488281 -519.06298828 2.99609375 C-516.84814453 3.18554688 -516.84814453 3.18554688 -514.84814453 4.18554688 C-512.85162644 4.38973623 -510.85054632 4.55076983 -508.84814453 4.68554688 C-503.07036675 5.07443576 -503.07036675 5.07443576 -500.84814453 6.18554688 C-498.25670548 6.49600214 -495.66442721 6.695286 -493.06298828 6.90429688 C-490.84814453 7.18554688 -490.84814453 7.18554688 -489.84814453 8.18554688 C-487.72532076 8.42141618 -485.60210049 8.65424796 -483.47705078 8.86914062 C-471.75354994 10.28014147 -471.75354994 10.28014147 -469.84814453 12.18554688 C-467.35045739 12.7224329 -464.8591842 13.22019824 -462.34814453 13.68554688 C-454.98327967 15.05041174 -454.98327967 15.05041174 -453.84814453 16.18554688 C-452.85814453 16.30929687 -451.86814453 16.43304688 -450.84814453 16.56054688 C-447.96165929 16.93467343 -445.39486841 17.60595404 -442.64892578 18.56835938 C-439.64258054 19.59579792 -436.63981424 20.55415925 -433.57861328 21.40429688 C-383.54480296 35.40646117 -332.83894781 60.88949646 -292.94970703 94.44726562 C-292.2794751 95.00422119 -291.60924316 95.56117676 -290.91870117 96.13500977 C-289.60456121 97.23153774 -288.30109391 98.34101642 -287.01000977 99.46459961 C-283.58881436 102.37687208 -283.58881436 102.37687208 -279.33642578 103.36914062 C-275.75181822 101.66406042 -272.94467565 99.2048814 -269.97314453 96.62304688 C-195.56832985 34.30136426 -95.53783915 4.60657009 0 0 Z " fill="#FBFBFB" transform="translate(792.84814453125,469.814453125)"/>
<path d="M0 0 C8.71459779 6.44880236 17.23589614 13.15342746 25.67578125 19.95703125 C32.62654755 25.5596362 39.64737871 31.0322457 46.81030273 36.36132812 C51.90290097 40.15699252 56.93121183 44.02882705 61.9375 47.9375 C67.79135023 52.507292 73.65986847 57.05585113 79.5625 61.5625 C80.16589203 62.04888947 80.76928406 62.53527893 81.39096069 63.03640747 C84.9702039 65.87176695 88.34876568 68.26706515 92.50537109 70.17822266 C97.81015731 72.87594139 101.98509967 75.75627929 105 81 C107.71865882 92.10511547 106.68352188 103.94417215 106.16729736 115.269104 C105.99193984 119.52497072 105.91545183 123.78256188 105.83007812 128.04101562 C105.6488838 136.36541763 105.35965072 144.68140401 105 153 C101.35880369 151.26552102 98.52020303 149.10223113 95.375 146.5625 C65.02344478 122.78001885 25.73360566 105.9743676 -11.16088867 95.59350586 C-13 95 -13 95 -14 94 C-13.85544351 84.02245249 -11.75890054 73.8817313 -10.3125 64.0234375 C-10.04714298 62.20311473 -9.78192724 60.38277136 -9.5168457 58.56240845 C-8.96408356 54.77161511 -8.40907208 50.98115946 -7.85253906 47.19091797 C-7.13811466 42.32353041 -6.43025804 37.45521268 -5.72413635 32.58661461 C-5.17974422 28.83913603 -4.63150722 25.09222771 -4.0821228 21.34547806 C-3.81927291 19.54903646 -3.55773481 17.75240243 -3.29751587 15.95557785 C-2.93539421 13.45855198 -2.5680169 10.96235583 -2.19921875 8.46630859 C-2.09217621 7.7204248 -1.98513367 6.97454102 -1.87484741 6.20605469 C-1.11420998 1.11420998 -1.11420998 1.11420998 0 0 Z " fill="#FBFBFB" transform="translate(392,375)"/>
<path d="M0 0 C0.99 0.495 0.99 0.495 2 1 C2.61140117 3.7144114 3.09348935 6.36615066 3.51220703 9.11230469 C3.64904907 9.96273346 3.78589111 10.81316223 3.92687988 11.68936157 C4.37928491 14.51554964 4.81871101 17.34359185 5.2578125 20.171875 C5.56816583 22.13155587 5.87919956 24.09112909 6.19088745 26.05059814 C6.84355447 30.16569649 7.49022575 34.28167709 8.13232422 38.3984375 C8.95526285 43.67364872 9.78935227 48.94701645 10.62750435 54.21982956 C11.27069626 58.27022141 11.90972957 62.32126006 12.54732895 66.37253571 C12.85347157 68.31672002 13.16048632 70.2607672 13.4683876 72.20467377 C13.89840238 74.92588737 14.32325215 77.64785669 14.74658203 80.37011719 C14.93823441 81.57509354 14.93823441 81.57509354 15.13375854 82.80441284 C15.71354294 86.56782843 16.15225439 90.18942898 16 94 C10.94703297 96.2877326 5.82517044 98.10496685 0.56298828 99.85327148 C-33.68017172 111.27537405 -68.39057759 126.21805526 -96.6015625 149.171875 C-99 151 -99 151 -102 152 C-102.32604308 142.95085227 -102.57393438 133.90375778 -102.72537041 124.84999466 C-102.79810145 120.64445213 -102.8965016 116.44295782 -103.05615234 112.23974609 C-104.14559556 82.79541474 -104.14559556 82.79541474 -99.06298828 76.24780273 C-96.28928657 73.55323666 -93.31587509 71.66799176 -89.85209656 69.97900391 C-86.62373649 68.27251776 -83.9238638 65.88656833 -81.125 63.5625 C-79.96349273 62.65724399 -78.80106199 61.75316795 -77.63671875 60.8515625 C-73.68797006 57.77324271 -69.81315012 54.60701508 -65.9375 51.4375 C-60.12802515 46.69306085 -54.24103112 42.07566897 -48.27734375 37.52734375 C-44.6406682 34.73985239 -41.07048088 31.87148341 -37.5 29 C-31.34090652 24.05172207 -25.12063744 19.19668776 -18.83935547 14.40380859 C-16.69488343 12.76713296 -14.55247691 11.12777186 -12.41015625 9.48828125 C-8.27468666 6.32388497 -4.1378002 3.16134798 0 0 Z " fill="#FBFBFB" transform="translate(631,375)"/>
<path d="M0 0 C-1.47620657 15.84795378 -3.39495564 31.62607592 -5.40625 47.4140625 C-5.73503161 50.00709441 -6.06368312 52.60014283 -6.39221191 55.19320679 C-7.07606992 60.58722732 -7.76225502 65.98094815 -8.44970703 71.37451172 C-9.24082238 77.58176141 -10.02732519 83.78958348 -10.81161165 89.99769938 C-11.57298915 96.02305046 -12.33839718 102.04788278 -13.10539246 108.07252121 C-13.42862737 110.61516703 -13.75075681 113.15795365 -14.07173157 115.70088577 C-14.52028436 119.25107195 -14.97343492 122.80064289 -15.42773438 126.35009766 C-15.62262703 127.90411789 -15.62262703 127.90411789 -15.82145691 129.48953247 C-16.62518097 135.72260725 -17.67903695 141.85549419 -19 148 C-22.45938419 148 -22.96000417 147.52621794 -25.5625 145.4296875 C-26.26673096 144.87039551 -26.97096191 144.31110352 -27.6965332 143.73486328 C-28.45667725 143.1211084 -29.21682129 142.50735352 -30 141.875 C-31.63767011 140.57603849 -33.27704567 139.27922473 -34.91796875 137.984375 C-35.76149902 137.31857422 -36.6050293 136.65277344 -37.47412109 135.96679688 C-41.36206334 132.93941792 -45.33216757 130.0292165 -49.3125 127.125 C-57.06614531 121.45390892 -64.72580503 115.66899707 -72.35668945 109.83398438 C-77.71704006 105.73603699 -83.09509613 101.66398887 -88.5 97.625 C-95.38297284 92.48039781 -102.20453088 87.25950692 -109 82 C-105.91553132 78.11136628 -103.05854564 75.03604018 -99 72.125 C-97.94941406 71.35800781 -96.89882813 70.59101563 -95.81640625 69.80078125 C-95.21973145 69.36588379 -94.62305664 68.93098633 -94.00830078 68.48291016 C-89.94316691 65.48125405 -85.94857895 62.385763 -81.9375 59.3125 C-74.40486998 53.55706635 -66.81332524 47.89177039 -59.16577148 42.2902832 C-52.33176319 37.27272156 -45.5940869 32.13422739 -38.86230469 26.98071289 C-32.12581183 21.83321626 -25.32603954 16.77804821 -18.47851562 11.77929688 C-17.75857422 11.25271484 -17.03863281 10.72613281 -16.296875 10.18359375 C-15.59626953 9.6716748 -14.89566406 9.15975586 -14.17382812 8.63232422 C-11.03327202 6.27408544 -7.99098206 3.79486169 -4.95410156 1.30493164 C-3 0 -3 0 0 0 Z " fill="#FBFBFB" transform="translate(651,172)"/>
<path d="M0 0 C5.22260615 1.63724558 9.18454879 4.878526 13.5 8.125 C14.32443604 8.73883545 15.14887207 9.3526709 15.99829102 9.98510742 C24.13680693 16.06128503 32.20945888 22.22506051 40.27734375 28.39453125 C43.83735601 31.11599075 47.40965039 33.81872895 51 36.5 C55.47234245 39.8399428 59.91170193 43.2210476 64.34619141 46.61108398 C72.21891212 52.62919379 80.12491787 58.58955716 88.125 64.4375 C94.93615745 69.41855345 101.56616515 74.53485489 108 80 C107.63019064 82.62007789 107.21000675 83.79479615 105.29199219 85.66894531 C104.18065918 86.49023926 104.18065918 86.49023926 103.046875 87.328125 C102.21051514 87.95493164 101.37415527 88.58173828 100.51245117 89.22753906 C99.60084229 89.89495117 98.6892334 90.56236328 97.75 91.25 C95.82399197 92.68719614 93.89821726 94.124705 91.97265625 95.5625 C90.98152832 96.29726563 89.99040039 97.03203125 88.96923828 97.7890625 C84.34300617 101.23382142 79.76752011 104.74419046 75.1875 108.25 C68.97895524 112.98616714 62.75332596 117.69812998 56.5 122.375 C51.77189743 125.91210324 47.05731143 129.46494067 42.375 133.0625 C41.34375 133.85398437 40.3125 134.64546875 39.25 135.4609375 C36.8670097 137.30701949 34.5225413 139.19523854 32.1875 141.1015625 C31.23351318 141.87294556 31.23351318 141.87294556 30.26025391 142.65991211 C29.02624205 143.65981009 27.79902067 144.66816157 26.57958984 145.68579102 C24.8984375 147.04296875 24.8984375 147.04296875 22 149 C21.01 148.67 20.02 148.34 19 148 C16.96541689 132.62081935 14.93107697 117.24160655 12.89701366 101.86235714 C11.95220631 94.71885154 11.00732426 87.57535583 10.06225586 80.43188477 C9.2369446 74.19361824 8.41178419 67.95533179 7.58679277 61.71702296 C7.1514089 58.424834 6.71593524 55.13265698 6.28032494 51.84049797 C5.48191247 45.80627205 4.68436774 39.7719354 3.88925171 33.73727417 C3.29645319 29.23839103 2.69857757 24.74022225 2.09732056 20.24246216 C1.81913543 18.14675657 1.54100552 16.05104365 1.26293945 13.95532227 C1.13440928 13.00206779 1.00587912 12.0488133 0.87345409 11.06667233 C0.75777238 10.19075215 0.64209066 9.31483198 0.52290344 8.41236877 C0.42136113 7.65250451 0.31981882 6.89264025 0.21519947 6.10974979 C0 4 0 4 0 0 Z " fill="#FAFAFA" transform="translate(373,172)"/>
<path d="M0 0 C0 45.54 0 91.08 0 138 C-3.78896616 136.48441354 -6.02581333 135.45317392 -9.15234375 133.12890625 C-10.30633667 132.27582886 -10.30633667 132.27582886 -11.48364258 131.40551758 C-12.29341553 130.79732178 -13.10318848 130.18912598 -13.9375 129.5625 C-15.20339966 128.6202356 -15.20339966 128.6202356 -16.49487305 127.65893555 C-23.19773274 122.65005859 -29.80281486 117.52581985 -36.34814453 112.31347656 C-39.1399257 110.09358553 -41.94504618 107.89070731 -44.75 105.6875 C-45.31686523 105.24196777 -45.88373047 104.79643555 -46.46777344 104.33740234 C-57.64287665 95.56138639 -68.87013613 86.85232252 -80.140625 78.19921875 C-84.10640782 75.14903333 -88.0557423 72.07794787 -92 69 C-90.72267654 65.16802962 -89.39435306 64.73724688 -86 62.625 C-80.75523612 59.22986882 -75.75919778 55.6279564 -70.8125 51.8125 C-70.09682861 51.26062012 -69.38115723 50.70874023 -68.64379883 50.14013672 C-67.17096547 49.00210513 -65.6988855 47.86309788 -64.22753906 46.72314453 C-60.5582681 43.88472778 -56.87292582 41.0673898 -53.1875 38.25 C-52.47376221 37.70384033 -51.76002441 37.15768066 -51.0246582 36.5949707 C-46.08940571 32.82189611 -41.12647613 29.08757464 -36.1484375 25.37109375 C-33.02333583 23.01757426 -29.92074734 20.63687172 -26.82055664 18.25073242 C-20.6235876 13.4856884 -14.40161282 8.76241791 -8.0625 4.1875 C-7.47742676 3.76090088 -6.89235352 3.33430176 -6.28955078 2.89477539 C-2.23844343 0 -2.23844343 0 0 0 Z " fill="#FBFBFB" transform="translate(497,280)"/>
<path d="M0 0 C0.13479263 1.02902435 0.26958527 2.05804871 0.40846252 3.11825562 C2.12298691 16.20429571 3.8416638 29.2897885 5.5625 42.375 C5.76730232 43.93270615 5.76730232 43.93270615 5.97624207 45.5218811 C9.57499078 72.8885377 13.20296141 100.24845396 17.11938477 127.57177734 C17.25101517 128.49376923 17.38264557 129.41576111 17.51826477 130.36569214 C17.75647827 132.03097077 17.99660044 133.6959782 18.23918152 135.36062622 C18.65651336 138.2716133 19 141.05457725 19 144 C15.34469636 142.69016946 12.56843576 141.11614913 9.515625 138.7265625 C8.67169189 138.07276611 7.82775879 137.41896973 6.95825195 136.74536133 C6.06452881 136.04564209 5.17080566 135.34592285 4.25 134.625 C-2.30919407 129.55650611 -8.89017589 124.55795404 -15.6875 119.8125 C-16.37046143 119.33562744 -17.05342285 118.85875488 -17.75708008 118.36743164 C-19.13683101 117.40438728 -20.51663238 116.44141518 -21.89648438 115.47851562 C-25.60161236 112.87426132 -29.26925486 110.21833797 -32.9375 107.5625 C-33.68193359 107.02359131 -34.42636719 106.48468262 -35.19335938 105.92944336 C-36.70262189 104.83646727 -38.21173597 103.74328617 -39.72070312 102.64990234 C-42.01498452 100.98915323 -44.31174037 99.3318875 -46.609375 97.67578125 C-56.10666316 90.82934462 -65.57073338 83.93982897 -75 77 C-74.46991705 72.92942892 -72.43461942 71.10021001 -69.5546875 68.296875 C-68.64203125 67.39839844 -67.729375 66.49992187 -66.7890625 65.57421875 C-65.8181476 64.63235947 -64.84679068 63.69095564 -63.875 62.75 C-58.22615846 57.23306822 -52.65037339 51.75356123 -47.52001953 45.74707031 C-44.49430353 42.26939224 -41.14017145 39.1251086 -37.84375 35.90625 C-35.77375971 33.84059931 -33.85306242 31.69136226 -31.953125 29.46875 C-27.19811923 23.98180557 -22.07841165 18.8559495 -16.95556641 13.71533203 C-15.23268155 11.98258239 -13.52073871 10.23944842 -11.80859375 8.49609375 C-10.71159365 7.3925765 -9.61396063 6.28968799 -8.515625 5.1875 C-7.75152313 4.40487793 -7.75152313 4.40487793 -6.97198486 3.60644531 C-3.34273913 0 -3.34273913 0 0 0 Z " fill="#FBFBFB" transform="translate(344,174)"/>
<path d="M0 0 C3.43095546 1.47994888 5.65962605 3.41159813 8.2902832 6.04736328 C9.12827957 6.88228302 9.96627594 7.71720276 10.82966614 8.5774231 C12.17661812 9.93515335 12.17661812 9.93515335 13.55078125 11.3203125 C14.48294968 12.25293915 15.4151181 13.1855658 16.37553406 14.14645386 C18.34974456 16.12222735 20.32055661 18.10130844 22.28881836 20.08300781 C24.79173105 22.60280475 27.30106912 25.11607562 29.81281757 27.62706184 C31.75984188 29.57436052 33.70423009 31.524274 35.64778709 33.47503281 C37.01538206 34.84729257 38.38441928 36.21811452 39.75349426 37.58889771 C44.14462706 42.01308813 48.38536548 46.4999328 52.44941711 51.2260437 C54.69565696 53.7958717 57.07509953 56.18708119 59.49609375 58.59375 C59.97450211 59.07074341 60.45291046 59.54773682 60.94581604 60.03918457 C62.44066514 61.52853695 63.93899059 63.01433149 65.4375 64.5 C66.4657298 65.52320139 67.49372626 66.54663733 68.52148438 67.5703125 C71.01164338 70.04957999 73.50492833 72.52567538 76 75 C73.55221796 78.24669424 71.30858877 80.74793627 67.91015625 82.98046875 C67.13269043 83.49939697 66.35522461 84.0183252 65.55419922 84.55297852 C64.73193848 85.09237061 63.90967773 85.6317627 63.0625 86.1875 C56.26003256 90.73982169 49.71788488 95.4404642 43.27734375 100.4921875 C39.58797525 103.35351536 35.76609816 106.01697804 31.9375 108.6875 C25.56034754 113.13704606 19.32107755 117.73947439 13.125 122.4375 C6.31028538 127.59026753 -0.5855484 132.59560959 -7.625 137.4375 C-8.43694824 137.99945068 -9.24889648 138.56140137 -10.08544922 139.14038086 C-10.8332666 139.64964111 -11.58108398 140.15890137 -12.3515625 140.68359375 C-13.00979004 141.13275146 -13.66801758 141.58190918 -14.34619141 142.04467773 C-16 143 -16 143 -18 143 C-17.25232087 131.53697782 -15.67833092 120.17517275 -14.19921875 108.7890625 C-13.91855096 106.61366519 -13.63810387 104.43823939 -13.35786438 102.26278687 C-12.77022522 97.70525368 -12.18086475 93.14794782 -11.59008789 88.59082031 C-10.84491545 82.84270666 -10.1025445 77.0942362 -9.3612957 71.34561539 C-6.29367109 47.55668197 -3.20758604 23.7705204 0 0 Z " fill="#FBFBFB" transform="translate(680,174)"/>
<path d="M0 0 C5.60459032 3.4629989 10.77045098 7.35200466 15.875 11.5 C22.28733787 16.70214033 28.86178015 21.63593569 35.52880859 26.50585938 C41.57644444 30.93089993 47.55069073 35.4437827 53.5 40 C60.43754097 45.307338 67.40761707 50.56546134 74.4375 55.75 C75.21222656 56.32234375 75.98695313 56.8946875 76.78515625 57.484375 C80.79294821 60.43003128 84.83516395 63.28064587 89 66 C85.08355259 70.07461164 80.90205012 73.64830669 76.5 77.1875 C75.44159912 78.04287354 75.44159912 78.04287354 74.36181641 78.91552734 C69.03129701 83.20805513 63.63218593 87.40341347 58.19140625 91.5546875 C54.87368901 94.08858767 51.59112045 96.66581281 48.3125 99.25 C40.69320403 105.25155884 33.03542359 111.20313936 25.37597656 117.15332031 C22.91370716 119.06706937 20.45277365 120.98252479 17.9921875 122.8984375 C17.17717773 123.53289795 16.36216797 124.1673584 15.52246094 124.82104492 C13.96042364 126.03711164 12.39856569 127.25340876 10.83691406 128.4699707 C10.13018555 129.01999756 9.42345703 129.57002441 8.6953125 130.13671875 C8.07672363 130.61842529 7.45813477 131.10013184 6.82080078 131.59643555 C6.21993652 132.05961182 5.61907227 132.52278809 5 133 C4.30503418 133.55405518 3.61006836 134.10811035 2.89404297 134.67895508 C1 136 1 136 -1 136 C-1.02332838 118.41545882 -1.04097887 100.83092246 -1.05181217 83.24636936 C-1.05697526 75.08212836 -1.0640182 66.91789695 -1.07543945 58.75366211 C-1.0853859 51.64028716 -1.09185333 44.52691915 -1.09408849 37.41353744 C-1.09539567 33.64474276 -1.09848194 29.87596797 -1.10573006 26.10717964 C-1.11374316 21.90681184 -1.11399116 17.70647892 -1.11352539 13.50610352 C-1.11712067 12.24734909 -1.12071594 10.98859467 -1.12442017 9.69169617 C-1.1230455 8.55441071 -1.12167084 7.41712524 -1.12025452 6.24537659 C-1.12117631 5.25076196 -1.1220981 4.25614733 -1.12304783 3.23139286 C-1 1 -1 1 0 0 Z " fill="#FBFBFB" transform="translate(530,281)"/>
<path d="M0 0 C0.99 0.495 0.99 0.495 2 1 C2 37.3 2 73.6 2 111 C1.01 111.495 1.01 111.495 0 112 C-1.97338867 111.27832031 -1.97338867 111.27832031 -4.41796875 110.078125 C-5.3291748 109.635896 -6.24038086 109.19366699 -7.17919922 108.73803711 C-8.17193848 108.24698486 -9.16467773 107.75593262 -10.1875 107.25 C-11.22922363 106.74412354 -12.27094727 106.23824707 -13.34423828 105.71704102 C-17.46082681 103.71772366 -21.56955087 101.70257149 -25.67724609 99.68505859 C-43.00940915 91.19179534 -60.66419984 83.46432348 -78.3515625 75.74609375 C-79.1495929 75.39760376 -79.94762329 75.04911377 -80.76983643 74.69006348 C-84.49244869 73.06998294 -88.21802414 71.47820312 -92 70 C-92 69.01 -92 68.02 -92 67 C-90.04296875 65.23046875 -90.04296875 65.23046875 -87.1875 63.1875 C-86.07935132 62.38421909 -84.97128393 61.58082603 -83.86328125 60.77734375 C-83.24791504 60.33632324 -82.63254883 59.89530273 -81.99853516 59.44091797 C-79.07050383 57.3298453 -76.17476861 55.17579758 -73.2746582 53.02661133 C-65.48309664 47.25804958 -57.64227145 41.5598868 -49.77319336 35.89770508 C-44.29711875 31.95208789 -38.86231651 27.95320885 -33.4375 23.9375 C-25.33059339 17.94062159 -17.1245489 12.09655253 -8.86523438 6.31201172 C-5.89803814 4.22487657 -2.94914999 2.11253878 0 0 Z " fill="#FBFBFB" transform="translate(769,276)"/>
<path d="M0 0 C14.25989789 8.63760335 27.48478776 18.86421279 40.8815918 28.7590332 C51.05958152 36.27063809 61.31524752 43.67534293 71.62524414 51.00463867 C73.87013364 52.60240361 76.10996976 54.20710732 78.34765625 55.81494141 C79.4837799 56.62976768 80.62191841 57.4417896 81.76171875 58.25146484 C83.47335241 59.47048429 85.17508501 60.70221155 86.875 61.9375 C87.86242187 62.64777344 88.84984375 63.35804688 89.8671875 64.08984375 C90.57101562 64.72019531 91.27484375 65.35054688 92 66 C92 66.99 92 67.98 92 69 C91.08750488 69.40089844 90.17500977 69.80179687 89.23486328 70.21484375 C61.71693463 82.31795285 34.25795993 94.6042557 7.46679688 108.25927734 C2.08850349 111 2.08850349 111 1 111 C-1.27991399 105.53242423 -1.27735345 100.604887 -1.24291992 94.7878418 C-1.24481827 93.77420059 -1.24671661 92.76055939 -1.24867249 91.71620178 C-1.2523673 88.37712794 -1.24169738 85.03827314 -1.23046875 81.69921875 C-1.22927649 79.37848435 -1.22882389 77.05774946 -1.2290802 74.73701477 C-1.22751776 69.88087938 -1.21924381 65.02481796 -1.20581055 60.16870117 C-1.18877372 53.92944962 -1.18499767 47.69027898 -1.18575573 41.45100689 C-1.18548455 36.66338828 -1.18001259 31.87578751 -1.17275429 27.08817482 C-1.16956275 24.78635607 -1.16759909 22.4845353 -1.16686058 20.18271446 C-1.16470482 16.97683598 -1.15597863 13.77104532 -1.14526367 10.56518555 C-1.14571686 9.60573029 -1.14617004 8.64627502 -1.14663696 7.65774536 C-1.14237198 6.78996964 -1.13810699 5.92219391 -1.13371277 5.02812195 C-1.13203692 4.26990489 -1.13036108 3.51168783 -1.12863445 2.7304945 C-1 1 -1 1 0 0 Z " fill="#FBFBFB" transform="translate(254,277)"/>
<path d="M0 0 C31.35 0 62.7 0 95 0 C95 0.66 95 1.32 95 2 C101.6 2 108.2 2 115 2 C114.67 30.05 114.34 58.1 114 87 C110.54031765 87 110.0182619 86.51553002 107.40234375 84.4296875 C106.69231201 83.86991211 105.98228027 83.31013672 105.25073242 82.73339844 C104.48736572 82.12012695 103.72399902 81.50685547 102.9375 80.875 C101.30743792 79.58575256 99.6772253 78.29669544 98.046875 77.0078125 C97.21091797 76.34297852 96.37496094 75.67814453 95.51367188 74.99316406 C91.59309896 71.88442695 87.64023923 68.81765829 83.6875 65.75 C82.93694336 65.16621582 82.18638672 64.58243164 81.41308594 63.98095703 C74.96083017 58.96269316 68.48442307 53.97660932 62 49 C59.83289153 47.33390747 57.66645047 45.66694801 55.5 44 C54.41667876 43.16665095 53.33334544 42.33331759 52.25 41.5 C50.08333333 39.83333333 47.91666667 38.16666667 45.75 36.5 C45.21415283 36.08782227 44.67830566 35.67564453 44.1262207 35.25097656 C43.03876999 34.4144509 41.95136793 33.57786197 40.86401367 32.74121094 C38.21906213 30.70620712 35.57318888 28.67243467 32.92578125 26.640625 C31.89839844 25.85171875 30.87101562 25.0628125 29.8125 24.25 C29.29494141 23.85288818 28.77738281 23.45577637 28.24414062 23.04663086 C24.93448153 20.50245429 21.64083364 17.93876669 18.35546875 15.36328125 C17.1502356 14.4201709 17.1502356 14.4201709 15.9206543 13.45800781 C14.33821021 12.21886551 12.75756412 10.97742273 11.17895508 9.73339844 C8.16792534 7.37725852 5.26799611 5.1578276 1.96875 3.21484375 C1.3190625 2.81394531 0.669375 2.41304687 0 2 C0 1.34 0 0.68 0 0 Z " fill="#FBFBFB" transform="translate(383,139)"/>
<path d="M0 0 C0.92126678 -0.00274933 1.84253357 -0.00549866 2.79171753 -0.0083313 C4.30438454 0.00245453 4.30438454 0.00245453 5.84761047 0.01345825 C7.44297638 0.01302017 7.44297638 0.01302017 9.0705719 0.01257324 C12.59309491 0.01396881 16.11540753 0.02954087 19.63789368 0.04519653 C22.07741175 0.04892585 24.51693131 0.05177321 26.95645142 0.05377197 C33.38281883 0.0614148 39.8090961 0.08106894 46.23542786 0.10317993 C52.79079468 0.12362434 59.34617605 0.13277068 65.90156555 0.14285278 C78.76814051 0.16431415 91.63465293 0.1980745 104.50117493 0.24050903 C103.40096419 3.54114124 102.96130175 3.89040806 100.21211243 5.73660278 C99.52560608 6.20646606 98.83909973 6.67632935 98.13179016 7.16043091 C97.38743713 7.66123169 96.64308411 8.16203247 95.87617493 8.67800903 C90.06305649 12.67922261 84.41049001 16.78308203 78.93867493 21.24050903 C73.91075362 25.32885585 68.82349205 29.30684257 63.62617493 33.17800903 C51.35706493 42.3198158 39.23990544 51.65182152 27.17939758 61.06668091 C21.50971007 65.48205643 15.77488348 69.80364443 10.01264954 74.09719849 C4.74665149 78.0304398 -0.40909128 82.08063045 -5.49882507 86.24050903 C-6.15882507 85.91050903 -6.81882507 85.58050903 -7.49882507 85.24050903 C-7.56823186 74.45323587 -7.6215888 63.66601552 -7.65426159 52.87856483 C-7.66994022 47.8699011 -7.69121841 42.86138974 -7.72514343 37.85281372 C-7.75765875 33.02231721 -7.77566152 28.19196756 -7.7834568 23.36137009 C-7.78901443 21.5153001 -7.79986663 19.66923846 -7.81601524 17.82323074 C-7.83768576 15.24420841 -7.8407964 12.66579866 -7.83940125 10.08670044 C-7.85018707 9.31777969 -7.8609729 8.54885895 -7.87208557 7.75663757 C-7.85958862 5.63201904 -7.85958862 5.63201904 -7.49882507 2.24050903 C-4.33609331 0.13202119 -3.60813561 -0.00830411 0 0 Z " fill="#FBFBFB" transform="translate(536.4988250732422,138.75949096679688)"/>
<path d="M0 0 C3.73391773 0.62154812 6.88763248 1.68800432 10.33984375 3.23046875 C11.38720703 3.69630371 12.43457031 4.16213867 13.51367188 4.64208984 C14.64353516 5.1520752 15.77339844 5.66206055 16.9375 6.1875 C18.12537109 6.72068848 19.31324219 7.25387695 20.53710938 7.80322266 C24.36312746 9.52441134 28.18207975 11.26093847 32 13 C32.62416809 13.28373474 33.24833618 13.56746948 33.89141846 13.85980225 C52.56336775 22.35169414 70.88168069 31.38196022 89 41 C89 45 89 45 87.41796875 47.04296875 C81.52962436 52.70444173 75.41712284 57.94728599 69 63 C67.69869141 64.07894531 67.69869141 64.07894531 66.37109375 65.1796875 C54.19749294 74.91164149 39.92105413 81.81403622 25.375 87.25 C24.57570068 87.54986816 23.77640137 87.84973633 22.95288086 88.15869141 C17.3898555 90.12995183 17.3898555 90.12995183 14 89 C13.14834842 85.96767264 12.52557409 83.09481476 12 80 C11.8363797 79.04869202 11.6727594 78.09738403 11.50418091 77.11724854 C10.96237622 73.85461454 10.44886887 70.58846004 9.94140625 67.3203125 C9.65667702 65.50924515 9.65667702 65.50924515 9.36619568 63.66159058 C8.7622924 59.8164737 8.16231246 55.97075691 7.5625 52.125 C7.16367502 49.58068784 6.76458877 47.03641662 6.36523438 44.4921875 C5.59414815 39.57881732 4.82582186 34.66502666 4.05908203 29.75097656 C3.39888537 25.52717861 2.72949574 21.30511275 2.04638672 17.08496094 C1.90434311 16.20323212 1.7622995 15.3215033 1.61595154 14.41305542 C1.35805943 12.81637491 1.09773202 11.22008481 0.83436584 9.6242981 C0.30627785 6.34617731 0 3.33411973 0 0 Z " fill="#FAFAFA" transform="translate(661,371)"/>
<path d="M0 0 C-0.1451001 0.96035156 -0.2902002 1.92070312 -0.43969727 2.91015625 C-4.72006558 31.2599091 -8.88205679 59.62623252 -13 88 C-16.6993715 89.18508005 -18.40647532 88.56246156 -21.91796875 86.90234375 C-25.81075988 85.21522414 -29.92412402 84.15633504 -34 83 C-34 82.34 -34 81.68 -34 81 C-35.00353516 81.11988281 -35.00353516 81.11988281 -36.02734375 81.2421875 C-40.08553318 80.91155971 -43.09143673 79.09773803 -46.5625 77.125 C-47.87616192 76.39818412 -49.18996008 75.6716144 -50.50390625 74.9453125 C-51.11121582 74.60532227 -51.71852539 74.26533203 -52.34423828 73.91503906 C-54.20330025 72.88764828 -56.08774354 71.92450058 -58 71 C-58 70.34 -58 69.68 -58 69 C-58.61875 68.855625 -59.2375 68.71125 -59.875 68.5625 C-62 68 -62 68 -64 67 C-64 66.34 -64 65.68 -64 65 C-64.680625 64.79375 -65.36125 64.5875 -66.0625 64.375 C-69.91639375 62.57104973 -73.07787764 60.0989655 -76 57 C-76 56.34 -76 55.68 -76 55 C-76.66 55 -77.32 55 -78 55 C-78 54.34 -78 53.68 -78 53 C-78.66 53 -79.32 53 -80 53 C-80 52.34 -80 51.68 -80 51 C-80.66 51 -81.32 51 -82 51 C-82 50.34 -82 49.68 -82 49 C-82.66 49 -83.32 49 -84 49 C-84 48.34 -84 47.68 -84 47 C-84.66 47 -85.32 47 -86 47 C-86 46.34 -86 45.68 -86 45 C-86.66 45 -87.32 45 -88 45 C-88.33 43.68 -88.66 42.36 -89 41 C-76.45422613 34.07484385 -63.89159521 27.25959784 -51 21 C-50.09443359 20.55688477 -49.18886719 20.11376953 -48.25585938 19.65722656 C-36.63306051 13.97488499 -24.95485383 8.42703955 -13.125 3.1875 C-11.66308228 2.52935303 -11.66308228 2.52935303 -10.17163086 1.85791016 C-9.2719458 1.46522949 -8.37226074 1.07254883 -7.4453125 0.66796875 C-6.26219482 0.14626099 -6.26219482 0.14626099 -5.05517578 -0.38598633 C-3 -1 -3 -1 0 0 Z " fill="#FBFBFB" transform="translate(363,372)"/>
<path d="M0 0 C8.58022294 -0.09301169 17.16023238 -0.1639218 25.74083614 -0.20724869 C29.72592518 -0.22805198 33.71066724 -0.25623497 37.69555664 -0.30175781 C41.54704217 -0.34547727 45.39819567 -0.36919159 49.24991035 -0.37950897 C50.71342756 -0.38685389 52.17692826 -0.40119607 53.64030266 -0.42292023 C70.32084575 -0.66051701 70.32084575 -0.66051701 76 4 C81.65572217 10.85695046 80.51296143 20.38602096 80.390625 28.75390625 C80.38315105 30.26561225 80.37746358 31.77732803 80.37347412 33.28904724 C80.35830826 37.23970988 80.31910689 41.18977056 80.2746582 45.14019775 C80.23350819 49.18257508 80.21542129 53.22505106 80.1953125 57.26757812 C80.15260182 65.17865957 80.084463 73.08925459 80 81 C77 81 77 81 74.765625 79.09375 C73.93546875 78.2378125 73.1053125 77.381875 72.25 76.5 C71.43015625 75.6646875 70.6103125 74.829375 69.765625 73.96875 C67.79377376 71.89177125 65.93082413 69.74587075 64.078125 67.5625 C58.25574931 60.86407973 51.80458182 54.73882755 45.5 48.5 C31.0056734 34.15684343 31.0056734 34.15684343 25.82958984 28.04785156 C23.34850683 25.27078667 20.71244522 22.65724631 18.06640625 20.0390625 C17.53892792 19.5170929 17.01144958 18.99512329 16.46798706 18.45733643 C14.27229253 16.28940818 12.07289697 14.12531415 9.86938477 11.96533203 C8.24325081 10.36921101 6.62324105 8.76707677 5.00390625 7.1640625 C4.50089493 6.6745108 3.99788361 6.18495911 3.47962952 5.68057251 C2.28138007 4.49116463 1.13516637 3.24975604 0 2 C0 1.34 0 0.68 0 0 Z " fill="#FBFBFB" transform="translate(691,139)"/>
<path d="M0 0 C1.46686527 0.00747454 2.93374062 0.01316173 4.40061951 0.01715088 C8.23292351 0.03231215 12.06460634 0.07150924 15.89666748 0.1159668 C19.81839601 0.15712696 23.7402264 0.17520584 27.66210938 0.1953125 C35.33621851 0.23801501 43.00981859 0.30614782 50.68359375 0.390625 C49.06274722 3.83464287 47.2582313 5.99734018 44.49609375 8.640625 C41.66171982 11.36082975 39.00315649 14.14736564 36.4453125 17.125 C31.70349049 22.59795685 26.51582692 27.60591252 21.35546875 32.6796875 C17.16641459 36.82599621 13.17328045 41.04987492 9.33203125 45.51953125 C6.75138419 48.44874912 3.97451983 51.16365501 1.18359375 53.890625 C-2.24678621 57.2784216 -5.639251 60.64284589 -8.75390625 64.328125 C-12.19076864 68.36687446 -15.89980191 72.12396201 -19.62890625 75.890625 C-20.56464478 76.84569946 -20.56464478 76.84569946 -21.51928711 77.82006836 C-22.10846924 78.41053955 -22.69765137 79.00101074 -23.3046875 79.609375 C-23.83618408 80.14498047 -24.36768066 80.68058594 -24.9152832 81.23242188 C-26.31640625 82.390625 -26.31640625 82.390625 -28.31640625 82.390625 C-28.40940089 73.5496498 -28.48031968 64.70884496 -28.52365494 55.867486 C-28.54446182 51.76133414 -28.57265164 47.65551879 -28.61816406 43.54956055 C-28.66187033 39.58136663 -28.68559515 35.61349484 -28.69591522 31.64507866 C-28.70326245 30.13690564 -28.71760926 28.62874873 -28.73932648 27.12071419 C-28.97575488 10.01084022 -28.97575488 10.01084022 -24.31640625 4.390625 C-17.52026432 -1.15837539 -8.27224966 -0.12472738 0 0 Z " fill="#FBFBFB" transform="translate(281.31640625,138.609375)"/>
</svg>
