<?xml version="1.0" encoding="UTF-8"?>
<svg version="1.1" xmlns="http://www.w3.org/2000/svg" width="512" height="512">
<path d="M0 0 C1.04487328 -0.00143509 1.04487328 -0.00143509 2.1108551 -0.00289917 C3.56535941 -0.00357346 5.01986687 -0.00177218 6.47436523 0.00244141 C8.71019082 0.00785801 10.94582071 0.00244204 13.18164062 -0.00390625 C14.60026086 -0.00324645 16.01888097 -0.00196733 17.4375 0 C18.72197021 0.00112793 20.00644043 0.00225586 21.32983398 0.00341797 C24.25390625 0.1328125 24.25390625 0.1328125 25.25390625 1.1328125 C25.35204612 2.57021603 25.38188905 4.01237577 25.38330078 5.453125 C25.38645294 6.37077637 25.3896051 7.28842773 25.39285278 8.23388672 C25.38981644 9.73072998 25.38981644 9.73072998 25.38671875 11.2578125 C25.38767548 12.27504395 25.3886322 13.29227539 25.38961792 14.34033203 C25.39029986 16.49576886 25.3884446 18.65120772 25.38427734 20.80664062 C25.3789293 24.11853621 25.38422188 27.43029617 25.390625 30.7421875 C25.38996422 32.83072947 25.38868306 34.91927135 25.38671875 37.0078125 C25.38874298 38.00570801 25.39076721 39.00360352 25.39285278 40.03173828 C25.38812454 41.40821533 25.38812454 41.40821533 25.38330078 42.8125 C25.38250519 43.62444824 25.38170959 44.43639648 25.38088989 45.27294922 C25.25390625 47.1328125 25.25390625 47.1328125 24.25390625 48.1328125 C21.43831234 48.32091686 18.63515393 48.45963603 15.81640625 48.5703125 C0.8657397 49.10879663 0.8657397 49.10879663 -11.49609375 56.8828125 C-15.06819125 63.31258801 -15.10486769 70.62147204 -15.30859375 77.7890625 C-15.3454126 78.80842896 -15.38223145 79.82779541 -15.42016602 80.87805176 C-15.53685699 84.12941905 -15.64249288 87.38100379 -15.74609375 90.6328125 C-16.16800402 103.52867744 -16.66596288 116.39253244 -17.73046875 129.25390625 C-17.81143799 130.23657471 -17.89240723 131.21924316 -17.97583008 132.23168945 C-19.70307528 151.96722402 -25.03968549 171.30927007 -40.66015625 184.54296875 C-44.28363025 187.50506582 -47.98983165 190.34159798 -51.74609375 193.1328125 C-50.69035156 193.96425781 -50.69035156 193.96425781 -49.61328125 194.8125 C-30.1260952 210.58278408 -21.05490975 227.74759409 -18.1953125 252.7265625 C-17.14244113 263.1467328 -16.66756315 273.5770409 -16.28515625 284.0390625 C-16.24530106 285.10185928 -16.20544586 286.16465607 -16.16438293 287.25965881 C-15.96307667 292.66937498 -15.77785957 298.07886187 -15.61889648 303.48999023 C-15.54844164 305.52589374 -15.47757608 307.56178308 -15.40625 309.59765625 C-15.38434601 310.52505615 -15.36244202 311.45245605 -15.33987427 312.40795898 C-15.06262404 319.73317548 -14.19886383 326.50891893 -9.05859375 332.0078125 C-1.69747074 336.73004235 5.13504259 337.68249998 13.69140625 338.2578125 C15.66955147 338.40246199 17.647439 338.55069636 19.625 338.703125 C20.4905249 338.76258301 21.3560498 338.82204102 22.24780273 338.88330078 C24.25390625 339.1328125 24.25390625 339.1328125 25.25390625 340.1328125 C25.35204612 341.57021603 25.38188905 343.01237577 25.38330078 344.453125 C25.38645294 345.37077637 25.3896051 346.28842773 25.39285278 347.23388672 C25.38981644 348.73072998 25.38981644 348.73072998 25.38671875 350.2578125 C25.38767548 351.27504395 25.3886322 352.29227539 25.38961792 353.34033203 C25.39029986 355.49576886 25.3884446 357.65120772 25.38427734 359.80664062 C25.3789293 363.11853621 25.38422188 366.43029617 25.390625 369.7421875 C25.38996422 371.83072947 25.38868306 373.91927135 25.38671875 376.0078125 C25.38874298 377.00570801 25.39076721 378.00360352 25.39285278 379.03173828 C25.38812454 380.40821533 25.38812454 380.40821533 25.38330078 381.8125 C25.38250519 382.62444824 25.38170959 383.43639648 25.38088989 384.27294922 C25.25390625 386.1328125 25.25390625 386.1328125 24.25390625 387.1328125 C-1.58786565 388.74928162 -29.709387 387.72736675 -50.42578125 370.35546875 C-59.8425508 361.33502788 -64.40773656 349.77679466 -66.49609375 337.1328125 C-66.61178711 336.44131104 -66.72748047 335.74980957 -66.84667969 335.03735352 C-69.32210785 317.95577056 -68.97311131 300.33314202 -69.22290039 283.11010742 C-69.10138236 253.39259963 -69.10138236 253.39259963 -82.74609375 228.1328125 C-91.25712865 220.85429537 -100.90207054 219.1822341 -111.74609375 218.1328125 C-113.33291364 216.54599261 -112.87337911 214.92032904 -112.87548828 212.72070312 C-112.88021652 211.31419495 -112.88021652 211.31419495 -112.88504028 209.87927246 C-112.88301605 208.85950317 -112.88099182 207.83973389 -112.87890625 206.7890625 C-112.87986298 205.74963501 -112.8808197 204.71020752 -112.88180542 203.63928223 C-112.88248738 201.43676696 -112.88063202 199.23424971 -112.87646484 197.03173828 C-112.87111683 193.64741531 -112.87640934 190.26322506 -112.8828125 186.87890625 C-112.88215172 184.74479137 -112.88087056 182.61067658 -112.87890625 180.4765625 C-112.88093048 179.45679321 -112.88295471 178.43702393 -112.88504028 177.38635254 C-112.88188812 176.44868042 -112.87873596 175.5110083 -112.87548828 174.54492188 C-112.87469269 173.71520874 -112.87389709 172.88549561 -112.87307739 172.03063965 C-112.74609375 170.1328125 -112.74609375 170.1328125 -111.74609375 169.1328125 C-109.87293103 168.82026675 -107.99877053 168.51268739 -106.12036133 168.23339844 C-95.9752684 166.69486708 -86.60779232 164.7126965 -80.05078125 156.13671875 C-72.10291383 143.9293655 -69.7197628 130.74731208 -69.46484375 116.41015625 C-69.44688751 115.5956601 -69.42893127 114.78116394 -69.41043091 113.94198608 C-69.37238624 112.21075822 -69.33597346 110.47949383 -69.30108643 108.74819946 C-69.20836102 104.23290423 -69.09723224 99.71805282 -68.98828125 95.203125 C-68.96720306 94.31967911 -68.94612488 93.43623322 -68.92440796 92.52601624 C-67.54828695 34.93011112 -67.54828695 34.93011112 -52.74609375 19.1328125 C-51.88757813 18.21242188 -51.88757813 18.21242188 -51.01171875 17.2734375 C-37.79447107 4.50806153 -17.80225373 0.01553716 0 0 Z " fill="#FFFFFF" transform="translate(184.74609375,24.8671875)"/>
<path d="M0 0 C0.68609344 0.00108765 1.37218689 0.00217529 2.07907104 0.0032959 C2.76540619 0.00390015 3.45174133 0.00450439 4.15887451 0.00512695 C26.23285869 0.05823846 48.11527408 2.12821361 64.95016479 17.99938965 C78.13445384 31.98121603 81.58522504 50.45741634 81.21969604 69.1204834 C81.01657104 72.1907959 81.01657104 72.1907959 80.01657104 73.1907959 C78.67641883 73.34661893 77.32898201 73.44123732 75.98141479 73.50720215 C75.25301392 73.54531006 74.52461304 73.58341797 73.7741394 73.62268066 C72.84351685 73.66578369 71.91289429 73.70888672 70.95407104 73.7532959 C66.53000854 73.9698584 66.53000854 73.9698584 62.01657104 74.1907959 C62.01657104 83.7607959 62.01657104 93.3307959 62.01657104 103.1907959 C68.22422376 103.48001962 68.22422376 103.48001962 74.43234253 103.75891113 C75.20134888 103.79701904 75.97035522 103.83512695 76.76266479 103.87438965 C77.55342407 103.91104736 78.34418335 103.94770508 79.15890503 103.98547363 C81.01657104 104.1907959 81.01657104 104.1907959 82.01657104 105.1907959 C82.22128316 106.99704607 82.36439361 108.81034643 82.48141479 110.62438965 C82.55940308 111.74909668 82.63739136 112.87380371 82.71774292 114.03259277 C82.87297753 116.39446805 83.02667159 118.75644519 83.17868042 121.11853027 C84.14164032 134.92095548 86.34734483 149.43333328 96.55172729 159.74157715 C104.39341645 166.45113284 115.00590656 168.2093582 125.01657104 169.1907959 C126.61708769 170.79131254 126.14388577 172.47925712 126.14596558 174.69470215 C126.14911774 175.65239502 126.1522699 176.61008789 126.15551758 177.59680176 C126.15248123 179.15926636 126.15248123 179.15926636 126.14938354 180.7532959 C126.15034027 181.81491943 126.151297 182.87654297 126.15228271 183.97033691 C126.15296469 186.21993061 126.15110923 188.46952627 126.14694214 190.71911621 C126.14159414 194.17586661 126.14688659 197.63248707 126.15328979 201.0892334 C126.15262902 203.26892119 126.15134786 205.44860889 126.14938354 207.6282959 C126.15140778 208.66993896 126.15343201 209.71158203 126.15551758 210.78479004 C126.15078934 212.22132935 126.15078934 212.22132935 126.14596558 213.68688965 C126.14516998 214.53436768 126.14437439 215.3818457 126.14355469 216.25500488 C126.01657104 218.1907959 126.01657104 218.1907959 125.01657104 219.1907959 C122.8338898 219.51656922 120.64497831 219.80093542 118.45407104 220.0657959 C108.40702012 221.47055074 99.72828513 224.00259999 93.32125854 232.4173584 C82.06418749 250.23634022 82.72400626 270.41985745 82.51657104 290.7532959 C82.38912073 303.09538855 82.14654507 315.37207371 81.09078979 327.6751709 C80.97199463 329.06978294 80.97199463 329.06978294 80.85079956 330.49256897 C79.366654 346.42017731 75.33829543 361.25846268 63.14547729 372.4564209 C50.89329449 382.4380157 34.46757364 387.36106381 18.81344604 387.3236084 C17.93505066 387.32456512 17.05665527 387.32552185 16.15164185 387.32650757 C14.30258105 387.32718609 12.45351784 387.32535475 10.60446167 387.32116699 C7.76261115 387.3157884 4.92091684 387.3211362 2.07907104 387.32751465 C0.28219569 387.32685431 -1.51467956 387.32557407 -3.31155396 387.3236084 C-4.16565857 387.32563263 -5.01976318 387.32765686 -5.89974976 387.32974243 C-11.86846146 387.30576339 -11.86846146 387.30576339 -12.98342896 386.1907959 C-13.08156882 384.75339237 -13.11141176 383.31123263 -13.11282349 381.8704834 C-13.11597565 380.95283203 -13.11912781 380.03518066 -13.12237549 379.08972168 C-13.12035126 378.09182617 -13.11832703 377.09393066 -13.11624146 376.0657959 C-13.11719818 375.04856445 -13.11815491 374.03133301 -13.11914062 372.98327637 C-13.11982257 370.82783954 -13.1179673 368.67240068 -13.11380005 366.51696777 C-13.10845201 363.20507219 -13.11374458 359.89331223 -13.12014771 356.5814209 C-13.11948693 354.49287893 -13.11820577 352.40433705 -13.11624146 350.3157959 C-13.11826569 349.31790039 -13.12028992 348.32000488 -13.12237549 347.29187012 C-13.11922333 346.37421875 -13.11607117 345.45656738 -13.11282349 344.5111084 C-13.11202789 343.69916016 -13.1112323 342.88721191 -13.1104126 342.05065918 C-12.98342896 340.1907959 -12.98342896 340.1907959 -11.98342896 339.1907959 C-10.3221992 339.02315058 -8.65492836 338.91462125 -6.98733521 338.8314209 C-5.95286255 338.76696777 -4.91838989 338.70251465 -3.85256958 338.6361084 C-1.6840542 338.50802125 0.48527961 338.39297903 2.65524292 338.2923584 C10.2338582 337.78805128 18.01546603 336.41462909 23.48141479 330.64440918 C29.76173524 321.61225794 28.09272083 307.90947573 28.44625854 297.33532715 C28.48277527 296.26096405 28.51929199 295.18660095 28.55691528 294.0796814 C28.70796154 289.60150968 28.85851345 285.12342736 28.99069214 280.64465332 C29.82699205 252.7509917 31.52444399 223.63699526 53.01657104 203.1907959 C56.60285876 200.08237058 60.26344132 197.09508694 64.01657104 194.1907959 C63.32176636 193.64294434 62.62696167 193.09509277 61.91110229 192.53063965 C46.77494057 180.29506492 38.00567343 168.1223123 33.01657104 149.1907959 C32.52326294 147.4431897 32.52326294 147.4431897 32.01998901 145.66027832 C30.72640945 140.44491961 30.34470814 135.20215143 29.95407104 129.8548584 C29.87100708 128.7676651 29.78794312 127.6804718 29.70236206 126.56033325 C28.7228538 113.10184642 28.32282441 99.62063776 27.91207886 86.13513184 C27.80852133 82.8070398 27.69435332 79.47943685 27.57907104 76.1517334 C27.55192017 75.15072601 27.52476929 74.14971863 27.49679565 73.11837769 C27.23874433 63.39055645 27.23874433 63.39055645 22.26657104 55.3782959 C17.36458169 52.07887999 12.84508876 50.98095616 6.99703979 50.59313965 C5.89295776 50.5138623 4.78887573 50.43458496 3.65133667 50.35290527 C1.94494019 50.24172363 1.94494019 50.24172363 0.20407104 50.1282959 C-2.07354719 49.97476286 -4.35091337 49.8174263 -6.62796021 49.65563965 C-7.63189819 49.58981689 -8.63583618 49.52399414 -9.67019653 49.45617676 C-11.98342896 49.1907959 -11.98342896 49.1907959 -12.98342896 48.1907959 C-13.0816564 46.72274298 -13.11141266 45.2500213 -13.11282349 43.77868652 C-13.11755173 42.37217834 -13.11755173 42.37217834 -13.12237549 40.93725586 C-13.12035126 39.91748657 -13.11832703 38.89771729 -13.11624146 37.8470459 C-13.11719818 36.80761841 -13.11815491 35.76819092 -13.11914062 34.69726562 C-13.11982258 32.49475036 -13.11796722 30.29223311 -13.11380005 28.08972168 C-13.10845203 24.70539871 -13.11374454 21.32120846 -13.12014771 17.93688965 C-13.11948693 15.80277477 -13.11820577 13.66865997 -13.11624146 11.5345459 C-13.11826569 10.51477661 -13.12028992 9.49500732 -13.12237549 8.44433594 C-13.11922333 7.50666382 -13.11607117 6.5689917 -13.11282349 5.60290527 C-13.11202789 4.77319214 -13.1112323 3.943479 -13.1104126 3.08862305 C-12.75911996 -2.16160208 -3.92467135 0.0007046 0 0 Z M37.01657104 27.1907959 C36.91757581 28.74035149 36.8857758 30.29433262 36.88375854 31.8470459 C36.88246948 32.78677246 36.88118042 33.72649902 36.87985229 34.69470215 C36.88371948 35.68341309 36.88758667 36.67212402 36.89157104 37.6907959 C36.88770386 38.67950684 36.88383667 39.66821777 36.87985229 40.68688965 C36.88114136 41.62661621 36.88243042 42.56634277 36.88375854 43.5345459 C36.88488647 44.40272949 36.8860144 45.27091309 36.88717651 46.16540527 C36.79241735 48.18683744 36.79241735 48.18683744 38.01657104 49.1907959 C39.56612663 49.28979113 41.12010777 49.32159114 42.67282104 49.3236084 C43.61254761 49.32489746 44.55227417 49.32618652 45.52047729 49.32751465 C47.0035437 49.32171387 47.0035437 49.32171387 48.51657104 49.3157959 C49.50528198 49.31966309 50.49399292 49.32353027 51.51266479 49.32751465 C52.92225464 49.32558105 52.92225464 49.32558105 54.36032104 49.3236084 C55.66259644 49.3219165 55.66259644 49.3219165 56.99118042 49.32019043 C59.01261258 49.4149496 59.01261258 49.4149496 60.01657104 48.1907959 C60.11556628 46.64124031 60.14736629 45.08725917 60.14938354 43.5345459 C60.15067261 42.59481934 60.15196167 41.65509277 60.15328979 40.68688965 C60.14748901 39.20382324 60.14748901 39.20382324 60.14157104 37.6907959 C60.14543823 36.70208496 60.14930542 35.71337402 60.15328979 34.69470215 C60.1513562 33.2851123 60.1513562 33.2851123 60.14938354 31.8470459 C60.14825562 30.9788623 60.14712769 30.11067871 60.14596558 29.21618652 C60.24072474 27.19475436 60.24072474 27.19475436 59.01657104 26.1907959 C57.46701546 26.09180066 55.91303432 26.06000066 54.36032104 26.0579834 C52.9507312 26.0560498 52.9507312 26.0560498 51.51266479 26.05407715 C50.52395386 26.05794434 49.53524292 26.06181152 48.51657104 26.0657959 C47.52786011 26.06192871 46.53914917 26.05806152 45.52047729 26.05407715 C44.11088745 26.05601074 44.11088745 26.05601074 42.67282104 26.0579834 C41.37054565 26.05967529 41.37054565 26.05967529 40.04196167 26.06140137 C38.02052951 25.9666422 38.02052951 25.9666422 37.01657104 27.1907959 Z " fill="#FFFFFF" transform="translate(241.98342895507813,99.8092041015625)"/>
<path d="M0 0 C0.87760986 -0.00315216 1.75521973 -0.00630432 2.65942383 -0.009552 C3.61357178 -0.00752777 4.56771973 -0.00550354 5.55078125 -0.00341797 C6.52362061 -0.00437469 7.49645996 -0.00533142 8.4987793 -0.00631714 C10.56005925 -0.00699905 12.62134133 -0.00514399 14.68261719 -0.00097656 C17.84965813 0.00437153 21.01655725 -0.00092119 24.18359375 -0.00732422 C26.1809899 -0.00666344 28.17838596 -0.00538228 30.17578125 -0.00341797 C31.1299292 -0.0054422 32.08407715 -0.00746643 33.06713867 -0.009552 C34.38355347 -0.00482376 34.38355347 -0.00482376 35.7265625 0 C36.50298096 0.00079559 37.27939941 0.00159119 38.0793457 0.00241089 C39.86328125 0.12939453 39.86328125 0.12939453 40.86328125 1.12939453 C40.96123436 2.50549335 40.99126213 3.88653335 40.99267578 5.26611328 C40.99582794 6.14372314 40.9989801 7.02133301 41.00222778 7.92553711 C41.00020355 8.87968506 40.99817932 9.83383301 40.99609375 10.81689453 C40.99705048 11.78973389 40.9980072 12.76257324 40.99899292 13.76489258 C40.99967483 15.82617253 40.99781978 17.88745462 40.99365234 19.94873047 C40.98830425 23.11577141 40.99359697 26.28267053 41 29.44970703 C40.99933922 31.44710318 40.99805806 33.44449924 40.99609375 35.44189453 C40.99811798 36.39604248 41.00014221 37.35019043 41.00222778 38.33325195 C40.99749954 39.64966675 40.99749954 39.64966675 40.99267578 40.99267578 C40.99188019 41.76909424 40.99108459 42.5455127 40.99026489 43.34545898 C40.86328125 45.12939453 40.86328125 45.12939453 39.86328125 46.12939453 C38.48718243 46.22734764 37.10614243 46.25737541 35.7265625 46.25878906 C34.41014771 46.2635173 34.41014771 46.2635173 33.06713867 46.26834106 C32.11299072 46.26631683 31.15884277 46.2642926 30.17578125 46.26220703 C28.71652222 46.26364212 28.71652222 46.26364212 27.2277832 46.2651062 C25.16650325 46.26578811 23.10522117 46.26393306 21.04394531 46.25976562 C17.87690437 46.25441754 14.71000525 46.25971025 11.54296875 46.26611328 C9.5455726 46.2654525 7.54817654 46.26417134 5.55078125 46.26220703 C4.5966333 46.26423126 3.64248535 46.26625549 2.65942383 46.26834106 C1.78181396 46.2651889 0.9042041 46.26203674 0 46.25878906 C-0.77641846 46.25799347 -1.55283691 46.25719788 -2.3527832 46.25637817 C-4.13671875 46.12939453 -4.13671875 46.12939453 -5.13671875 45.12939453 C-5.23467186 43.75329571 -5.26469963 42.37225571 -5.26611328 40.99267578 C-5.26926544 40.11506592 -5.2724176 39.23745605 -5.27566528 38.33325195 C-5.27364105 37.379104 -5.27161682 36.42495605 -5.26953125 35.44189453 C-5.27048798 34.46905518 -5.2714447 33.49621582 -5.27243042 32.49389648 C-5.27311233 30.43261653 -5.27125728 28.37133445 -5.26708984 26.31005859 C-5.26174175 23.14301765 -5.26703447 19.97611853 -5.2734375 16.80908203 C-5.27277672 14.81168588 -5.27149556 12.81428982 -5.26953125 10.81689453 C-5.27155548 9.86274658 -5.27357971 8.90859863 -5.27566528 7.92553711 C-5.27251312 7.04792725 -5.26936096 6.17031738 -5.26611328 5.26611328 C-5.26531769 4.48969482 -5.26452209 3.71327637 -5.26370239 2.91333008 C-5.01499201 -0.58068914 -3.01288672 0.00308729 0 0 Z " fill="#FFFFFF" transform="translate(278.13671875,47.87060546875)"/>
<path d="M0 0 C0.66209473 -0.00095673 1.32418945 -0.00191345 2.00634766 -0.00289917 C3.40852961 -0.00358076 4.8107147 -0.00172792 6.21289062 0.00244141 C8.36595713 0.00779004 10.51881502 0.0024958 12.671875 -0.00390625 C14.03125046 -0.00324546 15.3906258 -0.00196429 16.75 0 C18.61785156 0.00169189 18.61785156 0.00169189 20.5234375 0.00341797 C23.375 0.1328125 23.375 0.1328125 24.375 1.1328125 C24.4752093 3.41229042 24.50581303 5.69488385 24.5078125 7.9765625 C24.50876923 8.66085327 24.50972595 9.34514404 24.51071167 10.0501709 C24.5113933 11.49943127 24.50954023 12.94869468 24.50537109 14.39794922 C24.50002252 16.62344178 24.5053166 18.84873251 24.51171875 21.07421875 C24.51105797 22.47916711 24.5097768 23.88411535 24.5078125 25.2890625 C24.50668457 26.57619141 24.50555664 27.86332031 24.50439453 29.18945312 C24.375 32.1328125 24.375 32.1328125 23.375 33.1328125 C21.16849344 33.23293651 18.95877614 33.2636243 16.75 33.265625 C16.08790527 33.26658173 15.42581055 33.26753845 14.74365234 33.26852417 C13.34147039 33.26920576 11.9392853 33.26735292 10.53710938 33.26318359 C8.38404287 33.25783496 6.23118498 33.2631292 4.078125 33.26953125 C2.71874954 33.26887046 1.3593742 33.26758929 0 33.265625 C-1.24523437 33.26449707 -2.49046875 33.26336914 -3.7734375 33.26220703 C-6.625 33.1328125 -6.625 33.1328125 -7.625 32.1328125 C-7.7252093 29.85333458 -7.75581303 27.57074115 -7.7578125 25.2890625 C-7.75876923 24.60477173 -7.75972595 23.92048096 -7.76071167 23.2154541 C-7.7613933 21.76619373 -7.75954023 20.31693032 -7.75537109 18.86767578 C-7.75002252 16.64218322 -7.7553166 14.41689249 -7.76171875 12.19140625 C-7.76105797 10.78645789 -7.7597768 9.38150965 -7.7578125 7.9765625 C-7.75668457 6.68943359 -7.75555664 5.40230469 -7.75439453 4.07617188 C-7.51795619 -1.30213124 -4.77417634 0.00432444 0 0 Z " fill="#FFFFFF" transform="translate(353.625,92.8671875)"/>
<path d="M0 0 C1.02996094 -0.00128906 2.05992187 -0.00257813 3.12109375 -0.00390625 C4.74724609 0.00189453 4.74724609 0.00189453 6.40625 0.0078125 C7.49035156 0.00394531 8.57445312 0.00007812 9.69140625 -0.00390625 C10.72136719 -0.00261719 11.75132812 -0.00132812 12.8125 0 C14.24045898 0.00169189 14.24045898 0.00169189 15.69726562 0.00341797 C17.90625 0.1328125 17.90625 0.1328125 18.90625 1.1328125 C19.00571453 2.90140443 19.03705217 4.67392701 19.0390625 6.4453125 C19.04099609 8.05792969 19.04099609 8.05792969 19.04296875 9.703125 C19.03910156 10.83492187 19.03523438 11.96671875 19.03125 13.1328125 C19.03705078 14.83050781 19.03705078 14.83050781 19.04296875 16.5625 C19.04167969 17.63757813 19.04039062 18.71265625 19.0390625 19.8203125 C19.03793457 20.81417969 19.03680664 21.80804688 19.03564453 22.83203125 C18.90625 25.1328125 18.90625 25.1328125 17.90625 26.1328125 C16.21066274 26.23213403 14.51099253 26.26361257 12.8125 26.265625 C11.78253906 26.26691406 10.75257813 26.26820313 9.69140625 26.26953125 C8.06525391 26.26373047 8.06525391 26.26373047 6.40625 26.2578125 C5.32214844 26.26167969 4.23804688 26.26554687 3.12109375 26.26953125 C2.09113281 26.26824219 1.06117188 26.26695312 0 26.265625 C-0.95197266 26.26449707 -1.90394531 26.26336914 -2.88476562 26.26220703 C-5.09375 26.1328125 -5.09375 26.1328125 -6.09375 25.1328125 C-6.19321453 23.36422057 -6.22455217 21.59169799 -6.2265625 19.8203125 C-6.22785156 18.74523437 -6.22914063 17.67015625 -6.23046875 16.5625 C-6.22466797 14.86480469 -6.22466797 14.86480469 -6.21875 13.1328125 C-6.22261719 12.00101563 -6.22648437 10.86921875 -6.23046875 9.703125 C-6.22917969 8.62804687 -6.22789062 7.55296875 -6.2265625 6.4453125 C-6.22543457 5.45144531 -6.22430664 4.45757812 -6.22314453 3.43359375 C-5.98239595 -0.84718864 -3.75687156 0.00445127 0 0 Z " fill="#FFFFFF" transform="translate(352.09375,162.8671875)"/>
<path d="M0 0 C0.98484375 -0.00128906 1.9696875 -0.00257812 2.984375 -0.00390625 C4.02078125 -0.00003906 5.0571875 0.00382812 6.125 0.0078125 C7.67960937 0.00201172 7.67960937 0.00201172 9.265625 -0.00390625 C10.25046875 -0.00261719 11.2353125 -0.00132813 12.25 0 C13.16007812 0.00112793 14.07015625 0.00225586 15.0078125 0.00341797 C17.125 0.1328125 17.125 0.1328125 18.125 1.1328125 C18.22432153 2.82839976 18.25580007 4.52806997 18.2578125 6.2265625 C18.25974609 7.77150391 18.25974609 7.77150391 18.26171875 9.34765625 C18.25785156 10.43175781 18.25398438 11.51585937 18.25 12.6328125 C18.25580078 14.25896484 18.25580078 14.25896484 18.26171875 15.91796875 C18.26042969 16.94792969 18.25914062 17.97789063 18.2578125 19.0390625 C18.25668457 19.99103516 18.25555664 20.94300781 18.25439453 21.92382812 C18.125 24.1328125 18.125 24.1328125 17.125 25.1328125 C15.50242456 25.2319782 13.87560169 25.26361027 12.25 25.265625 C11.26515625 25.26691406 10.2803125 25.26820312 9.265625 25.26953125 C8.22921875 25.26566406 7.1928125 25.26179688 6.125 25.2578125 C4.57039063 25.26361328 4.57039063 25.26361328 2.984375 25.26953125 C1.99953125 25.26824219 1.0146875 25.26695313 0 25.265625 C-0.91007812 25.26449707 -1.82015625 25.26336914 -2.7578125 25.26220703 C-4.875 25.1328125 -4.875 25.1328125 -5.875 24.1328125 C-5.97432153 22.43722524 -6.00580007 20.73755503 -6.0078125 19.0390625 C-6.00974609 17.49412109 -6.00974609 17.49412109 -6.01171875 15.91796875 C-6.00785156 14.83386719 -6.00398438 13.74976563 -6 12.6328125 C-6.00386719 11.54871094 -6.00773437 10.46460938 -6.01171875 9.34765625 C-6.01042969 8.31769531 -6.00914062 7.28773437 -6.0078125 6.2265625 C-6.00668457 5.27458984 -6.00555664 4.32261719 -6.00439453 3.34179688 C-5.76287019 -0.78143371 -3.6122697 0.00447696 0 0 Z " fill="#FFFFFF" transform="translate(420.875,38.8671875)"/>
<path d="" fill="#FFFFFF" transform="translate(0,0)"/>
<path d="" fill="#FFFFFF" transform="translate(0,0)"/>
<path d="" fill="#FFFFFF" transform="translate(0,0)"/>
<path d="" fill="#FFFFFF" transform="translate(0,0)"/>
</svg>
