<?xml version="1.0" encoding="UTF-8"?>
<svg version="1.1" xmlns="http://www.w3.org/2000/svg" width="512" height="512">
<path d="M0 0 C0.91386475 0.48702393 0.91386475 0.48702393 1.84619141 0.98388672 C10.47063315 5.60798692 18.34005778 10.90757665 26 17 C26.91394531 17.72058594 27.82789063 18.44117188 28.76953125 19.18359375 C38.54718847 27.03089804 48.06319483 35.25937547 56 45 C56.90088093 46.06524012 57.80193888 47.13033055 58.703125 48.1953125 C66.51163945 57.55126539 72.96448995 67.42632165 79 78 C79.40347656 78.69851074 79.80695313 79.39702148 80.22265625 80.11669922 C106.95195352 126.793727 112.15316436 182.27782887 98.7578125 233.8984375 C94.2297979 250.42001639 87.40825871 266.26804541 79.125 281.25 C78.76817139 281.89936523 78.41134277 282.54873047 78.04370117 283.21777344 C76.13707373 286.52684827 74.48009355 289.27980167 71 291 C66.50270562 290.89942153 64.30703114 288.88293825 61.125 285.875 C60.6403125 285.41778564 60.155625 284.96057129 59.65625 284.48950195 C57.75421878 282.6762059 55.87648803 280.83973557 54 279 C53.09604492 278.11650879 52.19208984 277.23301758 51.26074219 276.32275391 C48.68763402 273.80337433 46.12413955 271.27448524 43.56634521 268.73956299 C42.52807654 267.71076144 41.48857924 266.68319823 40.44781494 265.65692139 C38.95973675 264.18682421 37.47897809 262.70971458 36 261.23046875 C35.13375 260.36832764 34.2675 259.50618652 33.375 258.61791992 C27.05914523 251.65606644 27.05914523 251.65606644 26.875 246.5 C27.71322323 241.97530522 29.6909212 237.93429849 31.55737305 233.75439453 C46.06006986 200.78392482 45.5352062 162.46086246 33 129 C27.85486193 116.2741283 21.59489694 104.69950289 13 94 C12.57106445 93.4544043 12.14212891 92.90880859 11.70019531 92.34667969 C-11.65458955 62.79396081 -45.28297816 43.69858325 -82.76098633 39.20068359 C-111.6050759 36.61537756 -140.69363853 41.85800075 -166 56 C-167.04285156 56.55429688 -168.08570313 57.10859375 -169.16015625 57.6796875 C-199.55379395 74.41821261 -222.76170627 104.33707475 -232.625 137.5 C-233.48518356 140.65235792 -234.25431101 143.81895223 -235 147 C-235.17208984 147.65677734 -235.34417969 148.31355469 -235.52148438 148.99023438 C-240.92799581 169.78286531 -240.04086721 195.47492857 -234 216 C-233.76394043 216.81291504 -233.52788086 217.62583008 -233.28466797 218.46337891 C-222.59680539 254.09647844 -198.76940292 284.98105938 -165.95678711 302.93017578 C-153.753152 309.39429564 -141.36676596 313.71975172 -128 317 C-126.50146484 317.37318359 -126.50146484 317.37318359 -124.97265625 317.75390625 C-119.50968641 318.92865014 -114.07166554 319.24766539 -108.5 319.375 C-107.45658447 319.41427612 -107.45658447 319.41427612 -106.39208984 319.4543457 C-104.16135627 319.50722251 -104.16135627 319.50722251 -101 319 C-98.19563685 316.13898469 -97.62704509 314.08286241 -97.64596558 310.13777161 C-97.64328674 309.16082336 -97.64060791 308.18387512 -97.6378479 307.17732239 C-97.65020477 306.11180649 -97.66256165 305.04629059 -97.67529297 303.94848633 C-97.67646118 302.8211911 -97.67762939 301.69389587 -97.67883301 300.53244019 C-97.68603113 296.79878489 -97.7142626 293.06558418 -97.7421875 289.33203125 C-97.75032437 286.73614408 -97.75698738 284.14025191 -97.76223755 281.5443573 C-97.77762584 275.39982792 -97.80564682 269.25548317 -97.84048474 263.11103696 C-97.9059902 251.47524433 -97.94336034 239.839355 -97.97806168 228.2034359 C-97.99198536 224.38743169 -98.01359122 220.57153001 -98.03634644 216.75556946 C-98.04637638 214.40320915 -98.05624219 212.05084812 -98.06591797 209.69848633 C-98.07422638 208.64309158 -98.08253479 207.58769684 -98.09109497 206.50032043 C-98.13658701 191.27317403 -98.13658701 191.27317403 -96 187 C-92.56246003 186.54960283 -91.28104531 186.7958032 -88.43092823 188.86658955 C-87.51486648 189.7490142 -86.59880472 190.63143885 -85.65498352 191.54060364 C-85.13977593 192.03173073 -84.62456833 192.52285782 -84.09374839 193.02886754 C-82.38119987 194.6715092 -80.68937783 196.33355478 -79 198 C-78.42124296 198.56620552 -77.84248592 199.13241104 -77.24619079 199.7157743 C-72.6377186 204.22761334 -68.07716124 208.78651614 -63.52026367 213.3503418 C-62.00298296 214.86626442 -60.48549026 216.3819749 -58.96780396 217.89749146 C-54.8811367 221.97963446 -50.79759709 226.06489236 -46.71478438 230.15089011 C-42.42613254 234.44208974 -38.13502319 238.73083084 -33.84431458 243.01997375 C-26.6464462 250.21602825 -19.45067672 257.4141765 -12.25610352 264.61352539 C-3.95090686 272.92417144 4.35789712 281.23119792 12.66856748 289.53636998 C19.82399591 296.68725486 26.97746686 303.84009353 34.12931651 310.99455768 C38.39228008 315.25907612 42.65590661 319.52292584 46.9213047 323.78500938 C50.92831797 327.7891256 54.93286097 331.7956963 58.93554306 335.804142 C60.40078337 337.27069972 61.86686633 338.73641614 63.33387184 340.20120811 C76.76049568 353.60944507 76.76049568 353.60944507 81.76917648 359.55163765 C83.45384577 361.53405961 85.29068179 363.32326747 87.18359375 365.10546875 C87.88291016 365.77900391 88.58222656 366.45253906 89.30273438 367.14648438 C90.74607006 368.52643478 92.19682694 369.89865818 93.65429688 371.26367188 C94.68973633 372.26817383 94.68973633 372.26817383 95.74609375 373.29296875 C96.37185303 373.8861792 96.9976123 374.47938965 97.64233398 375.09057617 C99.37081152 377.52150996 99.26158812 379.08233463 99 382 C95.49465474 383.16844842 92.33344242 383.1553068 88.6862793 383.16113281 C87.94445404 383.16609772 87.20262878 383.17106262 86.43832397 383.17617798 C83.98361279 383.1907853 81.52896626 383.1975995 79.07421875 383.203125 C77.36652118 383.208878 75.65882363 383.21463572 73.9511261 383.22039795 C70.36918843 383.23090412 66.78727318 383.23674918 63.20532227 383.24023438 C58.62208849 383.24571574 54.0391523 383.26973764 49.45601177 383.29820633 C45.9274866 383.31685814 42.39903272 383.32203968 38.87046242 383.32357025 C37.18121528 383.326592 35.49196926 383.33460438 33.80277061 383.34775543 C31.43558699 383.36486804 29.06912519 383.36292316 26.7019043 383.35644531 C26.00818222 383.3656601 25.31446014 383.37487488 24.59971619 383.3843689 C17.92919139 383.32737436 13.57294144 380.96781026 8.9699707 376.29467773 C8.23933914 375.56059189 7.50870758 374.82650604 6.75593567 374.07017517 C5.60250923 372.88881737 5.60250923 372.88881737 4.42578125 371.68359375 C3.62013229 370.87132828 2.81448334 370.05906281 1.98442078 369.22218323 C-0.58010513 366.63431166 -3.13422898 364.03647252 -5.6875 361.4375 C-8.25320096 358.83672814 -10.82103496 356.23811323 -13.39155579 353.6421051 C-14.98849928 352.0281932 -16.58234687 350.41121087 -18.17277527 348.7908783 C-18.89395035 348.05994461 -19.61512543 347.32901093 -20.3581543 346.57592773 C-20.99069626 345.93211655 -21.62323822 345.28830536 -22.27494812 344.62498474 C-24.71432618 342.32711059 -26.28093112 341.03344506 -29.6875 340.875 C-30.8321875 340.936875 -30.8321875 340.936875 -32 341 C-33.61707608 344.55247422 -34.22961192 347.23111184 -34.125 351.125 C-34.10953125 352.07890625 -34.0940625 353.0328125 -34.078125 354.015625 C-34.05234375 355.00046875 -34.0265625 355.9853125 -34 357 C-33.94874069 358.95810573 -33.90675977 360.91648095 -33.875 362.875 C-33.84019531 364.17050781 -33.84019531 364.17050781 -33.8046875 365.4921875 C-34.03177999 368.40805501 -34.62456644 370.4172808 -36 373 C-42.0008663 377.42048224 -50.42098588 378.36310472 -57.5625 379.6875 C-58.64724609 379.89955078 -59.73199219 380.11160156 -60.84960938 380.33007812 C-69.53852188 382.00244319 -77.94903533 383.15238121 -86.79296875 383.203125 C-87.61284271 383.21018463 -88.43271667 383.21724426 -89.2774353 383.22451782 C-123.56923058 383.45268939 -123.56923058 383.45268939 -139 380 C-139.8981543 379.80664062 -140.79630859 379.61328125 -141.72167969 379.4140625 C-156.47155163 376.15531139 -170.24588293 371.20337083 -184 365 C-184.73299316 364.67273926 -185.46598633 364.34547852 -186.22119141 364.00830078 C-227.61136495 345.26173005 -260.3436762 310.9547803 -281 271 C-281.48460693 270.07767578 -281.48460693 270.07767578 -281.97900391 269.13671875 C-292.2289067 249.41317246 -297.6243952 227.85342298 -301 206 C-301.1119873 205.28666504 -301.22397461 204.57333008 -301.33935547 203.83837891 C-302.38463116 196.03328111 -302.24388142 188.11102793 -302.25 180.25 C-302.25067474 179.47066101 -302.25134949 178.69132202 -302.25204468 177.8883667 C-302.23485178 165.3619754 -301.54715926 153.29706316 -299 141 C-298.83371094 140.15937012 -298.66742188 139.31874023 -298.49609375 138.45263672 C-289.0019152 91.41249835 -262.68156091 48.7055453 -225 19 C-223.59041016 17.83017578 -223.59041016 17.83017578 -222.15234375 16.63671875 C-208.3412791 5.46312193 -192.32304189 -3.08103263 -176 -10 C-174.21916016 -10.76376953 -174.21916016 -10.76376953 -172.40234375 -11.54296875 C-116.75189159 -34.39692951 -52.33160584 -28.28098179 0 0 Z " fill="#FEFEFE" transform="translate(354,77)"/>
<path d="M0 0 C3.16115776 1.36983503 3.9927092 1.9890638 6 5 C4.02 5.33 2.04 5.66 0 6 C0 4.02 0 2.04 0 0 Z " fill="#E7E7E7" transform="translate(320,411)"/>
</svg>
