<?xml version="1.0" encoding="UTF-8"?>
<svg version="1.1" xmlns="http://www.w3.org/2000/svg" width="1087" height="1087">
<path d="M0 0 C0.70608642 -0.00638882 1.41217285 -0.01277764 2.13965583 -0.01936007 C4.49389685 -0.03456074 6.84644149 -0.01418437 9.20062256 0.00622559 C10.89282792 0.002723 12.58502999 -0.00293713 14.27722168 -0.0105896 C18.86385056 -0.02482321 23.44987896 -0.00779286 28.03645039 0.01569557 C32.83480412 0.03580822 37.63313303 0.02992503 42.43151855 0.02758789 C50.48486233 0.02764144 58.53797126 0.04738821 66.59124756 0.07946777 C75.91063291 0.11640954 85.22971123 0.12513625 94.54916024 0.11817026 C103.50972161 0.11187393 112.47017739 0.12260015 121.43071747 0.14213562 C125.24728649 0.15032407 129.06380165 0.15301655 132.88037872 0.15144348 C137.36859037 0.15056704 141.85650842 0.16471524 146.34464264 0.19067001 C147.99505185 0.19785448 149.64549225 0.19990454 151.2959137 0.19655228 C153.5416738 0.19285962 155.78656637 0.20750571 158.03222656 0.22705078 C159.29097721 0.2307795 160.54972786 0.23450821 161.84662247 0.23834991 C162.80874523 0.36477623 163.770868 0.49120255 164.762146 0.62145996 C165.422146 1.61145996 166.082146 2.60145996 166.762146 3.62145996 C167.9687085 4.27114746 167.9687085 4.27114746 169.199646 4.93395996 C172.39735057 7.03976541 173.25723553 9.1601659 174.762146 12.62145996 C175.092146 12.95145996 175.422146 13.28145996 175.762146 13.62145996 C175.8614647 15.16856057 175.89122994 16.72017833 175.89344788 18.27046204 C175.89946014 19.7784008 175.89946014 19.7784008 175.90559387 21.31680298 C175.90506516 22.42901215 175.90453644 23.54122131 175.9039917 24.68713379 C175.90920334 26.43335777 175.90920334 26.43335777 175.91452026 28.21485901 C175.92189351 30.75271434 175.92723049 33.29057619 175.93081093 35.82843971 C175.93671054 39.84124435 175.9532414 43.85398295 175.97215271 47.866745 C175.97849051 49.23945707 175.98481613 50.61216921 175.99112988 51.9848814 C175.99429569 52.67246041 175.9974615 53.36003941 176.00072324 54.06845415 C176.04282872 63.41398768 176.07577213 72.75948051 176.08807373 82.10510254 C176.09645043 88.40411885 176.11892812 94.70291535 176.1574294 101.0018217 C176.17720747 104.33652399 176.18738033 107.67082365 176.18459511 111.00559425 C176.18225211 114.72660192 176.20433466 118.44671536 176.2321167 122.16760254 C176.22551529 123.27373901 176.21891388 124.37987549 176.21211243 125.51953125 C176.22458008 126.53328323 176.23704773 127.54703522 176.24989319 128.59150696 C176.25228154 129.47144223 176.2546699 130.35137751 176.25713062 131.25797749 C176.93816827 134.44524789 178.22950727 135.6253337 180.762146 137.62145996 C184.04280109 138.92656715 187.36709196 138.73956863 190.86613464 138.72825623 C192.11811646 138.72674057 193.37009827 138.72522491 194.66001892 138.72366333 C196.04489173 138.71693481 197.42976416 138.71012672 198.81463623 138.70324707 C200.27507423 138.69969022 201.73551344 138.69660443 203.19595337 138.69395447 C206.339461 138.68740643 209.48294014 138.67784886 212.62643242 138.66605949 C217.59745031 138.6477642 222.5684613 138.63816706 227.539505 138.63014221 C241.67470324 138.60599233 255.80985932 138.57010615 269.94500732 138.5255127 C277.75282424 138.50095757 285.56062466 138.48359995 293.36847454 138.47395331 C298.30961508 138.46741239 303.25061956 138.4518577 308.19171321 138.42963588 C311.26646834 138.41790011 314.34119043 138.41453815 317.41596603 138.41353798 C318.84099213 138.41139174 320.26601786 138.40580428 321.69101524 138.39650726 C323.63769867 138.384299 325.58445305 138.38565674 327.53117371 138.38768005 C328.6201467 138.38453765 329.7091197 138.38139524 330.83109188 138.37815762 C333.86069303 138.6296402 336.00837779 139.37735276 338.762146 140.62145996 C340.0911963 140.89331116 341.42462281 141.14494394 342.762146 141.37145996 C346.24505206 142.2651868 348.62838454 143.47645634 350.80954361 146.49275398 C354.91727556 155.671981 354.0516998 167.57411044 354.02093506 177.42272949 C354.02365403 178.84373146 354.02721998 180.26473202 354.03155518 181.68572998 C354.04057226 185.49967064 354.03718014 189.31350153 354.030797 193.12744379 C354.025683 197.14432191 354.03044311 201.16119152 354.03356934 205.17807007 C354.03719257 211.91751773 354.0324524 218.65692135 354.02288818 225.3963623 C354.01199795 233.15924832 354.01553998 240.9220293 354.02654099 248.6849128 C354.03565036 255.38427469 354.03688165 262.08360518 354.03166366 268.78297126 C354.02856507 272.7693344 354.02807609 276.75564834 354.03473663 280.74200821 C354.04056323 284.48994304 354.03641731 288.23774384 354.02494812 291.98566437 C354.02109292 293.99663617 354.02694091 296.00761946 354.03320312 298.01858521 C353.94110396 318.01923387 353.94110396 318.01923387 348.762146 325.62145996 C340.6975199 333.45566817 331.35909308 333.05022549 320.79656982 332.99035645 C319.28627754 332.99282745 317.77598698 332.99666889 316.26570129 333.00177002 C313.02672908 333.01007711 309.78793288 333.00932707 306.54895973 333.00158501 C301.42631068 332.98996383 296.30388631 333.00219503 291.18125916 333.01820374 C278.46342296 333.05432667 265.74559283 333.06062491 253.02770996 333.05810547 C243.13116154 333.05639455 233.23479758 333.06349229 223.33830088 333.09808403 C218.24653626 333.11487816 213.15522187 333.11308448 208.06345904 333.09726131 C204.89794179 333.09146739 201.73263851 333.10219808 198.56715965 333.11750793 C197.10021442 333.12123585 195.63323331 333.11812113 194.1663208 333.10763741 C192.16292588 333.09427359 190.15940549 333.10780428 188.15602112 333.12266541 C187.03537168 333.12245612 185.91472223 333.12224684 184.76011372 333.12203121 C180.79926773 333.78186499 179.31194546 334.476014 176.762146 337.62145996 C176.01918278 341.19140677 176.0968504 344.70858801 176.14068604 348.34358215 C176.13429721 349.44870358 176.12790839 350.55382501 176.12132597 351.69243497 C176.10602102 355.40913122 176.12657534 359.12477091 176.14691162 362.84143066 C176.14341201 365.50060861 176.13795225 368.15971637 176.13009644 370.81887817 C176.11555759 377.30055023 176.12781696 383.78190943 176.14920968 390.26355187 C176.17320962 397.81212162 176.17150583 405.3606195 176.16890377 412.90921893 C176.16521193 426.38034018 176.18605115 439.85131401 176.22015381 453.3223877 C176.25322643 466.39143604 176.26741561 479.46032959 176.26116943 492.52941895 C176.25440214 506.75883444 176.25687678 520.98818506 176.27652884 535.21759099 C176.27756832 535.97044372 176.27860781 536.72329645 176.27967879 537.49896291 C176.28176969 539.01101195 176.28388066 540.52306096 176.28601196 542.03510994 C176.29290306 547.29525061 176.29357758 552.55537128 176.29212952 557.81551552 C176.29068827 564.22940516 176.3004082 570.64316869 176.32407588 577.05701653 C176.33591981 580.32877915 176.34146565 583.60033106 176.33723831 586.872118 C176.3335274 590.42107559 176.34825884 593.96949166 176.36773682 597.51838684 C176.35974493 599.06537977 176.35974493 599.06537977 176.35159159 600.64362508 C176.40651921 606.43846077 177.0594266 610.47634635 179.762146 615.62145996 C180.22234131 616.51091309 180.68253662 617.40036621 181.15667725 618.31677246 C185.60596225 625.94061619 189.71777609 629.77415261 197.762146 633.62145996 C198.6427771 634.40093994 198.6427771 634.40093994 199.54119873 635.19616699 C202.55785954 637.13210915 204.61176745 636.92216969 208.17230225 636.80114746 C210.02758545 636.73927246 210.02758545 636.73927246 211.92034912 636.67614746 C213.85297607 636.58720215 213.85297607 636.58720215 215.824646 636.49645996 C217.11693115 636.46036621 218.40921631 636.42427246 219.74066162 636.38708496 C226.03011883 636.57293405 226.03011883 636.57293405 231.47869873 634.16491699 C231.90223633 633.65557617 232.32577393 633.14623535 232.762146 632.62145996 C234.1543335 631.97177246 234.1543335 631.97177246 235.574646 631.30895996 C241.21039561 628.32532781 244.68384158 624.16240792 247.762146 618.62145996 C248.422146 617.96145996 249.082146 617.30145996 249.762146 616.62145996 C250.37463269 613.93609164 250.37463269 613.93609164 250.762146 610.87145996 C251.42070599 606.57805723 252.22270589 602.69644847 253.762146 598.62145996 C253.95421631 597.91376465 254.14628662 597.20606934 254.34417725 596.47692871 C255.96329579 590.76740541 257.97869474 587.18225812 262.762146 583.62145996 C270.28201443 579.82118375 277.89894054 580.2039821 286.12664795 580.24914551 C287.67959334 580.24671468 289.23253716 580.24299254 290.78547668 580.23808289 C294.98350198 580.22871398 299.18129252 580.23806339 303.3792994 580.25141501 C307.77678715 580.26276252 312.1742639 580.25861972 316.57176208 580.25666809 C323.94979677 580.25578662 331.3277393 580.26683855 338.70574951 580.28527832 C347.23894989 580.30648292 355.77201571 580.30994663 364.30523711 580.30371636 C372.51826462 580.2980268 380.7312447 580.30366101 388.94426537 580.31488991 C392.43902652 580.31953731 395.9337587 580.32040919 399.42852211 580.31830406 C403.53831832 580.31642366 407.64797706 580.32450583 411.75774193 580.34036446 C413.267449 580.34461412 414.77717 580.34545329 416.28688049 580.34267426 C418.34371372 580.33946179 420.40013372 580.34850984 422.45692444 580.36076355 C423.60891484 580.36281642 424.76090525 580.36486929 425.94780445 580.36698437 C428.762146 580.62145996 428.762146 580.62145996 431.762146 582.62145996 C432.875896 582.91020996 433.989646 583.19895996 435.137146 583.49645996 C439.02742721 584.70378861 441.00871865 585.63202455 443.762146 588.62145996 C447.59966444 599.03758145 445.72740947 611.04481872 445.12738037 621.94616699 C445.05057656 623.39600158 444.98091003 624.84623193 444.918396 626.29675293 C444.56688777 634.41256517 443.93945272 641.72997454 440.64202881 649.28869629 C439.67420364 651.85461458 439.41588899 654.0799537 439.262146 656.80895996 C438.98252543 661.11920874 437.82848266 664.01072018 435.7387085 667.75427246 C434.26728032 670.56764313 433.59499574 673.56767757 432.762146 676.62145996 C431.762146 678.95479329 430.762146 681.28812663 429.762146 683.62145996 C429.473396 684.71458496 429.184646 685.80770996 428.887146 686.93395996 C427.39920486 691.81110036 425.11008697 696.11000842 422.762146 700.62145996 C422.07232694 702.01614868 421.38464078 703.41189551 420.699646 704.80895996 C418.85456875 708.49911444 416.83706034 712.05520093 414.762146 715.62145996 C414.432146 716.22087402 414.102146 716.82028809 413.762146 717.43786621 C411.71441621 721.1413775 409.43160299 724.34922235 406.762146 727.62145996 C406.31226318 728.38845215 405.86238037 729.15544434 405.39886475 729.94567871 C403.67020317 732.77177222 401.7367203 735.24840901 399.637146 737.80895996 C396.9300949 741.04111047 396.9300949 741.04111047 394.762146 744.62145996 C394.102146 744.62145996 393.442146 744.62145996 392.762146 744.62145996 C392.576521 745.30208496 392.390896 745.98270996 392.199646 746.68395996 C390.51193294 750.13276489 388.4235131 752.12510094 385.668396 754.75036621 C383.840512 756.54453923 382.21454982 758.405987 380.574646 760.37145996 C374.20744731 767.74249628 366.74987562 774.41763458 358.8324585 780.08239746 C355.2109795 782.77459128 351.81112962 785.7447561 348.37542725 788.66833496 C345.86811625 790.54225948 343.68027735 791.55619056 340.762146 792.62145996 C340.287771 793.09583496 339.813396 793.57020996 339.324646 794.05895996 C337.13329311 796.25031285 334.52921322 797.26736323 331.762146 798.62145996 C331.102146 799.28145996 330.442146 799.94145996 329.762146 800.62145996 C328.20652234 801.27827884 326.64940154 801.93170141 325.08636475 802.57067871 C322.05887165 803.93941088 319.17732529 805.52800753 316.262146 807.12145996 C311.82130321 809.54049703 307.46094902 811.7615171 302.762146 813.62145996 C301.937146 813.99270996 301.112146 814.36395996 300.262146 814.74645996 C297.762146 815.62145996 297.762146 815.62145996 294.137146 816.05895996 C290.81877834 816.25483493 290.81877834 816.25483493 289.418396 818.09411621 C287.06836529 820.26124358 285.02611709 820.24572277 281.887146 820.62145996 C278.46494796 821.03315296 276.18539276 821.36595155 273.21917725 823.15661621 C270.36030297 824.86103251 268.62493508 824.98114455 265.324646 825.05895996 C260.63921909 825.30519494 256.69259023 826.16026339 252.24285889 827.62341309 C244.88592583 829.78763326 238.14078128 830.20331349 230.50823975 830.15270996 C229.20492203 830.15653687 227.90160431 830.16036377 226.55879211 830.16430664 C223.82502853 830.17014079 221.09179435 830.16183843 218.35809326 830.14294434 C214.89320785 830.1201343 211.42956118 830.1333281 207.96472073 830.15723419 C204.60413359 830.17534349 201.24386178 830.16258493 197.88323975 830.15270996 C196.65995468 830.16080688 195.43666962 830.16890381 194.17631531 830.17724609 C186.81358527 830.09824488 180.66062758 829.01336608 173.71980286 826.52661133 C170.58637629 825.56766799 167.77775529 825.27129298 164.512146 825.12145996 C159.55980439 824.86665611 156.10904872 823.68190001 151.715271 821.46130371 C149.63801202 820.41571634 149.63801202 820.41571634 146.637146 820.62145996 C143.19773358 820.62145996 141.41095332 819.36979637 138.55511475 817.56677246 C135.78393904 816.10571686 132.84144271 816.02062805 129.762146 815.62145996 C127.262146 814.24645996 127.262146 814.24645996 124.762146 812.62145996 C123.586521 812.12645996 122.410896 811.63145996 121.199646 811.12145996 C117.762146 809.62145996 117.762146 809.62145996 115.699646 808.05895996 C113.77122894 806.45900014 113.77122894 806.45900014 111.074646 805.80895996 C107.24682851 804.4367235 104.39289634 802.44235793 101.0668335 800.14099121 C98.32453558 798.33293377 95.49450479 796.90665934 92.53948975 795.48474121 C88.15818154 793.35667722 84.55024054 790.65193559 80.762146 787.62145996 C80.01577881 787.19349121 79.26941162 786.76552246 78.50042725 786.32458496 C75.22571872 784.28781903 72.35999897 781.88455662 69.449646 779.37145996 C68.87859131 778.88274414 68.30753662 778.39402832 67.71917725 777.89050293 C66.06351242 776.47129476 64.41240677 775.04694473 62.762146 773.62145996 C61.95390381 772.92794434 61.14566162 772.23442871 60.31292725 771.51989746 C46.80025941 759.83465709 34.52073748 746.37558077 24.6762085 731.46130371 C22.7817797 728.52561846 22.7817797 728.52561846 20.262146 725.74645996 C17.93495495 723.01024745 16.45442364 720.20541232 14.934021 716.96520996 C12.96667602 713.03052 10.63081893 709.30918789 8.3480835 705.55114746 C6.7656203 702.62787801 5.80482663 699.76732548 4.762146 696.62145996 C4.102146 695.96145996 3.442146 695.30145996 2.762146 694.62145996 C2.452771 693.52833496 2.143396 692.43520996 1.824646 691.30895996 C0.96528113 687.70780656 0.96528113 687.70780656 -0.737854 685.18395996 C-2.4136035 682.32122124 -2.99043003 679.79840746 -3.70269775 676.59020996 C-4.22362932 674.38654701 -4.22362932 674.38654701 -5.800354 671.68395996 C-7.42855393 668.21518621 -7.67465544 665.45862531 -7.831604 661.67224121 C-8.33820674 659.11487164 -9.39602967 658.40220338 -11.237854 656.62145996 C-12.8696789 652.38257754 -12.57855184 647.5215127 -12.75543213 643.02185059 C-12.94613698 639.39845846 -13.17577308 637.71458135 -15.237854 634.62145996 C-18.28014729 625.33338308 -17.61468817 615.06234377 -17.69415283 605.39758301 C-17.71573787 603.19187711 -17.75510152 600.98702702 -17.79644775 598.78161621 C-17.81662964 596.82687378 -17.81662964 596.82687378 -17.83721924 594.8326416 C-17.97022821 591.66873757 -17.97022821 591.66873757 -19.61920166 589.7130127 C-21.77016711 588.26248984 -23.61647936 587.99086141 -26.175354 587.62145996 C-30.10665009 587.05222252 -32.15340365 586.10037405 -35.237854 583.62145996 C-37.5691033 582.61661113 -39.90228938 581.61623749 -42.237854 580.62145996 C-42.897854 579.96145996 -43.557854 579.30145996 -44.237854 578.62145996 C-46.16844865 577.92245155 -48.09917383 577.22379966 -50.03082275 576.52770996 C-54.5592958 574.66823076 -58.49223401 571.80205815 -62.53082275 569.07067871 C-67.24103465 565.88350072 -67.24103465 565.88350072 -72.237854 563.18395996 C-76.67451434 560.87319937 -80.35922935 557.76012443 -84.237854 554.62145996 C-85.03836182 553.99626465 -85.83886963 553.37106934 -86.66363525 552.72692871 C-103.09311534 539.68805453 -117.54491163 525.05163614 -129.581604 507.86364746 C-131.12254561 505.65257226 -131.12254561 505.65257226 -132.80426025 504.09020996 C-134.54680058 502.30493704 -135.52513231 500.45639411 -136.675354 498.24645996 C-138.57505623 494.71026727 -140.71784721 491.74974425 -143.237854 488.62145996 C-143.90984979 486.95693484 -144.57578929 485.28996005 -145.237854 483.62145996 C-146.17261981 481.85875872 -147.13226368 480.10908633 -148.112854 478.37145996 C-150.77402461 473.55415843 -153.0991986 468.68872458 -155.237854 463.62145996 C-155.753479 462.42520996 -156.269104 461.22895996 -156.800354 459.99645996 C-157.274729 458.88270996 -157.749104 457.76895996 -158.237854 456.62145996 C-158.732854 455.54895996 -159.227854 454.47645996 -159.737854 453.37145996 C-161.45054179 449.4376302 -162.40435703 445.3374264 -163.394104 441.17224121 C-164.07617642 438.58704793 -164.07617642 438.58704793 -165.769104 436.78552246 C-167.89879517 433.64762643 -167.94247872 430.36608143 -168.237854 426.68395996 C-168.58392555 421.23708497 -168.58392555 421.23708497 -170.73565674 416.3067627 C-172.58851608 412.99462229 -172.72215015 410.58931226 -172.89801025 406.80895996 C-172.93341415 406.15878906 -172.96881805 405.50861816 -173.0052948 404.83874512 C-173.11644367 402.76673316 -173.20964518 400.69445894 -173.300354 398.62145996 C-173.42846972 395.91263545 -173.56574404 393.20444449 -173.71051025 390.49645996 C-173.76182602 389.49908813 -173.76182602 389.49908813 -173.81417847 388.48156738 C-174.06642056 384.13183995 -174.61993879 379.91303926 -175.35894775 375.62145996 C-176.20837364 370.53588012 -176.1823575 366.67670024 -175.237854 361.62145996 C-174.89853121 358.9970102 -174.56267721 356.37269011 -174.237854 353.74645996 C-174.10322754 352.66268066 -174.10322754 352.66268066 -173.96588135 351.55700684 C-173.41290886 346.85421342 -173.1085399 342.1921882 -172.94488525 337.46081543 C-172.71557573 330.92139912 -172.34064207 325.46655815 -169.144104 319.62145996 C-168.05772725 317.22393884 -167.89763577 315.24188098 -167.737854 312.62145996 C-167.44679958 308.13090597 -166.23901472 304.91475293 -164.2769165 300.89880371 C-163.19307752 298.52332204 -162.4506118 296.19427726 -161.737854 293.68395996 C-159.69890718 286.56980855 -157.15158407 279.91746051 -153.237854 273.62145996 C-152.5272956 271.94195827 -151.81737419 270.26216555 -151.11676025 268.57849121 C-148.91012004 263.66503901 -146.1806568 259.02137927 -143.175354 254.55895996 C-141.65978551 252.26116256 -140.55919845 250.22073916 -139.425354 247.74645996 C-137.51583721 243.77587742 -134.96557394 240.83553009 -131.92144775 237.67614746 C-130.09236728 235.60716329 -130.09236728 235.60716329 -128.84332275 232.73864746 C-127.01781732 229.19423546 -124.85374234 226.76071547 -122.112854 223.87145996 C-121.11883329 222.81466762 -120.12535077 221.75736883 -119.13238525 220.69958496 C-118.39496094 219.91937988 -118.39496094 219.91937988 -117.64263916 219.12341309 C-115.65148384 216.994531 -113.72872484 214.80718193 -111.800354 212.62145996 C-104.7809155 204.82208385 -97.58684967 196.91720743 -88.97613525 190.85583496 C-87.24845471 189.62898765 -85.65567018 188.3157511 -84.050354 186.93395996 C-81.51606518 184.85021137 -79.0441011 183.29851672 -76.237854 181.62145996 C-74.64566126 180.50903391 -73.06244465 179.38366432 -71.487854 178.24645996 C-67.53575707 175.45293907 -63.52507811 173.02405356 -59.2612915 170.74255371 C-57.00573728 169.53300825 -57.00573728 169.53300825 -54.112854 167.49645996 C-50.92488258 165.41734816 -47.76236309 164.05515857 -44.237854 162.62145996 C-42.7356616 161.95974821 -41.23574917 161.29284251 -39.737854 160.62145996 C-29.34391461 155.99014683 -29.34391461 155.99014683 -25.612854 154.74645996 C-22.30872643 153.1813469 -20.49542197 151.50613014 -18.237854 148.62145996 C-16.95802243 141.80470797 -17.12876889 134.98898824 -17.18780518 128.07434082 C-17.19722389 126.21676903 -17.19722389 126.21676903 -17.20683289 124.32167053 C-17.22064381 121.64257884 -17.23621178 118.96355789 -17.25438499 116.28449821 C-17.28238231 112.04353325 -17.29927751 107.80256844 -17.31385803 103.5615387 C-17.3190008 102.10547919 -17.32415743 100.64941974 -17.32932758 99.19336033 C-17.33191314 98.46460512 -17.3344987 97.73584992 -17.33716261 96.98501122 C-17.37312753 87.12244599 -17.41866793 77.25999434 -17.48468018 67.39758301 C-17.52922768 60.72871285 -17.55944694 54.05994108 -17.57353765 47.390935 C-17.5815921 43.86782625 -17.59702455 40.34509537 -17.63020897 36.82212639 C-17.66714752 32.89444313 -17.67283969 28.96704728 -17.67608643 25.03918457 C-17.69203857 23.88002533 -17.70799072 22.72086609 -17.72442627 21.52658081 C-17.69970648 14.97036954 -17.29402288 10.86769639 -13.237854 5.62145996 C-8.78686547 1.24221051 -6.43649847 -0.00363899 0 0 Z M19.762146 40.62145996 C18.48664078 44.44797562 18.61465701 48.04950766 18.61688232 52.03674316 C18.61352371 52.89561127 18.6101651 53.75447937 18.60670471 54.63937378 C18.59719236 57.48367757 18.59525134 60.32792249 18.59417725 63.17224121 C18.59096447 65.14898198 18.58760038 67.12572251 18.58409119 69.10246277 C18.57809893 73.24934439 18.57625135 77.39620517 18.57684326 81.54309082 C18.5769448 86.85265947 18.56330174 92.16209414 18.54607105 97.47163105 C18.5349423 101.55603141 18.53292434 105.64039949 18.53345299 109.72481346 C18.53227384 111.68199309 18.52785573 113.63917357 18.52012062 115.59633827 C18.51030477 118.33698473 18.5132053 121.07734187 18.51922607 123.81799316 C18.51360657 124.6239241 18.50798706 125.42985504 18.50219727 126.26020813 C18.53135668 131.49336096 18.73529761 136.47478532 22.50897217 140.47155762 C25.41483878 141.9545603 27.55461828 142.00955128 30.81292725 142.01989746 C31.98661865 142.02376465 33.16031006 142.02763184 34.36956787 142.03161621 C35.59224365 142.02001465 36.81491943 142.00841309 38.074646 141.99645996 C39.89125732 142.0138623 39.89125732 142.0138623 41.74456787 142.03161621 C48.11452605 142.01069681 53.23198627 141.94423576 58.762146 138.62145996 C61.39200648 134.67666924 61.04996397 131.29377168 61.0368042 126.7154541 C61.04191513 125.80460556 61.04702606 124.89375702 61.05229187 123.95530701 C61.06621231 120.93901023 61.06522926 117.92294132 61.06292725 114.90661621 C61.06681281 112.81298233 61.07114719 110.71934923 61.07591248 108.62571716 C61.08337995 104.23503058 61.08307956 99.8444244 61.07781982 95.45373535 C61.07202436 89.82329023 61.08895562 84.19317397 61.1121645 78.56278324 C61.12688638 74.23825654 61.12777564 69.91380933 61.12465477 65.58926201 C61.12516875 63.51320176 61.13042091 61.43713716 61.14046669 59.36110115 C61.15278379 56.4594693 61.14606777 53.55848166 61.13446045 50.65686035 C61.14210419 49.79698517 61.14974792 48.93710999 61.15762329 48.05117798 C61.12651632 44.53841299 61.09137678 42.23630468 59.41342163 39.10269165 C54.51573858 34.7093589 44.38731064 36.35819867 38.199646 36.30895996 C36.9808374 36.27995605 35.76202881 36.25095215 34.50628662 36.22106934 C33.33130615 36.21269043 32.15632568 36.20431152 30.94573975 36.19567871 C29.87895996 36.18109619 28.81218018 36.16651367 27.71307373 36.15148926 C24.02734268 36.73848622 22.38759784 38.0142711 19.762146 40.62145996 Z M99.762146 39.62145996 C97.17661859 43.49975107 97.46671918 46.7372686 97.47161865 51.23620605 C97.46490143 52.11618759 97.4581842 52.99616913 97.45126343 53.90281677 C97.43223858 56.81690084 97.42835693 59.73075513 97.4262085 62.64489746 C97.41978354 64.66887508 97.41305541 66.69285175 97.40603638 68.71682739 C97.39405228 72.96207838 97.3903567 77.20724793 97.39154053 81.45251465 C97.39174375 86.89237831 97.36444346 92.33171971 97.32999611 97.77145958 C97.30775805 101.95277301 97.30370204 106.13396017 97.30475998 110.31532669 C97.30239928 112.32079493 97.29354947 114.3262664 97.27809525 116.33167648 C97.25849855 119.13746444 97.26424849 121.94211858 97.27630615 124.7479248 C97.26506714 125.5761525 97.25382812 126.40438019 97.24224854 127.25770569 C97.28586577 131.25198164 97.47497122 133.16991996 99.67295837 136.62593079 C104.4179791 141.15823186 111.39141226 139.80526848 117.574646 139.80895996 C119.17662842 139.8273291 119.17662842 139.8273291 120.81097412 139.84606934 C129.00477525 139.89560072 129.00477525 139.89560072 136.762146 137.62145996 C140.31709942 133.25837664 140.19581279 129.23776631 140.16619873 123.87145996 C140.17649361 122.56567993 140.17649361 122.56567993 140.18699646 121.23352051 C140.20526323 118.36266667 140.20142754 115.49235931 140.19573975 112.62145996 C140.20030123 110.62276024 140.2056067 108.62406208 140.21162415 106.62536621 C140.22055473 102.43910342 140.21813223 98.25303141 140.20819092 94.06677246 C140.19669456 88.7031618 140.21692336 83.34020883 140.24610806 77.97668457 C140.26445559 73.8502586 140.26418059 69.72399071 140.25847054 65.59753418 C140.25831718 63.61998572 140.26437323 61.64242665 140.27676201 59.66491699 C140.29164481 56.9000115 140.28101545 54.13632731 140.26385498 51.37145996 C140.27835693 50.14785767 140.27835693 50.14785767 140.29315186 48.89953613 C140.24231327 44.98655274 140.02415125 43.04552865 137.91828918 39.63708496 C132.89583469 34.94194927 125.34373704 36.39731218 118.887146 36.37145996 C117.60710693 36.35083496 116.32706787 36.33020996 115.00823975 36.30895996 C113.77460693 36.30380371 112.54097412 36.29864746 111.2699585 36.29333496 C109.57830566 36.27931641 109.57830566 36.27931641 107.85247803 36.26501465 C104.37267046 36.66638288 102.54674521 37.52887319 99.762146 39.62145996 Z M30.762146 176.62145996 C28.0055542 177.09802246 28.0055542 177.09802246 25.56292725 177.24645996 C24.21424561 177.34700684 24.21424561 177.34700684 22.83831787 177.44958496 C20.98419621 177.56489429 19.1300287 177.67946856 17.27581787 177.79333496 C12.20437055 178.17305456 9.05636299 178.73097647 4.762146 181.62145996 C1.8949585 182.21130371 1.8949585 182.21130371 -1.112854 182.55895996 C-6.49238183 183.3425142 -9.67810985 184.76044402 -14.237854 187.62145996 C-16.56969008 188.29334493 -18.90286542 188.96061414 -21.237854 189.62145996 C-22.59121296 190.59418671 -23.92448005 191.59538656 -25.237854 192.62145996 C-28.23554778 193.97336108 -31.25462092 195.2255646 -34.30426025 196.45349121 C-45.81813526 201.29385011 -55.52724575 208.91114204 -65.237854 216.62145996 C-66.76926025 217.82415527 -66.76926025 217.82415527 -68.331604 219.05114746 C-73.21495713 222.94995358 -77.38414942 226.71674504 -81.237854 231.62145996 C-82.56686465 232.62719774 -83.89859201 233.62941404 -85.237854 234.62145996 C-85.237854 235.28145996 -85.237854 235.94145996 -85.237854 236.62145996 C-85.83211182 236.87153809 -86.42636963 237.12161621 -87.03863525 237.37927246 C-89.55507053 238.80063377 -90.70879388 240.1822826 -92.425354 242.49645996 C-93.023479 243.29438965 -93.621604 244.09231934 -94.237854 244.91442871 C-94.897854 245.80774902 -95.557854 246.70106934 -96.237854 247.62145996 C-97.000979 248.62821777 -97.764104 249.63497559 -98.550354 250.67224121 C-108.39215109 263.67053571 -117.24804794 277.39023884 -123.237854 292.62145996 C-124.237854 294.95479329 -125.237854 297.28812663 -126.237854 299.62145996 C-126.91917851 301.28218846 -127.58527527 302.94922696 -128.237854 304.62145996 C-128.48664307 305.2286084 -128.73543213 305.83575684 -128.99176025 306.46130371 C-130.30783973 309.77375495 -131.23868747 312.6273984 -131.737854 316.18395996 C-132.31751797 320.16914974 -133.5549785 322.9752297 -135.237854 326.62145996 C-136.71571793 331.05505173 -136.62703609 335.52804568 -136.85894775 340.17614746 C-137.237854 343.62145996 -137.237854 343.62145996 -138.24493408 345.67907715 C-139.74772239 350.1323854 -139.52275955 354.47627222 -139.503479 359.14489746 C-139.50539246 360.16443512 -139.50730591 361.18397278 -139.50927734 362.23440552 C-139.51063628 364.38784024 -139.50696023 366.54128324 -139.49859619 368.69470215 C-139.48791482 371.97776881 -139.49849017 375.26028553 -139.5112915 378.54333496 C-139.50996943 380.63969033 -139.50740603 382.73604535 -139.503479 384.83239746 C-139.50752747 385.80865082 -139.51157593 386.78490417 -139.51574707 387.79074097 C-139.47918773 393.15088961 -138.93690713 397.53960736 -137.237854 402.62145996 C-137.03906701 404.40802665 -136.88931474 406.20107065 -136.800354 407.99645996 C-136.43144278 412.85267316 -135.88682283 419.97249114 -132.237854 423.62145996 C-131.44561929 427.20236086 -130.75376784 430.79872015 -130.05426025 434.39880371 C-129.51387988 437.68663753 -129.51387988 437.68663753 -127.237854 439.62145996 C-126.76923237 441.29510865 -126.30329301 442.96958462 -125.8550415 444.64880371 C-125.00177737 447.3760087 -123.75350178 449.80029367 -122.4331665 452.32849121 C-121.02619536 455.02748487 -119.70017033 457.76231324 -118.362854 460.49645996 C-115.58915679 466.05087641 -112.5025321 471.34493542 -109.237854 476.62145996 C-108.76476807 477.44001465 -108.29168213 478.25856934 -107.80426025 479.10192871 C-106.15921901 481.74794268 -104.33932977 484.08931244 -102.362854 486.49645996 C-99.98960492 489.41105236 -97.7131419 492.3176237 -95.612854 495.43395996 C-93.53465972 498.22311544 -91.5434967 500.13835755 -88.81988525 502.26208496 C-87.02003738 503.80862091 -85.57434696 505.49035262 -84.050354 507.30895996 C-79.56276402 512.57095707 -74.41037199 517.04865421 -69.237854 521.62145996 C-68.53402588 522.26341309 -67.83019775 522.90536621 -67.1050415 523.56677246 C-58.60895516 531.23732815 -49.18270026 537.25422163 -38.92926025 542.28161621 C-37.13063299 543.17701411 -35.34638748 544.10188318 -33.57769775 545.05505371 C-27.27724952 548.54013316 -27.27724952 548.54013316 -20.237854 548.62145996 C-18.45277507 547.65972825 -18.45277507 547.65972825 -17.237854 545.62145996 C-16.87832376 542.77469386 -16.69832948 540.15080071 -16.66363525 537.29724121 C-16.64890671 536.47700974 -16.63417816 535.65677826 -16.6190033 534.81169128 C-16.59505091 533.07430329 -16.57963074 531.33677987 -16.57208252 529.59924316 C-16.55055869 526.95906697 -16.47045529 524.32480116 -16.38824463 521.68591309 C-16.07518956 512.90002754 -16.07518956 512.90002754 -18.86529541 504.7845459 C-20.87306328 502.73720435 -22.83909489 501.18257471 -25.237854 499.62145996 C-26.24332275 498.80935059 -27.2487915 497.99724121 -28.284729 497.16052246 C-29.17676025 496.52888184 -30.0687915 495.89724121 -30.987854 495.24645996 C-32.34136963 494.2757959 -32.34136963 494.2757959 -33.722229 493.28552246 C-36.13771259 491.6093103 -36.13771259 491.6093103 -38.5112915 490.51208496 C-40.237854 489.62145996 -40.237854 489.62145996 -41.112854 487.74645996 C-42.74593165 484.66175774 -45.35006929 483.50736018 -48.237854 481.62145996 C-49.26108836 480.30587293 -50.26912368 478.97768241 -51.237854 477.62145996 C-51.897854 477.62145996 -52.557854 477.62145996 -53.237854 477.62145996 C-53.237854 476.96145996 -53.237854 476.30145996 -53.237854 475.62145996 C-54.88826166 473.93869137 -56.55838977 472.27523003 -58.237854 470.62145996 C-59.92494932 468.55737504 -61.5669737 466.49401786 -63.175354 464.37145996 C-63.6092041 463.8022583 -64.0430542 463.23305664 -64.49005127 462.64660645 C-69.33897015 456.23649288 -73.68866737 449.84691408 -77.237854 442.62145996 C-77.980354 441.18866699 -77.980354 441.18866699 -78.737854 439.72692871 C-81.47846106 434.39559155 -83.92273993 429.22541033 -85.597229 423.46130371 C-86.25534747 421.32411775 -86.25534747 421.32411775 -88.237854 418.62145996 C-88.81338882 415.66704789 -89.18813127 412.71108359 -89.57769775 409.72692871 C-90.04893428 406.60995663 -90.04893428 406.60995663 -91.75201416 404.26452637 C-94.03220321 398.67382951 -93.68545936 393.20848933 -93.67144775 387.22692871 C-93.67668961 385.92500076 -93.68193146 384.62307281 -93.68733215 383.2816925 C-93.69624328 380.53051027 -93.69386493 377.77961859 -93.68389893 375.02844238 C-93.6724364 371.52486499 -93.69258735 368.02229963 -93.72181606 364.51885509 C-93.74472059 361.15066207 -93.73770436 357.78269745 -93.73394775 354.41442871 C-93.74518173 353.16727585 -93.75641571 351.92012299 -93.76799011 350.63517761 C-93.71658737 344.16281855 -93.22108693 339.16138875 -90.16941833 333.39445496 C-88.95084361 331.07520891 -88.5048789 328.82381514 -88.112854 326.24645996 C-87.58677778 322.86454141 -87.2076954 321.57622205 -85.237854 318.62145996 C-85.114104 317.50770996 -84.990354 316.39395996 -84.862854 315.24645996 C-84.15427095 311.13667826 -82.88126723 309.74549378 -80.237854 306.62145996 C-79.54527172 304.63028588 -78.88037765 302.62934636 -78.237854 300.62145996 C-77.55543195 299.35712763 -76.84601259 298.10706289 -76.112854 296.87145996 C-74.07127985 293.95807856 -74.07127985 293.95807856 -74.237854 291.62145996 C-73.577854 291.62145996 -72.917854 291.62145996 -72.237854 291.62145996 C-71.14830142 289.89205932 -70.14305132 288.10938027 -69.175354 286.30895996 C-56.93032827 264.85507265 -37.66815729 249.37293451 -16.22613525 237.80505371 C-14.1054841 236.65302649 -14.1054841 236.65302649 -12.237854 234.62145996 C-11.124104 234.31208496 -10.010354 234.00270996 -8.862854 233.68395996 C-5.32805977 232.89008248 -5.32805977 232.89008248 -3.237854 231.05895996 C-1.237854 229.62145996 -1.237854 229.62145996 2.137146 229.18395996 C5.83226738 228.88758181 5.83226738 228.88758181 8.574646 226.62145996 C12.37755327 224.23532206 15.08796123 224.07081296 19.49261475 223.89489746 C22.04175324 223.76091476 22.04175324 223.76091476 24.762146 221.62145996 C28.13975975 220.74370978 31.30271088 220.49537453 34.78313446 220.4911747 C35.77580716 220.48755035 36.76847985 220.483926 37.79123354 220.48019183 C39.41597888 220.48179421 39.41597888 220.48179421 41.07354736 220.48342896 C42.80813178 220.47919704 42.80813178 220.47919704 44.57775831 220.47487962 C47.78346215 220.46798877 50.98913491 220.46550796 54.19484496 220.46482849 C57.653651 220.46298631 61.11244458 220.45537817 64.57124329 220.448349 C70.56363265 220.43683089 76.55601921 220.42858276 82.54841614 220.42222977 C92.0184006 220.41189953 101.48835004 220.39133583 110.95831299 220.36911011 C114.19855488 220.36163078 117.43879692 220.35421702 120.679039 220.34682274 C121.48876279 220.34497217 122.29848657 220.34312161 123.13274744 220.34121496 C132.34693809 220.32029392 141.5611326 220.30146169 150.77532959 220.28356934 C151.61753451 220.28193115 152.45973943 220.28029297 153.32746571 220.27860515 C166.98430137 220.25230392 180.64113974 220.2336684 194.29799002 220.21697743 C208.31826818 220.19956538 222.33849319 220.17073169 236.35872889 220.13208807 C245.00761779 220.1086764 253.65642005 220.09469245 262.30534089 220.09276043 C268.22968759 220.09065331 274.15394803 220.07774312 280.07825601 220.0562811 C283.4976105 220.04423791 286.91679369 220.03711015 290.33616829 220.04299355 C294.04121616 220.04686955 297.74575415 220.03249363 301.45074463 220.01345825 C303.07548997 220.0217528 303.07548997 220.0217528 304.73305845 220.03021491 C311.76779183 220.04415404 311.76779183 220.04415404 317.762146 216.62145996 C319.32897089 213.48781017 318.96716944 210.13412589 319.00042725 206.69177246 C319.00849899 205.90503143 319.01657074 205.11829041 319.02488708 204.30770874 C319.03872504 202.64164432 319.04944849 200.97555158 319.05731201 199.30944824 C319.07453301 196.76316596 319.11842017 194.21817959 319.16253662 191.67224121 C319.17266301 190.05376118 319.18117929 188.43527011 319.18792725 186.81677246 C319.21418938 185.67596725 319.21418938 185.67596725 319.24098206 184.51211548 C319.22728342 181.16893986 319.01020131 179.00385158 317.17303467 176.17175293 C311.42469482 172.47535212 303.36007575 173.47541747 296.76191711 173.48101807 C295.66310508 173.47804694 294.56429305 173.47507582 293.43218368 173.47201467 C289.75513537 173.46335216 286.07811971 173.46182151 282.40106201 173.46032715 C279.76279549 173.45569737 277.12453189 173.45069285 274.48626709 173.44528198 C267.32315145 173.43173174 260.16004143 173.4256797 252.9969151 173.42127132 C248.52212675 173.41850447 244.04734054 173.41426642 239.57255363 173.40976715 C227.1757003 173.39758102 214.77884867 173.38727898 202.38198948 173.38389206 C201.58946039 173.38367249 200.79693131 173.38345293 199.98038619 173.38322671 C199.18600556 173.38300843 198.39162493 173.38279015 197.57317215 173.38256526 C195.96355601 173.3821218 194.35393987 173.38167524 192.74432373 173.38122559 C191.54669616 173.38089344 191.54669616 173.38089344 190.3248741 173.38055459 C177.38147843 173.37660471 164.43813899 173.35914197 151.49476505 173.33586606 C138.19651664 173.31214543 124.89829645 173.29968996 111.60002655 173.29852414 C104.13723078 173.29760802 96.67450839 173.29187112 89.21173286 173.27370453 C82.85909186 173.25829424 76.50654694 173.25318871 70.1538908 173.26144263 C66.91436669 173.26534529 63.67507619 173.26280112 60.43556786 173.25038528 C56.91999811 173.23770138 53.4049247 173.2435237 49.88935852 173.25396729 C48.36147724 173.24188268 48.36147724 173.24188268 46.80272967 173.22955394 C40.72968186 173.27174089 36.3355251 174.20602791 30.762146 176.62145996 Z M41.762146 254.62145996 C39.340271 254.96862793 39.340271 254.96862793 37.012146 255.11364746 C35.72823975 255.21226074 35.72823975 255.21226074 34.418396 255.31286621 C32.648083 255.43522608 30.87721578 255.54981605 29.105896 255.65661621 C23.50865689 256.10338379 20.35086682 257.15749326 15.762146 260.62145996 C14.586521 260.78645996 13.410896 260.95145996 12.199646 261.12145996 C8.17952956 261.70620417 6.77805767 263.00237877 3.762146 265.62145996 C2.10218439 266.30465077 0.43472672 266.96977295 -1.237854 267.62145996 C-11.74199228 273.01006469 -21.1800008 280.66244302 -28.6675415 289.77770996 C-30.23126329 291.61372161 -31.89746897 293.18255392 -33.675354 294.80895996 C-40.62468443 301.64897508 -45.13414189 310.94534772 -49.2300415 319.69567871 C-50.237854 321.62145996 -50.237854 321.62145996 -52.237854 323.62145996 C-52.82210744 326.10561901 -53.19003058 328.59192893 -53.57769775 331.11364746 C-54.237854 333.62145996 -54.237854 333.62145996 -55.737854 335.36364746 C-58.09545316 338.91232536 -57.99461348 342.69407893 -58.300354 346.87145996 C-58.78812851 353.02417991 -59.6756815 358.64953278 -61.237854 364.62145996 C-62.33406429 371.60258861 -62.76363151 377.34575466 -60.0581665 383.91442871 C-58.89078157 387.76679899 -58.65207254 391.62303942 -58.300354 395.62145996 C-57.67639106 402.36424099 -56.46930113 407.61445452 -53.237854 413.62145996 C-52.887229 414.69395996 -52.536604 415.76645996 -52.175354 416.87145996 C-51.18687472 419.7709992 -49.85814241 422.02899851 -48.237854 424.62145996 C-47.6500415 425.95177246 -47.6500415 425.95177246 -47.050354 427.30895996 C-43.91982338 433.03027456 -39.7038914 438.17326009 -35.07769775 442.76599121 C-33.237854 444.62145996 -33.237854 444.62145996 -31.737854 447.18395996 C-30.08887653 449.86354836 -29.01960265 451.15331484 -26.237854 452.62145996 C-22.65385994 453.0383885 -22.65385994 453.0383885 -19.237854 452.62145996 C-16.63995347 450.02355942 -16.9908083 448.22599219 -16.95887756 444.68650818 C-16.96143051 443.85534988 -16.96398346 443.02419159 -16.96661377 442.16784668 C-16.96138702 441.29283005 -16.95616028 440.41781342 -16.95077515 439.51628113 C-16.94051585 437.61143671 -16.93475139 435.7065641 -16.93289375 433.80169296 C-16.92923847 430.78315857 -16.91253241 427.76495524 -16.89213562 424.74649048 C-16.83665949 416.16255871 -16.80610555 407.57857672 -16.78155518 398.99450684 C-16.76563994 393.74660836 -16.73537177 388.49894162 -16.6967907 383.25116348 C-16.68516763 381.2538004 -16.67921058 379.25639577 -16.67910957 377.25899887 C-16.67891655 374.45623519 -16.6605772 371.65410522 -16.63848877 368.85144043 C-16.64306595 368.03242752 -16.64764313 367.21341461 -16.65235901 366.36958313 C-16.58770073 361.18372555 -16.12810495 354.51171091 -12.237854 350.62145996 C-11.74306775 348.11154425 -11.33818789 345.5926331 -10.9331665 343.06677246 C-10.237854 340.62145996 -10.237854 340.62145996 -8.7925415 339.23864746 C-6.94346493 337.5786108 -6.94346493 337.5786108 -6.3862915 334.36364746 C-5.00146563 329.85118765 -2.95197146 327.22844427 0.137146 323.74645996 C0.66517822 323.14148682 1.19321045 322.53651367 1.73724365 321.91320801 C9.3179912 313.48330008 18.39098337 306.38533862 29.387146 303.12145996 C32.75131145 302.05436241 34.95052006 300.75441757 37.762146 298.62145996 C43.36506801 297.2866712 49.02214925 297.48342739 54.7449646 297.49688721 C56.40838506 297.49477198 56.40838506 297.49477198 58.10540998 297.49261403 C61.82254437 297.48896304 65.53964057 297.49229667 69.2567749 297.4954834 C71.92108831 297.49408855 74.5853978 297.49227131 77.24971008 297.48982239 C82.24426321 297.4857366 87.23881155 297.48349286 92.23336636 297.48340639 C102.04289791 297.4832035 111.85238015 297.47073499 121.66189575 297.45379639 C123.20682544 297.45119069 124.75175515 297.44859188 126.29668486 297.44599986 C128.63773671 297.44206163 130.97878854 297.43811508 133.31984032 297.43413864 C142.13947414 297.41920156 150.95910944 297.40557118 159.77874756 297.39343262 C160.58476191 297.39231906 161.39077626 297.39120549 162.22121529 297.39005819 C175.29668836 297.37246481 188.3721305 297.3696155 201.44761343 297.37128302 C214.87242323 297.37256107 228.2971177 297.35485493 241.72188318 297.32026505 C250.00316438 297.29959445 258.28416963 297.29429298 266.56546555 297.30859336 C272.23614159 297.31703833 277.90660252 297.30735826 283.57723309 297.28328386 C286.85080426 297.26994884 290.12375222 297.26754422 293.39733696 297.2814045 C296.943162 297.29517599 300.48755862 297.27849669 304.03329468 297.25396729 C305.07199758 297.26532266 306.11070049 297.27667804 307.18087924 297.28837752 C312.80899706 297.2910041 312.80899706 297.2910041 317.40035057 294.30850601 C319.17855943 290.79980786 319.33758154 287.68547471 319.293396 283.83630371 C319.2972229 283.09819962 319.3010498 282.36009552 319.30499268 281.59962463 C319.30770473 280.04560983 319.30039299 278.49154883 319.28363037 276.93762207 C319.26217634 274.56231919 319.28346789 272.19002974 319.309021 269.81481934 C319.30637819 268.30114081 319.30125417 266.78746415 319.293396 265.27380371 C319.30554138 264.21273659 319.30554138 264.21273659 319.31793213 263.13023376 C319.25291804 259.70507644 319.00498965 257.92889829 316.85394287 255.20568848 C313.80560073 252.89701759 312.15687238 252.49613454 308.394207 252.49282551 C307.47082527 252.48960106 306.54744354 252.48637662 305.59608054 252.48305446 C304.57489764 252.48460306 303.55371475 252.48615166 302.50158691 252.48774719 C301.42197008 252.48548164 300.34235325 252.48321608 299.23002076 252.48088187 C295.58804923 252.47451779 291.94611468 252.47537278 288.30413818 252.47619629 C285.70277355 252.47320626 283.10140937 252.4698041 280.50004578 252.46601868 C274.15223381 252.45770018 267.80443113 252.45496327 261.45661417 252.4544063 C256.29700504 252.4539316 251.13739899 252.45187914 245.97779083 252.44870567 C231.35555452 252.43989494 216.73332556 252.43528682 202.11108658 252.43603615 C200.92781656 252.43609608 200.92781656 252.43609608 199.72064209 252.43615723 C198.93083404 252.43619811 198.14102599 252.43623899 197.32728437 252.43628111 C184.53096314 252.43668744 171.73467135 252.42712215 158.93835863 252.41301886 C145.80526013 252.39865844 132.67217598 252.39174853 119.53906941 252.39261264 C112.1634721 252.39294478 104.78790562 252.39019038 97.41231537 252.37943459 C90.47505186 252.36938309 83.53785454 252.36966159 76.60058784 252.37695122 C74.05203977 252.37799945 71.50348768 252.37562008 68.95494652 252.36959076 C65.4801002 252.36190158 62.00548089 252.36649545 58.53063965 252.3742218 C57.51837964 252.36907824 56.50611963 252.36393468 55.46318507 252.35863525 C50.46608414 252.38324473 46.46019061 252.71397601 41.762146 254.62145996 Z M98.762146 335.62145996 C97.78969513 338.53881257 97.63421489 340.39872127 97.62792492 343.43482494 C97.62346708 344.43211563 97.61900923 345.42940632 97.6144163 346.45691794 C97.61460066 347.55553367 97.61478503 348.6541494 97.61497498 349.78605652 C97.61129829 350.95087124 97.6076216 352.11568596 97.6038335 353.3157981 C97.59470532 356.55443161 97.59009667 359.79303534 97.58744419 363.03167951 C97.5835412 366.52261796 97.57396284 370.01354174 97.56523132 373.50447083 C97.54546656 381.93788496 97.5354006 390.3713003 97.52650353 398.80473182 C97.52212057 402.7760345 97.51675378 406.74733584 97.51151466 410.71863747 C97.49450222 423.91997723 97.48000806 437.12131617 97.47276592 450.32266521 C97.47085602 453.74867949 97.46893569 457.17469376 97.46697998 460.60070801 C97.46649624 461.45222884 97.4660125 462.30374968 97.4655141 463.18107418 C97.45721384 476.97508792 97.43187707 490.76901494 97.3993993 504.56299081 C97.36632812 518.72444156 97.3483171 532.88584825 97.34512168 547.04733783 C97.34295662 554.99870703 97.33420855 562.94994978 97.30866051 570.90128136 C97.28695266 577.67307929 97.27890345 584.44472005 97.28862729 591.21654882 C97.29317184 594.67076316 97.29127732 598.12465323 97.27186584 601.57882309 C97.25421717 605.32680493 97.26121977 609.07396326 97.2743988 612.82194519 C97.26342956 613.90940731 97.25246031 614.99686943 97.24115866 616.11728495 C97.29773202 622.77833099 98.39332322 626.87050112 101.762146 632.62145996 C102.48480225 635.44958496 102.48480225 635.44958496 102.824646 637.87145996 C103.36609443 641.69201748 104.40052343 643.59735626 106.762146 646.62145996 C107.092146 647.79708496 107.422146 648.97270996 107.762146 650.18395996 C108.43436748 653.52311998 108.43436748 653.52311998 110.1918335 655.05114746 C112.08264653 656.9419605 112.82596332 658.73537918 113.887146 661.18395996 C116.89108796 667.32476167 121.00885068 671.76572294 125.762146 676.62145996 C126.29581787 677.17946289 126.82948975 677.73746582 127.3793335 678.31237793 C136.35318788 687.69482693 145.32434622 695.36304122 156.762146 701.62145996 C157.9506007 702.30730827 159.13809311 702.99482663 160.324646 703.68395996 C162.56551526 704.94699536 164.83640638 706.15859015 167.137146 707.30895996 C169.762146 708.62145996 169.762146 708.62145996 170.762146 709.62145996 C173.20625474 710.11933397 175.660476 710.52088556 178.121521 710.92614746 C180.762146 711.62145996 180.762146 711.62145996 183.1137085 713.15270996 C186.60266178 715.08758671 189.42048754 715.09780807 193.387146 715.24645996 C200.51999353 715.54074247 200.51999353 715.54074247 203.762146 716.62145996 C205.35381112 716.7142021 206.94903266 716.75214421 208.543396 716.75427246 C209.46765381 716.75556152 210.39191162 716.75685059 211.34417725 716.75817871 C212.78857178 716.75237793 212.78857178 716.75237793 214.262146 716.74645996 C215.70654053 716.75226074 215.70654053 716.75226074 217.18011475 716.75817871 C218.56650146 716.75624512 218.56650146 716.75624512 219.980896 716.75427246 C220.82587646 716.75314453 221.67085693 716.7520166 222.54144287 716.75085449 C224.93658032 716.7080422 224.93658032 716.7080422 227.762146 715.62145996 C231.10271163 715.42665376 234.43675582 715.277071 237.78167725 715.19177246 C242.33071913 714.98846333 245.01336213 714.13573052 248.762146 711.62145996 C250.9730835 711.03161621 250.9730835 711.03161621 253.137146 710.68395996 C256.77722973 709.94877064 259.55833008 708.82406314 262.73480225 706.82849121 C266.3829664 704.65646284 270.26260274 702.91756124 274.090271 701.08630371 C276.50340994 699.76331087 277.91173629 698.59558892 279.762146 696.62145996 C281.46043614 695.64167719 283.15998096 694.6638463 284.871521 693.70739746 C294.29127385 688.29687826 300.24233165 680.36312102 306.90667725 671.94567871 C308.43148923 670.03565107 309.98561065 668.16522047 311.574646 666.30895996 C317.94482232 658.48274334 323.73774318 648.46611728 325.3637085 638.45739746 C325.762146 636.62145996 325.762146 636.62145996 327.387146 634.24645996 C329.60805028 630.00655179 329.47425928 625.3060483 328.762146 620.62145996 C327.84104987 618.35122928 327.84104987 618.35122928 325.762146 616.62145996 C322.89666487 616.20355339 320.41943891 616.03677208 317.5512085 616.05505371 C316.34348282 616.04575584 316.34348282 616.04575584 315.11135864 616.03627014 C313.40837818 616.02916846 311.70532835 616.03235216 310.00238037 616.04504395 C307.40276316 616.05887686 304.8067696 616.02489051 302.2074585 615.98669434 C300.55120762 615.98574278 298.89495225 615.98760393 297.2387085 615.99255371 C296.07754013 615.9726664 296.07754013 615.9726664 294.89291382 615.95237732 C290.83245718 616.0220224 288.98764467 616.44017382 285.78363037 619.01599121 C283.77132462 621.60962974 283.07061856 622.98848914 282.637146 626.18395996 C281.99524516 629.81939835 281.20538075 631.78730765 278.762146 634.62145996 C278.34320068 635.52509277 277.92425537 636.42872559 277.49261475 637.35974121 C275.59577346 640.93505153 273.27221335 643.7087882 270.512146 646.62145996 C270.02197998 647.14546387 269.53181396 647.66946777 269.02679443 648.20935059 C264.0400292 653.48173042 259.21709637 658.12129575 252.7699585 661.54724121 C251.22004074 662.37647737 249.69893653 663.25970881 248.1918335 664.16442871 C242.87373562 667.28270059 238.78417438 669.12007786 232.6137085 669.41442871 C230.05559106 669.70046294 228.76743298 671.06897972 226.762146 672.62145996 C217.67062677 674.40729409 207.2361285 675.1739207 198.918396 670.60974121 C195.78254171 669.17247466 192.58828309 668.81367356 189.199646 668.28161621 C186.45665493 667.5387228 184.96079763 666.38670182 182.762146 664.62145996 C180.43542735 663.60616455 178.1018013 662.60657798 175.762146 661.62145996 C174.09547933 660.62145996 172.42881266 659.62145996 170.762146 658.62145996 C170.102146 658.62145996 169.442146 658.62145996 168.762146 658.62145996 C168.535271 658.02333496 168.308396 657.42520996 168.074646 656.80895996 C166.91310382 654.46009125 166.91310382 654.46009125 164.512146 653.37145996 C159.57408706 650.22905882 156.69788302 645.06651561 153.512146 640.24645996 C151.87246132 637.6010312 151.87246132 637.6010312 149.762146 635.62145996 C149.09547933 633.62145996 148.42881266 631.62145996 147.762146 629.62145996 C147.267146 628.87895996 146.772146 628.13645996 146.262146 627.37145996 C144.41311503 623.98156985 143.90221426 620.81102477 143.28948975 617.02380371 C142.88365617 614.63657266 142.88365617 614.63657266 141.74519491 612.76687241 C140.61149253 610.29267284 140.50995805 608.60544631 140.50601959 605.89251709 C140.4997875 604.93953609 140.4935554 603.9865551 140.48713446 603.00469589 C140.49043343 601.9607378 140.4937324 600.91677971 140.49713135 599.84118652 C140.49055944 598.17420401 140.49055944 598.17420401 140.48385477 596.47354507 C140.47149777 592.73635118 140.4733454 588.99929697 140.47503662 585.26208496 C140.46901483 582.58820963 140.46219416 579.91434788 140.45433044 577.24047852 C140.43887061 571.47615374 140.43046483 565.71185346 140.42662048 559.94750977 C140.42087504 551.60886347 140.40229183 543.27028309 140.38017994 534.9316659 C140.34445443 521.3972851 140.3161432 507.86290058 140.29388428 494.32849121 C140.29254929 493.51835524 140.2912143 492.70821927 140.28983885 491.87353373 C140.27906189 485.29995416 140.26864292 478.72637404 140.25823879 472.15279388 C140.24912912 466.40667188 140.23987652 460.66055013 140.23040771 454.91442871 C140.2284116 453.70070328 140.2284116 453.70070328 140.22637516 452.46245813 C140.2039584 438.97898519 140.17376993 425.49554042 140.13801527 412.01209641 C140.11633325 403.69264253 140.10172492 395.37323252 140.09617651 387.05375195 C140.09193454 381.35555614 140.0807106 375.65740213 140.06395257 369.95922947 C140.05453296 366.66964717 140.0495272 363.38015885 140.05101585 360.09056091 C140.05216891 356.52752798 140.0412074 352.96473397 140.02716064 349.4017334 C140.03210911 347.83579626 140.03210911 347.83579626 140.03715754 346.23822403 C140.03092544 345.28524303 140.02469335 344.33226204 140.0182724 343.35040283 C140.01707822 342.52781857 140.01588405 341.7052343 140.01465368 340.85772324 C139.73259677 338.35976559 139.06956633 336.75753411 137.762146 334.62145996 C133.01708066 331.18777299 126.49621549 332.28804724 120.91766357 332.30578613 C118.83469237 332.30894473 116.75314479 332.28547477 114.67034912 332.26013184 C112.69131592 332.25916504 112.69131592 332.25916504 110.67230225 332.25817871 C109.46710938 332.25519775 108.2619165 332.2522168 107.02020264 332.24914551 C103.45772805 332.65624732 101.57420766 333.42420449 98.762146 335.62145996 Z M32.09417725 339.47302246 C28.13016238 343.12496246 24.94172593 347.28793326 21.762146 351.62145996 C21.432146 351.95145996 21.102146 352.28145996 20.762146 352.62145996 C18.76415096 360.38554238 18.53620567 367.96500577 18.699646 375.93395996 C18.80713596 382.26790563 18.81722838 388.50805031 18.26852417 394.82328796 C17.60109329 403.83007303 17.62178713 412.81399342 17.63275146 421.84143066 C17.63139342 423.73707106 17.62961123 425.63271119 17.62744141 427.52835083 C17.62291413 432.63801107 17.62463739 437.74765093 17.62782049 442.85731149 C17.63036966 448.23183509 17.62799937 453.60635706 17.62643433 458.98088074 C17.62461959 468.00617788 17.62700016 477.03146681 17.6317749 486.0567627 C17.63721122 496.45180461 17.63545663 506.84682688 17.6299485 517.24186832 C17.62539158 526.2045519 17.62477954 535.16722962 17.62738717 544.12991399 C17.62893644 549.46619849 17.62918118 554.80247381 17.62585068 560.13875771 C17.62293449 565.16133276 17.62501558 570.18388284 17.63074493 575.20645523 C17.63205284 577.03602876 17.63171251 578.86560444 17.62948227 580.69517708 C17.61978536 589.46758531 17.70797545 598.21196291 18.20773315 606.9719696 C18.24646888 607.65726944 18.2852046 608.34256928 18.32511413 609.04863578 C18.57536209 612.96202303 19.07709557 616.7625134 19.762146 620.62145996 C19.85462258 622.17971422 19.91479282 623.74032299 19.93792725 625.30114746 C19.9617749 626.14806152 19.98562256 626.99497559 20.01019287 627.86755371 C20.05296409 629.61210097 20.08432187 631.35696753 20.10394287 633.10192871 C20.28009351 638.50115073 21.21574719 642.16024309 23.86004639 646.86608887 C25.06334506 649.20755503 25.26143476 651.25872897 25.324646 653.87145996 C25.43399363 657.91089009 26.34354438 659.44589142 28.762146 662.62145996 C29.40693549 665.13613898 29.76148055 667.61691272 30.137146 670.18395996 C30.84677864 672.95152726 32.00684052 674.39717974 33.762146 676.62145996 C34.64105225 678.69177246 34.64105225 678.69177246 35.324646 680.74645996 C36.2315905 683.46216949 36.68405923 684.54337319 38.762146 686.62145996 C39.071521 687.75583496 39.380896 688.89020996 39.699646 690.05895996 C40.74035692 693.54840248 41.1868148 694.3551685 43.762146 696.62145996 C44.79650156 698.26702562 45.78978113 699.93852076 46.762146 701.62145996 C50.90207172 708.68561893 55.81120479 715.1107532 60.762146 721.62145996 C61.84617148 723.10011945 62.92960775 724.5792113 64.012146 726.05895996 C67.80134153 731.09391842 72.29260285 735.11073035 77.0824585 739.16052246 C79.42544958 741.19837982 81.56668627 743.42600023 83.762146 745.62145996 C91.78146817 753.16809851 100.45034923 759.76670298 109.871521 765.47302246 C111.16581745 766.25922733 112.44671634 767.06779983 113.715271 767.89489746 C117.79253397 770.54351317 121.86188732 772.62264584 126.33636475 774.51599121 C129.11320865 775.78144504 131.73060414 777.24556832 134.387146 778.74645996 C138.46416265 781.01210013 142.21941093 782.48577619 146.762146 783.62145996 C153.22967846 786.08899243 153.22967846 786.08899243 154.762146 787.62145996 C157.88060476 788.03524822 160.99653396 788.39182873 164.12738037 788.69567871 C169.38868394 789.30255439 169.38868394 789.30255439 171.51361084 791.11706543 C174.65750692 793.220506 177.70475509 793.22495958 181.37542725 793.38708496 C182.12967987 793.43010239 182.8839325 793.47311981 183.66104126 793.5174408 C186.13171244 793.65181539 188.60270346 793.76316002 191.074646 793.87145996 C191.91806549 793.91259918 192.76148499 793.9537384 193.63046265 793.99612427 C210.05246138 794.78918636 226.34825851 794.63646635 242.762146 793.62145996 C244.3082959 793.54145752 244.3082959 793.54145752 245.88568115 793.45983887 C251.11271709 793.11369487 254.33959095 792.56982999 258.762146 789.62145996 C262.29901749 788.96648376 265.81037549 788.6164707 269.387146 788.24645996 C272.87247976 787.60102778 274.81196233 786.50643588 277.762146 784.62145996 C280.07855225 783.99645996 280.07855225 783.99645996 282.324646 783.62145996 C285.96476711 782.89821751 287.8308494 781.91153542 290.762146 779.62145996 C292.22830638 779.08451698 293.70981155 778.5887151 295.199646 778.12145996 C299.94514215 776.62492278 303.55632827 774.46028969 307.637146 771.62145996 C310.762146 769.62145996 310.762146 769.62145996 314.137146 768.24645996 C317.83054784 766.59079707 320.55329156 764.64399328 323.715271 762.16833496 C325.73266332 760.64374076 327.79088286 759.31119541 329.949646 757.99645996 C334.00661231 755.50839859 337.5754701 752.80813586 340.949646 749.43395996 C343.42469091 746.95891505 345.96104207 744.63482768 348.574646 742.30895996 C359.23259398 732.73887945 368.41198727 722.26958054 376.762146 710.62145996 C377.49884521 709.59665527 377.49884521 709.59665527 378.25042725 708.55114746 C381.83827786 703.3779675 384.66979216 698.00617258 387.36761475 692.32067871 C388.64658003 689.84514646 390.07478996 687.82478437 391.762146 685.62145996 C392.80933397 683.30891985 393.80560964 680.97294516 394.762146 678.62145996 C395.277771 677.46645996 395.793396 676.31145996 396.324646 675.12145996 C397.74824479 671.65530637 398.75026631 668.22628135 399.762146 664.62145996 C400.25064514 663.30463619 400.75111327 661.99220375 401.262146 660.68395996 C402.52664606 657.4025823 403.41168157 654.1478661 404.19769287 650.7244873 C404.762146 648.62145996 404.762146 648.62145996 406.262146 644.97692871 C408.02798174 640.32868914 408.48933426 635.87185233 408.762146 630.93395996 C408.83820068 630.1057373 408.91425537 629.27751465 408.99261475 628.42419434 C409.04031006 627.6191748 409.08800537 626.81415527 409.137146 625.98474121 C409.18613037 625.26584717 409.23511475 624.54695313 409.2855835 623.80627441 C408.43345596 620.24951633 406.6166056 618.81668883 403.762146 616.62145996 C401.03540216 616.13224336 398.94527503 615.93965715 396.230896 615.99255371 C395.51735962 615.99014175 394.80382324 615.9877298 394.06866455 615.98524475 C392.56588156 615.98622061 391.06306146 615.99955231 389.56048584 616.02453613 C387.26838312 616.05886654 384.98013627 616.04518234 382.68792725 616.02575684 C381.22306719 616.03265578 379.75821703 616.04232863 378.293396 616.05505371 C377.27288147 616.04761391 377.27288147 616.04761391 376.23175049 616.0400238 C371.51207493 616.15605297 369.06916432 617.27377356 365.762146 620.62145996 C365.09929371 622.62118774 365.09929371 622.62118774 365.199646 624.74645996 C364.94231162 629.37091009 363.56934413 632.83835777 361.74261475 637.05895996 C360.43518075 640.47599862 359.82134152 643.8880027 359.2543335 647.49255371 C358.762146 649.62145996 358.762146 649.62145996 356.762146 652.62145996 C355.94424035 654.9156853 355.24776368 657.23156229 354.543396 659.56286621 C353.762146 661.62145996 353.762146 661.62145996 351.762146 663.62145996 C351.390896 665.13739746 351.390896 665.13739746 351.012146 666.68395996 C349.68320545 671.67006247 346.72713018 675.46912512 343.762146 679.62145996 C343.18851318 680.45161621 342.61488037 681.28177246 342.02386475 682.13708496 C338.74978619 686.87034265 335.38204191 691.500026 331.82855225 696.02770996 C330.57677611 697.57889316 330.57677611 697.57889316 330.762146 699.62145996 C330.102146 699.62145996 329.442146 699.62145996 328.762146 699.62145996 C327.36872699 701.07795563 327.36872699 701.07795563 325.887146 702.99645996 C317.44226422 712.88953427 305.36763414 722.34605225 293.68792725 728.14880371 C290.78593888 729.6094841 288.40405626 731.28159314 285.824646 733.24645996 C281.70144937 736.21194222 278.85319403 737.1223376 273.762146 737.62145996 C272.957771 738.28145996 272.153396 738.94145996 271.324646 739.62145996 C268.39821195 741.90550604 266.41538878 742.00783596 262.7855835 742.27770996 C260.04317645 742.74360151 258.12364778 744.22835167 255.8168335 745.71130371 C252.2486915 747.29186851 248.48563239 747.16522714 244.6293335 747.25036621 C241.71176702 747.42745827 241.71176702 747.42745827 239.3949585 749.08630371 C232.42323344 753.15141936 222.82823988 751.80765695 214.98114014 751.8067627 C212.83307123 751.80895138 210.68551525 751.82716496 208.53753662 751.84606934 C192.21571084 751.91439513 192.21571084 751.91439513 185.74871826 748.58483887 C181.66196875 746.60298885 176.7629668 746.73473215 172.293396 746.28161621 C168.7468562 745.61860158 167.44870096 744.86524195 164.762146 742.62145996 C163.586521 742.45645996 162.410896 742.29145996 161.199646 742.12145996 C157.39996759 741.56877947 157.24388149 741.17373574 154.762146 738.62145996 C152.85358835 737.8975243 150.94275232 737.17844007 149.01605225 736.50427246 C145.0499064 734.95080806 141.42550266 732.77869692 137.762146 730.62145996 C137.00417725 730.18833496 136.2462085 729.75520996 135.465271 729.30895996 C121.37708948 720.51402584 109.07140027 709.33247703 97.699646 697.30895996 C97.1509082 696.73419922 96.60217041 696.15943848 96.0368042 695.56726074 C92.85196533 692.12869156 90.78979936 688.88735384 88.762146 684.62145996 C88.27230225 684.13290527 87.7824585 683.64435059 87.277771 683.14099121 C85.00498551 680.86234803 83.9112228 678.19537308 82.512146 675.30895996 C81.89933582 674.04961604 81.28604017 672.79050826 80.67230225 671.53161621 C80.35922119 670.88595703 80.04614014 670.24029785 79.72357178 669.57507324 C78.7805384 667.65883325 77.80735357 665.76167314 76.82073975 663.86755371 C73.6949121 657.83738839 71.1703623 652.2784825 69.762146 645.62145996 C69.102146 644.96145996 68.442146 644.30145996 67.762146 643.62145996 C67.26398209 640.29667712 66.92688759 636.99819117 66.63909912 633.65075684 C66.31145452 630.4599117 66.05333266 628.06172833 64.26323891 625.35514259 C62.36377358 621.89597273 62.20237874 618.82020081 62.08450317 614.96456909 C62.03490261 613.7961792 62.03490261 613.7961792 61.98430002 612.60418546 C61.55317697 601.12015394 61.60906793 589.62182788 61.60443115 578.13171387 C61.59975309 575.50503964 61.59460792 572.87836621 61.58903503 570.25169373 C61.57760548 564.63222034 61.56931245 559.01274982 61.5629158 553.39326859 C61.55251224 544.51060301 61.53193536 535.62797378 61.50979614 526.74533081 C61.50232044 523.6973592 61.49490634 520.64938744 61.48750877 517.60141563 C61.48565821 516.84018639 61.48380764 516.07895714 61.481901 515.29466034 C61.46105218 506.66596681 61.44218023 498.0372694 61.42425537 489.40856934 C61.42261719 488.62130346 61.42097901 487.83403759 61.41929118 487.02291517 C61.39291492 474.21981235 61.37431342 461.41670667 61.35766347 448.61358805 C61.3402576 435.44154037 61.31144244 422.26954935 61.2727741 409.09754694 C61.24938108 400.98443862 61.23538019 392.87142258 61.23344646 384.75828026 C61.2310926 378.55672489 61.21325753 372.35530382 61.1895771 366.15379524 C61.1823582 363.60762908 61.18029559 361.06144247 61.18367958 358.51526833 C61.18755177 355.04921165 61.17319321 351.58370146 61.15414429 348.1177063 C61.15967398 347.10275262 61.16520368 346.08779895 61.17090094 345.0420891 C61.1620611 344.11515887 61.15322126 343.18822864 61.14411354 342.23320961 C61.14207875 341.03349996 61.14207875 341.03349996 61.14000285 339.80955374 C60.66116945 337.03672491 59.67605081 335.66008287 57.762146 333.62145996 C48.50317327 331.06373269 39.53432146 333.77572301 32.09417725 339.47302246 Z " fill="#FAFAFA" transform="translate(390.23785400390625,155.3785400390625)"/>
<path d="M0 0 C0.33 0.99 0.66 1.98 1 3 C-0.2065625 4.11375 -0.2065625 4.11375 -1.4375 5.25 C-3.76988591 7.75304829 -4.63534394 8.7180955 -5 12 C-5.99 11.34 -6.98 10.68 -8 10 C-5.36 6.7 -2.72 3.4 0 0 Z " fill="#DADADA" transform="translate(758,876)"/>
<path d="M0 0 C0 3 0 3 -1.3125 4.38671875 C-2.875 5.59114583 -4.4375 6.79557292 -6 8 C-5.65120368 4.74456771 -4.97866739 3.98126893 -2.4375 1.75 C-1.633125 1.1725 -0.82875 0.595 0 0 Z " fill="#E3E3E3" transform="translate(405,465)"/>
</svg>
